<svg viewBox="0 0 73.27 75.76" xmlns="http://www.w3.org/2000/svg" xmlns:xlink="http://www.w3.org/1999/xlink"><linearGradient id="a" gradientUnits="userSpaceOnUse" x1="34.64" x2="19" y1="15.35" y2="30.99"><stop offset=".18" stop-color="#0052cc"/><stop offset="1" stop-color="#2684ff"/></linearGradient><linearGradient id="b" x1="38.78" x2="54.39" xlink:href="#a" y1="60.28" y2="44.67"/><path d="m72.4 35.76-32.6-32.6-3.16-3.16-24.54 24.54-11.22 11.22a3 3 0 0 0 0 4.24l22.42 22.42 13.34 13.34 24.54-24.54.38-.38 10.84-10.84a3 3 0 0 0 0-4.24zm-35.76 13.32-11.2-11.2 11.2-11.2 11.2 11.2z" fill="#2684ff"/><path d="m36.64 26.68a18.86 18.86 0 0 1 -.08-26.59l-24.51 24.5 13.34 13.34z" fill="url(#a)"/><path d="m47.87 37.85-11.23 11.23a18.86 18.86 0 0 1 0 26.68l24.57-24.57z" fill="url(#b)"/></svg>