<svg width="510" height="701" viewBox="0 0 510 701" fill="none" xmlns="http://www.w3.org/2000/svg">
<rect width="551.001" height="714" fill="black" fill-opacity="0"/>
<circle cx="1" cy="1" r="1" fill="white" fill-opacity="0.23"/>
<rect width="551.001" height="586" fill="black" fill-opacity="0" transform="translate(0 128)"/>
<rect width="551.001" height="586" fill="black" fill-opacity="0" transform="translate(0 128)"/>
<rect width="551.001" height="586" fill="black" fill-opacity="0" transform="translate(0 128)"/>
<path d="M163.722 159.858H42.3145C36.4249 159.858 31.6504 164.634 31.6504 170.525V265C31.6504 270.891 36.4249 275.666 42.3145 275.666H163.722C169.612 275.666 174.386 270.891 174.386 265V170.525C174.386 164.634 169.612 159.858 163.722 159.858Z" fill="url(#paint0_linear)"/>
<rect width="89.2452" height="90.314" fill="black" fill-opacity="0" transform="translate(58.3867 185.354)"/>
<path d="M81.2992 258.691C72.3628 262.345 64.485 268.182 58.3867 275.668H147.632C141.557 268.193 133.71 262.357 124.804 258.691C122.124 257.607 119.827 255.751 118.205 253.358C116.583 250.964 115.71 248.143 115.696 245.251C115.673 243.163 116.113 241.096 116.983 239.198C117.854 237.3 119.134 235.618 120.731 234.273C125.088 230.637 128.222 225.748 129.708 220.27C131.194 214.792 130.959 208.99 129.037 203.649C127.114 198.309 123.596 193.689 118.96 190.417C114.323 187.144 108.793 185.376 103.118 185.354C97.4439 185.331 91.8997 187.055 87.2375 190.291C82.5753 193.526 79.0207 198.118 77.0556 203.443C75.0906 208.768 74.8101 214.568 76.2523 220.058C77.6945 225.548 80.7896 230.461 85.1179 234.132C86.7406 235.496 88.0468 237.197 88.9457 239.118C89.8445 241.038 90.3144 243.131 90.3227 245.251C90.327 248.135 89.4706 250.955 87.863 253.35C86.2554 255.744 83.9699 257.604 81.2992 258.691Z" fill="#77E8BE" fill-opacity="0.54"/>
<path d="M540.337 523.325H418.93C413.04 523.325 408.266 528.101 408.266 533.992V628.466C408.266 634.358 413.04 639.133 418.93 639.133H540.337C546.227 639.133 551.001 634.358 551.001 628.466V533.992C551.001 528.101 546.227 523.325 540.337 523.325Z" fill="url(#paint1_linear)"/>
<path d="M498.273 595.514C503.506 591.144 507.27 585.271 509.054 578.69C510.837 572.109 510.555 565.138 508.244 558.723C505.934 552.307 501.707 546.758 496.137 542.827C490.567 538.896 483.923 536.772 477.106 536.745C470.289 536.718 463.629 538.789 458.028 542.676C452.427 546.563 448.156 552.078 445.795 558.475C443.434 564.872 443.096 571.84 444.827 578.435C446.559 585.03 450.276 590.933 455.475 595.344C457.425 596.982 458.994 599.025 460.074 601.331C461.154 603.638 461.717 606.152 461.726 608.699C461.729 612.16 460.699 615.543 458.769 618.416C456.839 621.289 454.097 623.521 450.892 624.827C443.177 627.984 436.096 632.508 429.988 638.181H524.014C517.927 632.536 510.875 628.032 503.195 624.883C499.971 623.584 497.208 621.353 495.258 618.475C493.308 615.597 492.26 612.204 492.248 608.727C492.224 606.218 492.752 603.734 493.793 601.451C494.834 599.168 496.363 597.141 498.273 595.514Z" fill="#4975A8" fill-opacity="0.972549"/>
<path d="M444.502 616.479C443.637 616.475 442.788 616.247 442.038 615.818C441.287 615.388 440.661 614.772 440.219 614.028C439.778 613.284 439.537 612.439 439.519 611.574C439.501 610.71 439.707 609.855 440.117 609.094C442.222 605.069 443.319 600.593 443.314 596.05V571.321C443.31 562.325 446.812 553.682 453.075 547.226C459.339 540.77 467.872 537.011 476.862 536.746C481.519 536.717 486.131 537.661 490.403 539.517C494.675 541.373 498.512 544.101 501.67 547.526C507.539 554.028 510.741 562.505 510.636 571.265V596.022C510.631 600.561 511.718 605.035 513.805 609.066C514.208 609.826 514.409 610.678 514.388 611.538C514.366 612.399 514.124 613.239 513.683 613.979C513.242 614.718 512.619 615.331 511.872 615.759C511.125 616.187 510.281 616.416 509.42 616.422L444.502 616.479Z" fill="#4974A7"/>
<g style="mix-blend-mode:multiply">
<path d="M466.028 523.325C460.943 535.336 453.038 545.943 442.983 554.247C432.927 562.552 421.018 568.308 408.266 571.029V607.104C430.547 603.85 451.409 594.205 468.322 579.335C485.236 564.466 497.478 545.011 503.564 523.325H466.028Z" fill="#333E50" fill-opacity="0.2"/>
</g>
<path d="M262.447 128H195.605C192.372 128 189.75 130.622 189.75 133.857V185.862C189.75 189.096 192.372 191.718 195.605 191.718H262.447C265.681 191.718 268.303 189.096 268.303 185.862V133.857C268.303 130.622 265.681 128 262.447 128Z" fill="#1EECC2"/>
<path d="M386.99 650.282H320.148C316.915 650.282 314.293 652.904 314.293 656.139V708.144C314.293 711.378 316.915 714.001 320.148 714.001H386.99C390.224 714.001 392.846 711.378 392.846 708.144V656.139C392.846 652.904 390.224 650.282 386.99 650.282Z" fill="#FFE380"/>
<path d="M296.361 615.34H246.519C244.098 615.34 242.135 617.303 242.135 619.725V658.517C242.135 660.939 244.098 662.902 246.519 662.902H296.361C298.782 662.902 300.745 660.939 300.745 658.517V619.725C300.745 617.303 298.782 615.34 296.361 615.34Z" fill="#4C9AFF"/>
<path d="M494.595 329.029H444.754C442.332 329.029 440.369 330.993 440.369 333.415V372.206C440.369 374.628 442.332 376.592 444.754 376.592H494.595C497.017 376.592 498.979 374.628 498.979 372.206V333.415C498.979 330.993 497.017 329.029 494.595 329.029Z" fill="#4651F1"/>
<path d="M330.363 580.452L373.783 622.497C374.29 622.981 374.927 623.304 375.616 623.428C376.305 623.551 377.015 623.469 377.658 623.191C378.3 622.914 378.847 622.453 379.229 621.867C379.612 621.28 379.813 620.594 379.808 619.894L379.384 594.429C388.45 594.287 397.468 593.091 406.257 590.864C431.032 584.545 453.04 570.248 468.888 550.178C484.735 530.109 493.54 505.381 493.946 479.81C493.954 479.332 493.865 478.858 493.686 478.415C493.507 477.972 493.24 477.57 492.903 477.232C492.565 476.894 492.163 476.627 491.72 476.448C491.277 476.269 490.803 476.18 490.325 476.188L461.897 476.641C460.984 476.655 460.111 477.022 459.463 477.666C458.814 478.309 458.44 479.179 458.418 480.093C457.874 500.936 449.301 520.764 434.49 535.437C419.679 550.109 399.774 558.492 378.932 558.835L378.507 533.371C378.49 532.67 378.266 531.99 377.865 531.416C377.463 530.842 376.901 530.399 376.249 530.142C375.597 529.885 374.884 529.827 374.199 529.973C373.514 530.12 372.887 530.465 372.397 530.965L330.363 574.397C329.597 575.219 329.172 576.301 329.172 577.425C329.172 578.548 329.597 579.63 330.363 580.452Z" fill="url(#paint2_linear)"/>
<path d="M163.583 285.656L120.163 243.639C119.657 243.155 119.019 242.832 118.33 242.708C117.641 242.585 116.931 242.667 116.289 242.945C115.646 243.222 115.1 243.683 114.717 244.269C114.335 244.856 114.133 245.542 114.138 246.242L114.562 271.707C105.497 271.849 96.4789 273.045 87.6899 275.272C62.9146 281.591 40.906 295.888 25.0588 315.957C9.21157 336.027 0.406018 360.755 0.000456079 386.326C-0.00718682 386.804 0.0813002 387.278 0.260552 387.721C0.439805 388.164 0.706199 388.566 1.04395 388.904C1.3817 389.242 1.78386 389.508 2.2266 389.688C2.66934 389.867 3.14358 389.956 3.62117 389.948L32.3041 389.58C33.2175 389.566 34.09 389.198 34.7385 388.555C35.3871 387.911 35.7615 387.042 35.7833 386.128C36.3275 365.284 44.9001 345.456 59.7112 330.784C74.5222 316.111 94.4268 307.729 115.27 307.385L115.694 332.85C115.711 333.551 115.935 334.231 116.336 334.805C116.738 335.379 117.3 335.822 117.952 336.079C118.604 336.335 119.317 336.394 120.002 336.248C120.687 336.101 121.314 335.756 121.804 335.255L163.838 291.824C164.603 290.963 165.005 289.839 164.957 288.688C164.91 287.537 164.417 286.45 163.583 285.656Z" fill="#4552DE"/>
<path d="M305.896 401.038H72.1898C68.7528 401.038 65.9668 403.825 65.9668 407.263V582.8C65.9668 586.238 68.7528 589.025 72.1898 589.025H305.896C309.333 589.025 312.119 586.238 312.119 582.8V407.263C312.119 403.825 309.333 401.038 305.896 401.038Z" fill="url(#paint3_linear)"/>
<path d="M175.493 567.436C168.216 564.222 161.771 559.382 156.654 553.289C156.549 553.161 156.472 553.013 156.428 552.853C156.385 552.693 156.377 552.525 156.403 552.362C156.43 552.198 156.492 552.042 156.584 551.904C156.676 551.767 156.796 551.65 156.937 551.563C158.468 550.858 159.927 550.005 161.293 549.017L151.308 549.526C150.593 549.56 149.899 549.784 149.3 550.177L106.869 573.972L99.7129 588.911H186.158L176.568 568.398C176.341 567.955 175.958 567.613 175.493 567.436Z" fill="#B3F5FF"/>
<path d="M262.875 572.559L228.535 550.292C227.936 549.9 227.242 549.675 226.527 549.641L216.145 549.104C217.498 550.097 218.948 550.95 220.473 551.65C220.615 551.736 220.737 551.85 220.832 551.986C220.927 552.121 220.993 552.275 221.025 552.438C221.057 552.6 221.054 552.768 221.018 552.929C220.981 553.091 220.912 553.243 220.813 553.376C215.696 559.469 209.251 564.309 201.974 567.523C201.54 567.717 201.19 568.057 200.984 568.485L191.281 589.083H273.851L262.875 572.559Z" fill="#B3F5FF"/>
<path d="M202.021 567.436C209.299 564.221 215.743 559.382 220.86 553.289C220.959 553.156 221.029 553.003 221.065 552.842C221.102 552.68 221.104 552.513 221.072 552.35C221.04 552.188 220.975 552.034 220.88 551.898C220.785 551.763 220.663 551.648 220.521 551.563C218.995 550.863 217.545 550.01 216.193 549.016C215.749 548.624 215.426 548.113 215.259 547.545C214.252 542.997 213.881 538.331 214.156 533.681H163.353C163.628 538.331 163.257 542.997 162.25 547.545C162.079 548.126 161.745 548.647 161.288 549.044C159.922 550.033 158.463 550.885 156.932 551.591C156.791 551.678 156.671 551.795 156.579 551.932C156.486 552.07 156.425 552.226 156.398 552.389C156.371 552.553 156.38 552.72 156.423 552.88C156.466 553.04 156.543 553.189 156.649 553.317C161.766 559.41 168.211 564.249 175.488 567.464C175.921 567.657 176.272 567.998 176.478 568.426L186.209 589.024H191.272L200.975 568.426C201.189 567.978 201.562 567.625 202.021 567.436Z" fill="url(#paint4_linear)"/>
<path d="M239.929 483.798C240.099 488.862 231.67 499.586 226.634 499.756C221.599 499.925 221.797 489.485 221.628 484.448C221.531 483.215 221.685 481.976 222.08 480.803C222.475 479.631 223.103 478.551 223.926 477.629C224.749 476.706 225.75 475.959 226.87 475.433C227.989 474.908 229.203 474.614 230.439 474.57C231.675 474.526 232.907 474.733 234.06 475.178C235.214 475.622 236.266 476.296 237.153 477.158C238.039 478.02 238.742 479.053 239.22 480.194C239.697 481.335 239.938 482.561 239.929 483.798Z" fill="#79E2F2"/>
<path d="M136.116 483.8C135.946 488.865 144.376 499.588 149.411 499.758C154.446 499.928 154.248 489.487 154.417 484.451C154.4 482.088 153.471 479.822 151.824 478.127C150.177 476.432 147.94 475.439 145.578 475.355C143.217 475.271 140.914 476.103 139.151 477.677C137.388 479.25 136.301 481.444 136.116 483.8Z" fill="url(#paint5_linear)"/>
<path d="M182.225 542.878C186.175 543.984 190.353 543.984 194.304 542.878C225.589 534.107 220.554 530.966 232.604 477.802C239.506 447.329 234.527 413.234 188.278 414.649C142.001 413.234 137.022 447.329 143.953 477.802C155.862 530.995 150.855 534.107 182.225 542.878Z" fill="#3F529D"/>
<path d="M187.883 524.712C196.51 524.401 200.159 528.73 203.44 526.212C204.738 525.049 205.577 523.459 205.805 521.731C206.034 520.003 205.636 518.25 204.685 516.79C204.034 516.139 203.327 515.998 199.197 515.771C191.758 515.375 191.022 515.63 187.6 515.262C185.5 514.861 183.372 514.624 181.235 514.555C179.155 514.669 177.09 514.982 175.069 515.488C172.551 515.998 171.306 516.281 170.882 516.79C169.185 518.799 170.628 524.458 174.079 526.495C177.53 528.532 180.302 524.995 187.883 524.712Z" fill="url(#paint6_linear)"/>
<path d="M188.167 502.076C201.094 502.076 210.287 509.518 216.708 505.387C223.129 501.256 226.779 485.581 228.589 479.922C230.218 474.56 230.557 468.888 229.579 463.37C229.211 461.191 226.609 458.418 225.449 453.382C225.109 451.883 224.882 450.36 224.77 448.827C219.385 448.131 213.938 448.046 208.533 448.572C187.431 450.638 177.899 461.163 164.632 457.06C160.019 455.579 155.914 452.834 152.78 449.138C151.347 450.864 150.14 452.766 149.188 454.797C147.918 457.478 147.078 460.343 146.698 463.285C145.899 468.812 146.235 474.445 147.688 479.837C149.527 485.496 153.176 501.284 159.569 505.302C165.962 509.32 175.24 502.105 188.167 502.076Z" fill="url(#paint7_linear)"/>
<g style="mix-blend-mode:multiply">
<path d="M305.894 401.038H157.162V495.626C157.162 496.443 157.323 497.252 157.636 498.008C157.949 498.763 158.407 499.449 158.985 500.027C159.563 500.605 160.249 501.064 161.004 501.376C161.759 501.689 162.568 501.85 163.385 501.85H312.118V407.263C312.118 405.612 311.462 404.029 310.295 402.861C309.128 401.694 307.545 401.038 305.894 401.038Z" fill="#333E50" fill-opacity="0.22"/>
</g>
<path d="M417.855 293.095H184.149C180.712 293.095 177.926 295.882 177.926 299.319V474.857C177.926 478.294 180.712 481.081 184.149 481.081H417.855C421.292 481.081 424.078 478.294 424.078 474.857V299.319C424.078 295.882 421.292 293.095 417.855 293.095Z" fill="url(#paint8_linear)"/>
<path d="M254.018 365.417C248.604 371.02 245.451 378.426 245.164 386.213C245.429 393.739 248.107 400.98 252.801 406.868C258.459 413.828 261.287 414.111 261.627 417.676C262.277 425.627 246.097 428.626 236.621 441.443C232.152 447.47 227.796 457.542 229.521 474.943C252.467 465.149 276.736 458.808 301.539 456.128C323.83 453.808 335.795 455.788 345.582 459.099C355.645 462.54 364.979 467.827 373.105 474.689C375.114 468.899 375.927 462.761 375.494 456.647C375.062 450.534 373.392 444.572 370.588 439.123C366.206 431.161 359.453 424.763 351.268 420.817C350.595 419.337 350.046 417.804 349.627 416.233C347.279 407.433 349.09 400.558 352.456 391.617C358.113 376.423 359.188 361.314 352.032 346.346C345.791 333.638 335.543 323.337 322.868 317.033C314.003 312.657 304.21 310.492 294.326 310.724C291.173 310.818 288.036 311.226 284.963 311.941C274.46 314.173 265.158 320.222 258.855 328.917C248.417 344.507 253.169 362.417 254.018 365.417Z" fill="#E3E9EC"/>
<path d="M278.401 435.925C264.059 443.508 247.059 447.243 235.405 458.561C229.097 464.672 225.448 472.878 221.742 480.998H380.799C376.28 472.244 370.569 464.16 363.827 456.976C352.513 445.828 340.01 442.999 325.838 435.812L302.077 434.511L278.401 435.925Z" fill="#4552DD"/>
<path d="M328.017 440.171C327.196 441.303 316.702 455.11 299.079 454.318C294.14 454.017 289.319 452.677 284.932 450.385C280.545 448.094 276.691 444.902 273.621 441.02C276.476 437.815 278.429 433.909 279.278 429.702C280.344 423.327 278.927 416.786 275.318 411.424L325.98 409.613C323.381 415.774 322.643 422.561 323.859 429.136C324.575 433.033 325.983 436.771 328.017 440.171Z" fill="url(#paint9_linear)"/>
<path d="M262.869 392.011C268.337 392.011 272.77 387.577 272.77 382.108C272.77 376.639 268.337 372.205 262.869 372.205C257.401 372.205 252.969 376.639 252.969 382.108C252.969 387.577 257.401 392.011 262.869 392.011Z" fill="url(#paint10_linear)"/>
<path d="M336.133 392.719C341.601 392.719 346.033 388.285 346.033 382.816C346.033 377.347 341.601 372.913 336.133 372.913C330.665 372.913 326.232 377.347 326.232 382.816C326.232 388.285 330.665 392.719 336.133 392.719Z" fill="url(#paint11_linear)"/>
<path d="M339.67 377.668C339.127 387.71 335.689 397.381 329.769 405.51C326.375 410.15 315.202 425.316 298.908 424.693C285.868 424.156 277.269 413.715 272.234 407.717C265.149 399.205 260.766 388.772 259.646 377.753C258.049 367.373 260.109 356.761 265.473 347.733C272.206 337.208 285.529 327.588 301.341 328.691C318.087 329.851 327.818 342.357 330.307 345.668C337.172 354.862 340.496 366.222 339.67 377.668Z" fill="#EFC7B0"/>
<path d="M339.756 377.498L338.342 372.405C333.589 355.627 331.157 347.195 328.809 345.073C324.594 341.225 321.143 343.856 300.069 343.969C279.703 343.969 275.997 341.649 270.906 345.752C264.796 350.647 262.703 360.097 261.118 367.171C260.361 370.568 259.888 374.022 259.704 377.498C256.649 358.88 262.759 340.942 275.799 331.803C282.928 327.188 291.238 324.732 299.73 324.732C308.221 324.732 316.532 327.188 323.661 331.803C336.701 340.942 342.783 358.88 339.756 377.498Z" fill="#E3E9EC"/>
<path d="M257.724 344.194C260.185 350.277 267.483 352.06 272.942 353.39C274.752 353.843 278.599 354.635 291.611 353.871C305.925 353.05 309.093 352.456 316.278 353.616C318.324 353.835 320.297 354.498 322.061 355.558C323.825 356.619 325.336 358.051 326.489 359.756C329.148 364.17 326.489 367.452 329.318 371.979C330.538 373.562 332.068 374.88 333.814 375.852C335.56 376.825 337.485 377.433 339.473 377.638C342.036 377.863 344.613 377.405 346.94 376.308C346.956 376.253 346.956 376.194 346.94 376.138C347.332 364.687 343.951 353.425 337.316 344.085C330.682 334.745 321.163 327.844 310.224 324.445C298.095 320.593 285.159 320.036 272.744 322.832C268.547 323.513 264.67 325.492 261.656 328.491C258.346 332.141 255.461 338.649 257.724 344.194Z" fill="#E3E9EC"/>
<path d="M407.103 315.308L397.938 318.562V315.195C397.938 314.04 397.479 312.931 396.662 312.114C395.845 311.297 394.737 310.838 393.582 310.838H368.124C366.968 310.838 365.86 311.297 365.043 312.114C364.227 312.931 363.768 314.04 363.768 315.195V335.001C363.768 335.573 363.88 336.14 364.099 336.669C364.318 337.197 364.639 337.678 365.043 338.082C365.448 338.487 365.928 338.808 366.457 339.027C366.985 339.246 367.552 339.358 368.124 339.358H393.582C394.154 339.358 394.72 339.246 395.249 339.027C395.778 338.808 396.258 338.487 396.662 338.082C397.067 337.678 397.388 337.197 397.607 336.669C397.825 336.14 397.938 335.573 397.938 335.001V331.351L407.103 334.633C407.234 334.678 407.374 334.691 407.511 334.671C407.649 334.651 407.779 334.599 407.892 334.519C408.006 334.439 408.098 334.333 408.162 334.211C408.227 334.088 408.261 333.951 408.263 333.813V316.129C408.261 315.99 408.227 315.854 408.162 315.731C408.098 315.608 408.006 315.503 407.892 315.423C407.779 315.342 407.649 315.29 407.511 315.27C407.374 315.251 407.234 315.264 407.103 315.308ZM387.698 325.07C387.698 326.346 387.32 327.593 386.611 328.654C385.903 329.715 384.896 330.542 383.717 331.03C382.539 331.518 381.242 331.646 379.991 331.397C378.74 331.148 377.59 330.534 376.688 329.631C375.787 328.729 375.172 327.58 374.923 326.328C374.674 325.077 374.802 323.78 375.29 322.601C375.779 321.422 376.605 320.415 377.666 319.706C378.726 318.997 379.973 318.619 381.249 318.619C382.954 318.619 384.591 319.295 385.799 320.498C387.008 321.702 387.691 323.336 387.698 325.042V325.07Z" fill="#549CCB"/>
<path d="M233.168 221.825H368.747" stroke="#EBECF0" stroke-width="2.47" stroke-miterlimit="10"/>
<path d="M233.168 239.254H368.747" stroke="#549CCB" stroke-width="2.47" stroke-miterlimit="10"/>
<path d="M233.168 221.825H368.747" stroke="#549CCB" stroke-width="2.47" stroke-miterlimit="10"/>
<path d="M233.168 256.684H368.747" stroke="#549CCB" stroke-width="2.47" stroke-miterlimit="10"/>
<path d="M232.557 276.154H326.611" stroke="#549CCB" stroke-width="2.47" stroke-miterlimit="10"/>
<path d="M378.478 673.794L369.313 676.991V673.624C369.313 672.468 368.854 671.36 368.037 670.543C367.22 669.726 366.112 669.267 364.957 669.267H339.499C338.343 669.267 337.235 669.726 336.418 670.543C335.602 671.36 335.143 672.468 335.143 673.624V693.43C335.143 694.585 335.602 695.694 336.418 696.511C337.235 697.328 338.343 697.787 339.499 697.787H364.957C366.112 697.787 367.22 697.328 368.037 696.511C368.854 695.694 369.313 694.585 369.313 693.43V689.865L378.478 693.119C378.609 693.163 378.749 693.176 378.886 693.156C379.024 693.137 379.154 693.085 379.267 693.004C379.381 692.924 379.473 692.819 379.537 692.696C379.602 692.573 379.636 692.437 379.638 692.298V674.642C379.641 674.501 379.61 674.362 379.547 674.235C379.485 674.109 379.393 673.999 379.279 673.916C379.165 673.833 379.033 673.778 378.893 673.757C378.754 673.735 378.612 673.748 378.478 673.794ZM359.073 683.555C359.073 684.831 358.695 686.078 357.986 687.139C357.278 688.2 356.27 689.027 355.092 689.515C353.913 690.003 352.617 690.131 351.366 689.882C350.115 689.633 348.965 689.019 348.063 688.117C347.162 687.215 346.547 686.065 346.298 684.814C346.049 683.562 346.177 682.265 346.665 681.086C347.154 679.908 347.98 678.9 349.041 678.191C350.101 677.482 351.348 677.104 352.624 677.104C354.325 677.112 355.953 677.791 357.156 678.994C358.359 680.196 359.038 681.826 359.045 683.527L359.073 683.555Z" fill="white"/>
<path d="M236.673 158.869V146.419C236.673 144.742 236.007 143.134 234.822 141.948C233.636 140.762 232.028 140.096 230.351 140.096C228.675 140.096 227.067 140.762 225.881 141.948C224.695 143.134 224.029 144.742 224.029 146.419V158.869C224.029 160.546 224.695 162.155 225.881 163.34C227.067 164.526 228.675 165.193 230.351 165.193C232.028 165.193 233.636 164.526 234.822 163.34C236.007 162.155 236.673 160.546 236.673 158.869Z" fill="#B3F5FF"/>
<path d="M218.688 149.446C218.381 149.442 218.076 149.499 217.791 149.614C217.507 149.729 217.248 149.9 217.029 150.115C216.811 150.331 216.637 150.588 216.519 150.872C216.401 151.155 216.34 151.459 216.34 151.766V158.755C216.349 162.058 217.527 165.251 219.665 167.769C221.804 170.286 224.765 171.964 228.022 172.506V177.316C227.986 177.644 228.02 177.976 228.12 178.29C228.221 178.605 228.387 178.894 228.607 179.14C228.827 179.386 229.097 179.583 229.398 179.717C229.7 179.852 230.026 179.921 230.356 179.921C230.686 179.921 231.012 179.852 231.314 179.717C231.615 179.583 231.885 179.386 232.105 179.14C232.325 178.894 232.491 178.605 232.592 178.29C232.692 177.976 232.726 177.644 232.69 177.316V172.506C235.963 171.982 238.944 170.312 241.099 167.793C243.255 165.274 244.445 162.07 244.457 158.755V151.766C244.394 151.191 244.121 150.66 243.69 150.274C243.259 149.888 242.701 149.675 242.123 149.675C241.545 149.675 240.987 149.888 240.557 150.274C240.126 150.66 239.853 151.191 239.79 151.766V158.755C239.658 161.146 238.616 163.396 236.877 165.042C235.138 166.688 232.835 167.605 230.441 167.605C228.047 167.605 225.744 166.688 224.005 165.042C222.266 163.396 221.224 161.146 221.092 158.755V151.766C221.092 151.454 221.03 151.145 220.908 150.858C220.786 150.571 220.607 150.311 220.383 150.095C220.158 149.878 219.893 149.709 219.601 149.598C219.31 149.486 218.999 149.434 218.688 149.446Z" fill="#B3F5FF"/>
<path d="M262.134 630.815C261.639 630.815 261.164 631.012 260.814 631.362C260.464 631.713 260.268 632.188 260.268 632.683V638.342C260.278 640.972 261.218 643.513 262.921 645.517C264.624 647.521 266.981 648.858 269.574 649.292V653.14C269.574 653.635 269.771 654.11 270.121 654.46C270.471 654.81 270.946 655.007 271.441 655.007C271.936 655.007 272.411 654.81 272.761 654.46C273.111 654.11 273.308 653.635 273.308 653.14V649.292C275.901 648.858 278.257 647.521 279.96 645.517C281.664 643.513 282.603 640.972 282.614 638.342V632.683C282.614 632.188 282.417 631.713 282.067 631.362C281.717 631.012 281.242 630.815 280.747 630.815C280.252 630.815 279.777 631.012 279.427 631.362C279.077 631.713 278.88 632.188 278.88 632.683V638.342C278.763 640.24 277.927 642.022 276.542 643.324C275.157 644.627 273.328 645.352 271.427 645.352C269.526 645.352 267.696 644.627 266.311 643.324C264.926 642.022 264.09 640.24 263.973 638.342V632.683C263.973 632.192 263.78 631.722 263.436 631.372C263.092 631.023 262.625 630.823 262.134 630.815Z" fill="#B2D4FF"/>
<path d="M276.476 638.315V628.384C276.476 627.723 276.346 627.068 276.093 626.457C275.84 625.846 275.469 625.29 275.002 624.823C274.534 624.355 273.979 623.984 273.368 623.731C272.757 623.478 272.102 623.348 271.441 623.348C270.78 623.348 270.125 623.478 269.514 623.731C268.904 623.984 268.349 624.355 267.881 624.823C267.413 625.29 267.043 625.846 266.79 626.457C266.536 627.068 266.406 627.723 266.406 628.384V638.315C266.406 638.977 266.536 639.632 266.79 640.243C267.043 640.854 267.413 641.409 267.881 641.877C268.349 642.344 268.904 642.715 269.514 642.968C270.125 643.221 270.78 643.352 271.441 643.352C272.102 643.352 272.757 643.221 273.368 642.968C273.979 642.715 274.534 642.344 275.002 641.877C275.469 641.409 275.84 640.854 276.093 640.243C276.346 639.632 276.476 638.977 276.476 638.315Z" fill="#B2D4FF"/>
<defs>
<linearGradient id="paint0_linear" x1="48.2291" y1="276.154" x2="344.188" y2="190.097" gradientUnits="userSpaceOnUse">
<stop stop-color="#4552DD"/>
<stop offset="1" stop-color="#9EE2D3"/>
</linearGradient>
<linearGradient id="paint1_linear" x1="92815.3" y1="22398.3" x2="97743.9" y2="16325.1" gradientUnits="userSpaceOnUse">
<stop stop-color="#3B5998"/>
<stop offset="0.68" stop-color="#EFF0F3" stop-opacity="0.98"/>
<stop offset="0.97" stop-color="#FCFDFD" stop-opacity="0.91"/>
<stop offset="1" stop-color="white" stop-opacity="0.9"/>
</linearGradient>
<linearGradient id="paint2_linear" x1="329.014" y1="562.54" x2="697.009" y2="562.54" gradientUnits="userSpaceOnUse">
<stop stop-color="#253858"/>
<stop offset="1" stop-color="#1F2341"/>
</linearGradient>
<linearGradient id="paint3_linear" x1="65.9668" y1="495.031" x2="312.119" y2="495.031" gradientUnits="userSpaceOnUse">
<stop offset="0.0474039" stop-color="#4552DD"/>
<stop offset="1" stop-color="#B3F5FF"/>
</linearGradient>
<linearGradient id="paint4_linear" x1="188.739" y1="533.681" x2="188.739" y2="589.024" gradientUnits="userSpaceOnUse">
<stop stop-color="#65D3AA"/>
<stop offset="1" stop-color="#79E2F2"/>
</linearGradient>
<linearGradient id="paint5_linear" x1="145.265" y1="475.35" x2="145.265" y2="499.76" gradientUnits="userSpaceOnUse">
<stop stop-color="#65D3AA"/>
<stop offset="1" stop-color="#79E2F2"/>
</linearGradient>
<linearGradient id="paint6_linear" x1="188.019" y1="514.555" x2="188.019" y2="527.124" gradientUnits="userSpaceOnUse">
<stop stop-color="#65D3AA"/>
<stop offset="1" stop-color="#79E2F2"/>
</linearGradient>
<linearGradient id="paint7_linear" x1="188.2" y1="448.232" x2="188.2" y2="506.636" gradientUnits="userSpaceOnUse">
<stop stop-color="#65D3AA"/>
<stop offset="1" stop-color="#79E2F2"/>
</linearGradient>
<linearGradient id="paint8_linear" x1="84" y1="387" x2="538.026" y2="285.617" gradientUnits="userSpaceOnUse">
<stop stop-color="#549CCB"/>
<stop offset="1" stop-color="#ECF1F6"/>
</linearGradient>
<linearGradient id="paint9_linear" x1="300.819" y1="410" x2="300.819" y2="454.351" gradientUnits="userSpaceOnUse">
<stop stop-color="#DEACBD"/>
<stop offset="1" stop-color="#EFC7B0"/>
</linearGradient>
<linearGradient id="paint10_linear" x1="252.969" y1="382.108" x2="272.77" y2="382.108" gradientUnits="userSpaceOnUse">
<stop stop-color="#EFC7B0"/>
</linearGradient>
<linearGradient id="paint11_linear" x1="326.232" y1="382.816" x2="346.033" y2="382.816" gradientUnits="userSpaceOnUse">
<stop stop-color="#EFC7B0"/>
</linearGradient>
</defs>
</svg>
