<svg width="870" height="551" viewBox="0 0 870 551" fill="none" xmlns="http://www.w3.org/2000/svg">
<rect width="869.186" height="550.81" fill="black" fill-opacity="0"/>
<rect width="869.186" height="518.244" fill="black" fill-opacity="0" transform="translate(0 32.5664)"/>
<rect width="869.186" height="518.244" fill="black" fill-opacity="0" transform="translate(0 32.5664)"/>
<rect width="869.186" height="518.244" fill="black" fill-opacity="0" transform="translate(0 32.5664)"/>
<g opacity="0.8">
<rect width="382.401" height="175.915" fill="black" fill-opacity="0" transform="translate(486.785 201.851)"/>
<path opacity="0.8" d="M869.186 327.328C869.193 318.689 866.978 310.192 862.754 302.654C858.529 295.116 852.437 288.789 845.062 284.28C837.686 279.771 829.275 277.232 820.635 276.905C811.995 276.579 803.416 278.477 795.721 282.416C793.95 261.88 785.032 242.613 770.516 227.967C756 213.321 736.806 204.222 716.272 202.254C695.737 200.285 675.162 205.571 658.124 217.192C641.086 228.813 628.664 246.034 623.018 265.859C614.258 262.551 604.826 261.416 595.531 262.551C586.236 263.686 577.355 267.057 569.651 272.376C561.946 277.695 555.648 284.802 551.297 293.088C546.946 301.373 544.671 310.59 544.669 319.947C544.677 330.033 542.033 339.943 537 348.685L536.374 349.754C531.23 358.302 523.959 365.374 515.27 370.282C506.58 375.191 496.767 377.769 486.785 377.766L822.019 377.605C848.458 377.746 869.186 354.15 869.186 327.328Z" fill="url(#paint0_linear)"/>
</g>
<path d="M770.233 383.634C770.24 379.939 769.296 376.305 767.491 373.08C765.686 369.855 763.082 367.149 759.928 365.221C756.774 363.292 753.176 362.207 749.481 362.07C745.786 361.932 742.118 362.746 738.829 364.435C738.063 355.664 734.248 347.439 728.045 341.187C721.841 334.934 713.643 331.051 704.873 330.21C696.102 329.368 687.314 331.623 680.034 336.582C672.754 341.541 667.443 348.891 665.021 357.356C661.278 355.944 657.248 355.46 653.276 355.946C649.305 356.431 645.511 357.872 642.219 360.144C638.927 362.417 636.235 365.453 634.375 368.992C632.515 372.532 631.541 376.469 631.538 380.467C631.544 384.777 630.417 389.012 628.269 392.749H628.006V393.213C625.809 396.867 622.702 399.891 618.988 401.99C615.275 404.089 611.081 405.192 606.814 405.192H750.111C755.578 404.823 760.699 402.39 764.436 398.387C768.173 394.383 770.246 389.108 770.233 383.634Z" fill="url(#paint1_linear)"/>
<path opacity="0.8" d="M382.401 366.352C382.408 357.712 380.193 349.216 375.968 341.677C371.744 334.139 365.652 327.812 358.277 323.303C350.901 318.795 342.49 316.255 333.85 315.929C325.21 315.602 316.631 317.5 308.936 321.44C307.165 300.903 298.246 281.636 283.731 266.99C269.215 252.344 250.021 243.246 229.487 241.277C208.952 239.308 188.377 244.594 171.339 256.215C154.301 267.836 141.879 285.057 136.233 304.883C127.472 301.574 118.038 300.439 108.741 301.575C99.4442 302.711 90.5622 306.084 82.8572 311.405C75.1523 316.726 68.8547 323.836 64.5049 332.124C60.1551 340.413 57.883 349.632 57.8838 358.991C57.8922 369.076 55.2474 378.987 50.2144 387.729H49.5888V388.798C44.4445 397.345 37.1741 404.417 28.4845 409.326C19.7949 414.235 9.982 416.813 0 416.81L335.234 416.648C348.016 415.814 360.003 410.152 368.762 400.812C377.521 391.472 382.397 379.152 382.401 366.352Z" fill="url(#paint2_linear)"/>
<path opacity="0.76" d="M464.055 550.81C614.757 550.81 736.924 541.898 736.924 530.905C736.924 519.912 614.757 511 464.055 511C313.353 511 191.186 519.912 191.186 530.905C191.186 541.898 313.353 550.81 464.055 550.81Z" fill="url(#paint3_linear)"/>
<path d="M110.883 416.748C110.876 412.674 111.918 408.666 113.908 405.11C115.899 401.554 118.771 398.57 122.249 396.443C125.727 394.317 129.694 393.12 133.769 392.967C137.843 392.815 141.889 393.712 145.516 395.573C146.371 385.899 150.589 376.829 157.438 369.938C164.287 363.047 173.335 358.77 183.011 357.85C192.687 356.93 202.379 359.425 210.406 364.901C218.433 370.377 224.288 378.489 226.953 387.829C231.08 386.266 235.524 385.728 239.905 386.258C244.286 386.789 248.473 388.374 252.106 390.876C255.74 393.378 258.712 396.724 260.767 400.626C262.822 404.528 263.9 408.87 263.908 413.28C263.902 418.035 265.148 422.709 267.52 426.832H267.803V427.336C270.229 431.369 273.658 434.705 277.757 437.02C281.857 439.334 286.486 440.549 291.195 440.545H133.124C120.853 440.465 110.883 429.373 110.883 416.748Z" fill="url(#paint4_linear)"/>
<rect width="512.377" height="429.336" fill="black" fill-opacity="0" transform="translate(186.264 32.5664)"/>
<rect width="512.377" height="429.336" fill="black" fill-opacity="0" transform="translate(186.264 32.5664)"/>
<path d="M542.872 85.3848H437.176V204.471H542.872V85.3848Z" fill="url(#paint5_linear)"/>
<path d="M490.034 138.201C519.227 138.201 542.892 114.554 542.892 85.3839C542.892 56.2136 519.227 32.5664 490.034 32.5664C460.841 32.5664 437.176 56.2136 437.176 85.3839C437.176 114.554 460.841 138.201 490.034 138.201Z" fill="#1EECC2"/>
<path d="M684.089 188.176H672.443C676.303 188.176 680.004 189.708 682.733 192.435C685.462 195.161 686.995 198.86 686.995 202.716V446.737H186.264C186.264 450.76 187.863 454.617 190.709 457.461C193.555 460.305 197.416 461.903 201.441 461.903H684.654C688.363 461.903 691.921 460.431 694.544 457.81C697.167 455.189 698.64 451.634 698.64 447.927V202.636C698.619 198.793 697.077 195.115 694.35 192.406C691.623 189.697 687.934 188.176 684.089 188.176Z" fill="#EBECF0"/>
<path d="M686.997 446.677V202.656C686.981 198.81 685.441 195.127 682.714 192.413C679.986 189.699 676.294 188.176 672.445 188.176H309.703C305.864 188.202 302.192 189.743 299.485 192.463C296.779 195.183 295.257 198.861 295.252 202.696V446.717L686.997 446.677Z" fill="#C1C7D0"/>
<path d="M663.685 211.389H318.461V422.275H663.685V211.389Z" fill="url(#paint6_linear)"/>
<g style="mix-blend-mode:multiply">
<path d="M389.824 360.927H348.812V388.293H389.824V360.927Z" fill="#DCE5EC"/>
</g>
<g style="mix-blend-mode:multiply">
<path d="M395.374 211.389H354.363V238.755H395.374V211.389Z" fill="#DCE5EC"/>
</g>
<g style="mix-blend-mode:multiply">
<path d="M629.292 211.389H588.281V238.755H629.292V211.389Z" fill="#EBECF0"/>
</g>
<g style="mix-blend-mode:multiply">
<path d="M369.322 393.596H328.311V420.962H369.322V393.596Z" fill="#DCE5EC"/>
</g>
<g style="mix-blend-mode:multiply">
<path d="M616.476 298.993H575.465V326.36H616.476V298.993Z" fill="#EBECF0"/>
</g>
<g style="mix-blend-mode:multiply">
<path d="M643.683 331.663H602.672V359.03H643.683V331.663Z" fill="#EBECF0"/>
</g>
<g style="mix-blend-mode:multiply">
<path d="M663.684 394.888H629.293V422.254H663.684V394.888Z" fill="#EBECF0"/>
</g>
<g style="mix-blend-mode:multiply">
<path d="M595.951 331.663H554.939V359.03H595.951V331.663Z" fill="#DCE5EC"/>
</g>
<path d="M333.052 238.976H230.444C225.561 238.976 221.604 242.93 221.604 247.809V437.843C221.604 442.721 225.561 446.676 230.444 446.676H333.052C337.934 446.676 341.892 442.721 341.892 437.843V247.809C341.892 242.93 337.934 238.976 333.052 238.976Z" fill="#A5ADBA"/>
<path d="M327.056 238.976H224.447C219.565 238.976 215.607 242.93 215.607 247.809V437.843C215.607 442.721 219.565 446.676 224.447 446.676H327.056C331.938 446.676 335.896 442.721 335.896 437.843V247.809C335.896 242.93 331.938 238.976 327.056 238.976Z" fill="url(#paint7_linear)"/>
<path d="M323.386 251.097H228.124C226.798 251.097 225.723 252.171 225.723 253.497V413.341C225.723 414.666 226.798 415.74 228.124 415.74H323.386C324.713 415.74 325.788 414.666 325.788 413.341V253.497C325.788 252.171 324.713 251.097 323.386 251.097Z" fill="url(#paint8_linear)"/>
<path d="M275.751 439.294C280.209 439.294 283.824 435.682 283.824 431.227C283.824 426.772 280.209 423.16 275.751 423.16C271.292 423.16 267.678 426.772 267.678 431.227C267.678 435.682 271.292 439.294 275.751 439.294Z" stroke="#5E6C84" stroke-width="2.06" stroke-miterlimit="10"/>
<g style="mix-blend-mode:multiply">
<path d="M277.349 361.17V298.43C277.392 297.764 277.298 297.097 277.072 296.469C276.847 295.84 276.495 295.265 276.038 294.778C275.581 294.292 275.029 293.904 274.417 293.638C273.804 293.373 273.143 293.236 272.475 293.236C271.807 293.236 271.147 293.373 270.534 293.638C269.921 293.904 269.369 294.292 268.912 294.778C268.455 295.265 268.103 295.84 267.878 296.469C267.652 297.097 267.558 297.764 267.601 298.43V307.586H252.141C250.852 307.51 249.586 307.947 248.618 308.801C247.651 309.656 247.061 310.858 246.979 312.145C246.896 313.433 247.327 314.701 248.177 315.672C249.027 316.643 250.227 317.238 251.515 317.327H267.662V323.377H252.222C250.933 323.301 249.666 323.738 248.699 324.592C247.732 325.446 247.142 326.649 247.06 327.936C246.977 329.224 247.408 330.491 248.258 331.462C249.108 332.433 250.308 333.028 251.596 333.118H267.742V361.15C262.505 362.347 257.893 365.429 254.785 369.809C251.678 374.188 250.294 379.557 250.897 384.891C251.499 390.226 254.047 395.151 258.053 398.728C262.06 402.305 267.244 404.282 272.616 404.282C277.989 404.282 283.173 402.305 287.179 398.728C291.186 395.151 293.733 390.226 294.336 384.891C294.939 379.557 293.555 374.188 290.447 369.809C287.34 365.429 282.728 362.347 277.491 361.15L277.349 361.17ZM272.465 394.567C270.07 394.567 267.729 393.857 265.737 392.527C263.746 391.198 262.194 389.308 261.277 387.097C260.361 384.886 260.121 382.453 260.588 380.106C261.055 377.759 262.209 375.602 263.902 373.91C265.596 372.218 267.754 371.066 270.103 370.599C272.452 370.132 274.886 370.371 277.099 371.287C279.312 372.203 281.203 373.754 282.534 375.744C283.864 377.734 284.575 380.073 284.575 382.466C284.575 385.676 283.299 388.753 281.028 391.023C278.757 393.292 275.677 394.567 272.465 394.567Z" fill="#EBECF0"/>
</g>
<path d="M281.585 353.546V290.847C281.585 289.555 281.072 288.316 280.158 287.403C279.244 286.49 278.004 285.977 276.711 285.977C275.419 285.977 274.179 286.49 273.265 287.403C272.351 288.316 271.837 289.555 271.837 290.847V300.023H256.397C255.159 300.103 253.997 300.65 253.148 301.555C252.3 302.46 251.827 303.653 251.827 304.893C251.827 306.133 252.3 307.327 253.148 308.232C253.997 309.136 255.159 309.684 256.397 309.764H271.837V315.814H256.397C255.756 315.769 255.111 315.852 254.501 316.057C253.891 316.262 253.328 316.586 252.844 317.009C252.36 317.433 251.964 317.948 251.679 318.524C251.395 319.101 251.227 319.728 251.186 320.37C251.145 321.012 251.231 321.655 251.439 322.263C251.648 322.872 251.974 323.433 252.4 323.915C252.827 324.396 253.344 324.789 253.922 325.071C254.501 325.352 255.129 325.516 255.772 325.554H271.918V353.546C266.681 354.743 262.068 357.826 258.961 362.205C255.854 366.584 254.469 371.954 255.072 377.288C255.675 382.622 258.223 387.548 262.229 391.124C266.235 394.701 271.42 396.678 276.792 396.678C282.164 396.678 287.349 394.701 291.355 391.124C295.361 387.548 297.909 382.622 298.512 377.288C299.115 371.954 297.73 366.584 294.623 362.205C291.516 357.826 286.903 354.743 281.666 353.546H281.585ZM276.721 386.923C274.326 386.923 271.985 386.213 269.994 384.883C268.002 383.554 266.45 381.664 265.534 379.453C264.617 377.242 264.377 374.809 264.844 372.462C265.312 370.115 266.465 367.959 268.159 366.266C269.852 364.574 272.01 363.422 274.359 362.955C276.708 362.488 279.143 362.727 281.356 363.643C283.568 364.559 285.46 366.11 286.79 368.1C288.121 370.09 288.831 372.429 288.831 374.822C288.839 376.417 288.532 377.997 287.927 379.472C287.322 380.947 286.431 382.288 285.306 383.418C284.18 384.548 282.843 385.444 281.37 386.056C279.896 386.668 278.317 386.983 276.721 386.983V386.923Z" fill="url(#paint9_linear)"/>
<g style="mix-blend-mode:multiply">
<path d="M415.981 250.47H545.15C547.31 250.462 549.451 250.88 551.45 251.698C553.448 252.517 555.266 253.721 556.799 255.242C558.332 256.762 559.551 258.57 560.384 260.561C561.218 262.552 561.652 264.688 561.66 266.846V331.38C561.66 342.016 559.563 352.548 555.49 362.374C551.417 372.201 545.446 381.129 537.92 388.65C530.393 396.17 521.458 402.136 511.624 406.206C501.79 410.276 491.25 412.371 480.606 412.371C469.96 412.371 459.419 410.276 449.584 406.204C439.749 402.133 430.812 396.165 423.286 388.643C415.759 381.12 409.789 372.189 405.717 362.36C401.645 352.532 399.55 341.998 399.553 331.36V266.826C399.553 262.467 401.286 258.286 404.37 255.204C407.455 252.121 411.639 250.39 416.002 250.39L415.981 250.47Z" fill="#DFE1E5"/>
</g>
<path d="M432.491 241.457H561.659C566.022 241.457 570.206 243.189 573.291 246.271C576.375 249.353 578.108 253.534 578.108 257.893V322.428C578.111 333.064 576.017 343.596 571.946 353.423C567.875 363.25 561.907 372.18 554.383 379.703C546.858 387.225 537.924 393.193 528.091 397.266C518.258 401.339 507.719 403.436 497.075 403.439C475.578 403.439 454.962 394.906 439.762 379.717C424.561 364.528 416.021 343.928 416.021 322.448V257.913C416.021 253.554 417.754 249.374 420.839 246.291C423.924 243.209 428.108 241.477 432.47 241.477L432.491 241.457Z" fill="url(#paint10_linear)"/>
<path d="M423.35 241.457H552.519C556.881 241.457 561.065 243.189 564.15 246.271C567.235 249.353 568.968 253.534 568.968 257.893V322.428C568.968 343.904 560.431 364.502 545.235 379.69C530.039 394.878 509.428 403.413 487.934 403.419C466.438 403.419 445.821 394.886 430.621 379.697C415.42 364.508 406.881 343.908 406.881 322.428V257.893C406.881 253.534 408.614 249.353 411.699 246.271C414.783 243.189 418.967 241.457 423.33 241.457H423.35Z" fill="url(#paint11_linear)"/>
<path d="M487.933 389.522C470.158 389.5 453.117 382.435 440.548 369.876C427.979 357.316 420.908 340.288 420.887 322.527V262.247C420.892 260.447 421.61 258.721 422.885 257.448C424.159 256.174 425.886 255.456 427.688 255.451H548.179C549.981 255.456 551.708 256.174 552.982 257.448C554.257 258.721 554.975 260.447 554.98 262.247V322.446C554.98 340.222 547.919 357.27 535.348 369.847C522.776 382.424 505.723 389.5 487.933 389.522Z" stroke="url(#paint12_linear)" stroke-width="2.77" stroke-miterlimit="10"/>
<path d="M509.406 304.137C509.403 300.579 508.516 297.077 506.825 293.946C505.134 290.815 502.691 288.152 499.716 286.196C496.742 284.241 493.328 283.054 489.78 282.741C486.233 282.429 482.664 283.001 479.393 284.407C476.121 285.812 473.25 288.007 471.037 290.795C468.824 293.582 467.338 296.875 466.712 300.377C466.086 303.88 466.34 307.483 467.451 310.864C468.562 314.244 470.495 317.296 473.078 319.746C474.089 320.663 474.826 321.842 475.207 323.152C475.588 324.462 475.599 325.852 475.237 327.168L471.402 340.438C471.168 341.254 471.127 342.113 471.281 342.947C471.435 343.782 471.782 344.569 472.292 345.248C472.803 345.926 473.464 346.477 474.223 346.856C474.983 347.236 475.821 347.434 476.67 347.436H499.093C499.942 347.434 500.78 347.236 501.54 346.856C502.299 346.477 502.96 345.926 503.471 345.248C503.982 344.569 504.328 343.782 504.482 342.947C504.636 342.113 504.595 341.254 504.361 340.438L500.526 327.228C500.159 325.904 500.167 324.503 500.548 323.183C500.929 321.862 501.669 320.673 502.686 319.746C504.814 317.742 506.509 315.322 507.665 312.638C508.821 309.953 509.414 307.06 509.406 304.137Z" fill="#7A869A"/>
<path d="M480.324 347.334H500.043C500.796 347.198 501.512 346.905 502.145 346.475C502.778 346.045 503.313 345.486 503.716 344.836C504.12 344.186 504.382 343.459 504.486 342.701C504.59 341.943 504.534 341.172 504.321 340.437L500.487 327.228C500.12 325.903 500.128 324.503 500.509 323.182C500.89 321.862 501.63 320.672 502.646 319.746C505.417 317.115 507.435 313.793 508.492 310.123C509.548 306.452 509.606 302.567 508.657 298.867C507.709 295.167 505.79 291.787 503.097 289.076C500.405 286.365 497.037 284.421 493.342 283.445C489.648 284.422 486.281 286.365 483.588 289.074C480.895 291.783 478.973 295.161 478.021 298.859C477.069 302.557 477.121 306.442 478.172 310.113C479.222 313.784 481.233 317.11 483.997 319.746C485.009 320.663 485.746 321.842 486.127 323.152C486.508 324.462 486.519 325.852 486.157 327.167L480.324 347.334Z" fill="#253858"/>
<path d="M262.937 278.161L255.873 271.103" stroke="#ABF5D1" stroke-width="2.06" stroke-miterlimit="10" stroke-linecap="round"/>
<path d="M276.297 272.211V262.229" stroke="#ABF5D1" stroke-width="2.06" stroke-miterlimit="10" stroke-linecap="round"/>
<path d="M289.861 277.535L296.925 270.477" stroke="#ABF5D1" stroke-width="2.06" stroke-miterlimit="10" stroke-linecap="round"/>
<rect width="33" height="64" fill="black" fill-opacity="0" transform="translate(474 53)"/>
<rect width="33" height="64" fill="black" fill-opacity="0" transform="translate(474 53)"/>
<path d="M506.536 91.9635C506.23 90.9169 505.859 90.0059 505.423 89.2324C504.987 88.458 504.362 87.7027 503.548 86.9639C502.735 86.2255 502.004 85.6308 501.356 85.1787C500.707 84.7262 499.817 84.2204 498.685 83.6604C497.554 83.1006 496.658 82.6841 495.998 82.4101C495.338 82.1365 494.382 81.7615 493.133 81.2853C492.024 80.857 491.199 80.5295 490.657 80.3034C490.114 80.0771 489.401 79.7559 488.517 79.339C487.633 78.9226 486.973 78.5534 486.537 78.2321C486.101 77.9109 485.635 77.5181 485.14 77.0539C484.645 76.5896 484.297 76.0955 484.096 75.5718C483.896 75.0479 483.796 74.4763 483.796 73.8572C483.796 72.2385 484.503 70.9167 485.918 69.8931C487.332 68.8696 489.16 68.3576 491.4 68.3576C492.39 68.3576 493.399 68.4943 494.424 68.7684C495.449 69.0425 496.327 69.3512 497.058 69.6967C497.79 70.0422 498.479 70.4233 499.128 70.8397C499.776 71.2565 500.236 71.5718 500.507 71.7861C500.779 72.0005 500.95 72.1432 501.02 72.2147C501.327 72.4528 501.645 72.536 501.975 72.4648C502.328 72.441 502.6 72.2503 502.789 71.8935L505.654 66.6791C505.937 66.2031 505.879 65.7507 505.477 65.3218C505.336 65.179 505.16 65.0125 504.946 64.8218C504.734 64.6312 504.274 64.2861 503.566 63.7858C502.859 63.2859 502.111 62.8395 501.321 62.4466C500.531 62.054 499.505 61.655 498.243 61.2504C496.983 60.8452 495.68 60.5717 494.335 60.4289V54.1429C494.335 53.8097 494.229 53.5358 494.018 53.3214C493.806 53.1075 493.534 53 493.204 53H488.429C488.122 53 487.857 53.113 487.633 53.3393C487.409 53.5655 487.297 53.8332 487.297 54.1429V60.5715C483.595 61.2856 480.589 62.8809 478.278 65.3571C475.968 67.8335 474.812 70.714 474.812 74.0001C474.812 74.9762 474.913 75.9048 475.113 76.7853C475.313 77.6666 475.561 78.4583 475.856 79.1606C476.151 79.8633 476.569 80.5536 477.112 81.2324C477.654 81.9109 478.167 82.4943 478.65 82.9822C479.133 83.4699 479.764 83.976 480.542 84.4997C481.32 85.0238 481.986 85.4468 482.541 85.768C483.095 86.0883 483.832 86.4585 484.751 86.8742C485.671 87.2911 486.396 87.6063 486.926 87.821C487.457 88.0351 488.182 88.3331 489.102 88.7132C490.375 89.2132 491.318 89.6003 491.931 89.8742C492.545 90.1482 493.322 90.5291 494.266 91.0172C495.209 91.5048 495.898 91.9514 496.335 92.3563C496.771 92.7612 497.166 93.2612 497.52 93.8563C497.874 94.4514 498.051 95.0824 498.051 95.7494C498.051 97.6304 497.326 99.0825 495.875 100.105C494.426 101.13 492.745 101.642 490.836 101.642C489.964 101.642 489.091 101.547 488.219 101.356C485.154 100.737 482.289 99.2485 479.625 96.8915L479.554 96.82C479.341 96.5588 479.058 96.4515 478.705 96.4994C478.328 96.547 478.056 96.6899 477.892 96.9285L474.249 101.75C473.895 102.226 473.919 102.714 474.319 103.214C474.438 103.357 474.644 103.571 474.938 103.857C475.234 104.143 475.782 104.589 476.583 105.197C477.385 105.805 478.257 106.375 479.2 106.912C480.144 107.447 481.34 107.977 482.79 108.501C484.241 109.024 485.744 109.393 487.3 109.607V115.857C487.3 116.167 487.412 116.434 487.636 116.661C487.86 116.887 488.125 117 488.431 117H493.206C493.537 117 493.808 116.893 494.02 116.679C494.232 116.465 494.338 116.191 494.338 115.857V109.607C498.087 108.988 501.135 107.363 503.481 104.732C505.827 102.101 507 98.9638 507 95.3212C506.999 94.1309 506.846 93.0118 506.536 91.9635Z" fill="white"/>
<circle cx="216" cy="241" r="14" fill="url(#paint13_linear)"/>
<ellipse cx="45.5" cy="165.498" rx="1.5" ry="1.49814" fill="url(#paint14_linear)"/>
<ellipse cx="327.5" cy="136.498" rx="1.5" ry="1.49814" fill="url(#paint15_linear)"/>
<ellipse cx="184.5" cy="33.4981" rx="1.5" ry="1.49814" fill="url(#paint16_linear)"/>
<ellipse cx="147.5" cy="200.498" rx="1.5" ry="1.49814" fill="url(#paint17_linear)"/>
<ellipse cx="311.5" cy="1.49814" rx="1.5" ry="1.49814" fill="url(#paint18_linear)"/>
<circle cx="598" cy="143" r="5" fill="url(#paint19_linear)"/>
<defs>
<linearGradient id="paint0_linear" x1="486.805" y1="289.918" x2="869.186" y2="289.918" gradientUnits="userSpaceOnUse">
<stop stop-color="#4552DD"/>
<stop offset="1" stop-color="#B3F5FF"/>
</linearGradient>
<linearGradient id="paint1_linear" x1="57365.5" y1="16372.6" x2="66458.6" y2="3001.65" gradientUnits="userSpaceOnUse">
<stop stop-color="#4552DD"/>
<stop offset="1" stop-color="#B3F5FF"/>
</linearGradient>
<linearGradient id="paint2_linear" x1="47410" y1="37428.4" x2="47410" y2="22083.3" gradientUnits="userSpaceOnUse">
<stop stop-color="#4552DD"/>
<stop offset="1" stop-color="#4552DD"/>
</linearGradient>
<linearGradient id="paint3_linear" x1="518.5" y1="486" x2="518.517" y2="634" gradientUnits="userSpaceOnUse">
<stop offset="0.155032" stop-color="#1B2048" stop-opacity="0.75"/>
<stop offset="1" stop-color="#4651F1" stop-opacity="0"/>
</linearGradient>
<linearGradient id="paint4_linear" x1="201.039" y1="440.545" x2="201.039" y2="222" gradientUnits="userSpaceOnUse">
<stop stop-color="#549CCB"/>
<stop offset="1" stop-color="#B3F5FF"/>
</linearGradient>
<linearGradient id="paint5_linear" x1="490.034" y1="204.471" x2="490.034" y2="85.3848" gradientUnits="userSpaceOnUse">
<stop stop-color="#ABF5D1" stop-opacity="0"/>
<stop offset="0.34" stop-color="#96F4CA" stop-opacity="0.25"/>
<stop offset="0.64" stop-color="#86F3C5" stop-opacity="0.44"/>
<stop offset="0.87" stop-color="#7DF2C1" stop-opacity="0.56"/>
<stop offset="1" stop-color="#79F2C0" stop-opacity="0.6"/>
</linearGradient>
<linearGradient id="paint6_linear" x1="318.461" y1="316.842" x2="663.685" y2="316.842" gradientUnits="userSpaceOnUse">
<stop stop-color="#4552DE"/>
<stop offset="1" stop-color="#4C9AFF"/>
</linearGradient>
<linearGradient id="paint7_linear" x1="196.313" y1="422.233" x2="355.088" y2="263.315" gradientUnits="userSpaceOnUse">
<stop stop-color="#C1C7D0"/>
<stop offset="1" stop-color="white"/>
</linearGradient>
<linearGradient id="paint8_linear" x1="210.263" y1="398.881" x2="341.167" y2="267.875" gradientUnits="userSpaceOnUse">
<stop stop-color="#525EE6"/>
<stop offset="1" stop-color="#243858"/>
</linearGradient>
<linearGradient id="paint9_linear" x1="244.752" y1="373.834" x2="305.657" y2="312.883" gradientUnits="userSpaceOnUse">
<stop stop-color="#57D9A3"/>
<stop offset="0.84" stop-color="#E3FCEF"/>
</linearGradient>
<linearGradient id="paint10_linear" x1="497.075" y1="403.439" x2="497.075" y2="241.457" gradientUnits="userSpaceOnUse">
<stop offset="0.39" stop-color="#C1C7D0"/>
<stop offset="0.5" stop-color="#D4D9DF"/>
<stop offset="0.7" stop-color="#F3F4F6"/>
<stop offset="0.81" stop-color="white"/>
</linearGradient>
<linearGradient id="paint11_linear" x1="38964.1" y1="169409" x2="49681.1" y2="158684" gradientUnits="userSpaceOnUse">
<stop stop-color="#C1C7D0"/>
<stop offset="1" stop-color="white"/>
</linearGradient>
<linearGradient id="paint12_linear" x1="429.686" y1="363.022" x2="546.01" y2="246.589" gradientUnits="userSpaceOnUse">
<stop stop-color="#A5ADBA"/>
<stop offset="1" stop-color="#C1C7D0"/>
</linearGradient>
<linearGradient id="paint13_linear" x1="204.947" y1="250.579" x2="227.789" y2="227.737" gradientUnits="userSpaceOnUse">
<stop stop-color="#1EECC2"/>
<stop offset="1" stop-color="#1EECC2" stop-opacity="0"/>
</linearGradient>
<linearGradient id="paint14_linear" x1="44.3158" y1="166.523" x2="46.7601" y2="164.076" gradientUnits="userSpaceOnUse">
<stop stop-color="#DCE5EC"/>
<stop offset="1" stop-color="#1EECC2" stop-opacity="0"/>
</linearGradient>
<linearGradient id="paint15_linear" x1="326.316" y1="137.523" x2="328.76" y2="135.076" gradientUnits="userSpaceOnUse">
<stop stop-color="#DCE5EC"/>
<stop offset="1" stop-color="#1EECC2" stop-opacity="0"/>
</linearGradient>
<linearGradient id="paint16_linear" x1="183.316" y1="34.5232" x2="185.76" y2="32.0758" gradientUnits="userSpaceOnUse">
<stop stop-color="#DCE5EC"/>
<stop offset="1" stop-color="#1EECC2" stop-opacity="0"/>
</linearGradient>
<linearGradient id="paint17_linear" x1="146.316" y1="201.523" x2="148.76" y2="199.076" gradientUnits="userSpaceOnUse">
<stop stop-color="#DCE5EC"/>
<stop offset="1" stop-color="#1EECC2" stop-opacity="0"/>
</linearGradient>
<linearGradient id="paint18_linear" x1="310.316" y1="2.52318" x2="312.76" y2="0.0758136" gradientUnits="userSpaceOnUse">
<stop stop-color="#DCE5EC"/>
<stop offset="1" stop-color="#1EECC2" stop-opacity="0"/>
</linearGradient>
<linearGradient id="paint19_linear" x1="594.053" y1="146.421" x2="602.211" y2="138.263" gradientUnits="userSpaceOnUse">
<stop stop-color="#C463BE"/>
<stop offset="1" stop-color="#C463BE" stop-opacity="0"/>
</linearGradient>
</defs>
</svg>
