<svg width="619" height="585" viewBox="0 0 619 585" fill="none" xmlns="http://www.w3.org/2000/svg">
<rect width="619" height="585" fill="black" fill-opacity="0"/>
<circle cx="151" cy="203" r="14" fill="url(#paint0_linear)"/>
<ellipse cx="262.5" cy="98.4981" rx="1.5" ry="1.49814" fill="url(#paint1_linear)"/>
<ellipse cx="82.5" cy="162.498" rx="1.5" ry="1.49814" fill="url(#paint2_linear)"/>
<circle cx="533" cy="105" r="5" fill="url(#paint3_linear)"/>
<rect width="619" height="585" fill="black" fill-opacity="0"/>
<rect width="619" height="585" fill="black" fill-opacity="0"/>
<rect width="619" height="585" fill="black" fill-opacity="0"/>
<path d="M131.739 0H133.651C140.295 0 146.668 2.6391 151.366 7.33674C156.065 12.0344 158.704 18.4057 158.704 25.0492V72.7522H106.686V25.0492C106.686 18.4057 109.325 12.0344 114.024 7.33674C118.722 2.6391 125.094 0 131.739 0Z" fill="#DE350B"/>
<path d="M338.925 0H340.836C347.481 0 353.853 2.6391 358.552 7.33674C363.25 12.0344 365.89 18.4057 365.89 25.0492V72.7522H313.871V25.0492C313.871 21.7597 314.519 18.5024 315.778 15.4633C317.037 12.4242 318.883 9.66277 321.209 7.33674C323.536 5.0107 326.297 3.16559 329.337 1.90676C332.377 0.647916 335.635 0 338.925 0Z" fill="#DE350B"/>
<path d="M546.106 0H548.018C554.662 0 561.035 2.6391 565.733 7.33674C570.432 12.0344 573.071 18.4057 573.071 25.0492V72.7522H521.053V25.0492C521.053 18.4057 523.692 12.0344 528.391 7.33674C533.089 2.6391 539.462 0 546.106 0Z" fill="#DE350B"/>
<path d="M618.996 72.7518H106.686V584.973H618.996V72.7518Z" fill="#636FE1"/>
<path d="M131.739 0H185.695C192.339 0 198.712 2.6391 203.41 7.33674C208.109 12.0344 210.748 18.4057 210.748 25.0492V72.7267H106.686V25.0492C106.686 18.4057 109.325 12.0344 114.024 7.33674C118.722 2.6391 125.094 0 131.739 0Z" fill="#636FE1"/>
<path d="M335.893 0H389.823C396.467 0 402.84 2.6391 407.538 7.33674C412.237 12.0344 414.876 18.4057 414.876 25.0492V72.7267H310.839V25.0492C310.839 18.4057 313.479 12.0344 318.177 7.33674C322.876 2.6391 329.248 0 335.893 0Z" fill="#636FE1"/>
<path d="M540.016 0H593.946C600.59 0 606.963 2.6391 611.661 7.33674C616.36 12.0344 618.999 18.4057 618.999 25.0492V72.7267H514.962V25.0492C514.962 18.4057 517.602 12.0344 522.3 7.33674C526.999 2.6391 533.371 0 540.016 0Z" fill="#636FE1"/>
<path d="M79.7215 0H133.677C140.322 0 146.694 2.6391 151.393 7.33674C156.091 12.0344 158.731 18.4057 158.731 25.0492V72.7267H54.668V25.0492C54.668 18.4057 57.3075 12.0344 62.006 7.33674C66.7044 2.6391 73.0769 0 79.7215 0Z" fill="#FF5630"/>
<path d="M283.896 5.1851e-05H337.826C341.118 -0.00329673 344.379 0.642148 347.421 1.89949C350.464 3.15683 353.229 5.00141 355.558 7.32777C357.887 9.65414 359.735 12.4167 360.995 15.4574C362.256 18.4982 362.905 21.7576 362.905 25.0492V72.7268H258.791V25.0492C258.791 21.7554 259.441 18.494 260.703 15.4515C261.965 12.4091 263.815 9.64544 266.147 7.31874C268.479 4.99204 271.247 3.148 274.292 1.89216C277.338 0.63632 280.601 -0.00664967 283.896 5.1851e-05Z" fill="#FF5630"/>
<path d="M487.999 1.29627e-05H541.929C548.574 1.29627e-05 554.946 2.63912 559.645 7.33675C564.343 12.0344 566.983 18.4057 566.983 25.0492V72.7267H462.92V25.0492C462.92 21.7575 463.569 18.4982 464.829 15.4574C466.09 12.4166 467.938 9.6541 470.267 7.32773C472.596 5.00137 475.361 3.15679 478.404 1.89945C481.446 0.642109 484.707 -0.00333561 487.999 1.29627e-05Z" fill="#FF5630"/>
<path d="M566.979 72.7518H54.668V584.973H566.979V72.7518Z" fill="url(#paint4_linear)"/>
<path d="M79.7215 0H133.677C140.322 0 146.694 2.6391 151.393 7.33674C156.091 12.0344 158.731 18.4057 158.731 25.0492V72.7267H54.668V25.0492C54.668 18.4057 57.3075 12.0344 62.006 7.33674C66.7044 2.6391 73.0769 0 79.7215 0Z" fill="url(#paint5_linear)"/>
<path d="M283.896 5.1851e-05H337.826C341.118 -0.00329672 344.378 0.642148 347.421 1.89949C350.464 3.15683 353.229 5.00141 355.558 7.32777C357.887 9.65414 359.735 12.4167 360.995 15.4574C362.256 18.4982 362.905 21.7576 362.905 25.0492V72.7268H258.791V25.0492C258.791 21.7554 259.441 18.494 260.703 15.4515C261.965 12.4091 263.815 9.64544 266.147 7.31874C268.479 4.99204 271.247 3.148 274.292 1.89216C277.338 0.63632 280.601 -0.00664967 283.896 5.1851e-05Z" fill="url(#paint6_linear)"/>
<path d="M488 1.29627e-05H541.93C548.575 1.29627e-05 554.947 2.63912 559.646 7.33675C564.344 12.0344 566.984 18.4057 566.984 25.0492V72.7267H462.921V25.0492C462.921 21.7575 463.57 18.4982 464.831 15.4574C466.091 12.4166 467.939 9.6541 470.268 7.32773C472.597 5.00137 475.362 3.15679 478.405 1.89945C481.447 0.642109 484.708 -0.00333561 488 1.29627e-05Z" fill="url(#paint7_linear)"/>
<path d="M216.024 177.866H111.986V226.716H216.024V177.866Z" fill="#636FE1"/>
<path d="M514.938 428.868H410.9V477.718H514.938V428.868Z" fill="#636FE1"/>
<g style="mix-blend-mode:multiply">
<path d="M179.683 224.221H401.138C404.84 224.221 408.505 224.95 411.925 226.366C415.345 227.782 418.453 229.858 421.07 232.475C423.688 235.093 425.764 238.199 427.181 241.619C428.597 245.038 429.327 248.703 429.327 252.404V363.176C429.327 381.424 425.732 399.493 418.747 416.352C411.763 433.211 401.526 448.529 388.62 461.432C375.715 474.336 360.394 484.571 343.532 491.554C326.67 498.537 308.598 502.132 290.347 502.132C253.487 502.132 218.137 487.492 192.073 461.432C166.01 435.373 151.367 400.029 151.367 363.176V252.404C151.367 244.929 154.337 237.761 159.623 232.475C164.91 227.19 172.08 224.221 179.556 224.221H179.683Z" fill="#DFE1E5"/>
</g>
<path d="M207.872 208.727H429.455C436.931 208.727 444.1 211.696 449.387 216.981C454.673 222.267 457.643 229.435 457.643 236.91V347.682C457.643 384.535 443 419.879 416.937 445.938C390.873 471.997 355.523 486.637 318.663 486.637C281.804 486.637 246.454 471.997 220.39 445.938C194.326 419.879 179.684 384.535 179.684 347.682V236.91C179.684 229.435 182.653 222.267 187.94 216.981C193.226 211.696 200.396 208.727 207.872 208.727Z" fill="#FAFBFC"/>
<path d="M192.147 208.727H413.882C421.332 208.767 428.462 211.754 433.716 217.035C438.969 222.316 441.918 229.462 441.918 236.91V347.682C441.918 384.535 427.275 419.879 401.212 445.938C375.148 471.997 339.798 486.637 302.938 486.637C266.105 486.597 230.794 471.939 204.763 445.884C178.733 419.829 164.111 384.509 164.111 347.682V236.91C164.111 229.462 167.06 222.316 172.313 217.035C177.567 211.754 184.697 208.767 192.147 208.727Z" fill="#EBECF0"/>
<path d="M302.987 462.633C272.509 462.592 243.292 450.467 221.743 428.918C200.195 407.368 188.075 378.154 188.041 347.681V244.427C188.044 242.889 188.351 241.366 188.944 239.947C189.536 238.527 190.403 237.239 191.494 236.155C192.586 235.071 193.88 234.212 195.304 233.629C196.727 233.046 198.252 232.749 199.79 232.756H406.234C409.328 232.763 412.293 233.994 414.48 236.182C416.668 238.369 417.9 241.334 417.907 244.427V347.681C417.873 378.149 405.756 407.36 384.213 428.909C362.67 450.458 333.46 462.585 302.987 462.633V462.633Z" stroke="#4A82D7" stroke-width="2.45759" stroke-miterlimit="10"/>
<g style="mix-blend-mode:multiply">
<path d="M315.35 511.381V347.886C315.425 346.217 315.162 344.551 314.576 342.987C313.989 341.423 313.092 339.994 311.938 338.786C310.784 337.579 309.397 336.618 307.861 335.961C306.325 335.304 304.672 334.966 303.001 334.966C301.331 334.966 299.677 335.304 298.141 335.961C296.605 336.618 295.219 337.579 294.064 338.786C292.91 339.994 292.013 341.423 291.427 342.987C290.84 344.551 290.577 346.217 290.653 347.886V511.406C274.379 514.327 259.648 522.869 249.032 535.542C238.416 548.215 232.589 564.213 232.568 580.744C232.568 582.171 232.568 583.598 232.696 584.999H257.469C257.342 583.598 257.265 582.196 257.265 580.744C257.299 568.627 262.126 557.016 270.693 548.446C279.26 539.876 290.87 535.043 302.988 535.003C315.107 535.043 326.717 539.876 335.284 548.446C343.851 557.016 348.678 568.627 348.712 580.744C348.712 582.171 348.712 583.598 348.508 584.999H373.281C373.281 583.598 373.409 582.171 373.409 580.744C373.395 564.212 367.574 548.211 356.963 535.533C346.351 522.856 331.623 514.307 315.35 511.381Z" fill="#DFE1E5"/>
</g>
<path d="M158.705 114.185H54.668V163.034H158.705V114.185Z" fill="#636FE1"/>
<path d="M158.705 495.123H54.668V543.973H158.705V495.123Z" fill="#636FE1"/>
<path d="M567.037 114H463V162.85H567.037V114Z" fill="#636FE1"/>
<path d="M574.014 493.339H469.977V542.189H574.014V493.339Z" fill="#636FE1"/>
<path d="M336.755 316.262C336.761 310.151 335.249 304.135 332.353 298.753C329.457 293.372 325.269 288.794 320.165 285.432C315.061 282.071 309.202 280.03 303.114 279.493C297.025 278.956 290.899 279.941 285.286 282.359C279.673 284.776 274.748 288.55 270.956 293.342C267.163 298.134 264.621 303.793 263.558 309.811C262.495 315.829 262.945 322.016 264.866 327.817C266.788 333.618 270.122 338.85 274.567 343.044C276.298 344.621 277.562 346.644 278.218 348.892C278.875 351.139 278.899 353.524 278.288 355.785L271.687 378.541C271.285 379.94 271.213 381.413 271.476 382.844C271.74 384.275 272.333 385.626 273.207 386.789C274.082 387.953 275.215 388.898 276.517 389.549C277.818 390.2 279.254 390.541 280.709 390.543H318.94C320.395 390.541 321.831 390.2 323.132 389.549C324.434 388.898 325.567 387.953 326.442 386.789C327.316 385.626 327.909 384.275 328.173 382.844C328.437 381.413 328.364 379.94 327.962 378.541L321.386 355.861C320.773 353.603 320.793 351.22 321.445 348.972C322.097 346.725 323.355 344.7 325.082 343.12C328.768 339.684 331.706 335.527 333.714 330.906C335.723 326.285 336.758 321.3 336.755 316.262Z" fill="#5E6C84"/>
<path d="M328.044 378.541L321.468 355.862C320.855 353.603 320.875 351.22 321.527 348.972C322.179 346.725 323.437 344.7 325.164 343.121C329.967 338.624 333.477 332.924 335.33 326.612C337.183 320.3 337.311 313.607 335.701 307.229C334.09 300.85 330.8 295.02 326.173 290.344C321.545 285.667 315.749 282.316 309.388 280.638C301.732 282.705 294.935 287.156 289.981 293.346C285.027 299.536 282.174 307.144 281.836 315.064C281.656 320.291 282.595 325.496 284.59 330.331C286.586 335.165 289.592 339.517 293.407 343.095C295.139 344.672 296.402 346.695 297.058 348.943C297.715 351.191 297.739 353.576 297.128 355.836L286.985 390.492H319.022C320.472 390.488 321.901 390.148 323.198 389.499C324.495 388.851 325.624 387.911 326.498 386.754C327.371 385.597 327.965 384.254 328.234 382.829C328.502 381.404 328.437 379.937 328.044 378.541Z" fill="#253858"/>
<path d="M256.196 314.045C256.196 310.767 254.893 307.623 252.575 305.305C250.257 302.988 247.113 301.686 243.834 301.686H128.43C126.761 301.61 125.094 301.873 123.53 302.459C121.966 303.045 120.537 303.943 119.329 305.097C118.121 306.25 117.16 307.637 116.503 309.173C115.846 310.709 115.508 312.362 115.508 314.032C115.508 315.702 115.846 317.355 116.503 318.891C117.16 320.426 118.121 321.813 119.329 322.967C120.537 324.121 121.966 325.018 123.53 325.604C125.094 326.191 126.761 326.454 128.43 326.378H243.707C245.339 326.395 246.958 326.088 248.471 325.476C249.983 324.865 251.36 323.959 252.521 322.812C253.682 321.666 254.605 320.301 255.235 318.796C255.866 317.291 256.192 315.676 256.196 314.045Z" fill="#2684FF"/>
<path d="M128.43 326.454H303.219C304.888 326.53 306.554 326.267 308.119 325.681C309.683 325.094 311.112 324.197 312.32 323.043C313.528 321.889 314.489 320.503 315.146 318.967C315.802 317.431 316.141 315.778 316.141 314.108C316.141 312.438 315.802 310.785 315.146 309.249C314.489 307.713 313.528 306.327 312.32 305.173C311.112 304.019 309.683 303.122 308.119 302.535C306.554 301.949 304.888 301.686 303.219 301.762H128.43C126.761 301.686 125.094 301.949 123.53 302.535C121.966 303.122 120.537 304.019 119.329 305.173C118.121 306.327 117.16 307.713 116.503 309.249C115.846 310.785 115.508 312.438 115.508 314.108C115.508 315.778 115.846 317.431 116.503 318.967C117.16 320.503 118.121 321.889 119.329 323.043C120.537 324.197 121.966 325.094 123.53 325.681C125.094 326.267 126.761 326.53 128.43 326.454Z" fill="#0065FF"/>
<path d="M256.196 314.045C256.196 310.767 254.893 307.623 252.575 305.305C250.257 302.988 247.113 301.686 243.834 301.686H128.43C126.761 301.61 125.094 301.873 123.53 302.459C121.966 303.045 120.537 303.943 119.329 305.097C118.121 306.25 117.16 307.637 116.503 309.173C115.846 310.709 115.508 312.362 115.508 314.032C115.508 315.702 115.846 317.355 116.503 318.891C117.16 320.426 118.121 321.813 119.329 322.967C120.537 324.121 121.966 325.018 123.53 325.604C125.094 326.191 126.761 326.454 128.43 326.378H243.707C245.339 326.395 246.958 326.088 248.471 325.476C249.983 324.865 251.36 323.959 252.521 322.812C253.682 321.666 254.605 320.301 255.235 318.796C255.866 317.291 256.192 315.676 256.196 314.045Z" fill="#2684FF"/>
<path d="M70.4456 384.53C56.515 384.53 42.897 380.4 31.3134 372.663C19.7298 364.926 10.7006 353.929 5.36726 341.062C0.033901 328.195 -1.36413 314.036 1.3499 300.374C4.06393 286.713 10.7682 274.163 20.6151 264.311C30.462 254.458 43.0094 247.746 56.6711 245.023C70.3329 242.299 84.4955 243.687 97.3687 249.01C110.242 254.333 121.247 263.353 128.994 274.929C136.741 286.505 140.881 300.117 140.891 314.045C140.884 332.728 133.462 350.644 120.254 363.86C107.046 377.075 89.1316 384.509 70.4456 384.53ZM70.4456 268.381C61.3941 268.381 52.546 271.066 45.021 276.095C37.496 281.125 31.6323 288.273 28.1719 296.635C24.7115 304.998 23.81 314.199 25.5815 323.074C27.3529 331.949 31.7177 340.099 38.1234 346.493C44.5292 352.887 52.688 357.237 61.5674 358.993C70.4469 360.749 79.6478 359.833 88.006 356.359C96.3642 352.885 103.504 347.011 108.522 339.479C113.539 331.946 116.21 323.095 116.194 314.045C116.147 301.933 111.311 290.332 102.74 281.772C94.169 273.212 82.5598 268.389 70.4456 268.356V268.381Z" fill="#2684FF"/>
<defs>
<linearGradient id="paint0_linear" x1="139.947" y1="212.579" x2="162.789" y2="189.737" gradientUnits="userSpaceOnUse">
<stop stop-color="#1EECC2"/>
<stop offset="1" stop-color="#1EECC2" stop-opacity="0"/>
</linearGradient>
<linearGradient id="paint1_linear" x1="261.316" y1="99.5232" x2="263.76" y2="97.0758" gradientUnits="userSpaceOnUse">
<stop stop-color="#DCE5EC"/>
<stop offset="1" stop-color="#1EECC2" stop-opacity="0"/>
</linearGradient>
<linearGradient id="paint2_linear" x1="81.3158" y1="163.523" x2="83.7601" y2="161.076" gradientUnits="userSpaceOnUse">
<stop stop-color="#DCE5EC"/>
<stop offset="1" stop-color="#1EECC2" stop-opacity="0"/>
</linearGradient>
<linearGradient id="paint3_linear" x1="529.053" y1="108.421" x2="537.211" y2="100.263" gradientUnits="userSpaceOnUse">
<stop stop-color="#C463BE"/>
<stop offset="1" stop-color="#C463BE" stop-opacity="0"/>
</linearGradient>
<linearGradient id="paint4_linear" x1="145815" y1="70750.6" x2="145250" y2="70765.6" gradientUnits="userSpaceOnUse">
<stop stop-color="#65D3AA"/>
<stop offset="1" stop-color="#4552DD"/>
</linearGradient>
<linearGradient id="paint5_linear" x1="145815" y1="70750.6" x2="145250" y2="70765.6" gradientUnits="userSpaceOnUse">
<stop stop-color="#65D3AA"/>
<stop offset="1" stop-color="#4552DD"/>
</linearGradient>
<linearGradient id="paint6_linear" x1="145815" y1="70750.6" x2="145250" y2="70765.6" gradientUnits="userSpaceOnUse">
<stop stop-color="#65D3AA"/>
<stop offset="1" stop-color="#4552DD"/>
</linearGradient>
<linearGradient id="paint7_linear" x1="145815" y1="70750.6" x2="145250" y2="70765.6" gradientUnits="userSpaceOnUse">
<stop stop-color="#65D3AA"/>
<stop offset="1" stop-color="#4552DD"/>
</linearGradient>
</defs>
</svg>
