<?xml version="1.0" standalone="no"?>
<!DOCTYPE svg PUBLIC "-//W3C//DTD SVG 20010904//EN"
 "http://www.w3.org/TR/2001/REC-SVG-20010904/DTD/svg10.dtd">
<svg version="1.0" xmlns="http://www.w3.org/2000/svg"
 width="1008.000000pt" height="1008.000000pt" viewBox="0 0 1008.000000 1008.000000"
 preserveAspectRatio="xMidYMid meet">
<metadata>
Created by potrace 1.11, written by Peter Selinger 2001-2013
</metadata>
<g transform="translate(0.000000,1008.000000) scale(0.100000,-0.100000)"
fill="#000000" stroke="none">
<path d="M3013 7658 c-58 -9 -101 -30 -162 -76 -43 -32 -66 -62 -113 -143 -32
-56 -58 -106 -58 -111 0 -4 -4 -8 -10 -8 -5 0 -10 -4 -10 -10 0 -5 -19 -42
-43 -82 -24 -40 -46 -80 -50 -88 -4 -8 -13 -24 -20 -35 -7 -11 -46 -78 -87
-150 -41 -71 -79 -138 -85 -147 -16 -26 -91 -158 -137 -239 -7 -13 -15 -26
-18 -29 -3 -3 -11 -16 -18 -30 -7 -14 -25 -47 -42 -75 -16 -27 -42 -72 -56
-100 -15 -27 -30 -51 -35 -53 -5 -2 -9 -8 -9 -12 0 -5 -13 -31 -29 -58 -28
-49 -40 -69 -127 -222 -26 -47 -51 -87 -54 -90 -3 -3 -12 -20 -19 -37 -8 -18
-17 -33 -22 -33 -5 0 -9 -5 -9 -10 0 -6 -83 -153 -184 -328 -180 -312 -406
-703 -433 -752 -8 -14 -26 -46 -41 -71 -22 -37 -207 -358 -247 -427 -5 -10
-55 -95 -110 -190 -55 -95 -111 -192 -124 -215 -12 -23 -41 -72 -62 -109 -22
-37 -39 -71 -38 -74 0 -4 -3 -10 -9 -13 -5 -3 -46 -71 -91 -151 -46 -80 -141
-246 -213 -370 -217 -374 -202 -339 -201 -475 0 -95 14 -127 75 -180 91 -79
41 -75 805 -75 l681 0 100 198 c54 108 114 222 132 252 18 30 41 69 50 85 9
17 54 93 100 170 45 77 93 158 105 180 13 22 57 98 99 169 42 70 76 129 76
131 0 2 16 27 35 56 19 30 35 59 35 66 0 7 4 13 9 13 5 0 13 9 16 21 4 11 30
59 59 107 29 48 100 168 158 267 58 99 145 247 194 330 49 82 91 154 93 160 2
5 28 49 58 98 29 48 53 92 53 97 0 6 5 10 10 10 6 0 10 4 10 9 0 12 143 255
152 259 5 2 8 8 8 14 0 6 29 59 65 118 36 59 65 113 65 119 0 6 4 11 8 11 4 0
21 26 37 58 16 31 31 59 35 62 5 4 135 225 215 365 56 97 121 199 130 202 6 1
18 -14 28 -35 22 -47 49 -93 65 -110 6 -7 12 -17 12 -22 0 -5 6 -15 13 -22 6
-8 19 -27 28 -43 9 -17 45 -78 80 -137 35 -59 71 -120 79 -135 9 -16 28 -47
43 -70 15 -24 27 -46 27 -49 0 -4 11 -22 24 -39 39 -50 40 -74 6 -130 -16 -27
-38 -66 -48 -85 -10 -19 -57 -104 -105 -189 -48 -84 -87 -157 -87 -162 0 -5
-4 -9 -10 -9 -5 0 -10 -4 -10 -9 0 -8 -96 -185 -120 -221 -5 -8 -24 -42 -41
-75 -17 -33 -35 -61 -40 -63 -5 -2 -9 -8 -9 -13 0 -5 -20 -44 -44 -87 -24 -42
-54 -95 -66 -117 -12 -22 -40 -70 -61 -107 -22 -36 -39 -71 -39 -76 0 -6 -3
-12 -7 -14 -5 -1 -16 -19 -27 -38 -10 -19 -106 -188 -213 -375 -108 -187 -206
-359 -219 -382 -13 -23 -53 -92 -89 -153 -36 -61 -65 -113 -65 -116 0 -3 -16
-30 -35 -60 -19 -30 -35 -56 -35 -59 0 -3 -18 -34 -40 -70 -22 -36 -40 -67
-40 -69 0 -2 -29 -54 -65 -115 -36 -62 -65 -116 -65 -122 0 -5 -4 -9 -9 -9 -5
0 -11 -9 -14 -20 -5 -20 0 -20 876 -20 l882 1 101 202 c56 111 200 369 319
572 120 204 231 395 248 425 16 30 36 62 43 71 8 8 14 19 14 23 0 4 7 18 16
31 13 20 19 22 34 13 10 -7 17 -15 14 -19 -10 -17 9 -40 29 -35 14 3 17 2 9
-6 -14 -14 6 -58 27 -58 14 0 14 -2 1 -10 -11 -7 -11 -10 -2 -10 7 0 10 -4 7
-10 -3 -5 -1 -10 4 -10 6 0 11 -7 11 -15 0 -9 7 -18 15 -21 8 -4 12 -10 9 -15
-3 -5 4 -22 15 -38 11 -16 25 -41 31 -56 6 -17 15 -25 24 -22 8 3 17 0 20 -8
3 -9 0 -12 -10 -8 -10 4 -6 -10 13 -40 15 -25 31 -43 37 -40 5 3 6 1 3 -5 -8
-12 2 -44 12 -38 4 3 8 -5 8 -16 1 -12 6 -24 10 -27 4 -3 15 -19 23 -36 8 -16
17 -32 20 -35 6 -6 50 -86 65 -117 5 -13 13 -23 18 -23 4 0 7 -4 7 -9 0 -8
100 -188 269 -484 l73 -127 885 0 885 0 -14 23 c-45 67 -78 126 -78 136 0 6
-4 11 -8 11 -4 0 -13 12 -20 28 -6 15 -35 65 -63 112 -49 80 -64 106 -108 183
-10 17 -32 56 -50 85 -17 29 -31 54 -31 56 0 2 -42 75 -93 162 -52 88 -105
179 -119 204 -33 59 -55 97 -118 205 -52 89 -72 124 -109 188 -10 17 -78 136
-151 262 -73 127 -142 246 -152 265 -11 19 -25 38 -32 42 -6 4 -7 8 -3 8 7 0
-8 26 -70 126 -7 10 -22 38 -34 61 -12 23 -27 39 -32 36 -6 -3 -7 -1 -3 6 4 6
-1 23 -12 39 -11 15 -23 37 -26 50 -4 12 -12 20 -17 17 -5 -4 -9 2 -9 12 0 10
-14 38 -30 62 -17 24 -30 48 -30 54 0 5 -10 7 -22 4 -22 -6 -22 -6 -4 8 11 8
14 15 7 15 -7 0 -9 4 -6 10 3 6 1 10 -4 10 -6 0 -11 7 -11 16 0 10 -5 14 -16
10 -9 -4 -12 -2 -8 5 3 6 -2 28 -12 50 -20 41 -36 52 -27 19 3 -11 0 -20 -6
-20 -5 0 -8 7 -4 15 3 9 2 15 -3 14 -21 -4 -34 2 -44 21 -9 16 -8 18 5 14 8
-3 13 -10 10 -14 -10 -16 24 -18 37 -3 11 14 11 16 -4 10 -13 -4 -15 -2 -11
10 4 11 2 14 -5 9 -8 -5 -12 1 -12 18 0 39 -30 29 -36 -11 -1 -7 -9 -20 -18
-29 -24 -23 -19 -40 4 -19 17 16 20 16 15 3 -10 -26 -34 -29 -46 -6 -6 11 -7
18 -2 15 4 -3 16 6 26 19 19 25 8 34 -12 10 -11 -13 -15 -12 -32 5 -10 10 -25
19 -31 19 -7 -1 -3 -9 10 -19 24 -21 29 -33 9 -25 -8 3 -13 -4 -14 -17 -1 -14
2 -18 10 -12 8 6 20 1 34 -14 25 -26 14 -32 -12 -7 -9 9 -19 13 -23 9 -4 -4 4
-15 17 -26 13 -11 21 -22 18 -25 -7 -8 -30 14 -46 44 -6 12 -16 22 -22 22 -6
0 -7 -4 -4 -10 3 -5 0 -7 -8 -4 -8 3 -14 -1 -14 -10 0 -9 8 -14 20 -13 11 1
22 -5 24 -13 4 -13 3 -13 -6 0 -5 8 -13 12 -16 9 -9 -9 6 -40 16 -33 5 3 9 2
9 -3 -1 -15 -51 -45 -66 -39 -16 6 -19 -10 -3 -19 5 -4 28 5 49 19 29 19 38
31 33 43 -5 16 -4 16 9 -1 12 -15 18 -17 36 -7 18 9 23 8 32 -9 7 -13 7 -20 0
-20 -5 0 -10 7 -10 15 0 20 -23 9 -35 -17 -11 -24 -41 -39 -33 -17 3 8 11 13
17 12 6 -2 11 1 11 5 0 22 -16 19 -53 -10 -33 -26 -42 -30 -58 -20 -26 17 -49
15 -26 -2 24 -18 22 -29 -3 -14 -11 7 -18 19 -15 26 3 8 0 12 -6 10 -6 -2 -11
-8 -11 -13 0 -6 -9 -22 -20 -37 -19 -28 -15 -35 10 -19 8 4 13 12 12 17 -3 16
17 15 30 -1 10 -13 11 -18 1 -28 -10 -9 -12 -8 -9 7 1 10 -2 21 -7 23 -6 2
-11 -6 -12 -17 -2 -25 23 -38 40 -21 6 6 18 11 26 11 9 0 1 -8 -17 -17 -30
-15 -34 -15 -52 2 -19 18 -20 17 -20 -3 0 -12 3 -21 8 -21 26 4 31 -2 20 -26
-6 -13 -16 -22 -21 -18 -6 4 -8 0 -5 -8 7 -17 -37 -25 -47 -9 -3 6 -11 10 -17
10 -7 0 -7 -5 1 -14 8 -9 8 -21 2 -40 -9 -21 -7 -27 7 -35 28 -15 45 1 27 25
-23 31 -17 40 7 9 20 -25 20 -29 5 -40 -9 -7 -13 -16 -9 -20 4 -4 -5 0 -20 10
-16 10 -28 13 -28 7 0 -6 9 -16 20 -22 11 -6 20 -16 20 -23 0 -7 -4 -6 -10 3
-5 8 -10 11 -10 5 0 -5 -6 0 -14 11 -15 20 -15 50 -1 89 6 17 4 16 -15 -4 -11
-13 -19 -30 -16 -37 3 -7 0 -11 -7 -8 -8 2 -13 -4 -14 -17 -2 -16 1 -18 11
-10 10 9 15 8 20 -4 7 -18 -3 -47 -14 -40 -5 3 -11 -4 -15 -15 -3 -11 -11 -20
-16 -20 -6 0 -3 10 5 22 10 14 12 27 6 38 -5 10 -7 27 -5 40 3 16 0 20 -11 16
-9 -3 -19 -6 -23 -6 -4 0 -7 -10 -8 -22 -2 -22 -1 -22 12 -4 14 18 14 18 14 0
0 -11 1 -28 3 -39 2 -16 -2 -20 -22 -18 l-25 3 28 -25 c17 -15 33 -22 44 -18
15 6 16 5 3 -9 -12 -13 -17 -13 -28 -1 -7 7 -19 13 -25 13 -7 0 -3 -8 8 -16
20 -16 20 -16 -2 -10 -16 5 -25 2 -32 -13 -14 -25 -14 -32 1 -28 6 1 13 -7 15
-18 2 -15 1 -16 -5 -5 -4 8 -16 16 -27 18 -16 2 -13 -3 13 -28 19 -17 31 -34
28 -37 -3 -3 -19 9 -35 28 -16 18 -32 31 -35 28 -4 -3 5 -18 18 -32 14 -15 21
-27 16 -27 -5 0 -12 5 -15 10 -4 6 -11 8 -16 5 -13 -9 -11 -26 2 -22 6 1 14
-5 16 -13 4 -13 3 -13 -6 0 -6 8 -11 11 -11 6 0 -6 -10 1 -21 13 -17 18 -23
20 -30 9 -13 -20 -11 -32 5 -19 10 9 15 8 19 -3 4 -11 1 -13 -10 -9 -10 4 -14
2 -9 -5 10 -16 -13 -25 -29 -12 -9 7 -15 8 -15 2 0 -23 26 -32 48 -16 12 8 22
11 22 5 0 -5 -9 -13 -20 -16 -11 -4 -18 -10 -15 -15 3 -4 -2 -10 -10 -13 -10
-4 -12 -1 -8 10 4 11 3 14 -6 9 -7 -4 -10 -3 -9 5 2 6 -3 14 -11 17 -9 3 -11
0 -6 -8 4 -7 2 -16 -5 -20 -24 -15 -20 -54 6 -67 25 -11 34 0 12 14 -15 9 -20
43 -7 43 5 0 9 -9 9 -19 0 -11 4 -22 9 -25 11 -7 33 18 24 27 -3 4 -1 7 5 7
18 0 15 -14 -8 -40 -11 -13 -20 -28 -20 -33 0 -6 -6 -3 -13 7 -8 11 -18 17
-24 15 -6 -2 3 -17 18 -34 27 -27 29 -28 29 -9 0 30 31 56 50 43 12 -9 12 -10
-3 -5 -14 4 -22 -3 -33 -29 -8 -19 -17 -35 -20 -35 -3 0 -17 14 -31 31 -14 16
-32 28 -39 25 -8 -3 -22 4 -33 15 -18 20 -18 20 -18 -5 0 -14 3 -24 6 -21 11
6 36 -13 28 -22 -5 -4 -12 -1 -17 7 -8 12 -10 12 -10 1 0 -7 -6 -11 -15 -8 -8
4 -17 2 -20 -3 -4 -6 -3 -11 2 -11 14 -2 87 -9 105 -10 23 -1 32 -17 19 -33
-6 -7 -8 -16 -4 -19 3 -4 1 -7 -6 -7 -7 0 -11 6 -8 14 8 21 -3 27 -19 11 -15
-15 -44 -10 -44 7 0 7 5 6 14 -1 10 -9 17 -7 27 6 12 15 12 16 -3 10 -10 -3
-20 -2 -23 3 -10 16 -22 11 -28 -9 -3 -13 3 -26 17 -36 20 -16 19 -16 -6 -1
-24 14 -27 14 -32 0 -8 -22 -8 -24 8 -18 7 3 20 -2 29 -10 17 -18 32 -21 22
-6 -4 6 1 7 12 3 16 -6 16 -5 4 10 -9 11 -10 17 -2 17 6 0 11 -5 11 -11 0 -5
6 -7 13 -4 6 4 -1 -5 -17 -19 -29 -24 -30 -24 -44 -5 -21 30 -35 23 -15 -8 10
-15 12 -24 6 -20 -7 5 -13 4 -13 -2 0 -6 -5 -11 -11 -11 -5 0 -8 4 -5 9 4 5 3
11 -1 14 -5 2 -2 2 5 0 8 -1 12 3 9 9 -2 7 -13 11 -23 10 -27 -5 -29 -9 -13
-29 9 -11 10 -14 2 -9 -7 4 -13 2 -13 -3 0 -6 -5 -11 -11 -11 -5 0 -7 6 -3 12
12 20 12 49 0 45 -6 -3 -10 -10 -8 -17 1 -7 -3 -18 -9 -26 -7 -8 -9 -17 -7
-20 9 -8 41 -7 63 2 17 7 18 6 5 -8 -8 -9 -19 -13 -24 -10 -5 3 -6 -3 -3 -14
7 -18 6 -18 -7 -1 -7 9 -19 17 -27 17 -11 0 -12 -2 -1 -9 7 -4 14 -14 15 -22
2 -8 6 -20 11 -28 6 -9 4 -18 -7 -26 -9 -7 -13 -16 -9 -21 4 -4 -1 -2 -12 6
-17 13 -22 10 -61 -33 -23 -26 -46 -47 -52 -47 -6 0 -16 -7 -23 -15 -16 -19
-3 -19 30 0 27 15 54 21 31 6 -11 -7 -9 -10 8 -16 11 -3 21 -11 21 -16 0 -6
-10 -3 -21 5 -16 10 -28 12 -46 5 -14 -5 -31 -5 -41 0 -9 4 -24 6 -32 4 -9 -3
-8 0 4 9 12 10 16 20 11 29 -5 8 1 5 13 -5 22 -19 31 -10 12 12 -7 9 -7 9 2 2
16 -13 51 -13 43 0 -4 6 -11 8 -16 5 -5 -4 -12 1 -15 9 -3 9 -11 13 -17 9 -6
-4 -7 -1 -3 6 5 7 11 10 14 7 3 -3 11 -1 19 6 7 6 16 8 20 5 8 -8 33 12 33 25
0 6 -7 5 -15 -2 -17 -14 -28 -8 -31 15 -2 12 2 12 17 5 21 -12 26 -1 7 18 -12
12 -10 13 14 16 6 0 13 7 16 14 2 8 -2 10 -13 5 -15 -5 -15 -3 1 16 11 12 19
25 19 29 0 4 8 18 18 32 9 13 17 19 17 13 0 -7 -4 -14 -10 -18 -5 -3 -7 -12
-4 -19 3 -7 -2 -16 -10 -19 -9 -4 -16 -12 -16 -19 0 -9 3 -9 11 -1 6 6 17 9
24 7 7 -3 11 4 10 18 -1 13 1 30 6 39 5 10 3 21 -4 28 -18 18 39 67 59 51 7
-7 18 -9 24 -5 14 9 13 25 -2 20 -7 -3 -20 -1 -28 4 -12 9 -12 12 3 29 9 10
14 22 10 27 -5 4 -2 4 6 0 11 -6 13 -4 8 9 -4 10 1 24 14 37 11 11 17 25 13
31 -4 7 -3 8 5 4 7 -4 9 -17 6 -29 -6 -22 -6 -22 10 -3 10 13 12 23 5 30 -5 5
-10 14 -10 20 0 5 7 1 15 -10 17 -22 20 -12 4 18 -9 16 -8 19 2 13 9 -6 11 -4
6 7 -3 9 2 24 12 34 9 11 18 24 19 29 2 6 12 20 22 33 11 12 18 22 15 22 -3 0
2 14 10 30 9 17 20 28 25 25 5 -3 11 -1 15 5 3 5 2 10 -3 10 -5 0 -9 6 -9 14
0 8 5 14 11 13 6 -1 10 7 8 18 -2 15 0 17 6 6 11 -16 21 -3 16 22 -2 18 -2 18
17 1 24 -21 25 -7 2 18 -10 11 -13 19 -8 18 6 -2 17 -2 25 -1 13 1 13 3 0 12
-13 9 -12 10 3 5 16 -5 25 8 10 17 -5 2 -3 2 4 1 6 -2 17 4 25 13 11 14 10 15
-11 8 -17 -5 -21 -4 -16 5 4 7 17 9 31 6 18 -5 22 -3 18 8 -3 8 -11 14 -17 12
-7 -1 -9 -1 -4 1 4 3 5 9 1 14 -3 5 0 9 5 9 6 0 11 -4 11 -9 0 -5 8 -8 18 -7
11 0 16 -6 16 -17 -1 -10 3 -16 10 -14 6 3 9 11 7 18 -2 8 -4 29 -4 47 1 26
-2 30 -13 22 -7 -7 -10 -18 -7 -26 6 -16 -5 -18 -25 -5 -11 7 -11 9 2 14 9 4
15 12 14 19 -2 7 3 12 11 13 8 0 16 6 19 14 3 9 0 11 -8 6 -9 -5 -11 -4 -6 4
4 6 11 9 16 6 4 -3 11 2 14 11 5 12 2 15 -11 9 -13 -4 -12 -1 5 15 12 12 19
27 16 33 -4 7 -3 9 1 4 5 -4 16 10 26 30 9 21 18 32 18 25 1 -10 4 -10 15 0
16 15 10 32 -7 21 -7 -3 -4 3 6 14 9 11 14 23 10 26 -3 4 -1 7 5 7 7 0 12 -5
12 -11 0 -5 5 -7 10 -4 7 4 6 13 -1 27 -9 16 -8 19 2 13 8 -6 11 -4 6 7 -7 20
11 38 32 30 14 -5 14 -4 2 11 -8 10 -11 20 -7 24 3 3 6 1 6 -6 0 -7 5 -9 11
-5 7 4 7 10 1 16 -7 7 0 25 19 53 16 24 29 48 29 54 0 16 32 10 47 -9 13 -17
-2 -55 -18 -45 -5 4 -9 1 -9 -5 0 -7 12 -9 30 -6 23 3 33 -1 40 -15 10 -18 3
-24 -22 -20 -12 2 -9 -13 6 -35 12 -15 17 -16 27 -7 16 16 22 53 9 53 -6 0
-10 7 -10 15 0 8 -4 15 -8 15 -5 0 -14 16 -22 35 -8 19 -18 35 -22 35 -5 0 -6
4 -3 10 4 6 -1 7 -11 3 -13 -5 -15 -3 -8 8 4 8 9 19 10 24 1 6 28 54 60 108
71 118 66 109 134 225 30 51 66 112 79 135 13 23 36 60 50 82 28 44 38 61 70
122 35 65 46 70 79 37 22 -23 178 -279 259 -424 8 -14 25 -43 39 -65 13 -22
27 -47 31 -55 4 -8 29 -50 55 -93 26 -43 48 -81 48 -83 0 -3 9 -17 19 -32 10
-15 95 -157 188 -317 94 -159 207 -353 253 -430 46 -77 94 -160 108 -185 14
-25 32 -56 42 -70 9 -14 20 -32 24 -40 4 -8 12 -24 19 -35 11 -18 127 -214
152 -257 6 -9 37 -63 70 -119 33 -56 67 -113 75 -128 48 -83 130 -221 177
-298 18 -30 33 -55 33 -58 0 -2 18 -34 41 -72 22 -37 45 -75 49 -83 15 -26
184 -310 213 -359 15 -25 30 -54 34 -63 3 -10 9 -18 14 -18 5 0 9 -5 9 -10 0
-6 25 -51 55 -101 30 -50 55 -92 55 -95 0 -2 12 -22 26 -44 l27 -40 642 0
c703 0 695 -1 763 59 18 16 44 49 57 73 13 23 31 55 39 69 22 38 25 108 7 154
-8 22 -18 42 -21 45 -7 5 -67 108 -224 385 -31 55 -61 107 -66 115 -58 98
-140 242 -140 247 0 3 -6 14 -14 22 -7 9 -27 41 -43 71 -32 59 -138 245 -153
270 -22 36 -95 166 -99 175 -2 5 -9 17 -16 25 -7 8 -26 40 -42 70 -65 120 -86
156 -99 170 -7 8 -12 17 -11 20 0 3 -6 16 -15 30 -18 29 -426 740 -468 815
-26 47 -190 333 -209 365 -5 8 -72 125 -149 260 -77 135 -149 259 -159 277
-10 17 -95 166 -190 330 -137 238 -413 719 -536 933 -11 19 -28 49 -38 65 -10
17 -23 40 -28 52 -9 20 -89 103 -122 128 -23 17 -69 35 -89 35 -10 0 -21 6
-24 13 -4 6 -4 1 -2 -13 5 -23 4 -24 -9 -7 -15 20 -72 29 -92 14 -7 -5 -13 -6
-13 -1 0 5 -5 2 -10 -6 -8 -13 -10 -12 -10 3 0 20 -11 22 -28 5 -7 -7 -12 -8
-12 -2 0 5 -5 2 -10 -6 -8 -13 -10 -13 -10 2 0 15 -4 16 -27 7 -19 -7 -28 -6
-34 2 -5 8 -9 6 -12 -7 -4 -16 -5 -16 -6 -2 -1 15 -5 16 -28 7 -20 -7 -28 -6
-35 3 -7 12 -12 4 -9 -15 1 -4 -10 0 -23 8 -15 10 -26 12 -30 6 -4 -7 -15 -7
-31 -1 -13 5 -27 5 -29 1 -3 -5 -24 -5 -46 -1 -22 4 -40 4 -40 0 0 -10 -20 -8
-37 3 -7 5 -13 4 -13 -1 0 -5 -7 -9 -15 -9 -8 0 -15 4 -15 9 0 5 -9 4 -21 -2
-14 -8 -24 -8 -33 -1 -7 6 -15 8 -19 5 -9 -10 -57 -12 -63 -3 -3 5 -15 4 -26
-2 -15 -8 -22 -8 -28 1 -5 9 -13 9 -26 2 -11 -6 -27 -7 -41 -1 -15 5 -23 5
-23 -2 0 -6 -5 -7 -11 -3 -12 7 -462 8 -489 1 -35 -9 -87 -36 -117 -61 -26
-21 -127 -182 -205 -323 -9 -17 -44 -77 -78 -133 -33 -56 -60 -106 -60 -111 0
-5 -4 -9 -9 -9 -5 0 -11 -8 -15 -17 -3 -10 -14 -31 -23 -48 -10 -16 -38 -62
-61 -102 -44 -75 -62 -95 -62 -69 0 9 -4 16 -10 16 -5 0 -10 5 -10 10 0 6 -25
51 -55 101 -30 50 -55 95 -55 101 0 6 -9 19 -21 29 -11 9 -20 21 -20 26 1 4
-20 44 -46 88 -26 44 -48 82 -48 85 0 3 -13 24 -28 47 -15 24 -27 47 -27 53 0
5 -3 10 -8 10 -4 0 -13 14 -21 31 -22 51 -88 159 -118 195 -15 18 -54 45 -88
61 l-60 27 -681 1 c-375 0 -699 -3 -721 -7z m4007 -12 c0 -7 -40 -14 -44 -7
-3 4 6 8 20 9 13 1 24 0 24 -2z m-1026 -2561 c-4 -8 -11 -15 -16 -15 -6 0 -5
6 2 15 7 8 14 15 16 15 2 0 1 -7 -2 -15z m28 -119 c5 4 4 -4 -3 -17 -7 -13
-12 -27 -11 -31 1 -5 -2 -8 -8 -8 -13 0 -13 17 0 25 6 4 8 16 5 28 -2 12 -2
16 1 9 3 -6 10 -9 16 -6z m30 -34 c-7 -2 -10 -8 -7 -13 4 -5 -2 -6 -11 -2 -11
4 -13 8 -6 11 7 2 10 8 7 13 -4 5 2 6 11 2 11 -4 13 -8 6 -11z m38 8 c0 -5 -5
-10 -11 -10 -5 0 -7 5 -4 10 3 6 8 10 11 10 2 0 4 -4 4 -10z m-54 -42 c4 -7 3
-8 -4 -4 -7 4 -12 2 -12 -5 0 -7 -3 -10 -6 -6 -6 5 3 27 11 27 2 0 7 -5 11
-12z m36 5 c-6 -2 -9 -10 -6 -15 4 -7 2 -8 -5 -4 -13 9 -5 26 12 25 9 0 8 -2
-1 -6z m-29 -38 c-3 -9 -8 -14 -10 -11 -3 3 -2 9 2 15 9 16 15 13 8 -4z m-59
-47 c-6 -10 -38 -11 -47 -2 -3 4 2 17 11 29 l17 23 12 -21 c6 -12 9 -25 7 -29z
m79 37 c-3 -9 -8 -14 -10 -11 -3 3 -2 9 2 15 9 16 15 13 8 -4z m61 7 c2 -4 0
-14 -6 -22 -8 -12 -9 -12 -5 2 3 9 1 19 -6 22 -9 3 -9 5 0 5 6 1 14 -3 17 -7z
m-109 -20 c-3 -3 -11 0 -18 7 -9 10 -8 11 6 5 10 -3 15 -9 12 -12z m-105 -25
c0 -5 -4 -5 -10 -2 -5 3 -10 14 -10 23 0 15 2 15 10 2 5 -8 10 -19 10 -23z
m135 13 c3 -5 1 -10 -4 -10 -6 0 -11 5 -11 10 0 6 2 10 4 10 3 0 8 -4 11 -10z
m-175 -19 c-11 -22 -51 -25 -43 -4 3 7 9 13 15 13 5 0 6 -4 3 -10 -3 -5 -2
-10 3 -10 6 0 12 7 16 15 3 8 8 15 11 15 3 0 1 -9 -5 -19z m12 -28 c-5 -10 -8
-24 -6 -31 1 -7 0 -8 -3 -2 -2 5 -9 8 -14 5 -5 -3 -1 7 9 24 18 32 30 35 14 4z
m68 10 c0 -3 -7 -3 -15 0 -8 4 -17 2 -20 -3 -4 -6 -1 -10 4 -10 6 0 11 -5 11
-11 0 -8 -5 -7 -16 2 -14 11 -15 10 -12 -7 3 -19 16 -34 31 -34 5 0 5 5 2 10
-3 6 -4 10 -1 10 16 0 13 -21 -5 -30 -12 -7 -19 -8 -15 -2 3 6 1 12 -6 14 -18
6 -19 41 -2 60 14 14 44 15 44 1z m60 13 c0 -2 -7 -7 -16 -10 -8 -3 -12 -2 -9
4 6 10 25 14 25 6z m59 1 c-2 -1 -13 -9 -24 -17 -19 -14 -19 -14 -6 3 7 9 18
17 24 17 6 0 8 -1 6 -3z m75 -13 c3 -8 2 -12 -4 -9 -6 3 -10 10 -10 16 0 14 7
11 14 -7z m-136 -18 c-7 -8 -15 -12 -17 -11 -5 6 10 25 20 25 5 0 4 -6 -3 -14z
m83 -4 c-7 -2 -18 1 -23 6 -8 8 -4 9 13 5 13 -4 18 -8 10 -11z m-127 -7 c3 -8
1 -15 -4 -15 -6 0 -10 7 -10 15 0 8 2 15 4 15 2 0 6 -7 10 -15z m178 0 c2 3 5
-2 5 -10 0 -19 0 -19 -23 7 -12 14 -13 18 -3 10 9 -6 18 -10 21 -7z m-107 -5
c3 -6 -1 -7 -9 -4 -18 7 -21 14 -7 14 6 0 13 -4 16 -10z m51 -17 c-3 -4 2 -16
11 -27 18 -21 18 -21 -4 -2 -13 10 -20 23 -16 29 4 6 0 8 -9 5 -8 -4 -15 0
-15 7 0 11 5 11 20 4 10 -6 16 -13 13 -16z m-236 -3 c8 -5 11 -10 5 -10 -5 0
-17 5 -25 10 -8 5 -10 10 -5 10 6 0 17 -5 25 -10z m293 -13 c4 3 7 4 7 0 0
-17 -20 -14 -36 6 -19 22 -19 22 2 4 11 -9 24 -14 27 -10z m-319 -8 c20 3 26
0 20 -10 -5 -8 -9 -8 -14 1 -5 8 -18 -1 -40 -27 -31 -36 -32 -37 -14 -5 10 17
22 32 26 32 4 0 5 8 2 18 -4 13 -3 14 4 4 5 -8 12 -13 16 -13z m231 1 c10 -11
16 -20 13 -20 -3 0 -13 9 -23 20 -10 11 -16 20 -13 20 3 0 13 -9 23 -20z m-48
-10 c-19 -25 -20 -26 -14 -8 3 9 1 19 -6 21 -7 3 -2 4 10 4 18 -1 20 -4 10
-17z m188 11 c-9 -8 -36 -10 -30 -2 2 4 11 8 20 8 8 0 13 -3 10 -6z m-242 -22
c-8 -8 -13 -7 -18 2 -5 8 -4 10 3 5 7 -4 12 -2 12 5 0 7 3 9 7 6 4 -4 2 -12
-4 -18z m-49 -21 c1 -14 -2 -24 -7 -21 -5 3 -7 14 -4 24 4 14 0 19 -14 19 -10
0 -18 -6 -16 -12 1 -8 -8 -12 -26 -11 -24 2 -27 0 -17 -13 9 -10 9 -14 1 -14
-6 0 -11 5 -11 11 0 5 -6 7 -12 3 -9 -5 -9 -3 1 9 9 11 21 15 38 11 13 -4 23
-2 22 2 -3 20 2 25 23 22 15 -2 22 -10 22 -30z m157 7 c15 1 26 -3 26 -11 0
-11 -3 -11 -15 -1 -8 6 -16 12 -16 11 -1 0 -10 -6 -21 -12 -17 -9 -21 -7 -21
8 0 12 4 16 11 11 5 -4 22 -7 36 -6z m87 -10 c-3 -3 -9 2 -12 12 -6 14 -5 15
5 6 7 -7 10 -15 7 -18z m-223 5 c-3 -5 -1 -10 6 -10 7 0 10 -3 6 -6 -9 -9 -28
6 -22 17 4 5 8 9 11 9 3 0 2 -4 -1 -10z m58 -4 c4 -10 0 -12 -15 -8 -15 4 -17
7 -6 13 17 11 15 11 21 -5z m147 0 c0 -2 -8 -10 -17 -17 -16 -13 -17 -12 -4 4
13 16 21 21 21 13z m120 -6 c0 -5 -5 -10 -11 -10 -5 0 -7 5 -4 10 3 6 8 10 11
10 2 0 4 -4 4 -10z m-366 -16 c3 -8 2 -12 -4 -9 -6 3 -10 10 -10 16 0 14 7 11
14 -7z m-123 -16 c10 -13 18 -31 19 -40 0 -10 6 -17 13 -15 7 1 12 -8 12 -20
0 -13 -4 -23 -10 -22 -5 0 -13 -10 -17 -23 -7 -22 -7 -22 -5 2 1 14 8 24 15
23 6 -2 12 6 12 17 0 11 -5 19 -12 18 -6 -2 -14 6 -16 17 -2 11 -13 30 -25 43
-11 12 -17 22 -13 22 4 0 16 -10 27 -22z m286 7 c0 -8 -3 -13 -5 -10 -3 3 -10
0 -17 -5 -8 -7 -12 -5 -12 5 0 8 4 12 8 9 4 -2 10 0 14 6 9 14 12 13 12 -5z
m-247 -5 c0 -5 -4 -10 -10 -10 -5 0 -10 5 -10 10 0 6 5 10 10 10 6 0 10 -4 10
-10z m65 -1 c11 -16 1 -19 -13 -3 -7 8 -8 14 -3 14 5 0 13 -5 16 -11z m62 -3
c0 -8 -6 -12 -15 -9 -11 5 -11 7 0 14 7 5 13 9 14 9 0 0 1 -6 1 -14z m-103 -8
c-5 -8 -2 -9 9 -5 10 3 17 2 17 -3 0 -12 -27 -13 -34 -1 -3 4 -3 11 1 15 10
10 15 7 7 -6z m-109 -8 c3 -5 1 -10 -4 -10 -6 0 -11 5 -11 10 0 6 2 10 4 10 3
0 8 -4 11 -10z m380 1 c-9 -8 -36 -10 -30 -2 2 4 11 8 20 8 8 0 13 -3 10 -6z
m175 -1 c0 -5 -5 -10 -11 -10 -5 0 -7 5 -4 10 3 6 8 10 11 10 2 0 4 -4 4 -10z
m-446 -29 c-2 -3 -12 3 -22 13 -16 17 -16 18 5 5 12 -7 20 -15 17 -18z m162
10 c0 -16 -3 -17 -14 -9 -12 10 -7 19 13 28 1 0 1 -9 1 -19z m64 16 c0 -2 -8
-11 -18 -20 -15 -14 -19 -15 -19 -2 0 8 4 12 8 9 4 -2 10 0 14 6 6 10 15 14
15 7z m96 -9 c5 4 5 3 1 -2 -12 -15 -34 -15 -34 0 0 9 4 11 12 4 7 -5 16 -6
21 -2z m-253 -5 c3 -5 -6 -9 -20 -10 -19 -1 -22 1 -12 8 17 11 26 11 32 2z
m57 -3 c0 -5 -4 -10 -10 -10 -5 0 -10 5 -10 10 0 6 5 10 10 10 6 0 10 -4 10
-10z m-180 -45 c0 -5 -4 -4 -9 3 -6 10 -10 8 -14 -9 -4 -13 -9 -21 -12 -17 -3
3 0 17 6 32 9 19 15 23 21 14 4 -7 8 -17 8 -23z m281 22 c-6 -8 -9 -16 -6 -18
2 -3 -6 -5 -20 -5 -13 0 -21 4 -19 8 3 5 9 6 14 3 4 -3 13 2 20 10 7 8 15 15
17 15 3 0 0 -6 -6 -13z m35 -12 c-1 -13 -4 -27 -7 -30 -5 -4 -4 41 0 53 4 10
8 -2 7 -23z m-226 11 c0 -2 -7 -6 -15 -10 -8 -3 -15 -1 -15 4 0 6 7 10 15 10
8 0 15 -2 15 -4z m20 -11 c-7 -8 -17 -15 -23 -15 -6 0 -2 7 9 15 25 19 30 19
14 0z m101 -18 c-10 -9 -11 -8 -5 6 3 10 9 15 12 12 3 -3 0 -11 -7 -18z m-88
-18 c-4 -15 -8 -17 -14 -8 -6 11 4 28 18 29 0 0 -1 -9 -4 -21z m-182 -4 c33
-15 33 -16 5 -10 -26 6 -28 4 -17 -9 9 -11 10 -16 2 -16 -6 0 -11 5 -11 11 0
5 -4 8 -8 5 -4 -2 -9 4 -9 15 -2 23 -3 23 38 4z m229 0 c-6 -8 -9 -19 -5 -24
4 -7 0 -8 -10 -5 -14 6 -14 8 1 25 20 22 32 26 14 4z m-70 -19 c0 -2 -9 -2
-20 1 -11 3 -20 9 -20 15 0 5 9 4 20 -2 11 -6 20 -12 20 -14z m99 1 c8 -10 7
-14 -2 -14 -8 0 -14 6 -14 14 0 7 1 13 2 13 2 0 8 -6 14 -13z m-205 -37 c-5
-5 -10 3 -11 18 -1 22 0 24 9 8 6 -10 6 -22 2 -26z m56 36 c0 -2 -7 -6 -15
-10 -8 -3 -15 -1 -15 4 0 6 7 10 15 10 8 0 15 -2 15 -4z m-140 -26 c0 -5 -4
-10 -10 -10 -5 0 -10 5 -10 10 0 6 5 10 10 10 6 0 10 -4 10 -10z m60 0 c0 -5
-4 -10 -10 -10 -5 0 -10 5 -10 10 0 6 5 10 10 10 6 0 10 -4 10 -10z m94 2 c3
-5 -1 -9 -9 -9 -8 0 -15 4 -15 9 0 4 4 8 9 8 6 0 12 -4 15 -8z m80 0 c3 -5 -1
-9 -9 -9 -8 0 -12 4 -9 9 3 4 7 8 9 8 2 0 6 -4 9 -8z m87 -15 c-10 -9 -11 -8
-5 6 3 10 9 15 12 12 3 -3 0 -11 -7 -18z m-337 -39 c-3 -5 2 -8 10 -8 19 0 21
-16 4 -26 -6 -4 -8 -3 -5 3 4 6 0 14 -8 17 -8 3 -15 9 -14 13 4 23 -3 25 -17
5 -19 -27 -35 -28 -52 -2 -7 11 -8 20 -3 20 5 0 11 -7 15 -15 7 -19 33 -9 42
17 6 19 6 19 19 1 7 -10 11 -21 9 -25z m41 32 c-3 -5 -14 -10 -23 -10 -15 0
-15 2 -2 10 20 13 33 13 25 0z m100 0 c3 -5 1 -10 -4 -10 -6 0 -11 5 -11 10 0
6 2 10 4 10 3 0 8 -4 11 -10z m-38 -31 c-16 -22 -16 -22 -14 -1 0 11 5 18 9
16 4 -3 8 0 8 7 0 7 3 10 6 6 3 -3 -1 -16 -9 -28z m125 8 c-7 -8 -10 -16 -7
-19 3 -2 -1 -5 -9 -5 -12 0 -11 5 2 23 9 12 19 20 21 18 2 -2 -1 -10 -7 -17z
m59 6 c13 -16 12 -17 -3 -4 -10 7 -18 15 -18 17 0 8 8 3 21 -13z m-211 -8 c0
-1 -12 -2 -26 -2 -17 0 -22 2 -13 7 10 7 39 3 39 -5z m284 3 c-3 -4 -11 -5
-19 -1 -21 7 -19 12 4 10 11 0 18 -5 15 -9z m-241 -25 c-4 -10 -2 -14 5 -9 6
4 16 -3 22 -16 11 -22 10 -22 -4 -4 -9 11 -16 16 -16 11 0 -5 -5 -4 -11 2 -6
6 -8 16 -5 22 11 17 16 13 9 -6z m147 9 c0 -5 -7 -9 -15 -9 -8 0 -12 4 -9 9 3
4 9 8 15 8 5 0 9 -4 9 -8z m140 -2 c0 -5 -5 -10 -11 -10 -5 0 -7 5 -4 10 3 6
8 10 11 10 2 0 4 -4 4 -10z m-359 -24 c-9 -11 -8 -15 5 -20 22 -9 26 -8 18 6
-5 7 -3 8 5 3 22 -13 -4 -28 -28 -16 -18 10 -19 15 -9 31 7 10 14 17 17 15 2
-3 -1 -11 -8 -19z m-101 -31 c0 -5 -5 -3 -10 5 -5 8 -10 20 -10 25 0 6 5 3 10
-5 5 -8 10 -19 10 -25z m52 5 c-2 -7 3 -10 11 -7 8 3 20 1 28 -4 9 -5 4 -7
-16 -5 -17 1 -29 8 -27 14 1 7 -7 12 -17 12 -11 0 -22 4 -25 9 -4 6 5 6 21 2
16 -5 27 -14 25 -21z m106 5 c-3 -3 -9 2 -12 12 -6 14 -5 15 5 6 7 -7 10 -15
7 -18z m297 16 c3 -5 2 -12 -3 -15 -5 -3 -9 1 -9 9 0 17 3 19 12 6z m-194 -28
c13 -16 12 -17 -3 -4 -17 13 -22 21 -14 21 2 0 10 -8 17 -17z m-222 -27 c-3
-3 -11 5 -18 17 -13 21 -12 21 5 5 10 -10 16 -20 13 -22z m202 7 c13 -16 12
-17 -3 -4 -10 7 -18 15 -18 17 0 8 8 3 21 -13z m-225 -25 c-1 -12 -8 -24 -14
-26 -7 -2 -9 -9 -6 -15 3 -7 -5 0 -19 15 -23 24 -26 25 -41 10 -9 -9 -16 -11
-16 -5 0 6 7 14 16 17 8 3 12 10 9 16 -3 5 -1 10 4 10 6 0 11 -5 11 -11 0 -6
9 -4 22 5 26 18 39 12 34 -16z m173 6 c-12 -15 -29 -10 -29 9 0 7 4 6 10 -3 9
-14 14 -7 11 13 -1 5 3 6 9 2 8 -5 8 -11 -1 -21z m-114 -3 c3 -5 0 -13 -6 -17
-8 -5 -9 -3 -4 6 6 9 1 10 -16 5 -19 -5 -21 -4 -9 4 19 13 27 14 35 2z m80
-22 c-4 -5 -12 -9 -18 -8 -9 0 -8 2 1 6 6 2 9 10 6 15 -4 7 -2 8 5 4 6 -4 9
-12 6 -17z m260 12 c3 -5 2 -12 -3 -15 -5 -3 -9 1 -9 9 0 17 3 19 12 6z m-322
-16 c-3 -9 -8 -14 -10 -11 -3 3 -2 9 2 15 9 16 15 13 8 -4z m102 -5 c-10 -11
-20 -18 -23 -15 -3 3 -12 -1 -21 -8 -14 -11 -14 -10 -2 5 7 10 17 16 21 13 4
-3 13 2 20 10 7 8 15 15 18 15 3 0 -3 -9 -13 -20z m66 -7 c13 -16 12 -17 -3
-4 -17 13 -22 21 -14 21 2 0 10 -8 17 -17z m-324 -2 c15 13 47 -6 37 -22 -8
-14 -40 -10 -54 6 -9 11 -16 13 -24 5 -5 -5 -14 -10 -20 -10 -5 0 -1 6 10 14
11 9 23 11 28 6 6 -6 15 -5 23 1z m123 -16 c0 -2 -5 -7 -12 -11 -7 -4 -8 -3
-4 4 9 15 1 15 -27 1 -20 -9 -20 -9 -5 4 10 8 14 18 10 22 -4 4 3 2 16 -4 12
-6 22 -14 22 -16z m176 0 c1 -8 -1 -17 -5 -19 -4 -3 -7 6 -7 19 0 25 8 25 12
0z m201 0 c0 -8 -4 -12 -9 -9 -5 3 -6 10 -3 15 9 13 12 11 12 -6z m-360 -14
c0 -11 -5 -18 -9 -15 -4 3 -5 11 -1 19 7 21 12 19 10 -4z m-141 -18 c-6 -6
-36 9 -36 18 0 5 9 4 20 -3 10 -7 18 -14 16 -15z m55 -8 c-12 -6 -18 -15 -14
-20 4 -4 2 -5 -6 0 -12 7 -11 10 2 20 9 7 14 15 10 19 -4 4 1 4 11 0 17 -7 17
-8 -3 -19z m-81 -5 c8 -5 12 -11 9 -14 -3 -3 -14 1 -25 9 -21 16 -8 20 16 5z
m130 1 c0 -5 -8 -15 -17 -22 -16 -12 -17 -12 -6 2 7 9 10 19 6 22 -3 4 -1 7 5
7 7 0 12 -4 12 -9z m125 -1 c-3 -5 -12 -10 -18 -10 -7 0 -6 4 3 10 19 12 23
12 15 0z m-212 -13 c3 -8 -1 -14 -8 -14 -7 0 -11 6 -8 14 3 7 6 13 8 13 2 0 5
-6 8 -13z m108 -29 c-10 -11 -11 -9 -5 6 6 15 4 17 -6 11 -9 -6 -11 -4 -5 4 5
9 10 10 18 2 8 -8 7 -14 -2 -23z m70 15 c13 -16 12 -17 -3 -4 -10 7 -18 15
-18 17 0 8 8 3 21 -13z m65 2 c-3 -23 -12 -26 -13 -5 -1 11 2 20 7 20 4 0 7
-7 6 -15z m-193 -8 c3 -8 -1 -14 -9 -14 -15 0 -18 9 -7 20 9 9 10 9 16 -6z
m-96 -18 c-9 -6 -15 -14 -12 -19 6 -10 -34 -35 -43 -26 -3 3 0 6 7 6 7 0 9 4
6 10 -4 6 1 7 12 3 15 -5 16 -3 6 8 -7 7 -13 18 -13 24 0 5 4 4 9 -3 6 -10 10
-10 21 3 7 8 16 13 19 9 3 -3 -2 -10 -12 -15z m493 17 c0 -3 -4 -8 -10 -11 -5
-3 -10 -1 -10 4 0 6 5 11 10 11 6 0 10 -2 10 -4z m-465 -25 c-3 -6 -11 -11
-16 -11 -5 0 -4 6 3 14 14 16 24 13 13 -3z m21 -13 c-9 -12 -16 -19 -16 -15 0
11 24 47 28 42 2 -2 -3 -14 -12 -27z m324 28 c0 -2 -8 -10 -17 -17 -16 -13
-17 -12 -4 4 13 16 21 21 21 13z m-494 -21 c17 -16 14 -18 -10 -9 -9 3 -16 10
-16 15 0 13 9 11 26 -6z m334 7 c0 -4 -14 -8 -31 -8 -17 -1 -27 1 -21 5 15 9
52 11 52 3z m-127 -17 c-3 -9 -8 -14 -10 -11 -3 3 -2 9 2 15 9 16 15 13 8 -4z
m47 -11 c-6 -6 -8 -13 -5 -16 3 -2 -1 -5 -9 -5 -8 0 -12 6 -8 15 4 11 1 13 -8
7 -8 -5 -11 -4 -7 1 3 5 15 10 26 10 14 0 17 -4 11 -12z m296 4 c4 -7 4 -10
-1 -6 -4 4 -15 2 -24 -5 -14 -11 -14 -10 -2 6 16 20 18 21 27 5z m-372 -22
c-3 -9 -10 -16 -15 -16 -5 0 -4 9 3 20 14 22 21 20 12 -4z m-42 7 c-6 -2 -9
-10 -6 -15 4 -7 2 -8 -4 -4 -18 11 -14 26 6 25 10 0 12 -3 4 -6z m353 -11 c-3
-3 -11 0 -18 7 -9 10 -8 11 6 5 10 -3 15 -9 12 -12z m-380 -12 c3 -5 0 -12 -6
-16 -7 -4 -9 -3 -5 4 4 7 -1 10 -14 9 -22 -1 -27 -13 -7 -20 9 -4 9 -6 0 -6
-14 -1 -26 16 -19 27 6 11 45 12 51 2z m122 -14 c0 -8 -8 -11 -21 -8 -19 5
-19 6 0 13 10 4 19 8 20 8 0 1 1 -5 1 -13z m-63 -11 c11 -8 15 -15 9 -15 -7 0
-15 5 -18 10 -4 6 -11 8 -16 5 -5 -4 -9 -1 -9 4 0 15 11 13 34 -4z m163 0 c0
-8 -4 -12 -9 -9 -4 3 -8 9 -8 15 0 5 4 9 8 9 5 0 9 -7 9 -15z m178 5 c3 -5 1
-10 -4 -10 -6 0 -11 5 -11 10 0 6 2 10 4 10 3 0 8 -4 11 -10z m-376 -30 c11
-24 11 -24 -3 -6 -9 11 -16 24 -16 30 0 12 5 7 19 -24z m157 15 c-1 -8 -5 -17
-8 -21 -5 -4 -4 16 1 34 3 9 9 -1 7 -13z m-236 -6 c0 -5 -4 -8 -9 -4 -5 3 -11
-5 -13 -17 -2 -13 -9 -22 -17 -20 -8 2 -11 -3 -8 -11 3 -8 1 -20 -4 -28 -5 -9
-7 -4 -5 16 1 17 8 29 14 28 7 -2 12 5 12 15 0 10 3 22 7 25 10 10 23 8 23 -4z
m165 1 c3 -6 -1 -7 -9 -4 -18 7 -21 14 -7 14 6 0 13 -4 16 -10z m45 7 c0 -2
-10 -12 -22 -23 l-23 -19 19 23 c18 21 26 27 26 19z m-170 -27 c0 -5 -7 -7
-15 -4 -8 4 -15 8 -15 10 0 2 7 4 15 4 8 0 15 -4 15 -10z m-14 -22 c4 -7 3 -8
-4 -4 -7 4 -12 1 -12 -8 0 -19 -16 -21 -26 -4 -4 6 -3 8 3 5 6 -4 13 0 17 8 7
18 12 19 22 3z m44 8 c0 -2 -7 -7 -16 -10 -8 -3 -12 -2 -9 4 6 10 25 14 25 6z
m50 -5 c0 -5 -8 -15 -17 -22 -16 -12 -17 -12 -6 2 7 9 10 19 6 22 -3 4 -1 7 5
7 7 0 12 -4 12 -9z m155 -1 c3 -5 1 -10 -4 -10 -6 0 -11 5 -11 10 0 6 2 10 4
10 3 0 8 -4 11 -10z m-77 -25 c-3 -3 -9 2 -12 12 -6 14 -5 15 5 6 7 -7 10 -15
7 -18z m-268 5 c0 -5 -5 -10 -11 -10 -5 0 -7 5 -4 10 3 6 8 10 11 10 2 0 4 -4
4 -10z m150 -12 c10 -21 10 -21 -3 -6 -8 10 -18 14 -22 10 -5 -4 -5 -1 -1 6
10 17 14 15 26 -10z m95 13 c3 -5 2 -12 -3 -15 -5 -3 -9 1 -9 9 0 17 3 19 12
6z m-286 -27 c-11 -13 -9 -14 13 -9 14 4 28 3 31 -2 3 -5 -14 -9 -37 -9 -40
-1 -42 0 -27 17 20 22 38 25 20 3z m97 4 c5 -7 3 -8 -5 -3 -9 5 -12 0 -9 -16
2 -17 -2 -24 -17 -26 -16 -1 -16 -1 -2 3 9 3 15 10 11 15 -6 10 1 39 10 39 3
0 8 -5 12 -12z m54 2 c0 -5 -4 -10 -10 -10 -5 0 -10 5 -10 10 0 6 5 10 10 10
6 0 10 -4 10 -10z m159 -13 c-2 -2 -11 -8 -20 -15 -12 -9 -16 -9 -16 1 0 7 9
14 20 14 11 1 18 1 16 0z m134 -12 c4 -8 3 -16 -1 -19 -4 -3 -9 4 -9 15 -2 23
3 25 10 4z m-321 -9 c7 4 8 2 4 -5 -9 -13 -26 -5 -25 12 0 9 2 8 6 -1 2 -6 10
-9 15 -6z m109 -3 c13 -16 12 -17 -3 -4 -17 13 -22 21 -14 21 2 0 10 -8 17
-17z m-36 -3 c-3 -5 -14 -10 -23 -9 -14 0 -13 2 3 9 27 11 27 11 20 0z m-224
-20 c6 0 7 5 4 10 -3 6 -2 10 2 10 5 0 14 -9 21 -20 11 -18 9 -22 -12 -31 -16
-8 -22 -17 -19 -27 4 -10 2 -13 -5 -8 -19 12 -14 24 16 40 26 15 25 17 -7 20
-8 0 -15 7 -17 14 -1 7 0 8 3 2 2 -5 9 -10 14 -10z m69 16 c0 -2 -7 -6 -15
-10 -8 -3 -15 -1 -15 4 0 6 7 10 15 10 8 0 15 -2 15 -4z m100 -11 c-7 -8 -17
-15 -23 -15 -6 0 -2 7 9 15 25 19 30 19 14 0z m250 11 c0 -2 -8 -10 -17 -17
-16 -13 -17 -12 -4 4 13 16 21 21 21 13z m113 -11 c-3 -9 -8 -14 -10 -11 -3 3
-2 9 2 15 9 16 15 13 8 -4z m-289 -25 c-6 -6 -10 -3 -10 10 0 13 4 16 10 10 7
-7 7 -13 0 -20z m93 15 c0 -8 -4 -12 -9 -9 -5 3 -6 10 -3 15 9 13 12 11 12 -6z
m-359 -20 c-3 -3 -9 2 -12 12 -6 14 -5 15 5 6 7 -7 10 -15 7 -18z m238 10 c-1
-8 -8 -21 -16 -28 -10 -10 -11 -9 -4 3 5 8 9 18 10 23 3 14 4 17 8 17 2 0 3
-7 2 -15z m-160 -14 c-4 -5 0 -11 6 -14 7 -2 1 -4 -15 -4 -25 0 -26 1 -10 13
21 16 26 17 19 5z m77 -4 c3 -8 -1 -14 -8 -14 -7 0 -11 6 -8 14 3 7 6 13 8 13
2 0 5 -6 8 -13z m144 0 c0 -7 -9 -14 -20 -14 -19 -2 -19 -2 -1 12 11 8 19 15
20 15 0 0 1 -6 1 -13z m138 -15 c-3 -3 -11 0 -18 7 -9 10 -8 11 6 5 10 -3 15
-9 12 -12z m-449 -23 c-1 -12 6 -24 14 -27 13 -5 13 -3 0 14 -14 18 -14 18 3
5 12 -10 15 -17 7 -25 -14 -14 -45 17 -37 38 9 22 14 20 13 -5z m134 11 c0 -5
-4 -10 -10 -10 -5 0 -10 5 -10 10 0 6 5 10 10 10 6 0 10 -4 10 -10z m-83 -22
c-3 -8 -6 -5 -6 6 -1 11 2 17 5 13 3 -3 4 -12 1 -19z m37 5 c4 -10 4 -14 0
-10 -4 4 -13 -1 -21 -11 -11 -15 -12 -13 -2 11 14 32 15 32 23 10z m-144 -3
c-8 -5 -10 -10 -4 -10 7 0 15 -8 18 -17 6 -15 5 -15 -13 1 -19 17 -20 17 -31
-3 -6 -12 -15 -21 -20 -21 -6 0 2 14 17 30 14 17 31 30 37 30 6 0 4 -5 -4 -10z
m400 6 c0 -2 -8 -10 -17 -17 -16 -13 -17 -12 -4 4 13 16 21 21 21 13z m125 -6
c3 -5 1 -10 -4 -10 -6 0 -11 5 -11 10 0 6 2 10 4 10 3 0 8 -4 11 -10z m-361
-22 c-5 -8 -1 -9 12 -4 14 5 16 4 7 -5 -13 -13 -37 -3 -28 12 4 5 8 9 11 9 3
0 2 -5 -2 -12z m-174 -16 c0 -5 -7 -17 -15 -28 -14 -18 -14 -17 -4 9 12 27 19
34 19 19z m60 -2 c0 -5 -4 -10 -10 -10 -5 0 -10 5 -10 10 0 6 5 10 10 10 6 0
10 -4 10 -10z m56 -15 c1 -8 -4 -11 -12 -8 -9 3 -12 -2 -9 -16 2 -11 -1 -24
-7 -27 -6 -4 -8 -3 -5 3 4 6 0 13 -8 17 -8 3 -15 11 -14 18 0 10 2 10 6 1 2
-7 9 -13 14 -13 6 0 7 5 4 10 -3 6 1 13 9 16 9 3 13 11 9 18 -3 6 -2 7 2 3 5
-4 10 -14 11 -22z m27 10 c-3 -9 -8 -14 -10 -11 -3 3 -2 9 2 15 9 16 15 13 8
-4z m121 3 c-3 -4 -9 -8 -15 -8 -5 0 -9 4 -9 8 0 5 7 9 15 9 8 0 12 -4 9 -9z
m176 8 c0 -3 -4 -8 -10 -11 -5 -3 -10 -1 -10 4 0 6 5 11 10 11 6 0 10 -2 10
-4z m-125 -15 c3 -5 2 -12 -3 -15 -5 -3 -9 1 -9 9 0 17 3 19 12 6z m-275 -25
c0 -6 -5 -18 -11 -26 -8 -12 -9 -10 -4 7 3 12 1 24 -5 28 -5 3 -10 -1 -10 -9
0 -9 -5 -16 -10 -16 -7 0 -7 6 0 20 11 20 40 18 40 -4z m117 5 c0 -11 -5 -18
-9 -15 -4 3 -5 11 -1 19 7 21 12 19 10 -4z m119 -37 c1 -9 0 -13 -4 -10 -3 4
-7 14 -8 22 -1 9 0 13 4 10 3 -4 7 -14 8 -22z m-222 -11 c0 -20 -6 -29 -20
-30 -16 -2 -16 -1 -1 3 9 3 15 10 11 15 -5 9 1 39 9 39 1 0 2 -12 1 -27z m52
-1 c-17 -16 -18 -16 -5 5 7 12 15 20 18 17 3 -2 -3 -12 -13 -22z m138 20 c3
-5 -1 -9 -9 -9 -8 0 -12 4 -9 9 3 4 7 8 9 8 2 0 6 -4 9 -8z m-377 -10 c7 -4
11 -17 10 -29 0 -12 -5 -19 -9 -17 -5 3 -5 10 -2 16 4 6 -1 17 -11 25 -20 14
-9 18 12 5z m49 -14 c-1 -22 -26 -39 -26 -18 0 6 5 8 10 5 6 -3 10 -1 10 4 0
6 -6 11 -12 11 -9 0 -8 4 2 10 8 5 16 10 16 10 1 0 1 -10 0 -22z m21 0 c-3 -8
-6 -5 -6 6 -1 11 2 17 5 13 3 -3 4 -12 1 -19z m79 0 c5 -8 2 -9 -9 -5 -10 3
-17 2 -17 -2 0 -5 6 -12 13 -14 9 -4 9 -6 0 -6 -15 -1 -26 16 -18 29 8 13 22
13 31 -2z m133 -10 c-12 -23 -21 -24 -12 -1 5 12 3 14 -7 8 -8 -5 -11 -4 -7 2
3 5 13 10 21 10 11 0 13 -5 5 -19z m62 5 c13 -16 12 -17 -3 -4 -17 13 -22 21
-14 21 2 0 10 -8 17 -17z m239 11 c0 -8 -19 -13 -24 -6 -3 5 1 9 9 9 8 0 15
-2 15 -3z m-477 -42 c-2 -6 6 -12 16 -12 24 0 36 -16 20 -26 -7 -4 -9 -3 -5 4
4 6 -3 12 -16 14 -13 2 -22 9 -20 17 2 9 -5 12 -22 9 -14 -3 -23 -1 -20 4 8
13 49 5 47 -10z m108 9 c-8 -5 -10 -14 -6 -22 6 -11 5 -11 -5 -2 -14 12 -6 33
13 33 8 0 7 -3 -2 -9z m49 -11 c8 -5 11 -10 5 -10 -5 0 -17 5 -25 10 -8 5 -10
10 -5 10 6 0 17 -5 25 -10z m145 1 c3 -5 2 -12 -3 -15 -5 -3 -9 1 -9 9 0 17 3
19 12 6z m-215 -27 c0 -2 -9 0 -20 6 -11 6 -20 13 -20 16 0 2 9 0 20 -6 11 -6
20 -13 20 -16z m-124 4 c5 -8 2 -9 -9 -5 -10 3 -17 2 -17 -2 0 -5 6 -12 13
-14 9 -4 9 -6 0 -6 -15 -1 -26 16 -18 29 8 13 22 13 31 -2z m262 -5 c-12 -15
-22 -18 -14 -4 4 5 0 11 -6 14 -7 3 -3 4 9 4 17 -1 19 -4 11 -14z m47 7 c-3
-5 -12 -10 -18 -10 -7 0 -6 4 3 10 19 12 23 12 15 0z m130 0 c3 -5 1 -10 -4
-10 -6 0 -11 5 -11 10 0 6 2 10 4 10 3 0 8 -4 11 -10z m-412 -20 c3 -11 1 -18
-4 -14 -5 3 -9 0 -9 -7 0 -7 -2 -10 -5 -8 -4 5 5 49 10 49 1 0 5 -9 8 -20z
m86 -13 c0 -9 -2 -8 -6 1 -2 6 -10 9 -15 6 -7 -4 -8 -2 -4 5 9 13 26 5 25 -12z
m56 13 c3 -6 -1 -7 -9 -4 -18 7 -21 14 -7 14 6 0 13 -4 16 -10z m66 -7 c13
-16 12 -17 -3 -4 -10 7 -18 15 -18 17 0 8 8 3 21 -13z m-171 -13 c0 -5 -4 -10
-10 -10 -5 0 -10 5 -10 10 0 6 5 10 10 10 6 0 10 -4 10 -10z m340 6 c0 -3 -4
-8 -10 -11 -5 -3 -10 -1 -10 4 0 6 5 11 10 11 6 0 10 -2 10 -4z m-311 -29 c12
-15 12 -17 -3 -11 -9 3 -16 13 -16 22 0 8 1 13 3 11 1 -2 9 -12 16 -22z m107
-3 c1 -9 0 -13 -4 -10 -3 4 -7 14 -8 22 -1 9 0 13 4 10 3 -4 7 -14 8 -22z m35
-7 c-10 -9 -11 -8 -5 6 3 10 9 15 12 12 3 -3 0 -11 -7 -18z m-176 -6 c-3 -5
-1 -12 5 -16 5 -3 10 -11 10 -18 0 -6 -7 -2 -15 9 -17 23 -19 34 -4 34 5 0 8
-4 4 -9z m300 -1 c3 -5 1 -10 -4 -10 -6 0 -11 5 -11 10 0 6 2 10 4 10 3 0 8
-4 11 -10z m61 -2 c3 -4 -1 -5 -10 -4 -8 1 -18 5 -22 8 -3 4 1 5 10 4 8 -1 18
-5 22 -8z m-284 -10 c-6 -6 -22 -13 -34 -15 -18 -2 -19 -1 -8 6 8 5 17 8 21 5
4 -2 10 0 14 6 3 5 9 10 13 10 3 0 1 -5 -6 -12z m43 2 c4 -6 10 -8 14 -6 4 3
8 -1 8 -9 0 -12 -4 -12 -21 2 -12 10 -23 19 -25 20 -2 2 1 3 7 3 6 0 14 -5 17
-10z m109 -11 c3 -3 -5 -5 -19 -5 -13 0 -22 3 -19 7 4 8 30 6 38 -2z m-148
-58 c-1 -28 -4 -52 -7 -55 -4 -4 -4 91 0 102 5 12 7 -6 7 -47z m35 32 c13 -16
12 -17 -3 -4 -10 7 -18 15 -18 17 0 8 8 3 21 -13z m183 9 c2 -4 -5 -9 -17 -9
-17 -2 -19 0 -7 7 18 12 18 12 24 2z m-249 -42 c-3 -5 -12 -10 -18 -10 -7 0
-6 4 3 10 19 12 23 12 15 0z m210 0 c3 -5 1 -10 -4 -10 -6 0 -11 5 -11 10 0 6
2 10 4 10 3 0 8 -4 11 -10z m60 1 c-9 -8 -36 -10 -30 -2 2 4 11 8 20 8 8 0 13
-3 10 -6z m45 -15 c0 -2 -7 -7 -16 -10 -8 -3 -12 -2 -9 4 6 10 25 14 25 6z
m-332 -61 c-3 -3 -9 2 -12 12 -6 14 -5 15 5 6 7 -7 10 -15 7 -18z m202 -41 c0
-8 -19 -13 -24 -6 -3 5 1 9 9 9 8 0 15 -2 15 -3z m185 -24 c3 -5 1 -10 -4 -10
-6 0 -11 5 -11 10 0 6 2 10 4 10 3 0 8 -4 11 -10z m-278 -49 c0 -11 -5 -18 -9
-15 -4 3 -5 11 -1 19 7 21 12 19 10 -4z"/>
<path d="M5950 4835 c-10 -13 -9 -15 8 -15 15 0 20 5 16 15 -4 8 -7 15 -9 15
-1 0 -8 -7 -15 -15z"/>
<path d="M5595 4327 c-10 -8 -15 -19 -11 -25 10 -16 32 -5 33 18 2 24 2 24
-22 7z"/>
<path d="M5545 4270 c-3 -5 3 -10 15 -10 12 0 18 5 15 10 -3 6 -10 10 -15 10
-5 0 -12 -4 -15 -10z"/>
<path d="M5904 5191 c4 -6 3 -11 -2 -11 -11 0 -61 -77 -54 -84 3 -3 10 -6 15
-6 6 0 7 3 4 6 -10 11 13 45 25 38 7 -5 6 -11 -5 -19 -14 -10 -14 -12 3 -23
17 -10 18 -8 17 26 -1 23 2 36 10 35 21 -4 23 26 1 38 -15 8 -18 8 -14 0z m25
-14 c-2 -1 -13 -9 -24 -17 -19 -14 -19 -14 -6 3 7 9 18 17 24 17 6 0 8 -1 6
-3z"/>
<path d="M5926 5118 c-9 -5 -14 -13 -11 -19 11 -16 -5 -31 -20 -19 -15 13 -48
-4 -52 -27 -3 -12 27 -10 47 2 6 4 22 -1 36 -10 35 -23 48 -9 24 26 -20 27
-17 35 13 30 4 0 7 5 7 12 0 16 -21 18 -44 5z m-42 -46 c3 -5 -1 -9 -9 -9 -8
0 -12 4 -9 9 3 4 7 8 9 8 2 0 6 -4 9 -8z m55 -15 c0 -9 -2 -8 -6 1 -2 6 -10 9
-15 6 -7 -4 -8 -2 -4 5 9 13 26 5 25 -12z"/>
<path d="M5809 5048 c-1 -2 -2 -16 -3 -33 -2 -35 -14 -58 -26 -50 -5 3 -11 1
-14 -4 -11 -18 17 -24 29 -7 7 9 17 16 21 14 5 -1 25 4 45 11 26 10 36 20 35
35 -1 23 -27 28 -60 13 -12 -6 -16 -5 -12 1 3 6 2 13 -4 17 -5 3 -10 5 -11 3z
m69 -38 c-7 -10 -14 -17 -17 -15 -4 4 18 35 25 35 2 0 -1 -9 -8 -20z m-48 -12
c0 6 4 12 8 12 5 0 9 -6 9 -14 0 -18 -30 -14 -35 5 -3 11 -1 11 7 -1 7 -10 11
-11 11 -2z"/>
<path d="M5784 4933 c-16 -13 -28 -29 -26 -35 2 -8 -1 -8 -11 1 -12 9 -16 8
-21 -5 -9 -23 -7 -31 4 -14 6 9 10 10 10 3 0 -7 -9 -17 -20 -23 -11 -6 -18
-15 -15 -20 3 -4 -1 -10 -7 -13 -7 -2 1 -4 17 -3 28 1 35 6 35 24 0 4 -4 2 -8
-5 -5 -8 -13 -9 -22 -3 -13 8 -12 10 3 11 9 1 23 2 30 3 6 1 12 13 12 28 -1
15 3 24 7 22 5 -3 22 1 38 9 24 13 31 13 40 1 13 -15 4 -38 -11 -29 -5 4 -9 1
-9 -4 0 -16 26 -13 40 4 9 11 7 19 -13 39 -16 15 -21 27 -14 29 7 3 2 5 -9 4
-12 -1 -35 -12 -50 -24z m31 -2 c-3 -6 -11 -11 -16 -11 -5 0 -4 6 3 14 14 16
24 13 13 -3z"/>
<path d="M5824 4906 c-3 -8 -12 -12 -19 -10 -18 7 -30 -15 -15 -29 9 -9 15 -7
26 8 9 11 20 19 25 18 12 -4 12 14 -1 22 -6 3 -13 0 -16 -9z"/>
<path d="M5704 4812 c-15 -10 -39 -57 -25 -48 6 4 11 2 11 -5 0 -10 3 -10 12
-1 7 7 16 12 22 12 5 0 1 -6 -10 -14 -10 -8 -16 -17 -13 -20 3 -3 14 1 25 9
19 15 19 15 0 30 -16 12 -22 12 -29 2 -6 -9 -7 -8 -4 3 2 8 10 15 18 15 15 0
25 18 12 22 -4 2 -13 -1 -19 -5z"/>
<path d="M5676 4741 c-4 -6 -2 -11 5 -11 8 0 8 -4 -1 -15 -8 -9 -9 -15 -2 -15
17 0 24 18 14 36 -6 11 -11 13 -16 5z"/>
<path d="M5715 4724 c-19 -19 -19 -33 -1 -40 14 -5 56 28 56 44 0 14 -40 11
-55 -4z m19 -18 c-3 -9 -10 -13 -15 -10 -5 3 -3 11 4 19 15 16 19 13 11 -9z"/>
<path d="M5630 4680 c0 -5 5 -10 10 -10 6 0 10 5 10 10 0 6 -4 10 -10 10 -5 0
-10 -4 -10 -10z"/>
<path d="M5630 4639 c0 -11 5 -17 10 -14 6 3 10 13 10 21 0 8 -4 14 -10 14 -5
0 -10 -9 -10 -21z"/>
<path d="M5600 4635 c-8 -9 -8 -15 -2 -15 12 0 26 19 19 26 -2 2 -10 -2 -17
-11z"/>
<path d="M5562 4593 c-10 -4 -10 -8 -2 -18 8 -10 8 -20 0 -36 -10 -17 -9 -24
1 -31 11 -8 10 -9 -3 -4 -21 6 -23 -4 -5 -24 9 -11 8 -11 -7 0 -17 14 -18 13
-12 -7 5 -17 0 -27 -24 -45 -29 -21 -30 -24 -14 -35 10 -7 14 -13 9 -13 -5 0
-17 7 -27 16 -14 14 -20 14 -33 4 -21 -17 -19 -25 6 -27 18 -2 19 0 7 15 -7 9
0 7 16 -6 32 -25 60 -16 37 12 -10 12 -9 17 7 25 11 6 30 27 42 46 17 28 19
39 11 49 -14 17 0 29 23 20 18 -7 21 4 5 26 -9 12 -10 11 -5 -5 6 -20 6 -20
-9 0 -9 11 -13 25 -11 32 3 7 4 13 3 12 -1 0 -8 -3 -15 -6z"/>
<path d="M5640 4560 c0 -5 5 -10 10 -10 6 0 10 5 10 10 0 6 -4 10 -10 10 -5 0
-10 -4 -10 -10z"/>
<path d="M5533 4554 c4 -6 -3 -20 -14 -30 -11 -10 -18 -23 -15 -30 3 -7 -2
-18 -10 -24 -8 -7 -14 -9 -14 -4 -1 5 -7 -2 -15 -16 -19 -35 1 -44 38 -18 17
12 26 26 23 35 -3 8 1 28 10 45 12 24 13 33 3 42 -8 8 -10 8 -6 0z m-13 -87
c0 -2 -10 -13 -23 -25 -18 -17 -24 -19 -24 -8 0 8 4 13 9 10 4 -3 11 2 14 10
5 13 24 23 24 13z"/>
<path d="M5413 4363 c4 -3 -2 -17 -14 -29 -25 -27 -7 -44 21 -19 12 11 20 13
25 6 3 -6 11 -11 18 -11 6 0 4 7 -5 17 -14 13 -20 14 -32 3 -11 -8 -16 -9 -16
-1 0 6 11 13 25 17 29 7 26 16 -7 21 -12 2 -19 0 -15 -4z"/>
<path d="M5380 4280 c0 -5 4 -10 9 -10 6 0 13 5 16 10 3 6 -1 10 -9 10 -9 0
-16 -4 -16 -10z"/>
<path d="M5366 4226 c-15 -24 -10 -42 9 -28 10 7 19 52 11 52 -2 0 -11 -11
-20 -24z"/>
<path d="M5287 4129 c7 -7 15 -10 18 -7 3 3 -2 9 -12 12 -14 6 -15 5 -6 -5z"/>
<path d="M5405 4110 c3 -5 8 -10 11 -10 2 0 4 5 4 10 0 6 -5 10 -11 10 -5 0
-7 -4 -4 -10z"/>
<path d="M5251 4084 c-29 -21 -23 -36 18 -40 20 -3 30 0 26 6 -4 6 -10 8 -15
5 -4 -3 -14 3 -21 13 -12 15 -12 16 1 5 21 -16 47 -1 27 15 -10 9 -19 8 -36
-4z"/>
<path d="M5195 3951 c-3 -6 -3 -11 1 -11 4 0 -1 -6 -11 -14 -11 -8 -24 -12
-29 -9 -5 4 -6 1 -2 -6 4 -6 12 -9 17 -6 5 3 6 0 3 -8 -3 -8 0 -18 6 -22 13
-8 -33 -47 -51 -43 -6 2 -13 -2 -16 -8 -8 -24 34 -9 68 23 20 19 40 33 45 32
29 -5 35 1 23 24 -7 12 -10 24 -8 26 2 2 -6 10 -18 18 -14 10 -23 11 -28 4z
m21 -37 c-9 -8 -14 -20 -11 -25 4 -5 1 -9 -5 -9 -13 0 -9 32 5 42 19 14 27 8
11 -8z m19 -14 c3 -5 1 -10 -4 -10 -6 0 -11 5 -11 10 0 6 2 10 4 10 3 0 8 -4
11 -10z"/>
</g>
</svg>
