<svg height="13" viewBox="0 0 14 13" width="14" xmlns="http://www.w3.org/2000/svg"><path d="m.259259 7.00518c-.1944442-.13471-.259259-.33679-.259259-.53886 0-.06736 0-.20207.0648148-.26943v-.06736l.0648152-.06735v-.06736h.064814s-.018954-.04912 0-.06736c.018955-.01824.064815 0 .064815 0l5.444441-5.725387c.32408-.2694305.77778-.2694305 1.03704 0 .32408.336787.32408.808287 0 1.077717l-4.21296 4.4456h10.75922c.3889 0 .713.33679.713.74093 0 .40415-.3241.80829-.713.80829h-10.75922l4.27778 4.44559c.32407.2694.32407.7409 0 1.0777-.25926.2695-.77778.2695-1.03704 0z"/></svg>