<svg xmlns="http://www.w3.org/2000/svg" width="55" height="10" viewBox="0 0 55 10">
  <path fill="#8892CF" d="M28.5,29.1893398 L31.2196699,26.4696699 C31.5125631,26.1767767 31.9874369,26.1767767 32.2803301,26.4696699 C32.5732233,26.7625631 32.5732233,27.2374369 32.2803301,27.5303301 L28.2803301,31.5303301 C27.9874369,31.8232233 27.5125631,31.8232233 27.2196699,31.5303301 L23.2196699,27.5303301 C22.9267767,27.2374369 22.9267767,26.7625631 23.2196699,26.4696699 C23.5125631,26.1767767 23.9874369,26.1767767 24.2803301,26.4696699 L27,29.1893398 L27,-21 C27,-21.5522847 27.3357864,-22 27.75,-22 C28.1642136,-22 28.5,-21.5522847 28.5,-21 L28.5,29.1893398 Z" transform="rotate(90 27.75 4.875)"/>
</svg>
