<svg fill="none" height="16" viewBox="0 0 16 16" width="16" xmlns="http://www.w3.org/2000/svg"><path d="m15.1111 11.1111c-1.0667 0-2.1333-.1778-3.2-.5333-.2667-.0889-.6222 0-.8889.1778l-1.95553 1.9555c-2.48886-1.2444-4.53334-3.37777-5.86667-5.86666l1.95556-1.95555c.26666-.26667.35555-.62222.17777-.88889-.26666-.97778-.44444-2.04444-.44444-3.111111 0-.533333-.35556-.888889-.88889-.888889h-3.111111c-.533333 0-.888889.355556-.888889.888889 0 8.355551 6.75556 15.111111 15.1111 15.111111.5333 0 .8889-.3556.8889-.8889v-3.1111c0-.5333-.3556-.8889-.8889-.8889z" fill="#fff"/></svg>