<svg width="40" height="43" viewBox="0 0 40 43" fill="none" xmlns="http://www.w3.org/2000/svg">
<rect width="40" height="42.449" fill="black" fill-opacity="0"/>
<rect width="40" height="42.449" rx="5" fill="url(#paint0_linear)"/>
<rect width="30.2046" height="29.3878" fill="black" fill-opacity="0" transform="translate(4.89844 6.53052)"/>
<rect x="4.89844" y="18.5254" width="19.9347" height="5.9975" rx="2.99875" fill="white"/>
<path d="M32.6907 19.4754L33.8251 21.4339L35.0244 23.424C35.1864 23.7399 35.0892 24.119 34.7651 24.3085C34.6678 24.3717 34.5382 24.4033 34.441 24.4033H32.0749H29.7412C29.3523 24.4033 29.0605 24.119 29.0605 23.7399C29.0605 23.6136 29.093 23.4872 29.1902 23.3924L30.3246 21.4339L31.5239 19.4439C31.6859 19.128 32.1073 19.0332 32.399 19.2227C32.5286 19.2859 32.6259 19.3807 32.6907 19.4754Z" fill="#FFE07A"/>
<path fill-rule="evenodd" clip-rule="evenodd" d="M31.8164 23.0447C31.8164 23.2027 31.9785 23.329 32.1405 23.329C32.3026 23.329 32.4322 23.2027 32.4322 23.0447C32.4322 22.8868 32.3026 22.7604 32.1405 22.7604C31.9785 22.7604 31.8164 22.8868 31.8164 23.0447ZM32.3026 22.5393L32.4322 20.9915H31.8488L31.9461 22.5393H32.3026Z" fill="#333E50"/>
<rect x="4.89844" y="18.5254" width="10.366" height="5.9975" rx="2.99875" fill="#FFE07A"/>
<rect x="4.89844" y="6.53052" width="19.9347" height="5.9975" rx="2.99875" fill="white"/>
<path fill-rule="evenodd" clip-rule="evenodd" d="M32.0821 6.53052C33.7709 6.53052 35.1025 7.88479 35.1025 9.52927C35.1025 11.206 33.7709 12.528 32.0821 12.528C30.4258 12.528 29.0617 11.206 29.0617 9.52927C29.0617 7.88479 30.4258 6.53052 32.0821 6.53052ZM30.783 9.75498C30.6856 9.65825 30.6856 9.49702 30.783 9.40029C30.8804 9.30356 31.0104 9.30356 31.1078 9.40029L31.8872 10.1419L33.2838 8.78764C33.3812 8.69091 33.5436 8.69091 33.641 8.78764C33.7385 8.88438 33.7385 9.01335 33.641 9.11009L32.0496 10.6901C31.9522 10.7868 31.8223 10.7868 31.7249 10.6901L30.783 9.75498Z" fill="url(#paint1_linear)"/>
<path d="M4.89844 9.52927C4.89844 7.8731 6.25072 6.53052 7.91885 6.53052H15.9398C17.608 6.53052 18.9603 7.8731 18.9603 9.52927C18.9603 11.1854 17.608 12.528 15.9398 12.528H7.91885C6.25072 12.528 4.89844 11.1854 4.89844 9.52927Z" fill="url(#paint2_linear)"/>
<path fill-rule="evenodd" clip-rule="evenodd" d="M32.0821 29.9208C33.7709 29.9208 35.1025 31.275 35.1025 32.9195C35.1025 34.5962 33.7709 35.9183 32.0821 35.9183C30.4258 35.9183 29.0617 34.5962 29.0617 32.9195C29.0617 31.275 30.4258 29.9208 32.0821 29.9208ZM30.783 33.1452C30.6856 33.0485 30.6856 32.8873 30.783 32.7905C30.8804 32.6938 31.0104 32.6938 31.1078 32.7905L31.8872 33.5322L33.2838 32.1779C33.3812 32.0812 33.5436 32.0812 33.641 32.1779C33.7385 32.2746 33.7385 32.4036 33.641 32.5003L32.0496 34.0803C31.9522 34.1771 31.8223 34.1771 31.7249 34.0803L30.783 33.1452Z" fill="url(#paint3_linear)"/>
<path d="M4.89844 32.9195C4.89844 31.2634 6.25072 29.9208 7.91885 29.9208H21.8127C23.4808 29.9208 24.8331 31.2634 24.8331 32.9195C24.8331 34.5757 23.4808 35.9183 21.8127 35.9183H7.91885C6.25072 35.9183 4.89844 34.5757 4.89844 32.9195Z" fill="url(#paint4_linear)"/>
<defs>
<linearGradient id="paint0_linear" x1="20" y1="-4.35572e-07" x2="4.4898" y2="46.1224" gradientUnits="userSpaceOnUse">
<stop stop-color="#F4F5F8" stop-opacity="0.75"/>
<stop offset="1" stop-color="#ECF1F6"/>
</linearGradient>
<linearGradient id="paint1_linear" x1="12.7515" y1="13.4276" x2="39.6331" y2="13.4276" gradientUnits="userSpaceOnUse">
<stop stop-color="#63E8CD"/>
<stop offset="1" stop-color="#65D3AA"/>
</linearGradient>
<linearGradient id="paint2_linear" x1="12.7515" y1="13.4276" x2="39.6331" y2="13.4276" gradientUnits="userSpaceOnUse">
<stop stop-color="#63E8CD"/>
<stop offset="1" stop-color="#65D3AA"/>
</linearGradient>
<linearGradient id="paint3_linear" x1="12.7515" y1="13.4276" x2="39.6331" y2="13.4276" gradientUnits="userSpaceOnUse">
<stop stop-color="#63E8CD"/>
<stop offset="1" stop-color="#65D3AA"/>
</linearGradient>
<linearGradient id="paint4_linear" x1="12.7515" y1="13.4276" x2="39.6331" y2="13.4276" gradientUnits="userSpaceOnUse">
<stop stop-color="#63E8CD"/>
<stop offset="1" stop-color="#65D3AA"/>
</linearGradient>
</defs>
</svg>
