<svg width="40" height="35" viewBox="0 0 40 35" fill="none" xmlns="http://www.w3.org/2000/svg">
<rect width="40" height="34.45" fill="black" fill-opacity="0"/>
<g opacity="0.5">
<path d="M1.11921 18.892C0.894271 18.8937 0.674122 18.827 0.487883 18.7008C0.301645 18.5746 0.158092 18.3948 0.0762118 18.1852C-0.00566818 17.9757 -0.0220174 17.7462 0.0293266 17.5271C0.0806707 17.308 0.197289 17.1097 0.363756 16.9584L14.2397 4.23413L28.8933 11.0019L38.4365 6.76786C38.7061 6.6485 39.0121 6.64115 39.2871 6.74744C39.5621 6.85372 39.7837 7.06494 39.903 7.33462C40.0223 7.6043 40.0297 7.91035 39.9234 8.18545C39.8172 8.46054 39.606 8.68215 39.3364 8.80152L28.8933 13.4356L14.6619 6.87899L1.87467 18.5919C1.66978 18.7838 1.39988 18.891 1.11921 18.892Z" fill="url(#paint0_linear)"/>
<path d="M1.11964 34.45C0.898972 34.4513 0.682924 34.3868 0.499038 34.2648C0.315151 34.1428 0.171757 33.9688 0.0871387 33.7649C0.00252005 33.561 -0.0194898 33.3366 0.0239152 33.1202C0.0673202 32.9038 0.174174 32.7052 0.330852 32.5497L10.7184 22.1592L26.3385 24.3818L38.1814 14.6914C38.2945 14.5987 38.4247 14.5292 38.5646 14.4869C38.7045 14.4446 38.8514 14.4302 38.9969 14.4446C39.1423 14.4591 39.2835 14.5021 39.4124 14.5711C39.5412 14.6401 39.6553 14.7339 39.7479 14.847C39.8405 14.9601 39.91 15.0903 39.9523 15.2303C39.9946 15.3702 40.009 15.5171 39.9946 15.6626C39.9801 15.8081 39.9372 15.9494 39.8682 16.0783C39.7991 16.2072 39.7054 16.3212 39.5924 16.4139L26.994 26.7266L11.5072 24.504L1.90842 34.1278C1.80461 34.2308 1.6815 34.3122 1.54614 34.3675C1.41079 34.4229 1.26585 34.4509 1.11964 34.45Z" fill="url(#paint1_linear)"/>
</g>
<path d="M28.894 15.5579C30.7347 15.5579 32.2269 14.0653 32.2269 12.2241C32.2269 10.3828 30.7347 8.89021 28.894 8.89021C27.0533 8.89021 25.5611 10.3828 25.5611 12.2241C25.5611 14.0653 27.0533 15.5579 28.894 15.5579Z" fill="url(#paint2_linear)"/>
<path d="M14.4518 11.1129C17.5196 11.1129 20.0066 8.62516 20.0066 5.55643C20.0066 2.4877 17.5196 0 14.4518 0C11.3839 0 8.89694 2.4877 8.89694 5.55643C8.89694 8.62516 11.3839 11.1129 14.4518 11.1129Z" fill="url(#paint3_linear)"/>
<path d="M26.6717 31.116C29.7395 31.116 32.2265 28.6283 32.2265 25.5595C32.2265 22.4908 29.7395 20.0031 26.6717 20.0031C23.6038 20.0031 21.1169 22.4908 21.1169 25.5595C21.1169 28.6283 23.6038 31.116 26.6717 31.116Z" fill="url(#paint4_linear)"/>
<path d="M11.1187 27.7821C13.5729 27.7821 15.5625 25.792 15.5625 23.337C15.5625 20.882 13.5729 18.8919 11.1187 18.8919C8.66439 18.8919 6.6748 20.882 6.6748 23.337C6.6748 25.792 8.66439 27.7821 11.1187 27.7821Z" fill="url(#paint5_linear)"/>
<defs>
<linearGradient id="paint0_linear" x1="20" y1="-8.30179" x2="20" y2="34.4501" gradientUnits="userSpaceOnUse">
<stop stop-color="#4552DD"/>
<stop offset="1" stop-color="#65D3AA"/>
</linearGradient>
<linearGradient id="paint1_linear" x1="20" y1="-8.30179" x2="20" y2="34.4501" gradientUnits="userSpaceOnUse">
<stop stop-color="#4552DD"/>
<stop offset="1" stop-color="#65D3AA"/>
</linearGradient>
<linearGradient id="paint2_linear" x1="19.4509" y1="0" x2="19.4509" y2="31.116" gradientUnits="userSpaceOnUse">
<stop stop-color="#4552DD"/>
<stop offset="1" stop-color="#65D3AA"/>
</linearGradient>
<linearGradient id="paint3_linear" x1="19.4509" y1="0" x2="19.4509" y2="31.116" gradientUnits="userSpaceOnUse">
<stop stop-color="#4552DD"/>
<stop offset="1" stop-color="#65D3AA"/>
</linearGradient>
<linearGradient id="paint4_linear" x1="19.4509" y1="0" x2="19.4509" y2="31.116" gradientUnits="userSpaceOnUse">
<stop stop-color="#4552DD"/>
<stop offset="1" stop-color="#65D3AA"/>
</linearGradient>
<linearGradient id="paint5_linear" x1="19.4509" y1="0" x2="19.4509" y2="31.116" gradientUnits="userSpaceOnUse">
<stop stop-color="#4552DD"/>
<stop offset="1" stop-color="#65D3AA"/>
</linearGradient>
</defs>
</svg>
