<svg width="40" height="46" viewBox="0 0 40 46" fill="none" xmlns="http://www.w3.org/2000/svg">
<rect width="40" height="45.7139" fill="black" fill-opacity="0"/>
<rect width="40" height="45.7139" fill="black" fill-opacity="0"/>
<rect width="40" height="45.7139" fill="black" fill-opacity="0"/>
<path d="M8.30404 19.2871C8.30404 20.8855 8.6234 21.738 9.26212 22.1642C9.79438 22.697 10.9654 22.9101 12.0299 23.1232H12.4557V23.2298C17.0332 23.7626 21.7171 24.5085 21.7171 35.4841H17.1396C17.1396 28.4512 14.4783 28.1315 11.817 27.7053H11.3912C9.58147 27.3856 7.77177 26.9594 6.28143 25.7872C4.79109 24.5085 3.72656 22.4839 3.72656 19.2871H8.30404Z" fill="#424071"/>
<path d="M6.06782 8.41821C7.66461 8.41821 9.15495 9.05757 10.3259 10.1232C11.3905 11.2953 12.0292 12.7871 12.0292 14.3855C12.0292 16.0905 11.3905 17.5823 10.3259 18.6479C9.15495 19.8201 7.66461 20.4594 6.06782 20.4594C4.36457 20.4594 2.87423 19.8201 1.8097 18.6479C0.638718 17.5823 0 16.0905 0 14.3855C0 12.7871 0.638718 11.2953 1.8097 10.1232C2.87423 9.05757 4.36457 8.41821 6.06782 8.41821ZM7.66461 12.7871C7.2388 12.3609 6.70654 12.0412 6.06782 12.0412C5.4291 12.0412 4.79038 12.3609 4.36457 12.7871C3.93876 13.2134 3.72585 13.7462 3.72585 14.3855C3.72585 15.0249 3.93876 15.6642 4.36457 16.0905C4.79038 16.5167 5.4291 16.7298 6.06782 16.7298C6.70654 16.7298 7.2388 16.5167 7.66461 16.0905C8.09042 15.6642 8.40978 15.0249 8.40978 14.3855C8.40978 13.7462 8.09042 13.2134 7.66461 12.7871Z" fill="#424071"/>
<path d="M19.4819 0C21.0787 0 22.6755 0.639356 23.74 1.81151C24.8045 2.8771 25.4432 4.36893 25.4432 6.07388C25.4432 7.67227 24.8045 9.1641 23.74 10.3363C22.6755 11.4018 21.0787 12.0412 19.4819 12.0412C17.7786 12.0412 16.2883 11.4018 15.2238 10.3363C14.0528 9.1641 13.4141 7.67227 13.4141 6.07388C13.4141 4.36893 14.0528 2.8771 15.2238 1.81151C16.2883 0.639356 17.7786 0 19.4819 0ZM21.0787 4.36893C20.6529 3.94269 20.1206 3.72957 19.4819 3.72957C18.8432 3.72957 18.2044 3.94269 17.7786 4.36893C17.3528 4.79517 17.1399 5.43452 17.1399 6.07388C17.1399 6.71323 17.3528 7.24603 17.7786 7.67227C18.2044 8.09851 18.8432 8.41818 19.4819 8.41818C20.1206 8.41818 20.6529 8.09851 21.0787 7.67227C21.5045 7.24603 21.8238 6.71323 21.8238 6.07388C21.8238 5.43452 21.5045 4.79517 21.0787 4.36893Z" fill="#0065FF"/>
<path d="M21.7161 10.2297V35.4843H17.1387V10.2297H21.7161Z" fill="#0065FF"/>
<path d="M21.7161 22.1643V34.7383L17.458 35.4842L17.1387 34.8449V27.1726C17.8838 25.148 19.0548 22.5905 21.7161 22.1643Z" fill="#004FD0"/>
<path d="M35.1285 14.4922V18.1152V19.5005C35.1285 22.6973 34.064 24.6153 32.4672 25.7875C31.0833 26.9596 29.2736 27.3859 27.4639 27.7055C27.0381 27.7055 26.7187 27.7055 26.5058 27.8121C24.1639 28.0252 21.609 28.4515 21.7154 34.0991C22.5671 34.4188 23.0993 34.845 23.738 35.3778C24.8026 36.55 25.4413 38.0418 25.4413 39.6402C25.4413 41.3451 24.8026 42.837 23.738 44.0091C22.6735 45.0747 21.0767 45.7141 19.4799 45.7141C17.7767 45.7141 16.2863 45.0747 15.2218 44.0091C14.0508 42.837 13.4121 41.3451 13.4121 39.6402C13.4121 38.0418 14.0508 36.55 15.2218 35.3778C15.7541 34.845 16.3928 34.4188 17.0315 34.0991C16.7122 24.4022 21.609 23.7628 25.9736 23.23C26.2929 23.23 26.7187 23.1235 26.8252 23.1235C27.9962 22.9104 29.0607 22.6973 29.6994 22.271C30.2317 21.8448 30.551 20.9923 30.551 19.3939V18.1152V14.4922H35.1285ZM21.0767 38.0418C20.6509 37.6156 20.1186 37.2959 19.4799 37.2959C18.8412 37.2959 18.2025 37.6156 17.7767 38.0418C17.3509 38.468 17.138 39.0008 17.138 39.6402C17.138 40.3861 17.3509 40.9189 17.7767 41.3451C18.2025 41.7714 18.8412 42.091 19.4799 42.091C20.1186 42.091 20.6509 41.7714 21.0767 41.3451C21.5025 40.9189 21.8219 40.3861 21.8219 39.6402C21.8219 39.0008 21.5025 38.468 21.0767 38.0418Z" fill="url(#paint0_linear)"/>
<path d="M35.1283 14.4922V18.1152V18.9677L32.8927 16.7299L30.5508 18.9677V18.1152V14.4922H35.1283Z" fill="#45C894"/>
<path d="M29.7005 18.0086C28.8489 18.9676 27.3585 18.9676 26.4004 18.0086C25.5488 17.1561 25.5488 15.6643 26.4004 14.8118L31.2973 9.91011C32.1489 9.05763 33.6392 9.05763 34.4909 9.91011L39.2812 14.7053C40.2393 15.6643 40.2393 17.0496 39.2812 18.0086C38.4296 18.8611 36.9393 18.8611 36.0877 18.0086L32.8941 14.8118L29.7005 18.0086Z" fill="#79F2C0"/>
<defs>
<linearGradient id="paint0_linear" x1="14.7859" y1="40.2873" x2="33.8325" y2="19.919" gradientUnits="userSpaceOnUse">
<stop stop-color="#42BF8A"/>
<stop offset="1" stop-color="#79F2C0"/>
</linearGradient>
</defs>
</svg>
