<svg width="49" height="52" viewBox="0 0 49 52" fill="none" xmlns="http://www.w3.org/2000/svg">
<rect width="49" height="52" fill="black" fill-opacity="0"/>
<rect width="49" height="52" fill="black" fill-opacity="0"/>
<rect width="49" height="52" fill="black" fill-opacity="0"/>
<path d="M49 0H0V41.6H49V0Z" fill="url(#paint0_linear)"/>
<path fill-rule="evenodd" clip-rule="evenodd" d="M23.0741 41.6001H0V31.7201C4.14815 28.0801 5.31481 19.3701 7.64815 12.6101L23.0741 41.6001Z" fill="#0057D8"/>
<path d="M43.6848 4.93994H5.31445V36.6599H43.6848V4.93994Z" fill="#253858"/>
<path fill-rule="evenodd" clip-rule="evenodd" d="M38.7588 20.5399H11.9255C11.2773 20.5399 10.7588 20.0199 10.7588 19.3699V8.57991C10.7588 7.92991 11.2773 7.40991 11.9255 7.40991C14.2588 7.40991 14.9069 7.40991 17.3699 7.40991C21.3884 7.40991 19.1847 10.1399 23.4625 10.1399H38.7588C39.4069 10.1399 39.9255 10.6599 39.9255 11.3099V19.3699C39.9255 20.0199 39.4069 20.5399 38.7588 20.5399Z" fill="#505F79"/>
<path fill-rule="evenodd" clip-rule="evenodd" d="M39.9256 22.6201H9.98112C9.33297 22.6201 8.81445 22.1001 8.81445 21.4501V10.4001C8.81445 9.7501 9.33297 9.1001 9.98112 9.1001C12.4441 9.1001 13.7404 9.1001 16.0737 9.1001C20.2219 9.1001 18.5367 12.2201 22.8145 12.2201H39.9256C40.5737 12.2201 41.0922 12.7401 41.0922 13.3901V21.4501C41.0922 22.1001 40.5737 22.6201 39.9256 22.6201Z" fill="#3DC7DC"/>
<path fill-rule="evenodd" clip-rule="evenodd" d="M40.8331 24.8299H8.55534C7.90719 24.8299 7.38867 24.3099 7.38867 23.6599V12.0899C7.38867 11.4399 7.90719 10.9199 8.55534 10.9199C11.0183 10.9199 12.7035 10.9199 15.1664 10.9199C19.3146 10.9199 18.1479 14.2999 22.4257 14.2999H40.8331C41.4813 14.2999 41.9998 14.8199 41.9998 15.4699V23.6599C41.9998 24.3099 41.4813 24.8299 40.8331 24.8299Z" fill="#6BD5E5"/>
<path fill-rule="evenodd" clip-rule="evenodd" d="M41.4812 27.04H7.51823C6.87008 27.04 6.35156 26.52 6.35156 25.87V14.43C6.35156 13.78 6.87008 13.26 7.51823 13.26C9.85156 13.26 12.3145 13.26 14.6479 13.26C18.796 13.26 17.759 16.64 22.0367 16.64H41.4812C42.1293 16.64 42.6479 17.16 42.6479 17.81V25.87C42.6479 26.52 42.1293 27.04 41.4812 27.04Z" fill="#9CE3EE"/>
<path d="M43.6848 20.28H5.31445V52H43.6848V20.28Z" fill="#3384FF"/>
<path d="M30.7379 28.8601H19.8337C19.4757 28.8601 19.1855 29.1511 19.1855 29.5101V37.3048C19.1855 37.6638 19.4757 37.9548 19.8337 37.9548H30.7379C31.0959 37.9548 31.3861 37.6638 31.3861 37.3048V29.5101C31.3861 29.1511 31.0959 28.8601 30.7379 28.8601Z" fill="white"/>
<path d="M18.5373 26.9099H32.0187C32.4076 26.9099 32.7965 27.0399 33.0558 27.2999C33.315 27.5599 33.4447 27.9499 33.4447 28.3399V38.6099C33.4447 38.9999 33.315 39.3899 33.0558 39.6499C32.7965 39.9099 32.4076 40.0399 32.0187 40.0399H18.5373C18.1484 40.0399 17.8891 39.9099 17.6298 39.6499C17.3706 39.3899 17.1113 38.9999 17.1113 38.6099V28.3399C17.1113 27.9499 17.3706 27.5599 17.6298 27.2999C17.8891 27.0399 18.1484 26.9099 18.5373 26.9099ZM32.0187 27.9499H18.5373C18.5373 27.9499 18.4076 27.9499 18.278 28.0799C18.278 28.0799 18.1484 28.2099 18.1484 28.3399V38.6099C18.1484 38.7399 18.278 38.7399 18.278 38.8699C18.4076 38.9999 18.5373 38.9999 18.5373 38.9999H32.0187C32.1484 38.9999 32.278 38.9999 32.278 38.8699C32.4076 38.7399 32.4076 38.7399 32.4076 38.6099V28.3399C32.4076 28.2099 32.4076 28.0799 32.278 28.0799C32.278 27.9499 32.1484 27.9499 32.0187 27.9499Z" fill="#3384FF"/>
<path d="M31.7992 44.8501H22.0368C21.6789 44.8501 21.3887 45.1411 21.3887 45.5001V46.163C21.3887 46.522 21.6789 46.813 22.0368 46.813H31.7992C32.1572 46.813 32.4474 46.522 32.4474 46.163V45.5001C32.4474 45.1411 32.1572 44.8501 31.7992 44.8501Z" fill="#FAFBFC"/>
<path d="M19.4573 45.8316C19.4573 45.2895 19.0192 44.8501 18.4787 44.8501C17.9382 44.8501 17.5 45.2895 17.5 45.8316C17.5 46.3736 17.9382 46.813 18.4787 46.813C19.0192 46.813 19.4573 46.3736 19.4573 45.8316Z" fill="#FAFBFC"/>
<path d="M18.9257 27.5601H31.6294C32.0183 27.5601 32.2776 27.6901 32.4072 27.9501C32.6664 28.0801 32.6664 28.3401 32.6664 28.6001V38.2201C32.6664 38.4801 32.6664 38.7401 32.4072 39.0001C32.2776 39.1301 32.0183 39.2601 31.6294 39.2601H18.9257C18.6664 39.2601 18.2776 39.1301 18.1479 39.0001C18.0183 38.7401 17.8887 38.4801 17.8887 38.2201V28.6001C17.8887 28.3401 18.0183 28.0801 18.1479 27.9501C18.2776 27.6901 18.6664 27.5601 18.9257 27.5601ZM31.6294 28.2101H18.9257C18.7961 28.2101 18.6664 28.3401 18.5368 28.3401C18.5368 28.4701 18.4072 28.6001 18.4072 28.6001V38.2201C18.4072 38.3501 18.5368 38.4801 18.5368 38.4801C18.6664 38.6101 18.7961 38.6101 18.9257 38.6101H31.6294C31.759 38.6101 31.8887 38.6101 32.0183 38.4801C32.0183 38.4801 32.1479 38.3501 32.1479 38.2201V28.6001C32.1479 28.6001 32.0183 28.4701 32.0183 28.3401C31.8887 28.3401 31.759 28.2101 31.6294 28.2101Z" fill="#0057D8"/>
<defs>
<linearGradient id="paint0_linear" x1="11.7554" y1="35.7506" x2="37.3115" y2="5.87164" gradientUnits="userSpaceOnUse">
<stop stop-color="#096BFF"/>
<stop offset="1" stop-color="#3384FF"/>
</linearGradient>
</defs>
</svg>
