<svg width="35" height="35" viewBox="0 0 35 35" fill="none" xmlns="http://www.w3.org/2000/svg">
<rect width="33.9183" height="33.9166" fill="black" fill-opacity="0" transform="translate(0.4375 0.133057)"/>
<path d="M13.7923 12.258L10.0277 11.184C9.36971 11.6144 8.60205 11.8466 7.81604 11.8529C7.07074 11.8447 6.34182 11.6329 5.70789 11.2405L5.61377 11.1746L1.84921 12.2486C1.45068 12.3821 1.10217 12.6339 0.850011 12.9705C0.59785 13.307 0.453973 13.7125 0.4375 14.1329V14.8677H15.204V14.1329C15.1857 13.7141 15.0409 13.3108 14.7889 12.976C14.5369 12.6413 14.1894 12.391 13.7923 12.258Z" fill="url(#paint0_linear)"/>
<path d="M32.9347 12.258L29.1701 11.184C28.5121 11.6144 27.7444 11.8466 26.9584 11.8529C26.2131 11.8447 25.4842 11.6329 24.8503 11.2405L24.7561 11.1746L20.9916 12.2486C20.593 12.3821 20.2445 12.6339 19.9924 12.9705C19.7402 13.307 19.5963 13.7125 19.5799 14.1329V14.8677H34.3558V14.1329C34.3367 13.713 34.1906 13.3088 33.9368 12.9739C33.683 12.6391 33.3335 12.3894 32.9347 12.258Z" fill="url(#paint1_linear)"/>
<path d="M9.3125 21.9904C9.24104 21.989 9.17085 21.9712 9.10725 21.9386C9.04366 21.9059 8.98832 21.8592 8.94545 21.802L5.29383 18.1653C5.24995 18.1214 5.21515 18.0693 5.1914 18.0119C5.16766 17.9545 5.15544 17.893 5.15544 17.8309C5.15544 17.7688 5.16766 17.7073 5.1914 17.6499C5.21515 17.5925 5.24995 17.5404 5.29383 17.4964C5.3377 17.4525 5.38979 17.4177 5.44712 17.3939C5.50444 17.3701 5.56588 17.3579 5.62793 17.3579C5.68998 17.3579 5.75142 17.3701 5.80875 17.3939C5.86608 17.4177 5.91816 17.4525 5.96204 17.4964L9.6419 21.1802C9.70638 21.246 9.75015 21.3293 9.76777 21.4199C9.78539 21.5104 9.77609 21.6041 9.74101 21.6893C9.70594 21.7746 9.64664 21.8477 9.57047 21.8995C9.4943 21.9514 9.4046 21.9797 9.3125 21.981V21.9904Z" fill="url(#paint2_linear)"/>
<path d="M25.5192 21.9905C25.4271 21.9892 25.3374 21.9609 25.2613 21.909C25.1851 21.8572 25.1258 21.7841 25.0907 21.6988C25.0556 21.6136 25.0463 21.5199 25.064 21.4294C25.0816 21.3389 25.1253 21.2555 25.1898 21.1897L28.8697 17.506C28.9583 17.4173 29.0785 17.3674 29.2038 17.3674C29.3291 17.3674 29.4493 17.4173 29.5379 17.506C29.6265 17.5947 29.6763 17.715 29.6763 17.8404C29.6763 17.9659 29.6265 18.0862 29.5379 18.1749L25.8863 21.8021C25.8434 21.8593 25.7881 21.9061 25.7245 21.9387C25.6609 21.9713 25.5907 21.9891 25.5192 21.9905Z" fill="url(#paint3_linear)"/>
<path d="M23.3637 31.4304L19.5991 30.3564C18.9502 30.785 18.193 31.0202 17.4157 31.0347C16.6704 31.0265 15.9414 30.8148 15.3075 30.4223L15.2134 30.3564L11.4488 31.4304C11.0503 31.564 10.7018 31.8157 10.4496 32.1523C10.1975 32.4889 10.0536 32.8943 10.0371 33.3147V34.0495H24.7848V33.3147C24.7676 32.8931 24.6224 32.4869 24.3684 32.1502C24.1145 31.8135 23.764 31.5624 23.3637 31.4304Z" fill="url(#paint4_linear)"/>
<g opacity="0.5">
<path d="M12.2593 4.95677C12.3104 3.73183 11.8746 2.53654 11.0473 1.63249C10.2201 0.728451 9.06876 0.189303 7.84534 0.133057C6.62026 0.186884 5.46653 0.72498 4.63727 1.62929C3.80801 2.5336 3.37096 3.73027 3.42198 4.95677C3.41229 5.77823 3.60992 6.58886 3.99654 7.31351C4.38316 8.03815 4.94627 8.65337 5.63366 9.10214V11.1842L5.72778 11.2502C6.36171 11.6426 7.09063 11.8544 7.83593 11.8626C8.62194 11.8563 9.3896 11.6241 10.0476 11.1937V9.11156C10.7351 8.66066 11.2981 8.04368 11.6847 7.31754C12.0712 6.5914 12.2688 5.77951 12.2593 4.95677Z" fill="url(#paint5_linear)"/>
<path d="M31.4111 4.95677C31.4621 3.73027 31.025 2.5336 30.1958 1.62929C29.3665 0.72498 28.2128 0.186884 26.9877 0.133057C25.7626 0.186884 24.6089 0.72498 23.7796 1.62929C22.9504 2.5336 22.5133 3.73027 22.5643 4.95677C22.5547 5.77823 22.7523 6.58886 23.1389 7.31351C23.5255 8.03815 24.0886 8.65337 24.776 9.10214V11.1842L24.8701 11.2502C25.5041 11.6426 26.233 11.8544 26.9783 11.8626C27.7643 11.8563 28.532 11.6241 29.19 11.1937V9.11156C29.8792 8.66176 30.4441 8.04526 30.8323 7.31905C31.2205 6.59285 31.4196 5.78038 31.4111 4.95677Z" fill="url(#paint6_linear)"/>
<path d="M21.8396 24.1292C21.8906 22.9027 21.4535 21.7061 20.6243 20.8017C19.795 19.8974 18.6413 19.3593 17.4162 19.3055C16.1911 19.3593 15.0374 19.8974 14.2081 20.8017C13.3789 21.7061 12.9418 22.9027 12.9929 24.1292C12.9832 24.9507 13.1808 25.7613 13.5674 26.486C13.954 27.2106 14.5171 27.8258 15.2045 28.2746V30.3567L15.2986 30.4226C15.9353 30.8167 16.6677 31.0285 17.4162 31.035C18.2022 31.0287 18.9699 30.7965 19.6279 30.3661V28.284C20.3154 27.8331 20.8784 27.2161 21.265 26.49C21.6515 25.7639 21.8491 24.952 21.8396 24.1292Z" fill="url(#paint7_linear)"/>
</g>
<defs>
<linearGradient id="paint0_linear" x1="17.3966" y1="-1.46693" x2="17.3966" y2="36.6096" gradientUnits="userSpaceOnUse">
<stop stop-color="#4552DD"/>
<stop offset="1" stop-color="#65D3AA"/>
</linearGradient>
<linearGradient id="paint1_linear" x1="17.3966" y1="-1.46693" x2="17.3966" y2="36.6096" gradientUnits="userSpaceOnUse">
<stop stop-color="#4552DD"/>
<stop offset="1" stop-color="#65D3AA"/>
</linearGradient>
<linearGradient id="paint2_linear" x1="17.3966" y1="-1.46693" x2="17.3966" y2="36.6096" gradientUnits="userSpaceOnUse">
<stop stop-color="#4552DD"/>
<stop offset="1" stop-color="#65D3AA"/>
</linearGradient>
<linearGradient id="paint3_linear" x1="17.3966" y1="-1.46693" x2="17.3966" y2="36.6096" gradientUnits="userSpaceOnUse">
<stop stop-color="#4552DD"/>
<stop offset="1" stop-color="#65D3AA"/>
</linearGradient>
<linearGradient id="paint4_linear" x1="17.3966" y1="-1.46693" x2="17.3966" y2="36.6096" gradientUnits="userSpaceOnUse">
<stop stop-color="#4552DD"/>
<stop offset="1" stop-color="#65D3AA"/>
</linearGradient>
<linearGradient id="paint5_linear" x1="17.4165" y1="-10.426" x2="17.4165" y2="42.0492" gradientUnits="userSpaceOnUse">
<stop stop-color="#4552DD"/>
<stop offset="1" stop-color="#65D3AA"/>
</linearGradient>
<linearGradient id="paint6_linear" x1="17.4165" y1="-10.426" x2="17.4165" y2="42.0492" gradientUnits="userSpaceOnUse">
<stop stop-color="#4552DD"/>
<stop offset="1" stop-color="#65D3AA"/>
</linearGradient>
<linearGradient id="paint7_linear" x1="17.4165" y1="-10.426" x2="17.4165" y2="42.0492" gradientUnits="userSpaceOnUse">
<stop stop-color="#4552DD"/>
<stop offset="1" stop-color="#65D3AA"/>
</linearGradient>
</defs>
</svg>
