<svg width="46" height="40" viewBox="0 0 46 40" fill="none" xmlns="http://www.w3.org/2000/svg">
<rect width="46" height="40" fill="black" fill-opacity="0"/>
<rect width="46" height="40" fill="black" fill-opacity="0"/>
<rect width="46" height="40" fill="black" fill-opacity="0"/>
<path fill-rule="evenodd" clip-rule="evenodd" d="M38.3205 0H7.67978L0 40H0.0783651H0.15673H0.235095H0.31346H0.391825H0.47019H0.548555H0.626921H0.705286H0.783651H0.862016H0.940381H1.01875H1.09711H1.17548H1.25384H1.33221H1.41057H1.48894H1.5673H1.64567H1.72403H1.8024H1.88076H1.95913H2.03749H2.11586H2.19422H2.27259H2.35095H2.42932H2.50768H2.58605H2.66441H2.74278H2.82114H2.89951H2.97787H3.05624H3.1346H3.21297H3.29133H3.3697H3.44806H3.52643C6.89613 40 5.79902 34.9705 10.5793 34.9705H22.0206C26.8009 34.9705 23.823 40 27.1143 40H27.1927H27.271H27.3494H27.4278H27.5061H27.5845H27.6629H27.7412H27.8196H27.898H27.9763H28.0547H28.1331H28.2114H28.2898H28.3682H28.4465H28.5249H28.6033H28.6816H28.76H28.8383H28.9167H28.9951H29.0734H29.1518H29.2302H29.3085H29.3869H29.4653H29.5436H29.622H29.7004H29.7787H29.8571H29.9355H30.0138H30.0922H30.1706H30.2489H30.3273H30.4056H30.484H30.5624H30.6407L38.3205 0Z" fill="url(#paint0_linear)"/>
<path fill-rule="evenodd" clip-rule="evenodd" d="M7.67969 0H38.3204L46.0002 40H45.9218H45.8435H45.7651H45.6867H45.6084H45.53H45.4517H45.3733H45.2949H45.2166H45.1382H45.0598H44.9815H44.9031H44.8247H44.7464H44.668H44.5896H44.5113H44.4329H44.3545H44.2762H44.1978H44.1194H44.0411H43.9627H43.8843H43.806H43.7276H43.6493H43.5709H43.4925H43.4142H43.3358H43.2574H43.1791H43.1007H43.0223H42.944H42.8656H42.7872H42.7089H42.6305H42.5521H42.4738C39.1824 40 40.2012 34.9705 35.4209 34.9705H23.9796C19.1994 34.9705 22.1772 40 18.8859 40H18.8075H18.7292H18.6508H18.5724H18.4941H18.4157H18.3373H18.259H18.1806H18.1022H18.0239H17.9455H17.8671H17.7888H17.7104H17.6321H17.5537H17.4753H17.397H17.3186H17.2402H17.1619H17.0835H17.0051H16.9268H16.8484H16.77H16.6917H16.6133H16.5349H16.4566H16.3782H16.2998H16.2215H16.1431H16.0648H15.9864H15.908H15.8297H15.7513H15.6729H15.5946H15.5162H15.4378H15.3595L7.67969 0Z" fill="url(#paint1_linear)"/>
<path d="M22.101 28.0549H31.2698L31.5049 29.941L34.6395 26.5618L30.4861 23.1826L30.7212 25.1473H21.6309L22.101 28.0549Z" fill="#3DC7DC"/>
<path fill-rule="evenodd" clip-rule="evenodd" d="M22.4133 12.1023H28.3691C29.3878 12.1023 30.4066 12.8881 30.5633 13.9098L30.9551 16.4245C31.3469 18.7821 29.7013 20.7467 27.3503 20.7467H26.2532C23.9023 20.7467 21.6297 18.7821 21.2378 16.4245L20.846 13.9098C20.6893 12.8881 21.3946 12.1023 22.4133 12.1023ZM26.4883 16.3459L26.645 17.5247C26.7234 17.7604 26.5667 17.9176 26.3316 17.9176C26.0965 17.9176 25.9398 17.7604 25.8614 17.5247L25.7047 16.3459C25.3912 16.1887 25.0777 15.8744 24.9994 15.4815C24.921 15.01 25.3128 14.617 25.783 14.617C26.3316 14.617 26.8018 15.01 26.8801 15.4815C26.8801 15.8744 26.7234 16.1887 26.4883 16.3459Z" fill="#1795D8"/>
<path d="M24.6078 7.46558C25.6266 7.46558 26.6453 7.8585 27.429 8.56577C28.2126 9.19446 28.7612 10.1375 28.9179 11.1591L29.153 12.2593C28.9179 12.1807 28.6828 12.1021 28.3693 12.1021H27.7424L27.5857 11.1591C27.5073 10.5304 27.1155 9.90173 26.6453 9.5088C26.1751 9.11587 25.5482 8.80153 24.8429 8.80153C24.216 8.80153 23.6674 9.11587 23.354 9.5088C22.9621 9.90173 22.8054 10.5304 22.8838 11.1591L23.0405 12.1021H22.4136C22.1785 12.1021 21.9434 12.1807 21.7083 12.2593L21.5516 11.1591C21.3948 10.1375 21.6299 9.19446 22.1785 8.56577C22.8054 7.8585 23.5891 7.46558 24.6078 7.46558Z" fill="url(#paint2_linear)"/>
<defs>
<linearGradient id="paint0_linear" x1="23.9735" y1="10.5404" x2="13.501" y2="46.0162" gradientUnits="userSpaceOnUse">
<stop stop-color="#2B3ACB"/>
<stop offset="1" stop-color="#13A6DB"/>
</linearGradient>
<linearGradient id="paint1_linear" x1="33.1284" y1="11.6491" x2="20.4972" y2="28.3161" gradientUnits="userSpaceOnUse">
<stop stop-color="#F4F5F7"/>
<stop offset="1" stop-color="#C0D0DE"/>
</linearGradient>
<linearGradient id="paint2_linear" x1="24.975" y1="7.84863" x2="25.6462" y2="11.8514" gradientUnits="userSpaceOnUse">
<stop stop-color="#198DD7"/>
<stop offset="1" stop-color="#4651F1"/>
</linearGradient>
</defs>
</svg>
