<svg width="35" height="35" viewBox="0 0 35 35" fill="none" xmlns="http://www.w3.org/2000/svg">
<rect width="33.9183" height="33.8812" fill="black" fill-opacity="0" transform="translate(0.830078 0.2854)"/>
<path opacity="0.5" d="M13.0233 30.4018H11.1389V27.5784C11.1389 26.58 11.536 25.6224 12.2427 24.9164C12.9495 24.2104 13.9081 23.8138 14.9076 23.8138H19.2887C20.2883 23.8138 21.2468 23.4172 21.9536 22.7112C22.6604 22.0052 23.0574 21.0477 23.0574 20.0492V14.3271C23.0574 13.3287 22.6604 12.3711 21.9536 11.6651C21.2468 10.9591 20.2883 10.5625 19.2887 10.5625H14.8605C13.861 10.5625 12.9024 10.1659 12.1956 9.4599C11.4889 8.7539 11.0918 7.79637 11.0918 6.79794V4.0498H12.9761V6.87323C12.9761 7.37245 13.1747 7.85122 13.5281 8.20421C13.8814 8.55721 14.3607 8.75552 14.8605 8.75552H19.2416C20.7409 8.75552 22.1788 9.35046 23.2389 10.4094C24.2991 11.4684 24.8947 12.9047 24.8947 14.4024V20.0492C24.8947 21.5469 24.2991 22.9832 23.2389 24.0422C22.1788 25.1012 20.7409 25.6961 19.2416 25.6961H14.8605C14.3607 25.6961 13.8814 25.8944 13.5281 26.2474C13.1747 26.6004 12.9761 27.0792 12.9761 27.5784L13.0233 30.4018Z" fill="url(#paint0_linear)"/>
<path d="M33.8062 13.4614H13.6059C13.0856 13.4614 12.6637 13.8828 12.6637 14.4026V20.0494C12.6637 20.5692 13.0856 20.9906 13.6059 20.9906H33.8062C34.3265 20.9906 34.7483 20.5692 34.7483 20.0494V14.4026C34.7483 13.8828 34.3265 13.4614 33.8062 13.4614Z" fill="url(#paint1_linear)"/>
<path d="M21.9725 0.2854H1.77225C1.2519 0.2854 0.830078 0.706765 0.830078 1.22654V6.8734C0.830078 7.39318 1.2519 7.81455 1.77225 7.81455H21.9725C22.4929 7.81455 22.9147 7.39318 22.9147 6.8734V1.22654C22.9147 0.706765 22.4929 0.2854 21.9725 0.2854Z" fill="url(#paint2_linear)"/>
<path d="M21.9725 26.6374H1.77225C1.2519 26.6374 0.830078 27.0588 0.830078 27.5786V33.2254C0.830078 33.7452 1.2519 34.1666 1.77225 34.1666H21.9725C22.4929 34.1666 22.9147 33.7452 22.9147 33.2254V27.5786C22.9147 27.0588 22.4929 26.6374 21.9725 26.6374Z" fill="url(#paint3_linear)"/>
<defs>
<linearGradient id="paint0_linear" x1="17.9932" y1="-2.59445" x2="17.9932" y2="40.2807" gradientUnits="userSpaceOnUse">
<stop stop-color="#4552DD"/>
<stop offset="1" stop-color="#65D3AA"/>
</linearGradient>
<linearGradient id="paint1_linear" x1="17.7892" y1="0.2854" x2="17.7892" y2="34.1666" gradientUnits="userSpaceOnUse">
<stop stop-color="#4552DD"/>
<stop offset="1" stop-color="#65D3AA"/>
</linearGradient>
<linearGradient id="paint2_linear" x1="17.7892" y1="0.2854" x2="17.7892" y2="34.1666" gradientUnits="userSpaceOnUse">
<stop stop-color="#4552DD"/>
<stop offset="1" stop-color="#65D3AA"/>
</linearGradient>
<linearGradient id="paint3_linear" x1="17.7892" y1="0.2854" x2="17.7892" y2="34.1666" gradientUnits="userSpaceOnUse">
<stop stop-color="#4552DD"/>
<stop offset="1" stop-color="#65D3AA"/>
</linearGradient>
</defs>
</svg>
