<svg width="40" height="30" viewBox="0 0 40 30" fill="none" xmlns="http://www.w3.org/2000/svg">
<rect width="40" height="30" fill="black" fill-opacity="0"/>
<path d="M38.0165 0H1.98347C0.88803 0 0 0.975469 0 2.17877V27.8212C0 29.0245 0.88803 30 1.98347 30H38.0165C39.112 30 40 29.0245 40 27.8212V2.17877C40 0.975469 39.112 0 38.0165 0Z" fill="url(#paint0_linear)"/>
<path fill-rule="evenodd" clip-rule="evenodd" d="M2.14876 0H38.0165C39.1736 0 40 1.00559 40 2.17877V4.18994L21.157 19.9441C20.6612 20.6145 19.6694 20.6145 19.0083 20.1117L0 4.35754V2.17877C0 1.00559 0.991736 0 2.14876 0Z" fill="#AAC8E2"/>
<defs>
<linearGradient id="paint0_linear" x1="20" y1="-10" x2="20.3898" y2="58.9248" gradientUnits="userSpaceOnUse">
<stop stop-color="#4552DD"/>
<stop offset="1" stop-color="#65D3AA"/>
</linearGradient>
</defs>
</svg>
