<svg width="35" height="26" viewBox="0 0 35 26" fill="none" xmlns="http://www.w3.org/2000/svg">
<rect width="33.9185" height="24.9847" fill="black" fill-opacity="0" transform="translate(0.992188 0.156006)"/>
<path opacity="0.5" d="M33.1292 0.156006H2.77286C2.3006 0.156006 1.84768 0.343602 1.51374 0.677527C1.17979 1.01145 0.992188 1.46435 0.992188 1.93659L0.992188 4.6216H34.9098V1.93659C34.9098 1.46435 34.7222 1.01145 34.3883 0.677527C34.0543 0.343602 33.6014 0.156006 33.1292 0.156006V0.156006ZM3.66791 3.2838C3.49089 3.2838 3.31784 3.23131 3.17065 3.13297C3.02346 3.03462 2.90874 2.89484 2.841 2.7313C2.77325 2.56776 2.75553 2.38781 2.79006 2.21419C2.8246 2.04058 2.90984 1.88111 3.03502 1.75594C3.16019 1.63077 3.31967 1.54553 3.4933 1.511C3.66692 1.47646 3.84688 1.49419 4.01043 1.56193C4.17398 1.62967 4.31377 1.74438 4.41212 1.89156C4.51047 2.03875 4.56296 2.21179 4.56296 2.3888C4.56296 2.62617 4.46866 2.85382 4.30081 3.02166C4.13295 3.18951 3.90529 3.2838 3.66791 3.2838ZM6.79587 3.2838C6.61885 3.2838 6.4458 3.23131 6.29861 3.13297C6.15142 3.03462 6.0367 2.89484 5.96896 2.7313C5.90121 2.56776 5.88349 2.38781 5.91802 2.21419C5.95256 2.04058 6.0378 1.88111 6.16298 1.75594C6.28815 1.63077 6.44764 1.54553 6.62126 1.511C6.79488 1.47646 6.97484 1.49419 7.13839 1.56193C7.30194 1.62967 7.44173 1.74438 7.54008 1.89156C7.63843 2.03875 7.69092 2.21179 7.69092 2.3888C7.69092 2.62617 7.59662 2.85382 7.42877 3.02166C7.26091 3.18951 7.03326 3.2838 6.79587 3.2838ZM9.92383 3.2838C9.74681 3.2838 9.57376 3.23131 9.42657 3.13297C9.27938 3.03462 9.16466 2.89484 9.09692 2.7313C9.02917 2.56776 9.01145 2.38781 9.04598 2.21419C9.08052 2.04058 9.16576 1.88111 9.29094 1.75594C9.41611 1.63077 9.5756 1.54553 9.74922 1.511C9.92284 1.47646 10.1028 1.49419 10.2664 1.56193C10.4299 1.62967 10.5697 1.74438 10.668 1.89156C10.7664 2.03875 10.8189 2.21179 10.8189 2.3888C10.8189 2.50713 10.7954 2.62429 10.7499 2.73349C10.7043 2.8427 10.6375 2.94178 10.5534 3.02502C10.4693 3.10825 10.3695 3.17398 10.2598 3.2184C10.1501 3.26282 10.0327 3.28505 9.91441 3.2838H9.92383Z" fill="url(#paint0_linear)"/>
<path d="M34.9101 4.62158H12.2983V12.328H34.9101V4.62158Z" fill="url(#paint1_linear)"/>
<path d="M12.2983 25.1403H33.1294C33.6017 25.1403 34.0546 24.9527 34.3886 24.6188C34.7225 24.2848 34.9101 23.8319 34.9101 23.3597V14.5322H12.2983V25.1403Z" fill="url(#paint2_linear)"/>
<path d="M0.992188 4.62158V23.3601C0.992188 23.8323 1.17979 24.2852 1.51374 24.6192C1.84768 24.9531 2.3006 25.1407 2.77286 25.1407H10.4138V4.62158H0.992188Z" fill="url(#paint3_linear)"/>
<defs>
<linearGradient id="paint0_linear" x1="17.951" y1="-23.2013" x2="17.951" y2="29.2726" gradientUnits="userSpaceOnUse">
<stop stop-color="#4552DD"/>
<stop offset="1" stop-color="#65D3AA"/>
</linearGradient>
<linearGradient id="paint1_linear" x1="17.9511" y1="-9.12308" x2="17.9511" y2="40.1512" gradientUnits="userSpaceOnUse">
<stop offset="0.0469215" stop-color="#4552DD"/>
<stop offset="1" stop-color="#65D3AA"/>
</linearGradient>
<linearGradient id="paint2_linear" x1="17.9511" y1="-9.12308" x2="17.9511" y2="40.1512" gradientUnits="userSpaceOnUse">
<stop offset="0.0469215" stop-color="#4552DD"/>
<stop offset="1" stop-color="#65D3AA"/>
</linearGradient>
<linearGradient id="paint3_linear" x1="17.9511" y1="-9.12308" x2="17.9511" y2="40.1512" gradientUnits="userSpaceOnUse">
<stop offset="0.0469215" stop-color="#4552DD"/>
<stop offset="1" stop-color="#65D3AA"/>
</linearGradient>
</defs>
</svg>
