<svg fill="none" height="28" viewBox="0 0 46 28" width="46" xmlns="http://www.w3.org/2000/svg"><path d="m0 0h45.2189v28h-45.2189z" fill="none"/><path d="m13.9485 0c7.6968 0 13.9383 6.26451 13.9383 14 0 7.7252-6.2415 14-13.9383 14-7.70703 0-13.9485-6.2748-13.9485-14 0-7.73549 6.24147-14 13.9485-14z" fill="#e52733"/><path d="m31.2708 0c7.707 0 13.9485 6.26451 13.9485 14 0 7.7252-6.2415 14-13.9485 14-7.6968 0-13.9485-6.2748-13.9485-14 0-7.73549 6.2517-14 13.9485-14z" fill="#f29229"/><path d="m17.3223 14.0011c0 4.4438 2.0702 8.4042 5.2883 10.9655 3.2181-2.5613 5.2781-6.5217 5.2781-10.9655 0-4.44375-2.06-8.41436-5.2781-10.97571-3.2181 2.57164-5.2883 6.53196-5.2883 10.97571z" fill="#e95033"/></svg>