<svg fill="none" height="21" viewBox="0 0 66 21" width="66" xmlns="http://www.w3.org/2000/svg"><path d="m0 0h65.2171v20.125h-65.2171z" fill="none"/><g fill="#fff"><path d="m23.916 19.7075 3.316-19.070781h5.1729l-3.214 19.070781z"/><path d="m47.9351.845501c-1.0408-.417532-2.6936-.845501-4.7648-.845501-5.1729 0-8.897 2.65132-8.897 6.46129 0 2.86009 2.5813 4.34231 4.6525 5.30261 2.0712.9499 2.6936 1.5867 2.6936 2.4322 0 1.2734-1.6529 1.9102-3.1017 1.9102-2.0712 0-3.2139-.3236-4.979-1.0647l-.7244-.3132-.7245 4.3423c1.2448.5219 3.5201 1.0543 5.9076 1.0543 5.4892 0 9.1112-2.6513 9.1112-6.6701 0-2.2233-1.3468-3.92475-4.4587-5.29217-1.8569-.96032-2.9997-1.48223-2.9997-2.44255 0-.8455.9285-1.691 2.9997-1.691 1.7651 0 3.0099.31314 3.9384.74111l.5203.20877z"/><path d="m54.4534 13.3505c.3163-.9603 2.0712-5.61575 2.0712-5.61575s.4183-1.16909.7244-1.91021l.3163 1.80583s1.0305 4.75983 1.2345 5.82453h-4.3464zm2.3772-12.713781c-1.2345 0-2.1732.104383-2.6833 1.377851l-7.7645 17.69293h5.5912l1.0305-3.1837h6.6218l.6223 3.1837h4.9689l-4.3465-19.070781z"/><path d="m14.3856 13.9874-.5102-2.7557c-.9387-3.18369-3.93834-6.67008-7.25431-8.37152l4.66271 16.95172h5.5913l8.3868-19.070689h-5.5912z"/></g><path d="m0 .636719.92847.208765c6.63193 1.597056 11.18243 5.615796 12.94753 10.386116l-1.8671-9.00826c-.3061-1.263035-1.2448-1.586621-2.3773-1.586621z" fill="#f8ae20"/></svg>