<svg width="62" height="19" viewBox="0 0 62 19" fill="none" xmlns="http://www.w3.org/2000/svg">
<rect width="61.1699" height="18.8338" fill="black" fill-opacity="0" transform="translate(0 0.129883)"/>
<path d="M22.4316 18.4778L25.5418 0.722656H30.3937L27.3792 18.4778H22.4316Z" fill="#3F529D"/>
<path d="M22.4316 18.4778L26.4127 0.722656H30.3937L27.3792 18.4778H22.4316Z" fill="#3D3A81"/>
<path d="M44.9595 0.917055C43.9834 0.528328 42.4331 0.129883 40.4904 0.129883C35.6385 0.129883 32.1456 2.5983 32.1456 6.14543C32.1456 8.80821 34.5667 10.1882 36.5094 11.0823C38.4521 11.9666 39.0358 12.5594 39.0358 13.3466C39.0358 14.5322 37.4855 15.125 36.1266 15.125C34.1839 15.125 33.1121 14.8238 31.4566 14.1338L30.7771 13.8422L30.0977 17.885C31.2652 18.3709 33.3992 18.8665 35.6385 18.8665C40.7871 18.8665 44.1843 16.3981 44.1843 12.6566C44.1843 10.5866 42.9211 9.00257 40.0024 7.72949C38.2607 6.83542 37.1888 6.34951 37.1888 5.45544C37.1888 4.66827 38.0597 3.8811 40.0024 3.8811C41.6579 3.8811 42.8254 4.17264 43.6963 4.57109L44.1843 4.76545L44.9595 0.917055Z" fill="#3F529D"/>
<path d="M44.9595 0.917055C43.9834 0.528328 42.4331 0.129883 40.4904 0.129883C35.6385 0.129883 33.0164 2.5983 33.0164 6.14543C33.0164 8.80821 34.5667 10.1882 36.5094 11.0823C38.4521 11.9666 39.0358 12.5594 39.0358 13.3466C39.0358 14.5322 37.4855 15.125 36.1266 15.125C34.1839 15.125 33.1121 14.8238 31.4566 14.1338L30.7771 13.8422L30.0977 17.885C31.2652 18.3709 33.3992 18.8665 35.6385 18.8665C40.7871 18.8665 44.1843 16.3981 44.1843 12.6566C44.1843 10.5866 42.9211 9.00257 40.0024 7.72949C38.2607 6.83542 37.1888 6.34951 37.1888 5.45544C37.1888 4.66827 38.0597 3.8811 40.0024 3.8811C41.6579 3.8811 42.8254 4.17264 43.6963 4.57109L44.1843 4.76545L44.9595 0.917055Z" fill="#3D3A81"/>
<path d="M51.0736 12.5594C51.3702 11.6653 53.0162 7.33101 53.0162 7.33101C53.0162 7.33101 53.4086 6.24258 53.6957 5.55259L53.9924 7.23383C53.9924 7.23383 54.9589 11.6653 55.1503 12.6566H51.0736V12.5594ZM53.3033 0.722656C52.1454 0.722656 51.265 0.819838 50.7865 2.00546L43.5039 18.4778H48.7481L49.7147 15.5137H55.9254L56.5092 18.4778H61.1697L57.093 0.722656H53.3033Z" fill="#3F529D"/>
<path d="M51.0736 12.5594C51.4659 11.5681 53.0162 7.33101 53.0162 7.33101C53.0162 7.33101 53.4086 6.24258 53.6957 5.55259L53.9924 7.23383C53.9924 7.23383 54.9589 11.6653 55.1503 12.6566H51.0736V12.5594ZM54.4708 0.722656C53.3033 0.722656 52.4325 0.819838 51.9444 2.00546L43.5039 18.4778H48.7481L49.7147 15.5137H55.9254L56.5092 18.4778H61.1697L57.093 0.722656H54.4708Z" fill="#3D3A81"/>
<path d="M13.4935 13.1517L13.015 10.5861C12.1346 7.62206 9.32111 4.37619 6.21094 2.79213L10.5843 18.5744H15.8285L23.6949 0.819336H18.4507L13.4935 13.1517Z" fill="#3F529D"/>
<path d="M13.4935 13.1517L13.015 10.5861C12.1346 7.62206 9.32111 4.37619 6.21094 2.79213L10.5843 18.5744H15.8285L23.6949 0.819336H19.4172L13.4935 13.1517Z" fill="#3D3A81"/>
<path d="M0 0.722656L0.870848 0.91702C7.09119 2.4039 11.3593 6.1454 13.0149 10.5866L11.2636 2.19982C10.9765 1.02392 10.0961 0.722656 9.03385 0.722656H0Z" fill="#F8AE20"/>
<path d="M0 0.722656C6.21077 2.19982 11.3593 6.04822 13.0149 10.4894L11.3593 3.48262C11.0722 2.297 10.0961 1.60701 9.03385 1.60701L0 0.722656Z" fill="#F18A2E"/>
<path d="M0 0.722656C6.21077 2.19982 11.3593 6.04822 13.0149 10.4894L11.8474 6.64102C11.5507 5.45541 11.1679 4.26979 9.809 3.78388L0 0.722656Z" fill="#EC6C2C"/>
<path d="M18.3552 12.5593L15.0536 9.20649L13.4937 12.948L13.1109 10.4893C12.2305 7.52524 9.41701 4.26966 6.31641 2.69531L10.6802 18.4776H15.9244L18.3552 12.5593Z" fill="#332F4D"/>
<path d="M27.3792 18.4778L23.2068 14.1338L22.4316 18.4778H27.3792Z" fill="#332F4D"/>
<path d="M38.5478 12.3555C38.9401 12.7539 39.1315 13.0455 39.0358 13.4439C39.0358 14.6295 37.4855 15.2223 36.1266 15.2223C34.1839 15.2223 33.1121 14.9211 31.4566 14.2311L30.7771 13.9395L30.0977 17.9823C31.2652 18.4779 33.3992 18.9638 35.6385 18.9638C38.7391 18.9638 41.2656 18.0795 42.7297 16.5051L38.5478 12.3555Z" fill="#332F4D"/>
<path d="M44.1836 18.4779H48.7484L49.7149 15.5139H55.9257L56.5094 18.4779H61.1699L59.5239 11.2767L53.6959 5.55273L53.9926 7.1368C53.9926 7.1368 54.9591 11.5683 55.1505 12.5595H51.0738C51.4662 11.5683 53.0165 7.33116 53.0165 7.33116C53.0165 7.33116 53.4088 6.24272 53.6959 5.55273L44.1836 18.4779Z" fill="#332F4D"/>
</svg>
