<svg fill="none" height="1256" viewBox="0 0 1256 1256" width="1256" xmlns="http://www.w3.org/2000/svg"><path d="m0 0h1256v1256h-1256z" fill="none"/><path d="m0 0h1256v1256h-1256z" fill="none"/><circle cx="628" cy="627" fill="#e6e6e6" fill-opacity=".1" r="298"/><circle cx="627.5" cy="627.5" fill="#ccf" fill-opacity=".06" r="462.5"/><circle cx="628" cy="628" fill="#fff" fill-opacity=".04" r="628"/><path d="m34 374h1099v573.032h-1099z" fill="none"/><path d="m43.1777 710.774h221.326v102.226h-221.326z" fill="none"/><path d="m49.9705 813.586c-.3235.258-.7954.206-1.0542-.117-.2588-.324-.2063-.796.1171-1.055zm213.4495-90.332c.412-.045.782.252.827.664.046.412-.251.782-.663.827zm-212.4879 87.654c.3255-.256.797-.2 1.0532.126.2561.325.1999.797-.1257 1.053zm6.3436-2.988c-.3309.249-.8011.182-1.0502-.148-.2491-.331-.1828-.802.1481-1.051zm3.0288-4.114c.3344-.245.8037-.172 1.0481.163.2444.334.1715.803-.1629 1.048zm6.443-2.772c-.3389.238-.8067.156-1.0449-.182-.2381-.339-.1565-.807.1824-1.045zm3.1561-4.013c.3419-.234.8086-.147 1.0425.195.2338.342.1463.809-.1956 1.043zm6.5208-2.573c-.3458.228-.811.132-1.039-.213-.2281-.346-.1326-.811.2131-1.039zm3.273-3.921c.3484-.224.8124-.123 1.0364.225s.1232.812-.2252 1.037zm6.5874-2.387c-.3519.218-.8143.11-1.0328-.242-.2184-.352-.1102-.814.2417-1.033zm3.3842-3.834c.3543-.215.8154-.102 1.03.253.2145.354.1012.815-.2531 1.03zm6.6474-2.211c-.3575.209-.8169.089-1.026-.268-.2092-.358-.0888-.817.2687-1.026zm3.4914-3.749c.3602-.205.8182-.08 1.0232.28s.08.818-.28 1.023zm6.7022-2.039c-.362.2-.819.068-1.018-.295-.2-.363-.068-.819.294-1.019zm3.57-3.651c.365-.196.82-.059 1.016.306s.059.819-.306 1.016zm6.75-1.869c-.367.191-.82.048-1.011-.32s-.047-.82.32-1.011zm3.665-3.562c.369-.187.82-.039 1.007.33.187.37.039.821-.33 1.008zm6.797-1.701c-.373.181-.822.026-1.003-.346-.182-.372-.027-.821.345-1.003zm3.763-3.476c.375-.178.822-.019 1 .356.177.374.018.821-.356.999zm6.832-1.529c-.376.172-.821.007-.994-.37-.172-.377-.006-.822.371-.994zm3.833-3.373c.378-.168.822.002.99.381.168.378-.002.821-.381.99zm6.873-1.359c-.381.163-.822-.014-.985-.395-.162-.381.015-.822.396-.984zm3.931-3.281c.383-.159.821.023.98.405.159.383-.023.822-.406.98zm6.904-1.183c-.385.153-.821-.036-.974-.421s.035-.821.42-.973zm3.999-3.174c.387-.149.821.044.969.43.149.387-.044.821-.43.97zm6.933-1.005c-.389.143-.82-.057-.962-.445-.143-.389.056-.82.445-.963zm4.095-3.074c.391-.138.82.066.958.456.139.391-.066.819-.456.958zm6.954-.82c-.392.133-.818-.078-.95-.471-.133-.392.078-.818.471-.95zm4.164-2.959c.394-.128.817.087.945.481s-.087.817-.481.945zm6.978-.633c-.396.121-.816-.101-.937-.497-.122-.396.1-.815.496-.937zm4.252-2.847c.397-.117.814.11.931.507.117.398-.11.815-.507.932zm6.988-.438c-.399.111-.813-.123-.923-.522-.111-.399.123-.813.522-.923zm4.325-2.724c.401-.106.811.133.917.534.106.4-.133.81-.534.916zm7.003-.239c-.402.099-.808-.147-.907-.549s.147-.809.549-.908zm4.403-2.598c.403-.094.806.157.9.56.094.404-.156.807-.56.901zm7.003-.032c-.405.087-.804-.17-.891-.575s.171-.804.576-.891zm4.482-2.465c.406-.082.802.181.884.587s-.181.801-.587.883zm7.005.18c-.408.075-.798-.195-.873-.602-.075-.408.195-.799.603-.873zm4.549-2.324c.408-.069.795.206.864.614.069.409-.206.796-.614.865zm6.994.401c-.41.061-.792-.221-.854-.631-.061-.409.221-.791.631-.853zm4.628-2.179c.41-.056.788.231.844.641.056.411-.231.789-.641.845zm6.974.628c-.411.048-.784-.247-.832-.658-.048-.412.246-.784.658-.832zm-212.1236 87.393c.6248-.499 1.2577-1.002 1.8987-1.506l.9275 1.179c-.6378.502-1.2676 1.001-1.8891 1.499zm7.3402-5.693c1.2829-.966 2.5934-1.938 3.9309-2.915l.8852 1.211c-1.3319.973-2.6367 1.941-3.914 2.903zm9.5114-6.914c1.3168-.926 2.6565-1.855 4.0186-2.786l.8469 1.238c-1.3569.928-2.6914 1.853-4.003 2.775zm9.7135-6.611c1.3469-.889 2.7133-1.778 4.0989-2.669l.8112 1.262c-1.3807.887-2.7422 1.774-4.0842 2.659zm9.8952-6.331c1.3749-.853 2.7667-1.706 4.1753-2.559l.7769 1.283c-1.4038.85-2.791 1.7-4.1611 2.551zm10.0654-6.064c1.4013-.82 2.8176-1.638 4.2487-2.455l.7432 1.303c-1.4263.814-2.838 1.629-4.2346 2.446zm10.2269-5.808c1.418-.781 2.85-1.56 4.294-2.337l.71 1.322c-1.44.773-2.866 1.55-4.28 2.329zm10.353-5.537c1.44-.747 2.892-1.491 4.356-2.231l.677 1.338c-1.459.738-2.907 1.48-4.342 2.224zm10.495-5.281c1.463-.713 2.937-1.422 4.421-2.127l.644 1.355c-1.48.702-2.949 1.409-4.407 2.121zm10.63-5.02c1.475-.675 2.961-1.344 4.456-2.009l.609 1.371c-1.49.662-2.971 1.33-4.442 2.002zm10.74-4.747c1.498-.64 3.004-1.274 4.52-1.902l.574 1.385c-1.51.627-3.012 1.259-4.505 1.896zm10.87-4.479c1.51-.6 3.027-1.193 4.553-1.78l.539 1.4c-1.521.585-3.034 1.176-4.538 1.774zm10.969-4.193c1.53-.562 3.068-1.117 4.612-1.666l.502 1.414c-1.54.546-3.072 1.1-4.597 1.66zm11.087-3.907c1.541-.52 3.089-1.033 4.643-1.538l.464 1.426c-1.549.504-3.092 1.015-4.628 1.533zm11.18-3.605c1.558-.479 3.122-.95 4.693-1.413l.424 1.439c-1.565.461-3.124.931-4.676 1.408zm11.28-3.296c1.57-.435 3.145-.861 4.726-1.279l.383 1.45c-1.575.416-3.144.841-4.708 1.274zm11.371-2.975c1.582-.389 3.169-.77 4.761-1.141l.34 1.461c-1.586.37-3.167.749-4.743 1.137zm11.449-2.639c1.595-.343 3.194-.676 4.797-.999l.297 1.47c-1.598.322-3.191.654-4.779.995zm11.532-2.294c1.602-.293 3.208-.576 4.819-.849l.25 1.479c-1.604.272-3.204.554-4.799.845zm11.59-1.932c1.613-.242 3.23-.474 4.851-.695l.203 1.486c-1.614.22-3.225.451-4.831.693zm11.651-1.557c.811-.095 1.624-.187 2.437-.277l.164 1.491c-.81.089-1.619.181-2.427.276z" fill="#4975a8" fill-opacity=".972549"/><path d="m134.999 753.086 7.993 4.299-3.473 7.89" stroke="#4974a7" stroke-linecap="round" stroke-linejoin="round" stroke-width="1.5"/><path d="m34 468.53h209.499v192.805h-209.499z" fill="none"/><path d="m33.5541 532.468c-.3333-.246-.4043-.715-.1585-1.049.2459-.333.7154-.404 1.0488-.158zm210.0209 64.786c.412.042.712.411.67.823-.043.412-.411.711-.823.669zm-207.0748-64.501c.3371.24.4152.709.1744 1.046-.2407.337-.7091.415-1.0462.174zm5.0881 5.299c-.3463-.228-.4428-.693-.2155-1.039.2272-.346.6922-.443 1.0385-.215zm5.1355 1.496c.352.219.4604.681.242 1.033-.2183.352-.6807.46-1.0327.242zm5.4051 4.978c-.359-.207-.4823-.666-.2756-1.025.2068-.359.6654-.482 1.0243-.275zm5.2106 1.206c.3632.199.4963.655.2973 1.019-.1991.363-.655.496-1.0182.297zm5.6521 4.694c-.3686-.189-.5142-.641-.3251-1.01.189-.368.641-.514 1.0096-.325zm5.2628.96c.372.183.5257.632.3434 1.004-.1824.372-.6317.526-1.0036.343zm5.85 4.443c-.3762-.174-.5404-.619-.3669-.995.1735-.377.6191-.541.9952-.367zm5.3.748c.3788.168.55.611.3824.99-.1675.378-.6105.55-.9893.382zm6.0125 4.219c-.3822-.16-.5625-.6-.4027-.982s.5991-.562.9812-.402zm5.3265.562c.3843.154.5707.591.4162.976-.1545.384-.5913.57-.9756.416zm6.1486 4.016c-.3871-.147-.5813-.58-.4339-.967.1475-.388.5808-.582.9679-.434zm5.338.395c.389.142.589.573.446.962s-.573.589-.962.446zm6.267 3.833c-.392-.136-.598-.564-.462-.955s.564-.598.955-.462zm5.34.242c.393.132.604.557.472.95-.132.392-.557.604-.95.472zm6.367 3.664c-.395-.126-.613-.548-.486-.943.126-.394.548-.612.942-.486zm5.35.106c.396.122.618.542.496.938s-.542.618-.938.496zm6.455 3.507c-.398-.117-.625-.533-.509-.931.117-.397.533-.625.931-.509zm5.354-.019c.398.112.63.527.517.925-.112.399-.527.631-.926.518zm6.532 3.358c-.4-.108-.637-.519-.529-.919s.519-.637.919-.53zm5.348-.139c.4.104.641.513.537.914s-.513.642-.914.538zm6.603 3.218c-.402-.1-.648-.506-.549-.908s.506-.648.908-.549zm5.345-.25c.403.096.652.5.557.903-.096.403-.5.652-.903.556zm6.668 3.082c-.404-.091-.658-.492-.567-.896s.493-.658.897-.567zm5.339-.356c.405.088.662.487.574.892s-.487.662-.892.574zm6.726 2.951c-.406-.083-.667-.48-.584-.885.083-.406.48-.668.885-.585zm5.332-.459c.407.08.671.474.591.88-.08.407-.474.671-.88.591zm6.782 2.822c-.407-.076-.676-.467-.601-.874.076-.407.467-.676.875-.601zm5.323-.56c.408.072.68.462.608.869-.073.408-.462.68-.87.608zm6.834 2.694c-.409-.067-.685-.454-.617-.862.068-.409.454-.685.863-.617zm5.307-.66c.409.065.689.449.624.858-.064.409-.448.688-.858.624zm6.883 2.566c-.41-.061-.693-.442-.633-.851.06-.41.441-.694.851-.634zm5.297-.76c.41.057.697.435.64.845-.057.411-.436.697-.846.64zm6.93 2.434c-.411-.053-.701-.428-.649-.839s.427-.702.838-.65zm5.286-.862c.411.049.705.422.656.834-.048.411-.422.705-.833.656zm6.977 2.298c-.411-.044-.71-.414-.666-.826.045-.412.414-.71.826-.666zm-206.4306-67.218c.6779.5 1.3632.997 2.0558 1.492l-.8718 1.22c-.6987-.499-1.3902-1.001-2.0743-1.505zm7.9669 5.537c1.4121.926 2.8499 1.843 4.3125 2.75l-.7907 1.275c-1.4731-.914-2.9217-1.838-4.3448-2.771zm10.4663 6.428c1.4661.844 2.9537 1.68 4.4619 2.506l-.7209 1.316c-1.5173-.832-3.0141-1.672-4.4897-2.522zm10.7985 5.865c1.5084.774 3.0347 1.539 4.5783 2.295l-.6602 1.347c-1.5515-.76-3.086-1.529-4.6026-2.307zm11.0566 5.376c1.5424.711 3.0998 1.415 4.6717 2.11l-.6069 1.372c-1.5789-.699-3.1435-1.405-4.6931-2.12zm11.2627 4.945c1.5702.656 3.1531 1.305 4.748 1.946l-.5594 1.392c-1.6012-.644-3.1905-1.295-4.7671-1.954zm11.4306 4.561c1.5911.606 3.193 1.204 4.804 1.796l-.516 1.408c-1.618-.593-3.225-1.194-4.822-1.803zm11.564 4.212c1.607.56 3.223 1.113 4.847 1.659l-.478 1.422c-1.629-.548-3.25-1.102-4.862-1.664zm11.67 3.894c1.624.519 3.256 1.031 4.894 1.535l-.442 1.434c-1.643-.506-3.279-1.02-4.908-1.54zm11.771 3.602c1.638.481 3.283.954 4.932 1.421l-.409 1.443c-1.653-.468-3.302-.942-4.945-1.424zm11.854 3.33c1.649.444 3.301.88 4.958 1.31l-.377 1.452c-1.661-.431-3.318-.869-4.971-1.313zm11.92 3.071c1.66.409 3.322.812 4.986 1.207l-.346 1.459c-1.669-.396-3.335-.799-4.999-1.209zm11.984 2.826c1.668.376 3.338.745 5.009 1.107l-.318 1.466c-1.674-.363-3.348-.733-5.021-1.11zm12.036 2.588c1.677.344 3.354.681 5.031 1.011l-.289 1.471c-1.681-.33-3.362-.668-5.043-1.012zm12.087 2.358c1.684.312 3.367.617 5.049.915l-.262 1.477c-1.685-.299-3.372-.604-5.061-.917zm12.129 2.13c1.69.28 3.377.553 5.061.819l-.234 1.482c-1.688-.267-3.379-.541-5.073-.822zm12.162 1.9c1.697.249 3.39.491 5.079.725l-.206 1.485c-1.692-.234-3.39-.476-5.091-.725zm12.198 1.67c1.705.217 3.404.426 5.097.627l-.177 1.49c-1.697-.202-3.4-.411-5.109-.628zm12.234 1.433c.849.091 1.696.18 2.54.267l-.153 1.492c-.847-.087-1.696-.176-2.547-.267z" fill="#4975a8" fill-opacity=".972549"/><path d="m170.672 579 3.832 8.227-7.504 4.243" stroke="#4974a7" stroke-linecap="round" stroke-linejoin="round" stroke-width="1.5"/><path d="m224 382h229.896v163.368h-229.896z" fill="none"/><path d="m258.744 381.798c-.112-.399-.525-.632-.924-.52-.399.111-.632.525-.521.924zm161.038 163.913c.392.132.818-.079.95-.471.133-.393-.078-.818-.471-.951zm-161.797-161.12c.117.397.534.625.931.508s.625-.534.508-.932zm3.521 6.18c-.132-.392-.557-.604-.95-.472-.392.132-.604.558-.472.95zm.231 5.187c.142.389.573.589.962.447s.589-.573.447-.962zm3.902 5.947c-.156-.384-.593-.569-.977-.413s-.568.594-.412.977zm.544 5.161c.165.38.607.554.987.389s.554-.607.388-.987zm4.245 5.708c-.178-.374-.625-.533-1-.355-.374.178-.533.625-.355.999zm.833 5.117c.186.37.637.519 1.007.332.37-.186.519-.637.333-1.007zm4.553 5.465c-.198-.364-.653-.499-1.017-.301s-.499.653-.301 1.017zm1.109 5.069c.206.36.664.485 1.024.279.359-.206.484-.664.278-1.023zm4.833 5.221c-.216-.354-.678-.465-1.031-.249-.353.217-.464.678-.248 1.032zm1.369 5.009c.224.349.688.45 1.036.226.349-.223.45-.687.227-1.036zm5.087 4.971c-.234-.342-.7-.431-1.042-.197-.343.233-.431.7-.197 1.042zm1.607 4.928c.24.338.708.417 1.045.176.338-.24.417-.708.177-1.045zm5.32 4.722c-.25-.33-.72-.396-1.051-.147-.33.25-.396.72-.147 1.051zm1.841 4.853c.256.326.728.382 1.053.127.326-.256.383-.728.127-1.053zm5.535 4.47c-.264-.319-.737-.363-1.056-.099-.319.265-.363.738-.099 1.056zm2.061 4.761c.27.314.744.349 1.058.079.314-.271.349-.744.078-1.058zm5.731 4.213c-.279-.306-.753-.329-1.06-.051-.306.279-.329.753-.051 1.06zm2.272 4.663c.284.302.759.316 1.06.032.301-.285.315-.759.031-1.061zm5.913 3.955c-.292-.294-.766-.296-1.06-.004s-.296.767-.004 1.061zm2.48 4.562c.297.288.772.281 1.061-.016.288-.297.281-.772-.016-1.06zm6.081 3.689c-.305-.281-.779-.262-1.06.043-.281.304-.262.778.043 1.059zm2.672 4.444c.31.275.784.247 1.059-.062.275-.31.247-.784-.062-1.059zm6.237 3.42c-.316-.267-.789-.227-1.057.09-.267.316-.227.789.089 1.056zm2.868 4.327c.321.261.794.213 1.055-.109.262-.321.213-.793-.108-1.055zm6.382 3.145c-.328-.253-.799-.193-1.052.135-.254.328-.193.799.135 1.052zm3.05 4.194c.333.247.802.178 1.05-.155.247-.332.178-.802-.155-1.049zm6.512 2.861c-.338-.238-.806-.157-1.045.181-.238.339-.157.807.182 1.046zm3.236 4.057c.343.233.809.143 1.041-.2.233-.343.143-.809-.2-1.042zm6.633 2.572c-.349-.224-.813-.122-1.036.227s-.121.813.228 1.036zm3.411 3.908c.353.217.815.106 1.031-.247.217-.353.107-.815-.246-1.032zm6.741 2.271c-.359-.208-.818-.085-1.025.274-.207.358-.085.817.274 1.024zm3.585 3.751c.362.2.819.069 1.019-.293.201-.363.069-.819-.293-1.02zm6.837 1.962c-.367-.19-.82-.047-1.011.321-.19.367-.047.82.321 1.011zm3.753 3.583c.371.183.821.031 1.005-.34.183-.372.031-.821-.34-1.005zm6.921 1.643c-.377-.174-.822-.009-.996.367-.173.376-.009.822.368.995zm3.916 3.403c.38.166.822-.007.988-.387.166-.379-.007-.822-.387-.987zm6.991 1.315c-.384-.156-.821.03-.976.414-.156.384.03.821.414.976zm4.074 3.212c.388.147.821-.047.968-.434.148-.387-.046-.82-.433-.968zm7.046.975c-.391-.136-.819.07-.955.461-.137.391.07.819.461.955zm-160.619-161.283c.223.796.451 1.593.686 2.389l1.439-.424c-.233-.789-.46-1.579-.68-2.369zm2.785 9.047c.529 1.571 1.079 3.141 1.653 4.709l1.409-.515c-.569-1.556-1.116-3.113-1.64-4.672zm4.166 11.22c.623 1.535 1.267 3.067 1.933 4.597l1.375-.598c-.66-1.519-1.3-3.04-1.919-4.563zm4.823 10.949c.71 1.494 1.439 2.985 2.188 4.473l1.34-.675c-.744-1.477-1.469-2.958-2.173-4.442zm5.423 10.654c.791 1.456 1.6 2.907 2.427 4.353l1.302-.744c-.822-1.438-1.625-2.879-2.411-4.325zm5.981 10.357c.865 1.414 1.748 2.822 2.648 4.226l1.263-.81c-.894-1.394-1.772-2.795-2.632-4.199zm6.496 10.042c.932 1.367 1.881 2.728 2.846 4.083l1.222-.869c-.959-1.347-1.902-2.7-2.829-4.059zm6.968 9.709c.998 1.323 2.011 2.639 3.039 3.949l1.18-.926c-1.022-1.302-2.029-2.611-3.021-3.927zm7.419 9.376c1.058 1.276 2.13 2.544 3.216 3.804l1.136-.979c-1.08-1.253-2.145-2.514-3.197-3.782zm7.836 9.026c1.114 1.226 2.242 2.445 3.383 3.654l1.091-1.029c-1.134-1.203-2.256-2.414-3.363-3.634zm8.232 8.666c1.169 1.177 2.35 2.346 3.544 3.505l1.045-1.076c-1.187-1.153-2.362-2.315-3.525-3.486zm8.608 8.296c1.218 1.124 2.448 2.238 3.689 3.342l.997-1.121c-1.235-1.098-2.458-2.206-3.669-3.323zm8.958 7.908c1.268 1.071 2.546 2.131 3.836 3.181l.947-1.164c-1.283-1.044-2.554-2.098-3.815-3.163zm9.301 7.513c1.312 1.013 2.634 2.016 3.967 3.007l.895-1.204c-1.325-.986-2.641-1.983-3.945-2.99zm9.616 7.095c1.356.955 2.723 1.899 4.099 2.83l.841-1.242c-1.369-.926-2.728-1.865-4.077-2.815zm9.924 6.665c1.397.894 2.803 1.776 4.219 2.645l.785-1.279c-1.408-.864-2.807-1.74-4.196-2.629zm10.209 6.214c1.436.831 2.882 1.649 4.336 2.453l.726-1.313c-1.446-.799-2.883-1.612-4.311-2.438zm10.483 5.747c1.473.764 2.954 1.514 4.443 2.251l.665-1.345c-1.481-.732-2.953-1.478-4.418-2.238zm10.736 5.256c1.507.695 3.022 1.375 4.544 2.041l.601-1.374c-1.513-.662-3.019-1.339-4.517-2.029zm10.973 4.746c1.538.622 3.084 1.23 4.636 1.822l.535-1.402c-1.543-.588-3.08-1.192-4.609-1.81zm11.188 4.213c.784.274 1.57.544 2.358.81l.479-1.422c-.782-.264-1.564-.532-2.343-.804z" fill="#4975a8" fill-opacity=".972549"/><path d="m331.193 484-.573 9.058-8.619.134" stroke="#4974a7" stroke-linecap="round" stroke-linejoin="round" stroke-width="1.5"/><path d="m243 374h795.895v573.032h-795.895z" fill="none"/><path d="m269.961 947.402c-.204.361-.662.487-1.022.283-.361-.204-.487-.662-.283-1.022zm155.77-140.088c.379-.167.821.004.988.383.168.38-.004.822-.383.989zm-155.853 137.217c.208-.359.667-.481 1.025-.273.359.208.481.667.273 1.025zm4.828-5.16c-.217.353-.679.463-1.032.246s-.463-.679-.246-1.032zm1.345-4.972c.223-.349.687-.451 1.036-.228s.451.686.228 1.035zm5.043-4.954c-.231.343-.697.435-1.041.203-.344-.231-.435-.697-.204-1.041zm1.545-4.911c.237-.34.704-.423 1.044-.186.34.236.424.704.187 1.044zm5.234-4.751c-.244.334-.713.407-1.048.163-.334-.244-.407-.714-.163-1.048zm1.732-4.847c.25-.33.72-.396 1.051-.146.33.249.396.719.146 1.05zm5.408-4.55c-.257.325-.728.381-1.053.124-.326-.256-.381-.728-.125-1.053zm1.909-4.78c.261-.321.734-.37 1.055-.108.321.261.37.734.108 1.055zm5.567-4.35c-.268.315-.742.354-1.057.086-.316-.268-.355-.741-.087-1.057zm2.078-4.711c.273-.311.746-.343 1.058-.071.312.273.344.747.071 1.059zm5.715-4.151c-.279.306-.753.328-1.059.05-.307-.279-.329-.754-.05-1.06zm2.242-4.637c.284-.302.758-.318 1.06-.034.303.283.318.758.035 1.06zm5.854-3.951c-.289.296-.764.302-1.061.013-.296-.289-.302-.764-.013-1.061zm2.402-4.561c.293-.292.768-.291 1.061.002.292.294.291.768-.002 1.061zm5.984-3.749c-.299.286-.774.276-1.06-.023-.287-.299-.277-.774.022-1.06zm2.558-4.48c.303-.282.778-.265 1.06.038s.265.778-.038 1.06zm6.107-3.545c-.309.276-.783.25-1.059-.059-.276-.308-.25-.782.058-1.059zm2.701-4.385c.312-.272.786-.239 1.058.073.272.313.239.786-.073 1.058zm6.223-3.339c-.318.266-.791.224-1.057-.094-.265-.318-.223-.791.094-1.056zm2.846-4.291c.321-.262.794-.213 1.055.109.261.321.213.793-.109 1.055zm6.332-3.128c-.327.255-.798.197-1.053-.129-.255-.327-.197-.798.13-1.053zm2.994-4.197c.33-.25.8-.186 1.051.144.25.33.185.801-.145 1.051zm6.434-2.913c-.335.244-.804.17-1.048-.165-.243-.335-.17-.804.165-1.047zm3.132-4.092c.338-.239.806-.158 1.045.18s.159.806-.18 1.045zm6.528-2.692c-.343.232-.81.142-1.042-.2-.232-.343-.142-.81.201-1.042zm3.266-3.982c.346-.227.811-.131 1.038.216.228.346.131.811-.215 1.038zm6.616-2.469c-.35.221-.813.115-1.034-.235-.22-.351-.115-.814.236-1.035zm3.407-3.871c.354-.216.815-.104 1.031.25.215.354.103.815-.251 1.031zm6.699-2.242c-.358.208-.817.087-1.025-.271-.209-.358-.087-.818.271-1.026zm3.528-3.747c.361-.203.819-.075 1.022.286s.075.818-.286 1.021zm6.77-2.008c-.365.196-.819.058-1.015-.307s-.059-.819.306-1.015zm3.663-3.626c.368-.191.821-.047 1.011.321.191.368.047.82-.321 1.011zm6.838-1.773c-.372.183-.821.03-1.004-.342-.183-.371-.03-.821.341-1.004zm3.784-3.495c.374-.178.822-.018.999.356.178.374.018.822-.356.999zm6.893-1.532c-.378.17-.822.002-.992-.376s-.001-.822.376-.992zm-155.427 136.974c.402-.709.809-1.42 1.222-2.132l1.298.752c-.41.708-.815 1.415-1.215 2.119zm4.772-8.078c.854-1.39 1.728-2.786 2.623-4.186l1.264.807c-.89 1.393-1.76 2.782-2.609 4.165zm6.421-9.978c.912-1.354 1.842-2.712 2.79-4.073l1.231.858c-.944 1.354-1.869 2.705-2.776 4.053zm6.813-9.709c.964-1.319 1.945-2.64 2.943-3.962l1.197.904c-.993 1.316-1.969 2.63-2.929 3.943zm7.173-9.441c1.013-1.283 2.042-2.567 3.087-3.851l1.163.947c-1.04 1.278-2.064 2.556-3.072 3.833zm7.51-9.172c1.059-1.248 2.133-2.494 3.222-3.74l1.129.988c-1.084 1.24-2.153 2.481-3.207 3.723zm7.828-8.901c1.103-1.211 2.22-2.42 3.351-3.627l1.095 1.026c-1.127 1.201-2.239 2.405-3.337 3.611zm8.131-8.626c1.145-1.174 2.304-2.345 3.476-3.513l1.059 1.063c-1.167 1.163-2.321 2.329-3.461 3.498zm8.422-8.345c1.186-1.136 2.385-2.268 3.596-3.397l1.022 1.098c-1.206 1.123-2.399 2.251-3.58 3.382zm8.702-8.06c1.222-1.093 2.456-2.183 3.702-3.267l.985 1.131c-1.241 1.08-2.47 2.165-3.686 3.254zm8.962-7.756c1.258-1.052 2.528-2.1 3.809-3.141l.946 1.164c-1.276 1.037-2.54 2.08-3.792 3.127zm9.218-7.451c1.294-1.011 2.6-2.016 3.917-3.015l.906 1.195c-1.311.995-2.611 1.996-3.9 3.002zm9.468-7.14c1.328-.967 2.666-1.926 4.015-2.88l.865 1.225c-1.343.949-2.675 1.905-3.997 2.867zm9.702-6.814c1.358-.92 2.727-1.833 4.107-2.74l.823 1.254c-1.373.902-2.737 1.812-4.089 2.728zm9.925-6.479c1.392-.874 2.793-1.742 4.205-2.601l.78 1.281c-1.406.856-2.801 1.719-4.187 2.59zm10.15-6.14c1.418-.824 2.845-1.641 4.282-2.45l.736 1.307c-1.431.805-2.852 1.619-4.264 2.44zm10.343-5.78c1.448-.776 2.905-1.545 4.372-2.304l.69 1.332c-1.46.756-2.911 1.521-4.353 2.294zm10.547-5.423c1.473-.725 2.956-1.442 4.447-2.149l.643 1.355c-1.485.704-2.961 1.418-4.427 2.14zm10.724-5.049c.753-.338 1.507-.674 2.264-1.007l.605 1.372c-.754.332-1.505.667-2.253 1.003z" fill="#4975a8" fill-opacity=".972549"/><path d="m315.532 875.481 9.008 1.114-.382 8.612" stroke="#4974a7" stroke-linecap="round" stroke-linejoin="round" stroke-width="1.5"/><path d="m1004.15 373.798c.11-.399.53-.632.92-.52.4.111.64.525.53.924zm-161.037 163.913c-.393.132-.818-.079-.951-.471-.132-.393.079-.818.471-.951zm161.797-161.12c-.12.397-.53.625-.93.508s-.63-.534-.51-.932zm-3.52 6.18c.13-.392.56-.604.95-.472s.6.558.47.95zm-.23 5.187c-.14.389-.58.589-.96.447-.393-.142-.593-.573-.451-.962zm-3.905 5.947c.156-.384.594-.569.977-.413.384.156.569.594.413.977zm-.543 5.161c-.166.38-.607.554-.987.389s-.554-.607-.389-.987zm-4.245 5.708c.178-.374.625-.533.999-.355s.533.625.356.999zm-.833 5.117c-.187.37-.638.519-1.007.332-.37-.186-.519-.637-.333-1.007zm-4.553 5.465c.197-.364.653-.499 1.017-.301s.498.653.301 1.017zm-1.11 5.069c-.205.36-.664.485-1.023.279-.36-.206-.485-.664-.279-1.023zm-4.833 5.221c.216-.354.678-.465 1.031-.249.354.217.465.678.249 1.032zm-1.369 5.009c-.223.349-.687.45-1.036.226-.348-.223-.45-.687-.226-1.036zm-5.086 4.971c.233-.342.7-.431 1.042-.197.342.233.43.7.197 1.042zm-1.607 4.928c-.24.338-.709.417-1.046.176-.337-.24-.416-.708-.176-1.045zm-5.32 4.722c.249-.33.72-.396 1.05-.147.331.25.397.72.147 1.051zm-1.842 4.853c-.256.326-.727.382-1.053.127-.326-.256-.382-.728-.127-1.053zm-5.534 4.47c.264-.319.737-.363 1.056-.099.319.265.363.738.098 1.056zm-2.061 4.761c-.271.314-.744.349-1.058.079-.314-.271-.349-.744-.079-1.058zm-5.731 4.213c.278-.306.753-.329 1.059-.051.307.279.33.753.051 1.06zm-2.272 4.663c-.284.302-.759.316-1.06.032-.302-.285-.316-.759-.032-1.061zm-5.914 3.955c.292-.294.767-.296 1.061-.004s.296.767.004 1.061zm-2.48 4.562c-.297.288-.772.281-1.06-.016-.289-.297-.282-.772.015-1.06zm-6.08 3.689c.304-.281.779-.262 1.06.043.281.304.261.778-.043 1.059zm-2.673 4.444c-.309.275-.783.247-1.059-.062-.275-.31-.247-.784.063-1.059zm-6.237 3.42c.317-.267.79-.227 1.057.09.267.316.228.789-.089 1.056zm-2.868 4.327c-.321.261-.793.213-1.055-.109-.261-.321-.213-.793.108-1.055zm-6.381 3.145c.328-.253.799-.193 1.052.135s.193.799-.135 1.052zm-3.051 4.194c-.332.247-.802.178-1.049-.155-.247-.332-.178-.802.154-1.049zm-6.512 2.861c.339-.238.807-.157 1.045.181.239.339.157.807-.181 1.046zm-3.235 4.057c-.343.233-.81.143-1.042-.2s-.142-.809.201-1.042zm-6.633 2.572c.348-.224.812-.122 1.035.227.224.349.122.813-.227 1.036zm-3.411 3.908c-.353.217-.815.106-1.032-.247s-.106-.815.247-1.032zm-6.741 2.271c.358-.208.817-.085 1.025.274.207.358.084.817-.274 1.024zm-3.585 3.751c-.363.2-.819.069-1.019-.293-.201-.363-.07-.819.293-1.02zm-6.838 1.962c.368-.19.82-.047 1.011.321.191.367.047.82-.32 1.011zm-3.753 3.583c-.371.183-.821.031-1.004-.34-.184-.372-.032-.821.34-1.005zm-6.92 1.643c.376-.174.822-.009.995.367s.009.822-.367.995zm-3.916 3.403c-.38.166-.822-.007-.988-.387-.166-.379.007-.822.387-.987zm-6.992 1.315c.384-.156.822.03.977.414s-.03.821-.414.976zm-4.074 3.212c-.387.147-.82-.047-.968-.434-.147-.387.047-.82.434-.968zm-7.045.975c.391-.136.818.07.955.461.136.391-.07.819-.461.955zm160.623-161.283c-.23.796-.46 1.593-.69 2.389l-1.44-.424c.23-.789.46-1.579.68-2.369zm-2.79 9.047c-.53 1.571-1.08 3.141-1.65 4.709l-1.411-.515c.571-1.556 1.111-3.113 1.641-4.672zm-4.165 11.22c-.623 1.535-1.268 3.067-1.933 4.597l-1.376-.598c.661-1.519 1.301-3.04 1.919-4.563zm-4.823 10.949c-.71 1.494-1.439 2.985-2.188 4.473l-1.34-.675c.744-1.477 1.468-2.958 2.173-4.442zm-5.423 10.654c-.791 1.456-1.6 2.907-2.428 4.353l-1.302-.744c.822-1.438 1.626-2.879 2.412-4.325zm-5.981 10.357c-.866 1.414-1.749 2.822-2.649 4.226l-1.262-.81c.894-1.394 1.771-2.795 2.631-4.199zm-6.496 10.042c-.933 1.367-1.881 2.728-2.846 4.083l-1.222-.869c.959-1.347 1.902-2.7 2.829-4.059zm-6.969 9.709c-.997 1.323-2.011 2.639-3.039 3.949l-1.18-.926c1.023-1.302 2.03-2.611 3.022-3.927zm-7.419 9.376c-1.057 1.276-2.129 2.544-3.215 3.804l-1.137-.979c1.08-1.253 2.146-2.514 3.198-3.782zm-7.836 9.026c-1.114 1.226-2.241 2.445-3.382 3.654l-1.092-1.029c1.135-1.203 2.256-2.414 3.364-3.634zm-8.231 8.666c-1.169 1.177-2.351 2.346-3.545 3.505l-1.045-1.076c1.188-1.153 2.363-2.315 3.525-3.486zm-8.608 8.296c-1.218 1.124-2.448 2.238-3.69 3.342l-.996-1.121c1.234-1.098 2.458-2.206 3.669-3.323zm-8.959 7.908c-1.267 1.071-2.546 2.131-3.836 3.181l-.947-1.164c1.283-1.044 2.555-2.098 3.815-3.163zm-9.3 7.513c-1.312 1.013-2.635 2.016-3.968 3.007l-.895-1.204c1.326-.986 2.641-1.983 3.946-2.99zm-9.616 7.095c-1.357.955-2.723 1.899-4.099 2.83l-.841-1.242c1.368-.926 2.727-1.865 4.076-2.815zm-9.924 6.665c-1.397.894-2.804 1.776-4.219 2.645l-.785-1.279c1.408-.864 2.806-1.74 4.196-2.629zm-10.209 6.214c-1.437.831-2.882 1.649-4.336 2.453l-.726-1.313c1.445-.799 2.883-1.612 4.311-2.438zm-10.483 5.747c-1.473.764-2.954 1.514-4.444 2.251l-.664-1.345c1.48-.732 2.953-1.478 4.417-2.238zm-10.736 5.256c-1.507.695-3.022 1.375-4.544 2.041l-.601-1.374c1.513-.662 3.019-1.339 4.517-2.029zm-10.973 4.746c-1.539.622-3.084 1.23-4.637 1.822l-.534-1.402c1.543-.588 3.079-1.192 4.608-1.81zm-11.188 4.213c-.785.274-1.57.544-2.358.81l-.48-1.422c.783-.264 1.564-.532 2.344-.804z" fill="#d2dee8" fill-opacity=".972549"/><path d="m901.001 500.379 8.792 2.248-1.472 8.495" stroke="#d2dee8" stroke-linecap="round" stroke-linejoin="round" stroke-width="1.5"/><path d="m947.381 944.402c.204.361.662.487 1.022.283s.487-.662.283-1.022zm-155.77-140.088c-.379-.167-.822.004-.989.383-.167.38.005.822.384.989zm155.852 137.217c-.207-.359-.666-.481-1.025-.273-.358.208-.48.667-.272 1.025zm-4.827-5.16c.217.353.679.463 1.032.246s.463-.679.246-1.032zm-1.345-4.972c-.223-.349-.687-.451-1.036-.228s-.451.686-.228 1.035zm-5.043-4.954c.231.343.697.435 1.041.203.344-.231.435-.697.203-1.041zm-1.545-4.911c-.237-.34-.705-.423-1.045-.186-.339.236-.423.704-.186 1.044zm-5.235-4.751c.245.334.714.407 1.048.163.335-.244.408-.714.163-1.048zm-1.732-4.847c-.249-.33-.719-.396-1.05-.146-.331.249-.396.719-.147 1.05zm-5.407-4.55c.257.325.728.381 1.053.124.325-.256.381-.728.124-1.053zm-1.909-4.78c-.261-.321-.734-.37-1.055-.108-.321.261-.37.734-.108 1.055zm-5.567-4.35c.268.315.742.354 1.057.086.316-.268.355-.741.087-1.057zm-2.078-4.711c-.273-.311-.747-.343-1.058-.071-.312.273-.344.747-.071 1.059zm-5.715-4.151c.279.306.753.328 1.059.05.307-.279.329-.754.05-1.06zm-2.243-4.637c-.283-.302-.757-.318-1.06-.034-.302.283-.317.758-.034 1.06zm-5.853-3.951c.289.296.764.302 1.06.013.297-.289.303-.764.014-1.061zm-2.402-4.561c-.294-.292-.768-.291-1.061.002-.292.294-.291.768.002 1.061zm-5.984-3.749c.299.286.774.276 1.06-.023.287-.299.277-.774-.023-1.06zm-2.558-4.48c-.303-.282-.778-.265-1.06.038s-.265.778.038 1.06zm-6.107-3.545c.308.276.783.25 1.059-.059.276-.308.25-.782-.059-1.059zm-2.701-4.385c-.312-.272-.786-.239-1.058.073-.272.313-.239.786.073 1.058zm-6.223-3.339c.318.266.791.224 1.056-.094.266-.318.224-.791-.094-1.056zm-2.846-4.291c-.322-.262-.794-.213-1.055.109-.262.321-.213.793.109 1.055zm-6.332-3.128c.326.255.798.197 1.053-.129.255-.327.197-.798-.13-1.053zm-2.994-4.197c-.33-.25-.8-.186-1.051.144-.25.33-.186.801.144 1.051zm-6.434-2.913c.335.244.804.17 1.048-.165.243-.335.169-.804-.165-1.047zm-3.132-4.092c-.338-.239-.806-.158-1.045.18s-.159.806.179 1.045zm-6.528-2.692c.343.232.809.143 1.042-.2.232-.343.142-.81-.201-1.042zm-3.266-3.982c-.346-.227-.811-.131-1.039.216-.227.346-.131.811.216 1.038zm-6.616-2.469c.35.221.813.115 1.034-.235.22-.351.115-.814-.236-1.035zm-3.407-3.871c-.354-.216-.816-.104-1.031.25s-.103.815.25 1.031zm-6.699-2.242c.358.208.817.087 1.025-.271s.087-.818-.271-1.026zm-3.529-3.747c-.361-.203-.818-.075-1.021.286s-.075.818.286 1.021zm-6.769-2.008c.365.196.819.058 1.015-.307s.059-.819-.307-1.015zm-3.663-3.626c-.368-.191-.821-.047-1.011.321-.191.368-.047.82.321 1.011zm-6.838-1.773c.371.183.821.03 1.004-.342.183-.371.03-.821-.342-1.004zm-3.784-3.495c-.375-.178-.822-.018-.999.356-.178.374-.019.822.356.999zm-6.893-1.532c.378.17.822.002.992-.376s.001-.822-.377-.992zm155.427 136.974c-.402-.709-.81-1.42-1.223-2.132l-1.297.752c.41.708.815 1.415 1.215 2.119zm-4.772-8.078c-.854-1.39-1.729-2.786-2.623-4.186l-1.264.807c.89 1.393 1.759 2.782 2.609 4.165zm-6.422-9.978c-.911-1.354-1.841-2.712-2.789-4.073l-1.231.858c.944 1.354 1.869 2.705 2.776 4.053zm-6.813-9.709c-.963-1.319-1.944-2.64-2.943-3.962l-1.197.904c.994 1.316 1.97 2.63 2.929 3.943zm-7.173-9.441c-1.012-1.283-2.041-2.567-3.086-3.851l-1.163.947c1.04 1.278 2.064 2.556 3.072 3.833zm-7.509-9.172c-1.059-1.248-2.133-2.494-3.222-3.74l-1.129.988c1.084 1.24 2.153 2.481 3.207 3.723zm-7.828-8.901c-1.103-1.211-2.22-2.42-3.352-3.627l-1.094 1.026c1.126 1.201 2.239 2.405 3.337 3.611zm-8.131-8.626c-1.146-1.174-2.304-2.345-3.476-3.513l-1.059 1.063c1.167 1.163 2.321 2.329 3.461 3.498zm-8.423-8.345c-1.185-1.136-2.384-2.268-3.595-3.397l-1.022 1.098c1.206 1.123 2.399 2.251 3.58 3.382zm-8.702-8.06c-1.221-1.093-2.455-2.183-3.701-3.267l-.985 1.131c1.241 1.08 2.47 2.165 3.686 3.254zm-8.962-7.756c-1.257-1.052-2.527-2.1-3.808-3.141l-.946 1.164c1.275 1.037 2.539 2.08 3.792 3.127zm-9.217-7.451c-1.294-1.011-2.6-2.016-3.917-3.015l-.907 1.195c1.312.995 2.612 1.996 3.901 3.002zm-9.468-7.14c-1.328-.967-2.666-1.926-4.015-2.88l-.866 1.225c1.344.949 2.676 1.905 3.998 2.867zm-9.702-6.814c-1.358-.92-2.727-1.833-4.107-2.74l-.823 1.254c1.373.902 2.736 1.812 4.089 2.728zm-9.925-6.479c-1.392-.874-2.793-1.742-4.205-2.601l-.781 1.281c1.406.856 2.802 1.719 4.188 2.59zm-10.15-6.14c-1.418-.824-2.845-1.641-4.283-2.45l-.735 1.307c1.431.805 2.852 1.619 4.264 2.44zm-10.344-5.78c-1.447-.776-2.905-1.545-4.371-2.304l-.69 1.332c1.46.756 2.911 1.521 4.353 2.294zm-10.547-5.423c-1.473-.725-2.955-1.442-4.446-2.149l-.643 1.355c1.485.704 2.96 1.418 4.427 2.14zm-10.724-5.049c-.752-.338-1.506-.674-2.263-1.007l-.605 1.372c.753.332 1.504.667 2.253 1.003z" fill="#d2dee8" fill-opacity=".972549"/><path d="m914.446 906.657 9.037.838 1.469-8.495" stroke="#d2dee8" stroke-linecap="round" stroke-linejoin="round" stroke-width="1.5"/><path d="m960 735h157v72.5h-157z" fill="none"/><path d="m1050.77 759.5 3.2 7.716-7.97 3.295" stroke="#d2dee8" stroke-linecap="round" stroke-linejoin="round" stroke-width="1.5"/><path d="m960.157 734.267c-.405-.087-.804.171-.89.576-.087.405.171.804.576.89zm156.363 73.81c.32.265.79.221 1.06-.098.26-.319.22-.792-.1-1.056zm-154.31-71.829c.404.089.804-.167.894-.571.089-.405-.167-.805-.571-.894zm6.95.054c-.403-.096-.807.153-.903.556s.153.807.556.903zm4.354 2.606c.402.1.809-.144.91-.546.1-.402-.144-.809-.546-.909zm6.946.249c-.4-.107-.811.13-.918.531-.107.4.13.811.53.918zm4.279 2.728c.399.111.813-.121.924-.52.112-.399-.121-.813-.519-.925zm6.937.444c-.397-.119-.815.107-.933.504-.119.397.107.815.504.933zm4.2 2.846c.395.123.816-.098.939-.494.123-.395-.098-.816-.494-.938zm6.924.639c-.4-.13-.82.084-.95.478-.13.393.09.817.48.947zm4.12 2.963c.39.134.81-.075.95-.467.13-.392-.08-.818-.47-.952zm6.9.834c-.39-.141-.82.061-.96.451s.06.819.45.96zm4.03 3.078c.39.145.82-.052.97-.439.14-.388-.06-.821-.44-.966zm6.88 1.03c-.39-.151-.83.038-.98.424-.15.385.04.821.43.972zm3.94 3.193c.38.156.82-.028.98-.412.15-.384-.03-.821-.42-.977zm6.84 1.228c-.38-.163-.82.014-.98.395-.17.381.01.821.39.984zm3.85 3.306c.38.167.82-.004.99-.383s-.01-.822-.38-.989zm6.8 1.428c-.37-.174-.82-.01-.99.366-.18.376-.01.822.36.996zm3.75 3.42c.37.179.82.02 1-.353.18-.374.02-.822-.35-1zm6.76 1.632c-.37-.185-.82-.035-1.01.336-.19.37-.04.821.34 1.006zm3.64 3.534c.37.19.82.046 1.01-.322s.05-.821-.32-1.011zm6.7 1.841c-.37-.197-.82-.061-1.02.304-.19.364-.06.819.31 1.016zm3.53 3.648c.36.202.82.072 1.02-.29s.07-.818-.29-1.02zm6.63 2.058c-.35-.209-.81-.088-1.02.27s-.09.817.27 1.026zm3.41 3.762c.35.213.81.099 1.03-.256.21-.355.1-.815-.26-1.029zm6.57 2.287c-.35-.221-.82-.116-1.04.234-.22.351-.11.814.24 1.035zm3.27 3.88c.34.226.81.128 1.04-.219.22-.347.12-.812-.22-1.038zm6.48 2.521c-.35-.234-.81-.146-1.05.196-.23.342-.14.808.2 1.042zm3.12 3.999c.34.239.81.159 1.04-.179.24-.338.16-.806-.17-1.045zm6.37 2.766c-.33-.247-.8-.178-1.05.155-.25.332-.18.802.15 1.049zm2.96 4.123c.33.253.8.192 1.05-.136s.19-.799-.14-1.052zm6.26 3.04c-.33-.261-.8-.212-1.06.109-.26.322-.21.794.11 1.055zm-155.767-69.652c.79.17 1.579.341 2.367.515l.323-1.465c-.791-.174-1.583-.346-2.376-.516zm8.97 2.028c1.572.374 3.139.756 4.701 1.147l.364-1.455c-1.568-.393-3.14-.776-4.718-1.151zm11.259 2.845c1.561.418 3.117.844 4.667 1.279l.405-1.445c-1.556-.436-3.117-.864-4.684-1.283zm11.175 3.16c1.549.462 3.092.931 4.629 1.409l.445-1.432c-1.542-.48-3.091-.951-4.645-1.414zm11.083 3.473c1.53.505 3.06 1.017 4.59 1.538l.48-1.419c-1.53-.523-3.06-1.038-4.6-1.544zm10.98 3.783c1.52.548 3.03 1.104 4.54 1.667l.53-1.405c-1.52-.565-3.04-1.123-4.56-1.673zm10.87 4.093c1.5.592 3 1.191 4.49 1.797l.56-1.389c-1.49-.609-2.99-1.21-4.5-1.804zm10.74 4.404c1.49.635 2.97 1.278 4.44 1.927l.61-1.372c-1.48-.652-2.97-1.297-4.46-1.934zm10.61 4.717c1.47.679 2.93 1.365 4.38 2.058l.65-1.353c-1.46-.696-2.92-1.385-4.4-2.067zm10.47 5.032c1.44.724 2.88 1.455 4.31 2.192l.69-1.333c-1.44-.74-2.88-1.474-4.33-2.201zm10.3 5.353c1.42.77 2.84 1.546 4.24 2.328l.73-1.31c-1.41-.786-2.83-1.565-4.26-2.338zm10.12 5.682c1.4.816 2.78 1.638 4.16 2.466l.77-1.285c-1.38-.832-2.77-1.657-4.18-2.477zm9.93 6.022c1.37.865 2.72 1.735 4.07 2.611l.82-1.257c-1.35-.88-2.72-1.754-4.09-2.623zm9.7 6.37c1.34.915 2.66 1.836 3.97 2.761l.87-1.224c-1.32-.931-2.65-1.856-3.99-2.775zm9.44 6.731c1.31.968 2.59 1.941 3.86 2.919l.91-1.188c-1.27-.983-2.56-1.961-3.87-2.935zm9.17 7.123c.63.509 1.25 1.018 1.86 1.528l.96-1.154c-.62-.514-1.25-1.026-1.87-1.538z" fill="#d2dee8"/><path d="m970 519h163v76.5h-163z" fill="none"/><path d="m1060 559.194 7.71 3.213-3.32 7.956" stroke="#d2dee8" stroke-linecap="round" stroke-linejoin="round" stroke-width="1.5"/><path d="m970.14 596.237c-.407.077-.8-.19-.877-.597s.19-.8.597-.877zm162.36-77.797c.31-.275.78-.248 1.06.061s.25.783-.06 1.059zm-160.178 75.845c.406-.081.801.183.882.589.08.407-.184.801-.59.882zm7.248.008c-.404.09-.805-.165-.895-.57-.089-.404.166-.805.57-.894zm4.593-2.594c.403-.096.807.153.903.556.095.403-.154.807-.557.903zm7.223-.248c-.401.104-.81-.137-.914-.538s.137-.81.538-.914zm4.502-2.75c.399-.109.812.126.921.526.109.399-.126.812-.526.921zm7.222-.488c-.4.117-.82-.111-.93-.508-.12-.398.11-.814.5-.931zm4.41-2.892c.39-.122.81.1.94.496.12.396-.11.816-.5.937zm7.2-.715c-.39.129-.81-.085-.94-.479s.08-.817.48-.946zm4.32-3.025c.39-.134.82.075.95.467.14.392-.07.818-.46.952zm7.18-.933c-.39.141-.82-.061-.96-.45-.14-.39.06-.82.45-.961zm4.23-3.153c.39-.146.82.05.96.438.15.388-.05.82-.44.966zm7.14-1.146c-.38.152-.82-.037-.97-.422s.04-.821.42-.973zm4.13-3.281c.39-.157.83.027.98.41.16.383-.02.821-.41.978zm7.11-1.36c-.38.164-.82-.011-.98-.392-.17-.38.01-.821.39-.985zm4.03-3.405c.38-.168.82.001.99.38.17.378 0 .821-.38.99zm7.06-1.578c-.37.175-.82.014-1-.361-.17-.376-.01-.822.37-.998zm3.92-3.53c.37-.181.82-.025 1 .348s.03.821-.34 1.002zm7.01-1.804c-.37.188-.82.041-1.01-.329-.19-.369-.04-.82.33-1.008zm3.8-3.656c.37-.192.82-.052 1.02.315.19.367.05.82-.32 1.013zm6.95-2.038c-.37.2-.82.069-1.02-.294s-.07-.819.29-1.019zm3.67-3.784c.36-.205.82-.081 1.02.279.21.36.08.818-.28 1.023zm6.87-2.284c-.36.214-.82.099-1.03-.257-.21-.355-.1-.816.26-1.029zm3.53-3.916c.35-.218.81-.111 1.03.241s.11.814-.24 1.033zm6.78-2.542c-.35.226-.82.129-1.04-.217-.23-.347-.13-.812.21-1.039zm3.37-4.052c.34-.233.81-.144 1.04.199.24.343.15.809-.2 1.042zm6.67-2.818c-.34.241-.81.163-1.05-.174-.24-.336-.16-.805.18-1.046zm3.2-4.192c.33-.248.8-.179 1.05.154.25.332.18.802-.16 1.049zm6.53-3.112c-.32.256-.79.2-1.05-.125-.26-.326-.2-.797.12-1.054zm3-4.337c.32-.262.8-.216 1.06.104.26.321.22.793-.1 1.056zm6.38-3.426c-.31.273-.79.24-1.06-.072s-.24-.786.07-1.058zm-161.74 73.529c.816-.155 1.637-.314 2.462-.478l.292 1.471c-.829.165-1.654.325-2.474.481zm9.385-1.934c1.625-.361 3.265-.738 4.918-1.13l.346 1.459c-1.66.394-3.307.773-4.939 1.135zm11.765-2.83c1.616-.418 3.242-.851 4.878-1.298l.395 1.447c-1.642.449-3.275.883-4.897 1.303zm11.67-3.225c1.61-.471 3.22-.955 4.84-1.453l.44 1.433c-1.63.5-3.24.986-4.85 1.459zm11.58-3.593c1.59-.521 3.18-1.054 4.78-1.6l.49 1.419c-1.61.548-3.21 1.084-4.81 1.606zm11.45-3.944c1.58-.568 3.16-1.149 4.74-1.742l.52 1.404c-1.58.595-3.17 1.178-4.75 1.749zm11.33-4.283c1.56-.617 3.12-1.245 4.68-1.886l.57 1.388c-1.56.643-3.13 1.274-4.7 1.893zm11.2-4.623c1.54-.665 3.08-1.34 4.62-2.028l.61 1.37c-1.54.69-3.09 1.368-4.64 2.035zm11.05-4.965c1.52-.712 3.04-1.436 4.55-2.171l.66 1.35c-1.53.738-3.05 1.464-4.58 2.18zm10.88-5.312c1.5-.762 2.99-1.535 4.48-2.319l.7 1.328c-1.5.787-3 1.563-4.5 2.328zm10.7-5.67c1.47-.813 2.94-1.637 4.4-2.471l.74 1.302c-1.46.839-2.94 1.666-4.41 2.482zm10.5-6.041c1.44-.866 2.87-1.742 4.3-2.63l.79 1.274c-1.43.892-2.87 1.773-4.32 2.642zm10.25-6.428c1.41-.921 2.81-1.853 4.2-2.796l.84 1.241c-1.39.948-2.8 1.885-4.21 2.811zm10-6.834c1.36-.98 2.72-1.971 4.07-2.972l.89 1.203c-1.35 1.007-2.72 2.003-4.09 2.989zm9.67-7.263c1.33-1.041 2.64-2.094 3.93-3.158l.96 1.16c-1.31 1.07-2.63 2.129-3.96 3.177zm9.32-7.714c.64-.552 1.27-1.107 1.89-1.664l1 1.12c-.63.561-1.26 1.119-1.9 1.674z" fill="#d2dee8"/></svg>