<svg width="39" height="36" viewBox="0 0 39 36" fill="none" xmlns="http://www.w3.org/2000/svg">
<rect width="38.1581" height="35.6123" fill="black" fill-opacity="0" transform="translate(0.28125 0.372803)"/>
<path d="M8.5806 19.0468C6.93914 19.0468 5.33455 19.5435 3.96973 20.4741C2.60491 21.4047 1.54116 22.7274 0.913004 24.2749C0.284846 25.8224 0.120491 27.5253 0.440723 29.1681C0.760955 30.811 1.55139 32.32 2.71208 33.5045C3.87276 34.6889 5.35156 35.4955 6.96148 35.8223C8.57139 36.149 10.2401 35.9813 11.7566 35.3403C13.2731 34.6993 14.5693 33.6138 15.4813 32.2211C16.3932 30.8283 16.8799 29.1909 16.8799 27.5159C16.8799 25.2698 16.0056 23.1156 14.4491 21.5274C12.8927 19.9391 10.7817 19.0468 8.5806 19.0468ZM8.5806 22.9731C7.39992 22.9731 6.2676 23.4517 5.43273 24.3037C4.59787 25.1556 4.12884 26.3111 4.12884 27.5159C4.12884 27.6593 4.07301 27.7969 3.97362 27.8983C3.87423 27.9997 3.73943 28.0567 3.59887 28.0567C3.45832 28.0567 3.32352 27.9997 3.22413 27.8983C3.12474 27.7969 3.0689 27.6593 3.0689 27.5159C3.0689 26.0242 3.6496 24.5936 4.68324 23.5388C5.71688 22.484 7.11881 21.8915 8.5806 21.8915C8.72116 21.8915 8.85596 21.9485 8.95535 22.0499C9.05474 22.1513 9.11057 22.2889 9.11057 22.4323C9.11057 22.5757 9.05474 22.7133 8.95535 22.8147C8.85596 22.9161 8.72116 22.9731 8.5806 22.9731Z" fill="url(#paint0_linear)"/>
<path d="M30.14 19.0468C28.4985 19.0468 26.8939 19.5435 25.5291 20.4741C24.1643 21.4047 23.1005 22.7274 22.4724 24.2749C21.8442 25.8224 21.6798 27.5253 22.0001 29.1681C22.3203 30.811 23.1107 32.32 24.2714 33.5045C25.4321 34.6889 26.9109 35.4955 28.5208 35.8223C30.1307 36.149 31.7995 35.9813 33.316 35.3403C34.8325 34.6993 36.1287 33.6138 37.0406 32.2211C37.9526 30.8283 38.4393 29.1909 38.4393 27.5159C38.4393 25.2698 37.5649 23.1156 36.0085 21.5274C34.452 19.9391 32.3411 19.0468 30.14 19.0468ZM30.14 22.9731C28.9593 22.9731 27.827 23.4517 26.9921 24.3037C26.1572 25.1556 25.6882 26.3111 25.6882 27.5159C25.6882 27.6593 25.6324 27.7969 25.533 27.8983C25.4336 27.9997 25.2988 28.0567 25.1582 28.0567C25.0177 28.0567 24.8829 27.9997 24.7835 27.8983C24.6841 27.7969 24.6283 27.6593 24.6283 27.5159C24.6283 26.0242 25.209 24.5936 26.2426 23.5388C27.2762 22.484 28.6782 21.8915 30.14 21.8915C30.2805 21.8915 30.4153 21.9485 30.5147 22.0499C30.6141 22.1513 30.6699 22.2889 30.6699 22.4323C30.6699 22.5757 30.6141 22.7133 30.5147 22.8147C30.4153 22.9161 30.2805 22.9731 30.14 22.9731Z" fill="url(#paint1_linear)"/>
<path d="M21.8515 9.18228C21.188 8.7039 20.3956 8.44697 19.5833 8.44678H19.1381C18.3257 8.44697 17.5333 8.7039 16.8698 9.18228V16.2777C17.5279 15.7833 18.3209 15.511 19.1381 15.4989H19.5833C20.3958 15.4984 21.1884 15.7554 21.8515 16.2344V9.18228Z" fill="url(#paint2_linear)"/>
<g opacity="0.5">
<path d="M16.8693 9.1825V3.34175C16.8763 2.90927 16.7892 2.4806 16.6141 2.0867C16.4389 1.6928 16.1803 1.34351 15.8567 1.06407C15.5332 0.784629 15.1529 0.582016 14.7432 0.470868C14.3336 0.359721 13.9049 0.342815 13.4881 0.421372H13.4351C13.0013 0.541715 12.6028 0.768106 12.2741 1.08095C11.9453 1.3938 11.6963 1.78369 11.5484 2.21686L9.72529 7.17068C9.62441 7.44659 9.466 7.69684 9.26103 7.90413C9.05606 8.11143 8.80942 8.27082 8.53815 8.37128C8.28391 8.46248 8.05044 8.60536 7.85186 8.79127C7.65327 8.97718 7.49371 9.20226 7.38281 9.4529L1.94531 22.4324C2.98847 21.0105 4.44378 19.9598 6.1049 19.4293C7.76602 18.8988 9.54864 18.9154 11.2 19.4767C12.8514 20.0381 14.2877 21.1156 15.3052 22.5566C16.3228 23.9976 16.87 25.729 16.8693 27.5052V9.1176V9.1825Z" fill="url(#paint3_linear)"/>
<path d="M31.3372 9.47449C31.2263 9.22384 31.0667 8.99876 30.8681 8.81285C30.6696 8.62694 30.4361 8.48406 30.1819 8.39286C29.9084 8.29009 29.6604 8.12739 29.4553 7.91621C29.2502 7.70504 29.093 7.45054 28.9947 7.17063L27.1822 2.23844C27.0348 1.80201 26.7847 1.40913 26.454 1.09422C26.1232 0.779304 25.7218 0.551972 25.2849 0.432138H25.2319C24.8151 0.35358 24.3864 0.370486 23.9768 0.481634C23.5671 0.592781 23.1868 0.795394 22.8633 1.07483C22.5397 1.35427 22.2811 1.70356 22.1059 2.09746C21.9308 2.49136 21.8437 2.92004 21.8507 3.35251V27.5159C21.85 25.7397 22.3972 24.0084 23.4148 22.5674C24.4323 21.1264 25.8686 20.0488 27.52 19.4875C29.1714 18.9262 30.954 18.9096 32.6151 19.4401C34.2762 19.9706 35.7315 21.0213 36.7747 22.4431L31.3372 9.47449Z" fill="url(#paint4_linear)"/>
</g>
<defs>
<linearGradient id="paint0_linear" x1="19.3603" y1="-2.17097" x2="19.3603" y2="54.3895" gradientUnits="userSpaceOnUse">
<stop stop-color="#4552DD"/>
<stop offset="1" stop-color="#65D3AA"/>
</linearGradient>
<linearGradient id="paint1_linear" x1="19.3603" y1="-2.17097" x2="19.3603" y2="54.3895" gradientUnits="userSpaceOnUse">
<stop stop-color="#4552DD"/>
<stop offset="1" stop-color="#65D3AA"/>
</linearGradient>
<linearGradient id="paint2_linear" x1="19.3603" y1="-2.17097" x2="19.3603" y2="54.3895" gradientUnits="userSpaceOnUse">
<stop stop-color="#4552DD"/>
<stop offset="1" stop-color="#65D3AA"/>
</linearGradient>
<linearGradient id="paint3_linear" x1="19.36" y1="-8.81373" x2="19.36" y2="36.384" gradientUnits="userSpaceOnUse">
<stop stop-color="#4552DD"/>
<stop offset="1" stop-color="#65D3AA"/>
</linearGradient>
<linearGradient id="paint4_linear" x1="19.36" y1="-8.81373" x2="19.36" y2="36.384" gradientUnits="userSpaceOnUse">
<stop stop-color="#4552DD"/>
<stop offset="1" stop-color="#65D3AA"/>
</linearGradient>
</defs>
</svg>
