<svg width="66" height="63" viewBox="0 0 66 63" fill="none" xmlns="http://www.w3.org/2000/svg">
<rect width="65.0006" height="63" fill="black" fill-opacity="0"/>
<rect width="65.0006" height="63" fill="black" fill-opacity="0"/>
<rect width="65.0006" height="63" fill="black" fill-opacity="0"/>
<path d="M9.60589 38.1189C9.60589 36.5239 9.76599 34.929 9.92609 33.3341C8.48521 30.7822 7.68472 27.9113 7.68472 24.7214C7.68472 15.3113 15.3694 7.65567 24.8152 7.65567C34.4211 7.65567 42.1058 15.3113 42.1058 24.7214C42.1058 32.8556 36.6625 39.5543 29.1379 41.4682C29.9384 44.0201 31.6995 46.4125 34.1009 47.848C43.2265 44.1796 49.7906 35.248 49.7906 24.7214C49.7906 11.1645 38.5837 0 24.8152 0C11.2069 0 0 11.1645 0 24.7214C0 33.0151 4.00246 40.3518 10.4064 44.8176C9.76599 42.7442 9.60589 40.5113 9.60589 38.1189Z" fill="url(#paint0_linear)"/>
<path d="M54.7553 18.0227C55.2355 20.2556 55.5557 22.4885 55.5557 24.7214C55.5557 26.4759 55.3956 28.0708 55.0755 29.5062C56.5163 32.0581 57.4769 35.0885 57.4769 38.1189C57.4769 47.6885 49.6321 55.3441 40.1863 55.3441C30.7405 55.3441 22.8957 47.6885 22.8957 38.1189C22.8957 30.1442 28.4991 23.4455 35.8637 21.5316C35.0632 18.8202 33.3021 16.5873 31.0607 15.1519C21.775 18.8202 15.3711 27.7518 15.3711 38.1189C15.3711 51.8353 26.4179 62.9998 40.1863 62.9998C53.9548 62.9998 65.0015 51.8353 65.0015 38.1189C65.0015 29.8252 60.9991 22.4885 54.7553 18.0227Z" fill="url(#paint1_linear)"/>
<defs>
<linearGradient id="paint0_linear" x1="24.8953" y1="0" x2="24.8953" y2="47.848" gradientUnits="userSpaceOnUse">
<stop stop-color="#1EECC2" stop-opacity="0.83"/>
<stop offset="0.276243" stop-color="#2FE6BC" stop-opacity="0.870387"/>
<stop offset="1" stop-color="#549CCB"/>
</linearGradient>
<linearGradient id="paint1_linear" x1="40.1863" y1="15.1519" x2="40.1863" y2="62.9998" gradientUnits="userSpaceOnUse">
<stop stop-color="#1EECC2" stop-opacity="0.83"/>
<stop offset="0.276243" stop-color="#2FE6BC" stop-opacity="0.870387"/>
<stop offset="1" stop-color="#549CCB"/>
</linearGradient>
</defs>
</svg>
