<svg width="40" height="30" viewBox="0 0 40 30" fill="none" xmlns="http://www.w3.org/2000/svg">
<rect width="40.0002" height="29.4663" fill="black" fill-opacity="0"/>
<path opacity="0.5" d="M37.9003 0H2.10094C1.54399 0 1.00986 0.221245 0.616041 0.615064C0.222222 1.00888 0.000976563 1.54302 0.000976562 2.09996L0.000976563 5.26657H40.0002V2.09996C40.0002 1.54302 39.779 1.00888 39.3852 0.615064C38.9914 0.221245 38.4572 0 37.9003 0V0ZM3.15647 3.68882C2.94771 3.68882 2.74363 3.62691 2.57005 3.51093C2.39647 3.39495 2.26118 3.2301 2.18129 3.03722C2.10139 2.84435 2.08049 2.63211 2.12122 2.42736C2.16195 2.22261 2.26248 2.03453 2.4101 1.88691C2.55772 1.73929 2.7458 1.63876 2.95055 1.59803C3.1553 1.5573 3.36754 1.57821 3.56041 1.6581C3.75328 1.73799 3.91814 1.87328 4.03412 2.04686C4.1501 2.22044 4.21201 2.42452 4.21201 2.63328C4.21201 2.91323 4.1008 3.18171 3.90285 3.37966C3.7049 3.57761 3.43642 3.68882 3.15647 3.68882ZM6.84529 3.68882C6.63653 3.68882 6.43245 3.62691 6.25887 3.51093C6.08529 3.39495 5.95 3.2301 5.87011 3.03722C5.79022 2.84435 5.76931 2.63211 5.81004 2.42736C5.85077 2.22261 5.9513 2.03453 6.09892 1.88691C6.24654 1.73929 6.43462 1.63876 6.63937 1.59803C6.84412 1.5573 7.05636 1.57821 7.24923 1.6581C7.4421 1.73799 7.60696 1.87328 7.72294 2.04686C7.83893 2.22044 7.90083 2.42452 7.90083 2.63328C7.90083 2.91323 7.78962 3.18171 7.59167 3.37966C7.39372 3.57761 7.12524 3.68882 6.84529 3.68882ZM10.5341 3.68882C10.3253 3.68882 10.1213 3.62691 9.94769 3.51093C9.77411 3.39495 9.63882 3.2301 9.55893 3.03722C9.47904 2.84435 9.45813 2.63211 9.49886 2.42736C9.53959 2.22261 9.64012 2.03453 9.78774 1.88691C9.93536 1.73929 10.1234 1.63876 10.3282 1.59803C10.5329 1.5573 10.7452 1.57821 10.9381 1.6581C11.1309 1.73799 11.2958 1.87328 11.4118 2.04686C11.5277 2.22044 11.5897 2.42452 11.5897 2.63328C11.5897 2.77284 11.562 2.91101 11.5083 3.0398C11.4545 3.1686 11.3758 3.28546 11.2766 3.38362C11.1774 3.48178 11.0597 3.5593 10.9304 3.61168C10.801 3.66407 10.6626 3.69029 10.523 3.68882H10.5341Z" fill="url(#paint0_linear)"/>
<path d="M39.9996 5.26685H13.3334V14.3556H39.9996V5.26685Z" fill="url(#paint1_linear)"/>
<path d="M13.3334 29.4659H37.8996C38.4566 29.4659 38.9907 29.2447 39.3845 28.8509C39.7783 28.457 39.9996 27.9229 39.9996 27.366V16.955H13.3334V29.4659Z" fill="url(#paint2_linear)"/>
<path d="M0 5.26685V27.3664C0 27.9234 0.221245 28.4575 0.615064 28.8513C1.00888 29.2452 1.54302 29.4664 2.09996 29.4664H11.1109V5.26685H0Z" fill="url(#paint3_linear)"/>
<defs>
<linearGradient id="paint0_linear" x1="20.0006" y1="-27.5468" x2="20.0006" y2="34.3392" gradientUnits="userSpaceOnUse">
<stop stop-color="#4552DD"/>
<stop offset="1" stop-color="#65D3AA"/>
</linearGradient>
<linearGradient id="paint1_linear" x1="19.9998" y1="-10.9432" x2="19.9998" y2="47.1693" gradientUnits="userSpaceOnUse">
<stop offset="0.0469215" stop-color="#4552DD"/>
<stop offset="1" stop-color="#65D3AA"/>
</linearGradient>
<linearGradient id="paint2_linear" x1="19.9998" y1="-10.9432" x2="19.9998" y2="47.1693" gradientUnits="userSpaceOnUse">
<stop offset="0.0469215" stop-color="#4552DD"/>
<stop offset="1" stop-color="#65D3AA"/>
</linearGradient>
<linearGradient id="paint3_linear" x1="19.9998" y1="-10.9432" x2="19.9998" y2="47.1693" gradientUnits="userSpaceOnUse">
<stop offset="0.0469215" stop-color="#4552DD"/>
<stop offset="1" stop-color="#65D3AA"/>
</linearGradient>
</defs>
</svg>
