<svg width="61" height="53" viewBox="0 0 61 53" fill="none" xmlns="http://www.w3.org/2000/svg">
<rect width="61" height="53" fill="black" fill-opacity="0"/>
<rect width="61" height="53" fill="black" fill-opacity="0"/>
<rect width="61" height="53" fill="black" fill-opacity="0"/>
<path fill-rule="evenodd" clip-rule="evenodd" d="M50.816 0H10.184L0 53H0.103918H0.207836H0.311755H0.415673H0.519591H0.623509H0.727428H0.831346H0.935264H1.03918H1.1431H1.24702H1.35094H1.45486H1.55877H1.66269H1.76661H1.87053H1.97445H2.07836H2.18228H2.2862H2.39012H2.49404H2.59796H2.70187H2.80579H2.90971H3.01363H3.11755H3.22147H3.32538H3.4293H3.53322H3.63714H3.74106H3.84497H3.94889H4.05281H4.15673H4.26065H4.36457H4.46848H4.5724H4.67632C9.1448 53 7.68995 46.336 14.029 46.336H29.201C35.54 46.336 31.5911 53 35.9557 53H36.0596H36.1635H36.2675H36.3714H36.4753H36.5792H36.6831H36.7871H36.891H36.9949H37.0988H37.2027H37.3066H37.4106H37.5145H37.6184H37.7223H37.8262H37.9302H38.0341H38.138H38.2419H38.3458H38.4497H38.5537H38.6576H38.7615H38.8654H38.9693H39.0733H39.1772H39.2811H39.385H39.4889H39.5928H39.6968H39.8007H39.9046H40.0085H40.1124H40.2164H40.3203H40.4242H40.5281H40.632L50.816 0Z" fill="url(#paint0_linear)"/>
<path fill-rule="evenodd" clip-rule="evenodd" d="M10.1836 0H50.8156L60.9996 53H60.8957H60.7918H60.6879H60.5839H60.48H60.3761H60.2722H60.1683H60.0643H59.9604H59.8565H59.7526H59.6487H59.5448H59.4408H59.3369H59.233H59.1291H59.0252H58.9212H58.8173H58.7134H58.6095H58.5056H58.4017H58.2977H58.1938H58.0899H57.986H57.8821H57.7781H57.6742H57.5703H57.4664H57.3625H57.2586H57.1546H57.0507H56.9468H56.8429H56.739H56.635H56.5311H56.4272H56.3233C51.9587 53 53.3097 46.336 46.9706 46.336H31.7986C25.4596 46.336 29.4085 53 25.0439 53H24.94H24.8361H24.7321H24.6282H24.5243H24.4204H24.3165H24.2126H24.1086H24.0047H23.9008H23.7969H23.693H23.589H23.4851H23.3812H23.2773H23.1734H23.0695H22.9655H22.8616H22.7577H22.6538H22.5499H22.4459H22.342H22.2381H22.1342H22.0303H21.9264H21.8224H21.7185H21.6146H21.5107H21.4068H21.3028H21.1989H21.095H20.9911H20.8872H20.7833H20.6793H20.5754H20.4715H20.3676L10.1836 0Z" fill="url(#paint1_linear)"/>
<path d="M29.3051 37.1731H41.4636L41.7753 39.6721L45.9321 35.1947L40.4244 30.7173L40.7362 33.3204H28.6816L29.3051 37.1731Z" fill="#3DC7DC"/>
<path fill-rule="evenodd" clip-rule="evenodd" d="M29.7206 16.0354H37.6183C38.9693 16.0354 40.3202 17.0767 40.5281 18.4303L41.0476 21.7623C41.5672 24.8861 39.385 27.4892 36.2674 27.4892H34.8126C31.695 27.4892 28.6814 24.8861 28.1618 21.7623L27.6422 18.4303C27.4344 17.0767 28.3696 16.0354 29.7206 16.0354ZM35.1243 21.6582L35.3321 23.2201C35.4361 23.5325 35.2282 23.7407 34.9165 23.7407C34.6047 23.7407 34.3969 23.5325 34.293 23.2201L34.0851 21.6582C33.6695 21.4499 33.2538 21.0334 33.1499 20.5128C33.0459 19.8881 33.5655 19.3674 34.189 19.3674C34.9165 19.3674 35.54 19.8881 35.6439 20.5128C35.6439 21.0334 35.4361 21.4499 35.1243 21.6582Z" fill="#1795D8"/>
<path d="M32.6307 9.89185C33.9816 9.89185 35.3325 10.4125 36.3717 11.3496C37.4109 12.1826 38.1383 13.4321 38.3462 14.7858L38.6579 16.2435C38.3462 16.1394 38.0344 16.0353 37.6187 16.0353H36.7874L36.5796 14.7858C36.4756 13.9527 35.9561 13.1197 35.3325 12.5991C34.709 12.0785 33.8777 11.662 32.9424 11.662C32.1111 11.662 31.3836 12.0785 30.968 12.5991C30.4484 13.1197 30.2405 13.9527 30.3445 14.7858L30.5523 16.0353H29.721C29.4092 16.0353 29.0974 16.1394 28.7857 16.2435L28.5779 14.7858C28.37 13.4321 28.6818 12.1826 29.4092 11.3496C30.2405 10.4125 31.2797 9.89185 32.6307 9.89185Z" fill="url(#paint2_linear)"/>
<defs>
<linearGradient id="paint0_linear" x1="31.7908" y1="13.966" x2="17.9241" y2="60.9776" gradientUnits="userSpaceOnUse">
<stop stop-color="#2B3ACB"/>
<stop offset="1" stop-color="#13A6DB"/>
</linearGradient>
<linearGradient id="paint1_linear" x1="43.9306" y1="15.4351" x2="27.1979" y2="37.532" gradientUnits="userSpaceOnUse">
<stop stop-color="#F4F5F7"/>
<stop offset="1" stop-color="#C0D0DE"/>
</linearGradient>
<linearGradient id="paint2_linear" x1="33.1176" y1="10.3994" x2="34.0062" y2="15.7033" gradientUnits="userSpaceOnUse">
<stop stop-color="#198DD7"/>
<stop offset="1" stop-color="#4651F1"/>
</linearGradient>
</defs>
</svg>
