<svg width="40" height="40" viewBox="0 0 40 40" fill="none" xmlns="http://www.w3.org/2000/svg">
<rect width="40" height="40.0001" fill="black" fill-opacity="0"/>
<path d="M15.7494 14.3L11.3098 13.0333C10.5338 13.541 9.6285 13.8148 8.70155 13.8222C7.82261 13.8125 6.96299 13.5628 6.2154 13.1L6.10441 13.0222L1.66484 14.2889C1.19484 14.4464 0.783851 14.7433 0.486476 15.1403C0.189101 15.5372 0.0194267 16.0153 0 16.5111V17.3778H17.4142V16.5111C17.3926 16.0173 17.2219 15.5416 16.9247 15.1468C16.6274 14.7521 16.2177 14.4568 15.7494 14.3Z" fill="url(#paint0_linear)"/>
<path d="M38.3241 14.3L33.8845 13.0333C33.1085 13.541 32.2032 13.8148 31.2762 13.8222C30.3973 13.8125 29.5377 13.5628 28.7901 13.1L28.6791 13.0222L24.2395 14.2889C23.7695 14.4464 23.3585 14.7433 23.0612 15.1403C22.7638 15.5372 22.5941 16.0153 22.5747 16.5111V17.3778H40V16.5111C39.9776 16.0159 39.8052 15.5392 39.5059 15.1443C39.2066 14.7494 38.7944 14.455 38.3241 14.3Z" fill="url(#paint1_linear)"/>
<path d="M10.4663 25.7781C10.3821 25.7764 10.2993 25.7555 10.2243 25.717C10.1493 25.6785 10.084 25.6234 10.0335 25.5558L5.72709 21.2669C5.67535 21.2151 5.63431 21.1536 5.6063 21.0859C5.5783 21.0183 5.56389 20.9457 5.56389 20.8725C5.56389 20.7992 5.5783 20.7267 5.6063 20.659C5.63431 20.5913 5.67535 20.5298 5.72709 20.478C5.77884 20.4262 5.84026 20.3851 5.90787 20.3571C5.97547 20.3291 6.04793 20.3146 6.12111 20.3146C6.19428 20.3146 6.26674 20.3291 6.33434 20.3571C6.40195 20.3851 6.46338 20.4262 6.51512 20.478L10.8548 24.8225C10.9308 24.9002 10.9825 24.9984 11.0032 25.1052C11.024 25.2119 11.013 25.3224 10.9717 25.423C10.9303 25.5235 10.8604 25.6097 10.7706 25.6709C10.6807 25.732 10.575 25.7654 10.4663 25.767V25.7781Z" fill="url(#paint2_linear)"/>
<path d="M29.579 25.7782C29.4704 25.7767 29.3646 25.7433 29.2748 25.6821C29.185 25.621 29.115 25.5348 29.0737 25.4342C29.0323 25.3337 29.0213 25.2232 29.0421 25.1164C29.0629 25.0097 29.1145 24.9114 29.1906 24.8337L33.5302 20.4893C33.6347 20.3847 33.7765 20.3259 33.9243 20.3259C34.072 20.3259 34.2138 20.3847 34.3183 20.4893C34.4228 20.5939 34.4815 20.7358 34.4815 20.8837C34.4815 21.0317 34.4228 21.1735 34.3183 21.2782L30.0119 25.556C29.9613 25.6235 29.8961 25.6786 29.8211 25.7171C29.7461 25.7556 29.6633 25.7765 29.579 25.7782Z" fill="url(#paint3_linear)"/>
<path d="M27.037 36.9113L22.5974 35.6446C21.8321 36.1501 20.9391 36.4276 20.0224 36.4446C19.1435 36.4349 18.2839 36.1852 17.5363 35.7224L17.4253 35.6446L12.9857 36.9113C12.5157 37.0688 12.1047 37.3657 11.8074 37.7627C11.51 38.1596 11.3403 38.6378 11.3209 39.1335V40.0002H28.7129V39.1335C28.6926 38.6364 28.5213 38.1573 28.2219 37.7602C27.9224 37.3631 27.509 37.0669 27.037 36.9113Z" fill="url(#paint4_linear)"/>
<g opacity="0.5">
<path d="M13.9413 5.68892C14.0015 4.24428 13.4876 2.83458 12.512 1.76839C11.5364 0.702188 10.1787 0.0663351 8.73588 0C7.29113 0.0634823 5.93052 0.698095 4.95258 1.76461C3.97463 2.83112 3.45921 4.24244 3.51938 5.68892C3.50796 6.65774 3.74102 7.61376 4.19696 8.46839C4.6529 9.32301 5.31698 10.0486 6.12763 10.5778V13.0334L6.23862 13.1112C6.98621 13.574 7.84584 13.8237 8.72478 13.8334C9.65172 13.826 10.557 13.5522 11.333 13.0445V10.589C12.1438 10.0572 12.8078 9.32953 13.2636 8.47315C13.7195 7.61676 13.9525 6.65924 13.9413 5.68892Z" fill="url(#paint5_linear)"/>
<path d="M36.5271 5.68892C36.5872 4.24244 36.0718 2.83112 35.0939 1.76461C34.1159 0.698095 32.7553 0.0634823 31.3106 0C29.8658 0.0634823 28.5052 0.698095 27.5273 1.76461C26.5493 2.83112 26.0339 4.24244 26.0941 5.68892C26.0827 6.65774 26.3157 7.61376 26.7717 8.46839C27.2276 9.32301 27.8917 10.0486 28.7023 10.5778V13.0334L28.8133 13.1112C29.5609 13.574 30.4205 13.8237 31.2995 13.8334C32.2264 13.826 33.1317 13.5522 33.9077 13.0445V10.589C34.7206 10.0585 35.3867 9.33139 35.8445 8.47493C36.3024 7.61846 36.5371 6.66026 36.5271 5.68892Z" fill="url(#paint6_linear)"/>
<path d="M25.2393 28.3003C25.2995 26.8538 24.7841 25.4425 23.8062 24.376C22.8282 23.3095 21.4676 22.6748 20.0229 22.6114C18.5781 22.6748 17.2175 23.3095 16.2396 24.376C15.2616 25.4425 14.7462 26.8538 14.8064 28.3003C14.7949 29.2691 15.028 30.2251 15.4839 31.0797C15.9399 31.9344 16.604 32.6599 17.4146 33.1892V35.6448L17.5256 35.7226C18.2764 36.1873 19.1401 36.4371 20.0229 36.4448C20.9498 36.4373 21.8551 36.1635 22.6311 35.6559V33.2003C23.4419 32.6685 24.1059 31.9409 24.5617 31.0845C25.0175 30.2281 25.2506 29.2706 25.2393 28.3003Z" fill="url(#paint7_linear)"/>
</g>
<defs>
<linearGradient id="paint0_linear" x1="20" y1="-1.88674" x2="20" y2="43.0194" gradientUnits="userSpaceOnUse">
<stop stop-color="#4552DD"/>
<stop offset="1" stop-color="#65D3AA"/>
</linearGradient>
<linearGradient id="paint1_linear" x1="20" y1="-1.88674" x2="20" y2="43.0194" gradientUnits="userSpaceOnUse">
<stop stop-color="#4552DD"/>
<stop offset="1" stop-color="#65D3AA"/>
</linearGradient>
<linearGradient id="paint2_linear" x1="20" y1="-1.88674" x2="20" y2="43.0194" gradientUnits="userSpaceOnUse">
<stop stop-color="#4552DD"/>
<stop offset="1" stop-color="#65D3AA"/>
</linearGradient>
<linearGradient id="paint3_linear" x1="20" y1="-1.88674" x2="20" y2="43.0194" gradientUnits="userSpaceOnUse">
<stop stop-color="#4552DD"/>
<stop offset="1" stop-color="#65D3AA"/>
</linearGradient>
<linearGradient id="paint4_linear" x1="20" y1="-1.88674" x2="20" y2="43.0194" gradientUnits="userSpaceOnUse">
<stop stop-color="#4552DD"/>
<stop offset="1" stop-color="#65D3AA"/>
</linearGradient>
<linearGradient id="paint5_linear" x1="20.0232" y1="-12.453" x2="20.0232" y2="49.4345" gradientUnits="userSpaceOnUse">
<stop stop-color="#4552DD"/>
<stop offset="1" stop-color="#65D3AA"/>
</linearGradient>
<linearGradient id="paint6_linear" x1="20.0232" y1="-12.453" x2="20.0232" y2="49.4345" gradientUnits="userSpaceOnUse">
<stop stop-color="#4552DD"/>
<stop offset="1" stop-color="#65D3AA"/>
</linearGradient>
<linearGradient id="paint7_linear" x1="20.0232" y1="-12.453" x2="20.0232" y2="49.4345" gradientUnits="userSpaceOnUse">
<stop stop-color="#4552DD"/>
<stop offset="1" stop-color="#65D3AA"/>
</linearGradient>
</defs>
</svg>
