<svg width="40" height="40" viewBox="0 0 40 40" fill="none" xmlns="http://www.w3.org/2000/svg">
<rect width="40" height="39.9999" fill="black" fill-opacity="0"/>
<g opacity="0.5">
<path d="M4.44441 18.8889H0V28.8888H4.44441V18.8889Z" fill="url(#paint0_linear)"/>
<path d="M29.9998 37.7777H22.2221V35.5555H29.9998C30.8838 35.5555 31.7317 35.2043 32.3568 34.5792C32.9819 33.9541 33.3331 33.1063 33.3331 32.2222H35.5553C35.5553 33.6956 34.97 35.1087 33.9281 36.1506C32.8863 37.1924 31.4732 37.7777 29.9998 37.7777Z" fill="url(#paint1_linear)"/>
<path d="M40 18.8889H35.5556V28.8888H40V18.8889Z" fill="url(#paint2_linear)"/>
<path d="M35.5551 15.5555H33.3329C33.3329 12.0193 31.9282 8.62791 29.4277 6.12744C26.9273 3.62696 23.5359 2.22221 19.9997 2.22221C16.4635 2.22221 13.0722 3.62696 10.5717 6.12744C8.07122 8.62791 6.66647 12.0193 6.66647 15.5555H4.44426C4.44426 11.4299 6.08314 7.47331 9.00035 4.5561C11.9176 1.63888 15.8741 0 19.9997 0C24.1253 0 28.0819 1.63888 30.9991 4.5561C33.9163 7.47331 35.5551 11.4299 35.5551 15.5555Z" fill="url(#paint3_linear)"/>
</g>
<path d="M22.2213 39.9998C24.0623 39.9998 25.5547 38.5075 25.5547 36.6665C25.5547 34.8256 24.0623 33.3332 22.2213 33.3332C20.3804 33.3332 18.888 34.8256 18.888 36.6665C18.888 38.5075 20.3804 39.9998 22.2213 39.9998Z" fill="url(#paint4_linear)"/>
<path d="M35.5543 32.2218H31.1099V15.5552H35.5543C36.1437 15.5552 36.7089 15.7893 37.1257 16.206C37.5424 16.6228 37.7765 17.188 37.7765 17.7774V29.9996C37.7765 30.5889 37.5424 31.1541 37.1257 31.5709C36.7089 31.9876 36.1437 32.2218 35.5543 32.2218Z" fill="url(#paint5_linear)"/>
<path d="M4.44389 15.5554H8.8883V32.222H4.44389C3.85452 32.222 3.28929 31.9879 2.87255 31.5711C2.4558 31.1544 2.22168 30.5891 2.22168 29.9998V17.7776C2.22168 17.1882 2.4558 16.623 2.87255 16.2063C3.28929 15.7895 3.85452 15.5554 4.44389 15.5554Z" fill="url(#paint6_linear)"/>
<defs>
<linearGradient id="paint0_linear" x1="20" y1="-6.79243" x2="20" y2="46.0376" gradientUnits="userSpaceOnUse">
<stop stop-color="#4552DD"/>
<stop offset="1" stop-color="#65D3AA"/>
</linearGradient>
<linearGradient id="paint1_linear" x1="20" y1="-6.79243" x2="20" y2="46.0376" gradientUnits="userSpaceOnUse">
<stop stop-color="#4552DD"/>
<stop offset="1" stop-color="#65D3AA"/>
</linearGradient>
<linearGradient id="paint2_linear" x1="20" y1="-6.79243" x2="20" y2="46.0376" gradientUnits="userSpaceOnUse">
<stop stop-color="#4552DD"/>
<stop offset="1" stop-color="#65D3AA"/>
</linearGradient>
<linearGradient id="paint3_linear" x1="20" y1="-6.79243" x2="20" y2="46.0376" gradientUnits="userSpaceOnUse">
<stop stop-color="#4552DD"/>
<stop offset="1" stop-color="#65D3AA"/>
</linearGradient>
<linearGradient id="paint4_linear" x1="19.9991" y1="13.2074" x2="19.9991" y2="39.9998" gradientUnits="userSpaceOnUse">
<stop stop-color="#4552DD"/>
<stop offset="1" stop-color="#65D3AA"/>
</linearGradient>
<linearGradient id="paint5_linear" x1="19.9991" y1="13.2074" x2="19.9991" y2="39.9998" gradientUnits="userSpaceOnUse">
<stop stop-color="#4552DD"/>
<stop offset="1" stop-color="#65D3AA"/>
</linearGradient>
<linearGradient id="paint6_linear" x1="19.9991" y1="13.2074" x2="19.9991" y2="39.9998" gradientUnits="userSpaceOnUse">
<stop stop-color="#4552DD"/>
<stop offset="1" stop-color="#65D3AA"/>
</linearGradient>
</defs>
</svg>
