<svg width="40" height="40" viewBox="0 0 40 40" fill="none" xmlns="http://www.w3.org/2000/svg">
<rect width="40" height="39.9584" fill="black" fill-opacity="0"/>
<path opacity="0.5" d="M14.3774 35.5184H12.1552V32.1885C12.1552 31.011 12.6234 29.8817 13.4569 29.0491C14.2904 28.2165 15.4209 27.7487 16.5996 27.7487H21.7663C22.945 27.7487 24.0755 27.281 24.909 26.4483C25.7425 25.6157 26.2107 24.4864 26.2107 23.3089V16.5604C26.2107 15.3829 25.7425 14.2536 24.909 13.421C24.0755 12.5883 22.945 12.1206 21.7663 12.1206H16.5441C15.3653 12.1206 14.2349 11.6528 13.4014 10.8202C12.5679 9.98756 12.0996 8.85827 12.0996 7.68076V4.4397H14.3218V7.76956C14.3218 8.35831 14.556 8.92296 14.9727 9.33927C15.3895 9.75558 15.9547 9.98947 16.5441 9.98947H21.7107C23.4789 9.98947 25.1746 10.6911 26.4248 11.9401C27.675 13.189 28.3774 14.8829 28.3774 16.6492V23.3089C28.3774 25.0752 27.675 26.7691 26.4248 28.018C25.1746 29.267 23.4789 29.9686 21.7107 29.9686H16.5441C15.9547 29.9686 15.3895 30.2025 14.9727 30.6188C14.556 31.0351 14.3218 31.5998 14.3218 32.1885L14.3774 35.5184Z" fill="url(#paint0_linear)"/>
<path d="M38.8889 15.5394H15.0666C14.453 15.5394 13.9555 16.0363 13.9555 16.6493V23.309C13.9555 23.922 14.453 24.419 15.0666 24.419H38.8889C39.5025 24.419 40 23.922 40 23.309V16.6493C40 16.0363 39.5025 15.5394 38.8889 15.5394Z" fill="url(#paint1_linear)"/>
<path d="M24.9334 0H1.11111C0.497462 0 0 0.496943 0 1.10995V7.76968C0 8.38269 0.497462 8.87963 1.11111 8.87963H24.9334C25.547 8.87963 26.0445 8.38269 26.0445 7.76968V1.10995C26.0445 0.496943 25.547 0 24.9334 0Z" fill="url(#paint2_linear)"/>
<path d="M24.9334 31.0787H1.11111C0.497462 31.0787 0 31.5757 0 32.1887V38.8484C0 39.4614 0.497462 39.9584 1.11111 39.9584H24.9334C25.547 39.9584 26.0445 39.4614 26.0445 38.8484V32.1887C26.0445 31.5757 25.547 31.0787 24.9334 31.0787Z" fill="url(#paint3_linear)"/>
<defs>
<linearGradient id="paint0_linear" x1="20.2385" y1="-3.39632" x2="20.2385" y2="47.1693" gradientUnits="userSpaceOnUse">
<stop stop-color="#4552DD"/>
<stop offset="1" stop-color="#65D3AA"/>
</linearGradient>
<linearGradient id="paint1_linear" x1="20" y1="0" x2="20" y2="39.9584" gradientUnits="userSpaceOnUse">
<stop stop-color="#4552DD"/>
<stop offset="1" stop-color="#65D3AA"/>
</linearGradient>
<linearGradient id="paint2_linear" x1="20" y1="0" x2="20" y2="39.9584" gradientUnits="userSpaceOnUse">
<stop stop-color="#4552DD"/>
<stop offset="1" stop-color="#65D3AA"/>
</linearGradient>
<linearGradient id="paint3_linear" x1="20" y1="0" x2="20" y2="39.9584" gradientUnits="userSpaceOnUse">
<stop stop-color="#4552DD"/>
<stop offset="1" stop-color="#65D3AA"/>
</linearGradient>
</defs>
</svg>
