<svg width="35" height="31" viewBox="0 0 35 31" fill="none" xmlns="http://www.w3.org/2000/svg">
<rect width="33.9183" height="29.2105" fill="black" fill-opacity="0" transform="translate(0.4375 0.981201)"/>
<g opacity="0.5">
<path d="M1.38654 16.9999C1.1958 17.0013 1.00913 16.9448 0.851204 16.8377C0.693282 16.7307 0.571555 16.5783 0.502124 16.4006C0.432694 16.2229 0.41883 16.0283 0.462368 15.8425C0.505905 15.6568 0.604792 15.4886 0.74595 15.3603L12.5122 4.57129L24.9378 10.3097L33.03 6.71967C33.2586 6.61846 33.5181 6.61223 33.7513 6.70235C33.9845 6.79247 34.1723 6.97157 34.2735 7.20023C34.3747 7.42889 34.3809 7.6884 34.2908 7.92166C34.2007 8.15492 34.0217 8.34282 33.7931 8.44403L24.9378 12.3733L12.8701 6.8139L2.02714 16.7455C1.8534 16.9082 1.62454 16.999 1.38654 16.9999Z" fill="url(#paint0_linear)"/>
<path d="M1.3869 30.1917C1.19979 30.1928 1.01659 30.1381 0.860662 30.0347C0.704734 29.9312 0.583143 29.7837 0.51139 29.6108C0.439637 29.4379 0.420973 29.2476 0.457779 29.0641C0.494585 28.8806 0.585192 28.7122 0.718048 28.5804L9.52622 19.7702L22.7714 21.6547L32.8137 13.4381C32.9096 13.3595 33.02 13.3006 33.1386 13.2647C33.2573 13.2288 33.3818 13.2167 33.5052 13.2289C33.6285 13.2412 33.7482 13.2776 33.8575 13.3361C33.9668 13.3947 34.0634 13.4741 34.142 13.57C34.2206 13.6659 34.2795 13.7764 34.3153 13.895C34.3512 14.0137 34.3634 14.1383 34.3512 14.2617C34.3389 14.385 34.3025 14.5048 34.244 14.6141C34.1855 14.7234 34.106 14.8201 34.0101 14.8986L23.3273 23.6429L10.1951 21.7584L2.05576 29.9185C1.96773 30.0058 1.86334 30.0749 1.74856 30.1218C1.63379 30.1687 1.51088 30.1924 1.3869 30.1917Z" fill="url(#paint1_linear)"/>
</g>
<path d="M24.9366 14.173C26.4975 14.173 27.7628 12.9073 27.7628 11.3461C27.7628 9.78493 26.4975 8.51932 24.9366 8.51932C23.3758 8.51932 22.1105 9.78493 22.1105 11.3461C22.1105 12.9073 23.3758 14.173 24.9366 14.173Z" fill="url(#paint2_linear)"/>
<path d="M12.6902 10.4039C15.2916 10.4039 17.4005 8.29458 17.4005 5.69257C17.4005 3.09055 15.2916 0.981201 12.6902 0.981201C10.0888 0.981201 7.97998 3.09055 7.97998 5.69257C7.97998 8.29458 10.0888 10.4039 12.6902 10.4039Z" fill="url(#paint3_linear)"/>
<path d="M23.0522 27.3648C25.6536 27.3648 27.7624 25.2555 27.7624 22.6535C27.7624 20.0514 25.6536 17.9421 23.0522 17.9421C20.4508 17.9421 18.3419 20.0514 18.3419 22.6535C18.3419 25.2555 20.4508 27.3648 23.0522 27.3648Z" fill="url(#paint4_linear)"/>
<path d="M9.8639 24.538C11.945 24.538 13.6321 22.8505 13.6321 20.7689C13.6321 18.6873 11.945 16.9998 9.8639 16.9998C7.78278 16.9998 6.0957 18.6873 6.0957 20.7689C6.0957 22.8505 7.78278 24.538 9.8639 24.538Z" fill="url(#paint5_linear)"/>
<defs>
<linearGradient id="paint0_linear" x1="17.3966" y1="-6.05807" x2="17.3966" y2="30.1917" gradientUnits="userSpaceOnUse">
<stop stop-color="#4552DD"/>
<stop offset="1" stop-color="#65D3AA"/>
</linearGradient>
<linearGradient id="paint1_linear" x1="17.3966" y1="-6.05807" x2="17.3966" y2="30.1917" gradientUnits="userSpaceOnUse">
<stop stop-color="#4552DD"/>
<stop offset="1" stop-color="#65D3AA"/>
</linearGradient>
<linearGradient id="paint2_linear" x1="16.9293" y1="0.981201" x2="16.9293" y2="27.3648" gradientUnits="userSpaceOnUse">
<stop stop-color="#4552DD"/>
<stop offset="1" stop-color="#65D3AA"/>
</linearGradient>
<linearGradient id="paint3_linear" x1="16.9293" y1="0.981201" x2="16.9293" y2="27.3648" gradientUnits="userSpaceOnUse">
<stop stop-color="#4552DD"/>
<stop offset="1" stop-color="#65D3AA"/>
</linearGradient>
<linearGradient id="paint4_linear" x1="16.9293" y1="0.981201" x2="16.9293" y2="27.3648" gradientUnits="userSpaceOnUse">
<stop stop-color="#4552DD"/>
<stop offset="1" stop-color="#65D3AA"/>
</linearGradient>
<linearGradient id="paint5_linear" x1="16.9293" y1="0.981201" x2="16.9293" y2="27.3648" gradientUnits="userSpaceOnUse">
<stop stop-color="#4552DD"/>
<stop offset="1" stop-color="#65D3AA"/>
</linearGradient>
</defs>
</svg>
