<svg width="49" height="56" viewBox="0 0 49 56" fill="none" xmlns="http://www.w3.org/2000/svg">
<rect width="49.0004" height="56" fill="black" fill-opacity="0"/>
<rect width="49.0004" height="56" fill="black" fill-opacity="0"/>
<rect width="49.0004" height="56" fill="black" fill-opacity="0"/>
<path d="M10.1719 23.627C10.1719 25.585 10.5631 26.6293 11.3456 27.1514C11.9976 27.8041 13.4321 28.0652 14.7361 28.3263H15.2577V28.4568C20.8652 29.1095 26.603 30.0232 26.603 43.4684H20.9956C20.9956 34.8531 17.7354 34.4615 14.4753 33.9393H13.9537C11.7368 33.5477 9.51988 33.0256 7.69419 31.5897C5.86851 30.0232 4.56445 27.543 4.56445 23.627H10.1719Z" fill="#424071"/>
<path d="M7.43313 10.3123C9.38922 10.3123 11.2149 11.0955 12.6494 12.4008C13.9534 13.8367 14.7359 15.6642 14.7359 17.6223C14.7359 19.7109 13.9534 21.5384 12.6494 22.8437C11.2149 24.2796 9.38922 25.0628 7.43313 25.0628C5.34664 25.0628 3.52096 24.2796 2.2169 22.8437C0.782435 21.5384 0 19.7109 0 17.6223C0 15.6642 0.782435 13.8367 2.2169 12.4008C3.52096 11.0955 5.34664 10.3123 7.43313 10.3123ZM9.38922 15.6642C8.8676 15.1421 8.21557 14.7505 7.43313 14.7505C6.6507 14.7505 5.86826 15.1421 5.34664 15.6642C4.82502 16.1864 4.56421 16.8391 4.56421 17.6223C4.56421 18.4055 4.82502 19.1887 5.34664 19.7109C5.86826 20.233 6.6507 20.4941 7.43313 20.4941C8.21557 20.4941 8.8676 20.233 9.38922 19.7109C9.91084 19.1887 10.3021 18.4055 10.3021 17.6223C10.3021 16.8391 9.91084 16.1864 9.38922 15.6642Z" fill="#424071"/>
<path d="M23.8638 0C25.8199 0 27.776 0.783217 29.08 2.21911C30.3841 3.52448 31.1665 5.35198 31.1665 7.44056C31.1665 9.3986 30.3841 11.2261 29.08 12.662C27.776 13.9674 25.8199 14.7506 23.8638 14.7506C21.7773 14.7506 19.9516 13.9674 18.6476 12.662C17.2131 11.2261 16.4307 9.3986 16.4307 7.44056C16.4307 5.35198 17.2131 3.52448 18.6476 2.21911C19.9516 0.783217 21.7773 0 23.8638 0ZM25.8199 5.35198C25.2983 4.82984 24.6462 4.56876 23.8638 4.56876C23.0814 4.56876 22.2989 4.82984 21.7773 5.35198C21.2557 5.87413 20.9949 6.65734 20.9949 7.44056C20.9949 8.22378 21.2557 8.87646 21.7773 9.3986C22.2989 9.92075 23.0814 10.3124 23.8638 10.3124C24.6462 10.3124 25.2983 9.92075 25.8199 9.3986C26.3415 8.87646 26.7327 8.22378 26.7327 7.44056C26.7327 6.65734 26.3415 5.87413 25.8199 5.35198Z" fill="#0065FF"/>
<path d="M26.6026 12.5315V43.4686H20.9951V12.5315H26.6026Z" fill="#0065FF"/>
<path d="M26.6026 27.1516V42.5549L21.3863 43.4686L20.9951 42.6854V33.2868C21.908 30.8066 23.3424 27.6738 26.6026 27.1516Z" fill="#004FD0"/>
<path d="M43.0335 17.7529V22.1912V23.8881C43.0335 27.8042 41.7294 30.1539 39.7733 31.5898C38.078 33.0257 35.8611 33.5478 33.6442 33.9394C33.1226 33.9394 32.7314 33.9394 32.4706 34.0699C29.6017 34.331 26.4719 34.8532 26.6023 41.7716C27.6456 42.1632 28.2976 42.6853 29.08 43.338C30.3841 44.7739 31.1665 46.6014 31.1665 48.5595C31.1665 50.648 30.3841 52.4755 29.08 53.9114C27.776 55.2168 25.8199 56 23.8638 56C21.7773 56 19.9516 55.2168 18.6476 53.9114C17.2131 52.4755 16.4307 50.648 16.4307 48.5595C16.4307 46.6014 17.2131 44.7739 18.6476 43.338C19.2996 42.6853 20.082 42.1632 20.8645 41.7716C20.4732 29.8928 26.4719 29.1096 31.8186 28.4569C32.2098 28.4569 32.7314 28.3264 32.8618 28.3264C34.2963 28.0653 35.6003 27.8042 36.3828 27.2821C37.0348 26.7599 37.426 25.7156 37.426 23.7576V22.1912V17.7529H43.0335ZM25.8199 46.6014C25.2983 46.0793 24.6462 45.6877 23.8638 45.6877C23.0814 45.6877 22.2989 46.0793 21.7773 46.6014C21.2557 47.1236 20.9949 47.7762 20.9949 48.5595C20.9949 49.4732 21.2557 50.1259 21.7773 50.648C22.2989 51.1702 23.0814 51.5618 23.8638 51.5618C24.6462 51.5618 25.2983 51.1702 25.8199 50.648C26.3415 50.1259 26.7327 49.4732 26.7327 48.5595C26.7327 47.7762 26.3415 47.1236 25.8199 46.6014Z" fill="url(#paint0_linear)"/>
<path d="M43.0342 17.7529V22.1912V23.2354L40.2957 20.4942L37.4268 23.2354V22.1912V17.7529H43.0342Z" fill="#45C894"/>
<path d="M36.3836 22.0607C35.3404 23.2355 33.5147 23.2355 32.341 22.0607C31.2978 21.0164 31.2978 19.1889 32.341 18.1446L38.3397 12.1399C39.3829 11.0956 41.2086 11.0956 42.2519 12.1399L48.1201 18.014C49.2938 19.1889 49.2938 20.8858 48.1201 22.0607C47.0769 23.1049 45.2512 23.1049 44.208 22.0607L40.2958 18.1446L36.3836 22.0607Z" fill="#79F2C0"/>
<defs>
<linearGradient id="paint0_linear" x1="18.1136" y1="49.3522" x2="41.4458" y2="24.4009" gradientUnits="userSpaceOnUse">
<stop stop-color="#42BF8A"/>
<stop offset="1" stop-color="#79F2C0"/>
</linearGradient>
</defs>
</svg>
