<svg width="40" height="43" viewBox="0 0 40 43" fill="none" xmlns="http://www.w3.org/2000/svg">
<rect width="40" height="42.449" fill="black" fill-opacity="0"/>
<rect width="40" height="42.449" fill="black" fill-opacity="0"/>
<rect width="40" height="42.449" fill="black" fill-opacity="0"/>
<path fill-rule="evenodd" clip-rule="evenodd" d="M31.6384 16.7672H9.73363C9.20453 16.7672 8.78125 16.3427 8.78125 15.8121V7.00393C8.78125 6.47332 9.20453 6.04883 9.73363 6.04883C11.6384 6.04883 12.1675 6.04883 14.1781 6.04883C17.4585 6.04883 15.6596 8.2774 19.1516 8.2774H31.6384C32.1675 8.2774 32.5908 8.70189 32.5908 9.2325V15.8121C32.5908 16.3427 32.1675 16.7672 31.6384 16.7672Z" fill="#505F79"/>
<path fill-rule="evenodd" clip-rule="evenodd" d="M32.5921 18.4654H8.14769C7.61859 18.4654 7.19531 18.041 7.19531 17.5103V8.48994C7.19531 7.95932 7.61859 7.42871 8.14769 7.42871C10.1583 7.42871 11.2165 7.42871 13.1212 7.42871C16.5075 7.42871 15.1318 9.97565 18.6239 9.97565H32.5921C33.1212 9.97565 33.5445 10.4001 33.5445 10.9308V17.5103C33.5445 18.041 33.1212 18.4654 32.5921 18.4654Z" fill="#3DC7DC"/>
<path fill-rule="evenodd" clip-rule="evenodd" d="M33.3328 20.2694H6.98363C6.45453 20.2694 6.03125 19.8449 6.03125 19.3143V9.86941C6.03125 9.3388 6.45453 8.91431 6.98363 8.91431C8.99421 8.91431 10.3699 8.91431 12.3805 8.91431C15.7667 8.91431 14.8143 11.6735 18.3064 11.6735H33.3328C33.8619 11.6735 34.2852 12.098 34.2852 12.6286V19.3143C34.2852 19.8449 33.8619 20.2694 33.3328 20.2694Z" fill="#6BD5E5"/>
<path fill-rule="evenodd" clip-rule="evenodd" d="M33.8628 22.0734H6.13793C5.60883 22.0734 5.18555 21.649 5.18555 21.1183V11.7796C5.18555 11.249 5.60883 10.8245 6.13793 10.8245C8.04269 10.8245 10.0533 10.8245 11.958 10.8245C15.3443 10.8245 14.4977 13.5836 17.9898 13.5836H33.8628C34.3919 13.5836 34.8152 14.0081 34.8152 14.5387V21.1183C34.8152 21.649 34.3919 22.0734 33.8628 22.0734Z" fill="#9CE3EE"/>
<path d="M40 0H0V33.9592H40V0Z" fill="url(#paint0_linear)"/>
<path fill-rule="evenodd" clip-rule="evenodd" d="M18.836 33.9593H0V25.8939C3.38624 22.9225 4.33862 15.8123 6.24339 10.2939L18.836 33.9593Z" fill="#0057D8"/>
<path d="M35.6606 4.03271H4.33789V29.9266H35.6606V4.03271Z" fill="#253858"/>
<path d="M35.6606 16.5552H4.33789V42.4491H35.6606V16.5552Z" fill="#3384FF"/>
<path d="M25.0926 23.5593H16.1912C15.899 23.5593 15.6621 23.7969 15.6621 24.0899V30.453C15.6621 30.746 15.899 30.9836 16.1912 30.9836H25.0926C25.3849 30.9836 25.6217 30.746 25.6217 30.453V24.0899C25.6217 23.7969 25.3849 23.5593 25.0926 23.5593Z" fill="white"/>
<path d="M15.1328 21.9673H26.1381C26.4555 21.9673 26.773 22.0734 26.9846 22.2857C27.1963 22.4979 27.3021 22.8163 27.3021 23.1346V31.5183C27.3021 31.8367 27.1963 32.155 26.9846 32.3673C26.773 32.5795 26.4555 32.6857 26.1381 32.6857H15.1328C14.8153 32.6857 14.6037 32.5795 14.392 32.3673C14.1804 32.155 13.9688 31.8367 13.9688 31.5183V23.1346C13.9688 22.8163 14.1804 22.4979 14.392 22.2857C14.6037 22.0734 14.8153 21.9673 15.1328 21.9673ZM26.1381 22.8163H15.1328C15.1328 22.8163 15.027 22.8163 14.9211 22.9224C14.9211 22.9224 14.8153 23.0285 14.8153 23.1346V31.5183C14.8153 31.6244 14.9211 31.6244 14.9211 31.7306C15.027 31.8367 15.1328 31.8367 15.1328 31.8367H26.1381C26.2439 31.8367 26.3497 31.8367 26.3497 31.7306C26.4555 31.6244 26.4555 31.6244 26.4555 31.5183V23.1346C26.4555 23.0285 26.4555 22.9224 26.3497 22.9224C26.3497 22.8163 26.2439 22.8163 26.1381 22.8163Z" fill="#3384FF"/>
<path d="M25.9593 36.6123H17.99C17.6978 36.6123 17.4609 36.8499 17.4609 37.1429V37.6841C17.4609 37.9771 17.6978 38.2147 17.99 38.2147H25.9593C26.2516 38.2147 26.4884 37.9771 26.4884 37.6841V37.1429C26.4884 36.8499 26.2516 36.6123 25.9593 36.6123Z" fill="#FAFBFC"/>
<path d="M15.883 37.4135C15.883 36.971 15.5253 36.6123 15.0841 36.6123C14.6428 36.6123 14.2852 36.971 14.2852 37.4135C14.2852 37.856 14.6428 38.2147 15.0841 38.2147C15.5253 38.2147 15.883 37.856 15.883 37.4135Z" fill="#FAFBFC"/>
<path d="M15.4501 22.498H25.8204C26.1379 22.498 26.3495 22.6042 26.4554 22.8164C26.667 22.9225 26.667 23.1348 26.667 23.347V31.2001C26.667 31.4123 26.667 31.6246 26.4554 31.8368C26.3495 31.9429 26.1379 32.0491 25.8204 32.0491H15.4501C15.2384 32.0491 14.921 31.9429 14.8152 31.8368C14.7093 31.6246 14.6035 31.4123 14.6035 31.2001V23.347C14.6035 23.1348 14.7093 22.9225 14.8152 22.8164C14.921 22.6042 15.2384 22.498 15.4501 22.498ZM25.8204 23.0287H15.4501C15.3443 23.0287 15.2384 23.1348 15.1326 23.1348C15.1326 23.2409 15.0268 23.347 15.0268 23.347V31.2001C15.0268 31.3062 15.1326 31.4123 15.1326 31.4123C15.2384 31.5185 15.3443 31.5185 15.4501 31.5185H25.8204C25.9263 31.5185 26.0321 31.5185 26.1379 31.4123C26.1379 31.4123 26.2437 31.3062 26.2437 31.2001V23.347C26.2437 23.347 26.1379 23.2409 26.1379 23.1348C26.0321 23.1348 25.9263 23.0287 25.8204 23.0287Z" fill="#0057D8"/>
<defs>
<linearGradient id="paint0_linear" x1="9.59624" y1="29.1842" x2="30.4583" y2="4.79317" gradientUnits="userSpaceOnUse">
<stop stop-color="#096BFF"/>
<stop offset="1" stop-color="#3384FF"/>
</linearGradient>
</defs>
</svg>
