<svg width="45" height="42" viewBox="0 0 45 42" fill="none" xmlns="http://www.w3.org/2000/svg">
<rect width="45" height="42" fill="black" fill-opacity="0"/>
<path d="M9.78747 22.0236C7.85169 22.0236 5.95939 22.6093 4.34985 23.7069C2.74031 24.8044 1.48582 26.3643 0.745031 28.1894C0.00424079 30.0145 -0.189584 32.0228 0.188068 33.9603C0.565719 35.8978 1.49788 37.6776 2.86669 39.0744C4.23549 40.4713 5.97945 41.4226 7.87803 41.808C9.77661 42.1934 11.7445 41.9956 13.533 41.2396C15.3214 40.4836 16.85 39.2034 17.9255 37.5609C19.0009 35.9183 19.5749 33.9872 19.5749 32.0117C19.5749 29.3627 18.5438 26.8222 16.7083 24.949C14.8727 23.0759 12.3833 22.0236 9.78747 22.0236ZM9.78747 26.6541C8.39509 26.6541 7.05973 27.2185 6.07517 28.2233C5.09061 29.2281 4.53749 30.5908 4.53749 32.0117C4.53749 32.1809 4.47164 32.3431 4.35443 32.4627C4.23722 32.5823 4.07825 32.6495 3.91249 32.6495C3.74673 32.6495 3.58776 32.5823 3.47055 32.4627C3.35334 32.3431 3.28749 32.1809 3.28749 32.0117C3.28749 30.2525 3.97231 28.5653 5.19129 27.3213C6.41027 26.0773 8.06357 25.3785 9.78747 25.3785C9.95323 25.3785 10.1122 25.4457 10.2294 25.5653C10.3466 25.6849 10.4125 25.8471 10.4125 26.0163C10.4125 26.1854 10.3466 26.3477 10.2294 26.4673C10.1122 26.5869 9.95323 26.6541 9.78747 26.6541Z" fill="url(#paint0_linear)"/>
<path d="M35.2125 22.0236C33.2768 22.0236 31.3845 22.6093 29.7749 23.7069C28.1654 24.8044 26.9109 26.3643 26.1701 28.1894C25.4293 30.0145 25.2355 32.0228 25.6131 33.9603C25.9908 35.8978 26.923 37.6776 28.2918 39.0744C29.6606 40.4713 31.4045 41.4226 33.3031 41.808C35.2017 42.1934 37.1696 41.9956 38.958 41.2396C40.7465 40.4836 42.2751 39.2034 43.3505 37.5609C44.426 35.9183 45 33.9872 45 32.0117C45 29.3627 43.9688 26.8222 42.1333 24.949C40.2978 23.0759 37.8083 22.0236 35.2125 22.0236ZM35.2125 26.6541C33.8202 26.6541 32.4848 27.2185 31.5002 28.2233C30.5157 29.2281 29.9626 30.5908 29.9626 32.0117C29.9626 32.1809 29.8967 32.3431 29.7795 32.4627C29.6623 32.5823 29.5033 32.6495 29.3376 32.6495C29.1718 32.6495 29.0128 32.5823 28.8956 32.4627C28.7784 32.3431 28.7126 32.1809 28.7126 32.0117C28.7126 30.2525 29.3974 28.5653 30.6164 27.3213C31.8353 26.0773 33.4886 25.3785 35.2125 25.3785C35.3783 25.3785 35.5373 25.4457 35.6545 25.5653C35.7717 25.6849 35.8375 25.8471 35.8375 26.0163C35.8375 26.1854 35.7717 26.3477 35.6545 26.4673C35.5373 26.5869 35.3783 26.6541 35.2125 26.6541Z" fill="url(#paint1_linear)"/>
<path d="M25.438 10.3896C24.6555 9.82546 23.721 9.52244 22.763 9.52222H22.238C21.2799 9.52244 20.3454 9.82546 19.563 10.3896V18.7578C20.3391 18.1747 21.2743 17.8536 22.238 17.8393H22.763C23.7211 17.8387 24.6559 18.1418 25.438 18.7067V10.3896Z" fill="url(#paint2_linear)"/>
<g opacity="0.5">
<path d="M19.5619 10.3899V3.50148C19.5702 2.99143 19.4674 2.48586 19.2608 2.02131C19.0543 1.55676 18.7493 1.14482 18.3677 0.815257C17.9862 0.485694 17.5377 0.246739 17.0546 0.115655C16.5715 -0.0154284 16.0659 -0.0353667 15.5744 0.0572811H15.5119C15.0003 0.199209 14.5304 0.466208 14.1427 0.835172C13.755 1.20414 13.4613 1.66395 13.2869 2.17482L11.1369 8.0172C11.0179 8.34259 10.8311 8.63773 10.5894 8.8822C10.3477 9.12668 10.0568 9.31466 9.73689 9.43315C9.43706 9.5407 9.16172 9.7092 8.92753 9.92846C8.69334 10.1477 8.50517 10.4132 8.37439 10.7088L1.96191 26.0163C3.19211 24.3394 4.90837 23.1003 6.86734 22.4747C8.8263 21.849 10.9286 21.8686 12.876 22.5306C14.8235 23.1926 16.5173 24.4634 17.7174 26.1629C18.9174 27.8624 19.5627 29.9042 19.5619 31.999V10.3133V10.3899Z" fill="url(#paint3_linear)"/>
<path d="M36.6239 10.7342C36.4931 10.4386 36.305 10.1732 36.0708 9.95391C35.8366 9.73466 35.5612 9.56615 35.2614 9.4586C34.939 9.33739 34.6465 9.1455 34.4046 8.89645C34.1628 8.6474 33.9773 8.34725 33.8614 8.01714L31.7239 2.20028C31.5501 1.68556 31.2552 1.22221 30.8651 0.850812C30.475 0.479415 30.0016 0.211307 29.4864 0.0699775H29.4239C28.9324 -0.0226702 28.4268 -0.00273201 27.9437 0.128352C27.4606 0.259435 27.0121 0.498391 26.6306 0.827953C26.249 1.15752 25.944 1.56945 25.7375 2.03401C25.531 2.49856 25.4281 3.00412 25.4365 3.51417V32.0117C25.4356 29.9169 26.0809 27.8751 27.2809 26.1756C28.481 24.4761 30.1748 23.2053 32.1223 22.5433C34.0697 21.8813 36.172 21.8617 38.131 22.4874C40.0899 23.113 41.8062 24.3521 43.0364 26.029L36.6239 10.7342Z" fill="url(#paint4_linear)"/>
</g>
<defs>
<linearGradient id="paint0_linear" x1="22.5" y1="-3" x2="22.5" y2="63.7055" gradientUnits="userSpaceOnUse">
<stop stop-color="#4552DD"/>
<stop offset="1" stop-color="#65D3AA"/>
</linearGradient>
<linearGradient id="paint1_linear" x1="22.5" y1="-3" x2="22.5" y2="63.7055" gradientUnits="userSpaceOnUse">
<stop stop-color="#4552DD"/>
<stop offset="1" stop-color="#65D3AA"/>
</linearGradient>
<linearGradient id="paint2_linear" x1="22.5" y1="-3" x2="22.5" y2="63.7055" gradientUnits="userSpaceOnUse">
<stop stop-color="#4552DD"/>
<stop offset="1" stop-color="#65D3AA"/>
</linearGradient>
<linearGradient id="paint3_linear" x1="22.4992" y1="-10.8343" x2="22.4992" y2="42.4704" gradientUnits="userSpaceOnUse">
<stop stop-color="#4552DD"/>
<stop offset="1" stop-color="#65D3AA"/>
</linearGradient>
<linearGradient id="paint4_linear" x1="22.4992" y1="-10.8343" x2="22.4992" y2="42.4704" gradientUnits="userSpaceOnUse">
<stop stop-color="#4552DD"/>
<stop offset="1" stop-color="#65D3AA"/>
</linearGradient>
</defs>
</svg>
