<svg width="1366" height="259" viewBox="0 0 1366 259" fill="none" xmlns="http://www.w3.org/2000/svg" preserveAspectRatio="none">
<rect width="1366" height="259" fill="black" fill-opacity="0"/>
<path fill-rule="evenodd" clip-rule="evenodd" d="M1366 74.9656C1292.14 74.9656 1248.49 122.239 1177.18 120.563C1083.14 118.346 1059.98 53.1089 913.374 53.1089C805.235 53.1089 712.948 118.447 616.969 119.002C344.841 120.563 406.993 -11.6077 0 19.8391V259H1366C1366 189.976 1366 143.99 1366 74.9656Z" fill="url(#paint0_linear)"/>
<path fill-rule="evenodd" clip-rule="evenodd" d="M0 110.397C406.993 -39.6478 598.428 95.8708 749.031 110.461C1028.91 137.573 1119.25 -104.08 1366 54.1307V259H0C0 185.765 0 183.632 0 110.397Z" fill="url(#paint1_linear)"/>
<defs>
<linearGradient id="paint0_linear" x1="885" y1="-845.924" x2="653.315" y2="252.74" gradientUnits="userSpaceOnUse">
<stop stop-color="#1EECC2" stop-opacity="0.39"/>
<stop offset="1" stop-color="#1EECC2" stop-opacity="0"/>
</linearGradient>
<linearGradient id="paint1_linear" x1="683" y1="-1394.79" x2="683" y2="161.244" gradientUnits="userSpaceOnUse">
<stop stop-color="#F6F6FF" stop-opacity="0.38"/>
<stop offset="1" stop-color="#F6F6FF" stop-opacity="0"/>
</linearGradient>
</defs>
</svg>
