<svg width="230" height="37" viewBox="0 0 230 37" fill="none" xmlns="http://www.w3.org/2000/svg">
<rect width="230" height="36.6319" fill="black" fill-opacity="0"/>
<rect width="62.4544" height="32.9621" fill="black" fill-opacity="0" transform="translate(76.2656 3.60315)"/>
<rect width="62.4544" height="32.9621" fill="black" fill-opacity="0" transform="translate(76.2656 3.60315)"/>
<path d="M107.719 9.59627L104.709 4.40223C104.508 4.00269 103.906 3.60315 103.304 3.60315C99.6924 3.60315 99.0904 3.60315 95.0772 3.60315C94.4753 3.60315 93.8733 4.00269 93.472 4.40223L76.4161 33.9683C76.2155 34.5676 76.2155 35.1669 76.4161 35.7662C76.8174 36.1657 77.2187 36.5653 77.8207 36.5653H86.0477L87.2516 34.168L99.0904 13.9912C99.291 13.7914 99.291 13.7914 99.291 13.9912C100.294 15.5894 101.298 17.3873 102.301 18.9855C105.913 12.7926 107.117 10.7949 107.719 9.59627Z" fill="url(#paint0_linear)"/>
<path d="M138.419 33.9683L121.564 4.602C121.163 4.00269 120.561 3.80292 119.959 3.80292C117.35 3.80292 114.14 3.60315 111.732 3.60315C111.13 3.60315 110.528 4.00269 110.327 4.40223L107.518 9.19672L106.113 11.3942L103.304 16.3885L101.9 18.5859L97.2844 26.7765L91.666 36.5653H102.702L103.906 34.168C108.722 25.9774 111.13 21.7823 115.544 14.3908C115.745 13.7914 115.946 14.191 116.146 14.3908L127.784 34.168L128.01 34.5571L129.192 36.5653H131.597H137.015C137.617 36.5653 138.219 36.1657 138.419 35.5664C138.82 35.1669 138.82 34.3678 138.419 33.9683Z" fill="url(#paint1_linear)"/>
<path d="M121.365 4.40223C121.164 4.00269 120.562 3.60315 119.96 3.60315C116.349 3.60315 115.747 3.60315 111.733 3.60315C111.132 3.60315 110.53 4.00269 110.329 4.40223L93.0724 33.9683C92.8717 34.5676 92.8717 35.1669 93.0724 35.7662C93.4737 36.1657 94.0757 36.5653 94.6776 36.5653H102.704L103.908 34.168L115.747 13.9912C117.151 11.594 118.757 9.19672 120.161 6.79948C121.365 4.602 122.569 6.20017 122.368 6.20017C122.368 6.0004 121.766 5.00154 121.365 4.40223Z" fill="url(#paint2_linear)"/>
<path d="M104.709 4.40223C104.508 4.00269 103.906 3.60315 103.304 3.60315C99.6924 3.60315 99.0904 3.60315 95.0772 3.60315C94.4753 3.60315 93.8733 4.00269 93.472 4.40223L76.4161 33.9683C76.2155 34.5676 76.2155 35.1669 76.4161 35.7662C76.8174 36.1657 77.2187 36.5653 77.8207 36.5653H86.0477L87.2516 34.168L99.0904 13.9912C100.495 11.594 102.1 9.19672 103.505 6.79948C104.709 4.602 105.712 6.20017 105.712 6.20017C105.511 6.0004 105.11 5.00154 104.709 4.40223Z" fill="url(#paint3_linear)"/>
<path d="M106.715 7.7981C103.303 13.5914 101.698 16.588 101.297 17.3871C104.106 22.3813 109.524 31.5708 112.333 36.5651H114.942H120.56H123.369L121.965 34.1678L117.349 26.177L106.715 7.7981Z" fill="url(#paint4_linear)"/>
<rect width="230" height="36.6319" fill="black" fill-opacity="0"/>
<path d="M22.9679 34.5265C20.6213 35.93 18.097 36.6318 15.3951 36.6318C13.3046 36.6318 11.3098 36.2013 9.41057 35.3435C7.56944 34.5265 5.93327 33.3738 4.49863 31.8855C3.08448 30.3768 1.98459 28.6579 1.20578 26.7289C0.39965 24.715 0 22.6097 0 20.4094C0 18.2057 0.39965 16.1004 1.20578 14.0899C1.98459 12.1609 3.08448 10.442 4.49863 8.93334C5.93327 7.44501 7.56944 6.28893 9.41057 5.47187C11.3098 4.61413 13.3046 4.18357 15.3951 4.18357C18.097 4.18357 20.6213 4.88535 22.9679 6.28893C25.2258 7.63147 27.0532 9.47578 28.4469 11.8252C27.9414 12.2219 27.1386 12.6626 26.0388 13.144C24.5392 13.7746 23.19 14.0899 21.9842 14.0899H21.7622C20.9594 13.1034 20.0201 12.3372 18.9441 11.7913C17.8237 11.2252 16.6418 10.9438 15.3951 10.9438C14.2337 10.9438 13.1167 11.1946 12.0373 11.6998C11.0228 12.1812 10.1142 12.8525 9.31151 13.7102C8.5327 14.5917 7.92127 15.5986 7.47722 16.731C7.03316 17.904 6.81113 19.1313 6.81113 20.4094C6.81113 21.6875 7.03316 22.9148 7.47722 24.0878C7.92127 25.2202 8.5327 26.2237 9.31151 27.1052C10.1142 27.9866 11.0228 28.6579 12.0373 29.119C13.1167 29.6208 14.2337 29.8716 15.3951 29.8716C16.6418 29.8716 17.8237 29.5902 18.9441 29.0241C20.0201 28.4782 20.9594 27.712 21.7622 26.7289H21.9842C23.19 26.7289 24.5392 27.0543 26.0388 27.7019C27.1591 28.1629 27.9619 28.5935 28.4469 28.9902C27.0532 31.3396 25.2258 33.1839 22.9679 34.5265Z" fill="url(#paint5_linear)"/>
<path d="M158.456 36.6318H151.935V7.33989C151.935 5.55322 153.394 4.10557 155.194 4.10557C156.994 4.10557 158.456 5.55322 158.456 7.33989V36.6318Z" fill="url(#paint6_linear)"/>
<path d="M50.2231 29.7394C45.0106 29.7394 40.7818 25.5422 40.7818 20.3687C40.7818 15.1918 45.0106 10.998 50.2231 10.998C55.439 10.998 59.6644 15.1918 59.6644 20.3687C59.6644 25.5422 55.439 29.7394 50.2231 29.7394ZM50.2231 4.10557C41.1746 4.10557 33.8374 11.3845 33.8374 20.3687C33.8374 29.3495 41.1746 36.6318 50.2231 36.6318C59.275 36.6318 66.6087 29.3495 66.6087 20.3687C66.6087 11.3845 59.275 4.10557 50.2231 4.10557Z" fill="url(#paint7_linear)"/>
<path d="M213.614 29.7394C208.402 29.7394 204.173 25.5422 204.173 20.3687C204.173 15.1918 208.402 10.998 213.614 10.998C218.83 10.998 223.056 15.1918 223.056 20.3687C223.056 25.5422 218.83 29.7394 213.614 29.7394ZM213.614 4.10557C204.566 4.10557 197.229 11.3845 197.229 20.3687C197.229 29.3495 204.566 36.6318 213.614 36.6318C222.666 36.6318 230 29.3495 230 20.3687C230 11.3845 222.666 4.10557 213.614 4.10557Z" fill="url(#paint8_linear)"/>
<path d="M187.047 34.2994C187.231 35.1707 187.323 35.8284 187.323 36.2725C187.323 36.4183 187.317 36.5403 187.296 36.6319L185.452 36.6047C183.231 36.4929 181.435 36.0589 180.055 35.2995C179.423 34.9299 178.91 34.5977 178.518 34.2994C177.138 33.245 176.058 31.9533 175.272 30.4175C174.453 28.8241 174.043 27.1222 174.043 25.3084V12.822H169.988V12.683C169.988 12.0897 170.091 11.4252 170.299 10.6861C170.613 9.55717 171.088 8.65875 171.723 7.99086H174.043V1.72226C174.883 1.09167 175.99 0.620419 177.37 0.305124C178.323 0.101708 179.16 0 179.887 0H180.055V7.99086H186.907V8.13326C186.907 8.72316 186.804 9.39104 186.599 10.1301C186.282 11.2591 185.803 12.1541 185.172 12.822H180.055V25.3084C180.055 26.4373 180.345 27.4103 180.922 28.224C181.37 28.8715 182.002 29.4072 182.825 29.8344C183.737 30.3158 184.649 30.5904 185.564 30.665C186.271 31.5905 186.767 32.8008 187.047 34.2994Z" fill="url(#paint9_linear)"/>
<defs>
<linearGradient id="paint0_linear" x1="82.5172" y1="20.0575" x2="101.422" y2="20.0575" gradientUnits="userSpaceOnUse">
<stop stop-color="#1EECC2"/>
<stop offset="1" stop-color="#32ADAE" stop-opacity="0.972549"/>
</linearGradient>
<linearGradient id="paint1_linear" x1="129.798" y1="20.074" x2="100.596" y2="20.074" gradientUnits="userSpaceOnUse">
<stop stop-color="#2B3ACB"/>
<stop offset="1" stop-color="#4552DD"/>
</linearGradient>
<linearGradient id="paint2_linear" x1="120.914" y1="-3.18905" x2="108.459" y2="20.23" gradientUnits="userSpaceOnUse">
<stop stop-color="#DCE5EC"/>
<stop offset="0.859982" stop-color="#DCE5EC" stop-opacity="0"/>
</linearGradient>
<linearGradient id="paint3_linear" x1="105.762" y1="-5.5863" x2="82.2991" y2="20.2876" gradientUnits="userSpaceOnUse">
<stop stop-color="white"/>
<stop offset="1" stop-color="white" stop-opacity="0"/>
</linearGradient>
<linearGradient id="paint4_linear" x1="107.567" y1="14.7901" x2="124.878" y2="26.2474" gradientUnits="userSpaceOnUse">
<stop stop-color="#33D3D3" stop-opacity="0.03"/>
<stop offset="0.625017" stop-color="#549CCB"/>
</linearGradient>
<linearGradient id="paint5_linear" x1="-8.10704" y1="6.00521" x2="297.758" y2="56.6901" gradientUnits="userSpaceOnUse">
<stop stop-color="white"/>
<stop offset="1" stop-color="white" stop-opacity="0"/>
</linearGradient>
<linearGradient id="paint6_linear" x1="-8.10704" y1="6.00521" x2="297.758" y2="56.6901" gradientUnits="userSpaceOnUse">
<stop stop-color="white"/>
<stop offset="1" stop-color="white" stop-opacity="0"/>
</linearGradient>
<linearGradient id="paint7_linear" x1="-8.10704" y1="6.00521" x2="297.758" y2="56.6901" gradientUnits="userSpaceOnUse">
<stop stop-color="white"/>
<stop offset="1" stop-color="white" stop-opacity="0"/>
</linearGradient>
<linearGradient id="paint8_linear" x1="-8.10704" y1="6.00521" x2="297.758" y2="56.6901" gradientUnits="userSpaceOnUse">
<stop stop-color="white"/>
<stop offset="1" stop-color="white" stop-opacity="0"/>
</linearGradient>
<linearGradient id="paint9_linear" x1="-8.10704" y1="6.00521" x2="297.758" y2="56.6901" gradientUnits="userSpaceOnUse">
<stop stop-color="white"/>
<stop offset="1" stop-color="white" stop-opacity="0"/>
</linearGradient>
</defs>
</svg>
