<svg height="38" viewBox="0 0 239 38" width="239" xmlns="http://www.w3.org/2000/svg" xmlns:xlink="http://www.w3.org/1999/xlink"><linearGradient id="a" x1="19.876%" x2="79.981%" y1="49.919%" y2="49.919%"><stop offset="0" stop-color="#1eecc2"/><stop offset="1" stop-color="#32adae" stop-opacity=".973"/></linearGradient><linearGradient id="b" x1="81.037%" x2="18.978%" y1="49.969%" y2="49.969%"><stop offset="0" stop-color="#2b3acb"/><stop offset="1" stop-color="#4552dd"/></linearGradient><linearGradient id="c" x1="94.989%" x2="52.724%" y1="-20.606%" y2="50.442%"><stop offset="0" stop-color="#dce5ec"/><stop offset=".85998" stop-color="#dce5ec" stop-opacity="0"/></linearGradient><linearGradient id="d" x1="100.171%" x2="20.49%" y1="-27.879%" y2="50.617%"><stop offset="0" stop-color="#fff"/><stop offset="1" stop-color="#fff" stop-opacity="0"/></linearGradient><linearGradient id="e" x1="28.409%" x2="106.834%" y1="24.305%" y2="64.134%"><stop offset="0" stop-color="#33d3d3" stop-opacity=".03"/><stop offset=".62502" stop-color="#549ccb"/></linearGradient><g fill="none" fill-rule="evenodd"><path d="m0 0h238.059v37.916h-238.059z"/><path d="m78.939 3.73h64.642v34.117h-64.642z"/><path d="m78.939 3.73h64.642v34.117h-64.642z"/><g fill-rule="nonzero"><path d="m111.493676 9.93247353-3.115441-5.37603882c-.207323-.41354059-.830411-.82708118-1.4535-.82708118-3.738529 0-4.361617 0-8.5153526 0-.6230883 0-1.2461765.41354059-1.6613824.82708118l-17.6532353 30.60200349c-.2078823.6202942-.2078823 1.2405883 0 1.8609383.4152059.4135294.8304118.8270588 1.4535.8270588h8.5153529l1.2461765-2.4812324 12.2533239-20.8837941c.207882-.2067647.207882-.2067647.207882 0 1.038294 1.6541736 2.076588 3.5151118 3.115441 5.1692294 3.737971-6.4098735 4.984147-8.4775764 5.607235-9.71816467z" fill="url(#a)"/><path d="m143.2695 35.1584382-17.445912-30.3952332c-.415206-.62031088-1.038294-.82708118-1.661382-.82708118-2.699677 0-6.023-.20677029-8.515353-.20677029-.623088 0-1.245618.41354059-1.4535.82708118l-2.907559 4.96250941-1.454059 2.27446768-2.907559 5.1692294-1.454058 2.2744676-4.776824 8.4775765-5.8151175 10.13175h11.4229115l1.246177-2.4812324c4.984706-8.4775764 7.4765-12.819747 12.046-20.4702647.207323-.6202941.415206-.2067647.623088 0l12.046 20.4702647.233029.4026883 1.223824 2.0785441h2.489 5.607794c.623088 0 1.246176-.4135294 1.4535-1.0338794.415206-.4135294.415206-1.2405883 0-1.6541177z" fill="url(#b)"/><path d="m125.617941 4.55643471c-.207882-.41354059-.83097-.82708118-1.4535-.82708118-3.738529 0-4.361617 0-8.515353 0-.623088 0-1.246176.41354059-1.454059.82708118l-17.8611172 30.60200349c-.2078824.6202942-.2078824 1.2405883 0 1.8609383.4152058.4135294 1.0382941.8270588 1.6613823.8270588h8.3074709l1.246176-2.4812324 12.253883-20.8837941c1.4535-2.4812323 3.115441-4.96246468 4.568941-7.44375292 1.246176-2.27445088 2.492353-.62029412 2.28447-.62029412 0-.2067647-.623088-1.24061617-1.038294-1.86092705z" fill="url(#c)"/><path d="m108.378235 4.55643471c-.207323-.41354059-.830411-.82708118-1.4535-.82708118-3.738529 0-4.361617 0-8.5153526 0-.6230883 0-1.2461765.41354059-1.6613824.82708118l-17.6532353 30.60200349c-.2078823.6202942-.2078823 1.2405883 0 1.8609383.4152059.4135294.8304118.8270588 1.4535.8270588h8.5153529l1.2461765-2.4812324 12.2533239-20.8837941c1.454058-2.4812323 3.115441-4.96246468 4.5695-7.44375292 1.245617-2.27445088 2.28447-.62029412 2.28447-.62029412-.207882-.2067647-.623088-1.24061617-1.038853-1.86092705z" fill="url(#d)"/><path d="m110.454265 8.07136765c-3.530647 5.99634415-5.192589 9.09787055-5.607794 9.92498525 2.907558 5.1692295 8.515353 14.6806295 11.422911 19.8499147h2.699677 5.815676 2.907559l-1.454059-2.4812323-4.776823-8.2708118z" fill="url(#e)"/></g><path d="m0 0h238.059v37.916h-238.059z"/><path d="m23.7726882 35.7362059c-2.4288706 1.4527735-5.0415941 2.1791323-7.8381706 2.1791323-2.1637647 0-4.2285058-.4456617-6.19422348-1.3334088-1.90564412-.8457235-3.59915883-2.0388118-5.08404236-3.5792647-1.46369852-1.5615206-2.60212823-3.3405912-3.40822-5.3372676-.83437829-2.0844118-1.24803176-4.2634883-1.24803176-6.5408618 0-2.2808941.41365347-4.4600265 1.24803176-6.5409177.80609177-1.9966764 1.94452148-3.775747 3.40822-5.3372676 1.48488353-1.54050882 3.17839824-2.73706176 5.08404236-3.58272941 1.96571768-.88781412 4.03045878-1.33346471 6.19422348-1.33346471 2.7965765 0 5.4093.72637559 7.8381706 2.17913236 2.3369442 1.38957058 4.22845 3.29851176 5.6709412 5.73028826-.5232265.4105676-1.3540853.8667353-2.4925206 1.3650382-1.5520764.65265-2.9486323.9790029-4.1966529.9790029h-.2297883c-.8308588-1.0211382-1.8031-1.8141647-2.9167794-2.3791352-1.1596706-.5860383-2.3829353-.8772412-3.6733706-.8772412-1.2020852 0-2.3581794.2596294-3.4754352.7825206-1.0500295.498247-1.9904736 1.1930323-2.8213324 2.0808353-.80604706.9123911-1.43891471 1.9545411-1.89854706 3.1265617-.45963235 1.2141559-.68942059 2.4844177-.68942059 3.8073765 0 1.3229029.22978824 2.5931647.68942059 3.8073206.45963235 1.1720206 1.0925 2.2107059 1.89854706 3.1230412.8308588.9123353 1.7713029 1.6071205 2.8213324 2.0843558 1.1172558.5193706 2.27335.7790559 3.4754352.7790559 1.2904353 0 2.5137-.2912588 3.6733706-.877297 1.1136794-.5649706 2.0859206-1.3579971 2.9167794-2.3756147h.2297883c1.2480206 0 2.6445765.3368588 4.1966529 1.0071117 1.1596147.4772353 1.9904736.9228412 2.4925206 1.3334088-1.4424912 2.4317765-3.333997 4.3407177-5.6709412 5.7302883zm140.2353118 2.1791323h-6.749471v-30.31829996c0-1.84925883 1.509942-3.34761559 3.373059-3.34761559 1.863118 0 3.376412 1.49835676 3.376412 3.34761559zm-112.0251735-7.1339411c-5.3951618 0-9.7720912-4.3441824-9.7720912-9.6989971 0-5.3583353 4.3769294-9.6990529 9.7720912-9.6990529 5.39885 0 9.7722029 4.3407176 9.7722029 9.6990529 0 5.3548147-4.3733529 9.6989971-9.7722029 9.6989971zm0-26.53197445c-9.3655471 0-16.9597912 7.53393025-16.9597912 16.83297735 0 9.2954706 7.5942441 16.8329382 16.9597912 16.8329382 9.3692911 0 16.9597911-7.5374676 16.9597911-16.8329382 0-9.2990471-7.5905-16.83297735-16.9597911-16.83297735zm169.1162615 26.53197445c-5.395441 0-9.772147-4.3441824-9.772147-9.6989971 0-5.3583353 4.376706-9.6990529 9.772147-9.6990529 5.398794 0 9.772147 4.3407176 9.772147 9.6990529 0 5.3548147-4.373353 9.6989971-9.772147 9.6989971zm0-26.53197445c-9.365323 0-16.959735 7.53393025-16.959735 16.83297735 0 9.2954706 7.594412 16.8329382 16.959735 16.8329382 9.369236 0 16.959736-7.5374676 16.959736-16.8329382 0-9.2990471-7.5905-16.83297735-16.959736-16.83297735zm-27.498588 31.25174205c.191118.9018294.286676 1.5825882.286676 2.0422765 0 .1508823-.007264.2771764-.0285.3719529l-1.908941-.0281088c-2.298441-.1157882-4.158206-.5649706-5.586-1.3509559-.654382-.3825147-1.184706-.7264147-1.59097-1.0351647-1.428353-1.0913265-2.546-2.4283118-3.359089-4.0178853-.848294-1.6492559-1.272441-3.4108353-1.272441-5.288147v-12.9238559h-4.196764v-.1438971c0-.6140912.106176-1.3018353.321882-2.0668088.325235-1.16855589.816441-2.09843825 1.474176-2.78970295h2.400706v-6.4882653c.86953-.65268353 2.015118-1.14044706 3.443471-1.46678714.986323-.21054347 1.8525-.31581521 2.605794-.31581521h.173235v8.27086765h7.09203v.14736176c0 .61057059-.106177 1.3018353-.31853 2.06680879-.328588 1.1685559-.823706 2.0949177-1.477529 2.7862383h-5.295971v12.9238559c0 1.1685.300089 2.1756117.897471 3.0177588.463265.6702529 1.117647 1.2246617 1.969294 1.6668029.944412.498303 1.888265.7825206 2.835471.85975.732058.9579353 1.2445 2.2107059 1.534529 3.7617206z" fill="#fff" fill-rule="nonzero"/></g></svg>