<svg width="63" height="33" viewBox="0 0 63 33" fill="none" xmlns="http://www.w3.org/2000/svg">
<rect width="62.4544" height="32.9621" fill="black" fill-opacity="0"/>
<path d="M31.453 5.99312L28.4432 0.799082C28.2425 0.399541 27.6405 0 27.0386 0C23.4267 0 22.8248 0 18.8116 0C18.2097 0 17.6077 0.399541 17.2064 0.799082L0.150493 30.3651C-0.0501643 30.9644 -0.0501643 31.5637 0.150493 32.1631C0.551808 32.5626 0.953122 32.9621 1.55509 32.9621H9.78204L10.986 30.5649L22.8248 10.3881C23.0254 10.1883 23.0254 10.1883 23.0254 10.3881C24.0287 11.9862 25.032 13.7842 26.0353 15.3823C29.6471 9.18944 30.8511 7.19174 31.453 5.99312Z" fill="url(#paint0_linear)"/>
<path d="M62.1535 30.3651L45.2983 0.998853C44.897 0.399541 44.295 0.199771 43.6931 0.199771C41.0845 0.199771 37.874 0 35.4661 0C34.8641 0 34.2622 0.399541 34.0615 0.799082L31.2523 5.59358L29.8477 7.79105L27.0385 12.7853L25.6339 14.9828L21.0188 23.1734L15.4004 32.9621H26.4365L27.6405 30.5649C32.4563 22.3743 34.8641 18.1791 39.2786 10.7876C39.4793 10.1883 39.6799 10.5878 39.8806 10.7876L51.5187 30.5649L51.744 30.9539L52.9264 32.9621H55.3312H60.7489C61.3509 32.9621 61.9529 32.5626 62.1535 31.9633C62.5549 31.5637 62.5549 30.7647 62.1535 30.3651Z" fill="url(#paint1_linear)"/>
<path d="M45.0994 0.799082C44.8988 0.399541 44.2968 0 43.6948 0C40.083 0 39.481 0 35.4679 0C34.8659 0 34.2639 0.399541 34.0633 0.799082L16.8067 30.3651C16.6061 30.9644 16.6061 31.5637 16.8067 32.1631C17.2081 32.5626 17.81 32.9621 18.412 32.9621H26.4383L27.6422 30.5649L39.481 10.3881C40.8856 7.99082 42.4909 5.59358 43.8955 3.19633C45.0994 0.998853 46.3034 2.59702 46.1027 2.59702C46.1027 2.39725 45.5007 1.39839 45.0994 0.799082Z" fill="url(#paint2_linear)"/>
<path d="M28.4432 0.799082C28.2425 0.399541 27.6405 0 27.0386 0C23.4267 0 22.8248 0 18.8116 0C18.2097 0 17.6077 0.399541 17.2064 0.799082L0.150493 30.3651C-0.0501643 30.9644 -0.0501643 31.5637 0.150493 32.1631C0.551808 32.5626 0.953122 32.9621 1.55509 32.9621H9.78204L10.986 30.5649L22.8248 10.3881C24.2294 7.99082 25.8346 5.59358 27.2392 3.19633C28.4432 0.998853 29.4465 2.59702 29.4465 2.59702C29.2458 2.39725 28.8445 1.39839 28.4432 0.799082Z" fill="url(#paint3_linear)"/>
<path d="M29.4177 4C26.0066 9.79335 24.4013 12.7899 24 13.589C26.8092 18.5832 32.2269 27.7727 35.0362 32.767H37.6447H43.2631H46.0723L44.6677 30.3697L40.0526 22.3789L29.4177 4Z" fill="url(#paint4_linear)"/>
<defs>
<linearGradient id="paint0_linear" x1="6.25154" y1="16.4543" x2="25.1566" y2="16.4543" gradientUnits="userSpaceOnUse">
<stop stop-color="#1EECC2"/>
<stop offset="1" stop-color="#32ADAE" stop-opacity="0.972549"/>
</linearGradient>
<linearGradient id="paint1_linear" x1="53.5319" y1="16.4708" x2="24.3304" y2="16.4708" gradientUnits="userSpaceOnUse">
<stop stop-color="#2B3ACB"/>
<stop offset="1" stop-color="#4552DD"/>
</linearGradient>
<linearGradient id="paint2_linear" x1="44.6479" y1="-6.7922" x2="32.1931" y2="16.6268" gradientUnits="userSpaceOnUse">
<stop stop-color="#DCE5EC"/>
<stop offset="0.859982" stop-color="#DCE5EC" stop-opacity="0"/>
</linearGradient>
<linearGradient id="paint3_linear" x1="29.4966" y1="-9.18945" x2="6.03349" y2="16.6844" gradientUnits="userSpaceOnUse">
<stop stop-color="white"/>
<stop offset="1" stop-color="white" stop-opacity="0"/>
</linearGradient>
<linearGradient id="paint4_linear" x1="30.2705" y1="10.992" x2="47.5808" y2="22.4493" gradientUnits="userSpaceOnUse">
<stop stop-color="#33D3D3" stop-opacity="0.03"/>
<stop offset="0.625017" stop-color="#549CCB"/>
</linearGradient>
</defs>
</svg>
