<svg xmlns="http://www.w3.org/2000/svg" xmlns:xlink="http://www.w3.org/1999/xlink" viewBox="0 0 488.14 319.79"><defs><style>.cls-1{fill:none;clip-rule:evenodd;}.cls-2{clip-path:url(#clip-path);}.cls-3{fill:url(#linear-gradient);}.cls-4{clip-path:url(#clip-path-2);}.cls-5{fill:url(#linear-gradient-2);}.cls-6{clip-path:url(#clip-path-3);}.cls-7{fill:url(#linear-gradient-3);}.cls-8{clip-path:url(#clip-path-4);}.cls-9{fill:url(#linear-gradient-4);}.cls-10{clip-path:url(#clip-path-5);}.cls-11{fill:url(#linear-gradient-5);}.cls-12{clip-path:url(#clip-path-6);}.cls-13{fill:url(#linear-gradient-6);}.cls-14{fill:#4d4d4d;}.cls-15{opacity:0.3;}.cls-16{fill:url(#linear-gradient-7);}.cls-17{fill:url(#linear-gradient-8);}.cls-18{fill:url(#linear-gradient-9);}.cls-19{fill:url(#linear-gradient-10);}.cls-20{fill:url(#linear-gradient-11);}.cls-21{fill:url(#linear-gradient-12);}.cls-22{fill:url(#linear-gradient-13);}.cls-23{fill:url(#linear-gradient-14);}.cls-24{fill:url(#linear-gradient-15);}.cls-25{fill:url(#linear-gradient-16);}</style><clipPath id="clip-path"><path class="cls-1" d="M368.63,31.45l50.55-14.3Q444.45,10,469.74,2.86c10.11-2.86,18.4,12.36,18.4,33.82v117c0,21.45-8.28,36.65-18.4,33.79q-25.29-7.14-50.56-14.31l-50.55-14.32c-10.11-2.86-18.39-15.74-18.39-28.61V60c0-12.87,8.28-25.73,18.39-28.59"/></clipPath><linearGradient id="linear-gradient" x1="-187.82" y1="479.25" x2="-184.14" y2="479.25" gradientTransform="translate(-9128.65 15566.89) rotate(180) scale(50.92 32.28)" gradientUnits="userSpaceOnUse"><stop offset="0" stop-color="#003d41"/><stop offset="1" stop-color="#8fc575"/></linearGradient><clipPath id="clip-path-2"><path class="cls-1" d="M119.51,31.45,69,17.15Q43.69,10,18.39,2.86C8.29,0,0,15.22,0,36.68v117c0,21.45,8.29,36.65,18.39,33.79q25.3-7.14,50.57-14.31l50.55-14.32c10.11-2.86,18.38-15.74,18.38-28.61V60c0-12.87-8.27-25.73-18.38-28.59"/></clipPath><linearGradient id="linear-gradient-2" x1="-176.2" y1="480.32" x2="-173.21" y2="480.32" gradientTransform="translate(8864.63 -15410.99) scale(49.92 32.28)" gradientUnits="userSpaceOnUse"><stop offset="0" stop-color="#7ed688"/><stop offset="1" stop-color="#c2f8a8"/></linearGradient><clipPath id="clip-path-3"><path class="cls-1" d="M279.73,31.45,305,17.15Q317.65,10,330.29,2.86c5-2.86,9.19,12.36,9.19,33.82v117c0,21.45-4.14,36.65-9.19,33.79q-12.65-7.14-25.29-14.31l-25.27-14.32c-5.05-2.86-9.19-15.74-9.19-28.61V60c0-12.87,4.13-25.73,9.19-28.59"/></clipPath><linearGradient id="linear-gradient-3" x1="-193.84" y1="479.25" x2="-189.36" y2="479.25" gradientTransform="translate(-4332.55 15566.89) rotate(180) scale(24.03 32.28)" gradientUnits="userSpaceOnUse"><stop offset="0" stop-color="#005741"/><stop offset="1" stop-color="#8fc575"/></linearGradient><clipPath id="clip-path-4"><path class="cls-1" d="M208.41,31.45l-25.27-14.3Q170.5,10,157.85,2.86c-5-2.86-9.19,12.36-9.19,33.82v117c0,21.45,4.14,36.65,9.19,33.79q12.65-7.14,25.29-14.31l25.27-14.32c5.05-2.86,9.19-15.74,9.19-28.61V60c0-12.87-4.13-25.73-9.19-28.59"/></clipPath><linearGradient id="linear-gradient-4" x1="-169.76" y1="480.32" x2="-166.66" y2="480.32" gradientTransform="translate(4487.78 -15410.99) scale(25.36 32.28)" gradientUnits="userSpaceOnUse"><stop offset="0" stop-color="#65bd6f"/><stop offset="1" stop-color="#c2f8a8"/></linearGradient><clipPath id="clip-path-5"><path class="cls-1" d="M250.83,31.45l3.78-14.3Q256.5,10,258.4,2.86c.75-2.86,1.38,12.36,1.38,33.82v117c0,21.45-.63,36.65-1.38,33.79q-1.9-7.14-3.79-14.31l-3.78-14.32c-.76-2.86-1.38-15.74-1.38-28.61V60c0-12.87.62-25.73,1.38-28.59"/></clipPath><linearGradient id="linear-gradient-5" x1="-260.75" y1="479.24" x2="-255.01" y2="479.24" gradientTransform="translate(-698.14 15566.9) rotate(180) scale(3.67 32.28)" gradientUnits="userSpaceOnUse"><stop offset="0" stop-color="#187041"/><stop offset="1" stop-color="#f5f8ff"/></linearGradient><clipPath id="clip-path-6"><path class="cls-1" d="M237.31,31.45l-3.78-14.3Q231.64,10,229.74,2.86C229,0,228.36,15.22,228.36,36.68v117c0,21.45.62,36.65,1.38,33.79q1.89-7.14,3.79-14.31l3.78-14.32c.76-2.86,1.38-15.74,1.38-28.61V60c0-12.87-.62-25.73-1.38-28.59"/></clipPath><linearGradient id="linear-gradient-6" x1="-129.31" y1="480.32" x2="-123.57" y2="480.32" gradientTransform="translate(935.95 -15410.99) scale(5.47 32.28)" gradientUnits="userSpaceOnUse"><stop offset="0" stop-color="#4ba354"/><stop offset="1" stop-color="#f6f6fb"/></linearGradient><linearGradient id="linear-gradient-7" x1="215.96" y1="319.35" x2="215.96" y2="288.13" gradientUnits="userSpaceOnUse"><stop offset="0" stop-color="#fefefe" stop-opacity="0"/><stop offset="0.54" stop-color="#fefefe" stop-opacity="0"/><stop offset="1" stop-color="#e6e5e5"/></linearGradient><linearGradient id="linear-gradient-8" x1="183.27" y1="318.46" x2="183.27" y2="288.13" xlink:href="#linear-gradient-7"/><linearGradient id="linear-gradient-9" x1="159.97" y1="318.46" x2="159.97" y2="288.13" xlink:href="#linear-gradient-7"/><linearGradient id="linear-gradient-10" x1="85.52" y1="319.79" x2="85.52" y2="288.13" xlink:href="#linear-gradient-7"/><linearGradient id="linear-gradient-11" x1="125.45" y1="318.46" x2="125.45" y2="288.13" xlink:href="#linear-gradient-7"/><linearGradient id="linear-gradient-12" x1="362.44" y1="319.79" x2="362.44" y2="288.13" xlink:href="#linear-gradient-7"/><linearGradient id="linear-gradient-13" x1="402.51" y1="318.46" x2="402.51" y2="288.13" xlink:href="#linear-gradient-7"/><linearGradient id="linear-gradient-14" x1="297.86" y1="318.46" x2="297.86" y2="288.13" xlink:href="#linear-gradient-7"/><linearGradient id="linear-gradient-15" x1="257.57" y1="319.79" x2="257.57" y2="288.13" xlink:href="#linear-gradient-7"/><linearGradient id="linear-gradient-16" x1="322.21" y1="318.46" x2="322.21" y2="288.13" xlink:href="#linear-gradient-7"/></defs><title>down-Asset 1</title><g id="Layer_2" data-name="Layer 2"><g id="Layer_1-2" data-name="Layer 1"><g class="cls-2"><rect class="cls-3" x="350.24" width="137.9" height="190.33"/></g><g class="cls-4"><rect class="cls-5" width="137.89" height="190.33"/></g><g class="cls-6"><rect class="cls-7" x="270.54" width="68.95" height="190.33"/></g><g class="cls-8"><rect class="cls-9" x="148.66" width="68.95" height="190.33"/></g><g class="cls-10"><rect class="cls-11" x="249.45" width="10.33" height="190.33"/></g><g class="cls-12"><rect class="cls-13" x="228.36" width="10.33" height="190.33"/></g><path class="cls-14" d="M427,258.06c-1-.16-2.16-.29-3.46-.4s-2.73-.15-4.27-.15a73.08,73.08,0,0,0-13.44,1.23A60.59,60.59,0,0,0,395,261.82v56.56h15v-47.5a16.1,16.1,0,0,1,3.42-.9,26.47,26.47,0,0,1,7.66-.08,20.83,20.83,0,0,1,3.17.65Zm-52.52,23.87-25,3.42a23.6,23.6,0,0,1,1.88-9.34,12.2,12.2,0,0,1,11.71-7.56,11.57,11.57,0,0,1,6,1.51,9.72,9.72,0,0,1,3.94,4.49A17.89,17.89,0,0,1,374.52,281.93Zm14.58,2.65a34.56,34.56,0,0,0-1.69-11.09,23.83,23.83,0,0,0-5-8.54,21.57,21.57,0,0,0-8-5.49,29.34,29.34,0,0,0-10.95-1.95,28.81,28.81,0,0,0-11.64,2.28,24.26,24.26,0,0,0-8.67,6.41,28.11,28.11,0,0,0-5.43,9.81,40.05,40.05,0,0,0-1.88,12.54,39.13,39.13,0,0,0,1.93,12.62,27.14,27.14,0,0,0,5.73,9.83,25.17,25.17,0,0,0,9.39,6.43,35.45,35.45,0,0,0,13,2.28,62.62,62.62,0,0,0,8.43-.55,57.57,57.57,0,0,0,7.57-1.51,32.48,32.48,0,0,0,6-2.25l-4.3-11.27a28.46,28.46,0,0,1-4.85,2,38.13,38.13,0,0,1-5.71,1.32,39.3,39.3,0,0,1-6,.48,20.4,20.4,0,0,1-7.84-1.43,13.71,13.71,0,0,1-5.71-4.35,15.91,15.91,0,0,1-2.91-7.26l38.34-5.19c.11-.89.16-1.75.2-2.58S389.1,285.41,389.1,284.58Zm-59.37,33.8V231.66h-15v86.72Zm-24.36,0V231.66h-15v86.72Zm-35.72-36.45-25,3.42a23.79,23.79,0,0,1,1.87-9.34,12.87,12.87,0,0,1,4.76-5.67,12.72,12.72,0,0,1,7-1.89,11.57,11.57,0,0,1,6,1.51,9.72,9.72,0,0,1,3.94,4.49A17.89,17.89,0,0,1,269.65,281.93Zm14.58,2.65a34.56,34.56,0,0,0-1.69-11.09,23.69,23.69,0,0,0-5-8.54,21.57,21.57,0,0,0-8-5.49,29.34,29.34,0,0,0-10.95-1.95A28.81,28.81,0,0,0,247,259.79a24.17,24.17,0,0,0-8.67,6.41,28.29,28.29,0,0,0-5.44,9.81A40.35,40.35,0,0,0,231,288.55a39.13,39.13,0,0,0,1.93,12.62,27.29,27.29,0,0,0,5.73,9.83,25.17,25.17,0,0,0,9.39,6.43,35.45,35.45,0,0,0,13,2.28,62.62,62.62,0,0,0,8.43-.55,57.57,57.57,0,0,0,7.57-1.51,32.48,32.48,0,0,0,6-2.25l-4.3-11.27a28.46,28.46,0,0,1-4.85,2,38.28,38.28,0,0,1-5.7,1.32,39.5,39.5,0,0,1-6,.48,20.42,20.42,0,0,1-7.85-1.43,13.71,13.71,0,0,1-5.71-4.35,15.91,15.91,0,0,1-2.91-7.26L284,289.66c.11-.89.17-1.75.2-2.58S284.23,285.41,284.23,284.58Zm-55.28,33V305.13a11.87,11.87,0,0,1-2,.6,12.37,12.37,0,0,1-2.35.28,9.38,9.38,0,0,1-3.5-.61,4.94,4.94,0,0,1-2.43-2.06,7.3,7.3,0,0,1-.92-3.85V270.1H229V258.84H217.79V241.27L203,245.58v13.26h-7.62V270.1H203v30.39q0,9.36,4.14,14.07t12.77,4.71a29.11,29.11,0,0,0,6.74-.83A14.79,14.79,0,0,0,229,317.61Zm-38.17.77V258.84h-15v59.54Zm1.11-77.22a7.71,7.71,0,0,0-1.18-4.11,8.28,8.28,0,0,0-3.09-2.87,9.28,9.28,0,0,0-8.69,0,8.39,8.39,0,0,0-3.1,2.87,7.77,7.77,0,0,0,0,8.23,8.46,8.46,0,0,0,3.1,2.93,9,9,0,0,0,8.69,0,8.36,8.36,0,0,0,3.09-2.93A7.72,7.72,0,0,0,191.89,241.16Zm-24.35,77.22V277.62a20.3,20.3,0,0,0-2.78-10.92,17.45,17.45,0,0,0-8.51-6.83c-3.83-1.57-8.67-2.34-14.57-2.36a69.23,69.23,0,0,0-13.2,1.2,57.86,57.86,0,0,0-10.55,3.11v56.56h15V271a20,20,0,0,1,3.9-1,28.8,28.8,0,0,1,5-.43c3.44,0,6,.89,7.82,2.56a9.29,9.29,0,0,1,2.67,7.05v39.22Zm-57.61-3V258.84h-15V306a17.88,17.88,0,0,1-3.54.92,32.92,32.92,0,0,1-5.19.41c-3.31,0-5.82-.76-7.51-2.29s-2.54-3.9-2.54-7.1V258.84h-15v38.78q0,7.69,2.86,12.59a16.87,16.87,0,0,0,8.41,7.22,36,36,0,0,0,13.81,2.28,74,74,0,0,0,9.14-.55,66.93,66.93,0,0,0,8.21-1.51A33.49,33.49,0,0,0,109.93,315.4Z"/><g class="cls-15"><path class="cls-16" d="M224.64,306.09a9.58,9.58,0,0,1-3.5-.61,5,5,0,0,1-2.43-2.06,7.3,7.3,0,0,1-.92-3.85V288.13H203v12.43q0,9.38,4.14,14.07t12.77,4.72a27.65,27.65,0,0,0,3.57-.25,25.75,25.75,0,0,0,3.17-.58,14.79,14.79,0,0,0,2.32-.83V305.2a11.79,11.79,0,0,1-2,.61A12.37,12.37,0,0,1,224.64,306.09Z"/><rect class="cls-17" x="175.76" y="288.13" width="15.03" height="30.33"/><rect class="cls-18" x="152.4" y="288.13" width="15.14" height="30.33"/><path class="cls-19" d="M94.91,288.13v18a18.6,18.6,0,0,1-3.54.92,33,33,0,0,1-5.19.4c-3.31,0-5.82-.75-7.51-2.28s-2.54-3.9-2.54-7.11v-9.89h-15v9.56q0,7.71,2.86,12.59a16.82,16.82,0,0,0,8.41,7.22,36,36,0,0,0,13.81,2.29,74,74,0,0,0,9.14-.56,65.15,65.15,0,0,0,8.21-1.5,34.92,34.92,0,0,0,6.4-2.25V288.13Z"/><rect class="cls-20" x="117.93" y="288.13" width="15.02" height="30.33"/><path class="cls-21" d="M389,288.13H335.86c0,.17,0,.33,0,.5a39.22,39.22,0,0,0,1.93,12.62,27.23,27.23,0,0,0,5.73,9.83,25.15,25.15,0,0,0,9.39,6.42,35.2,35.2,0,0,0,13,2.29,62.6,62.6,0,0,0,8.43-.56,56,56,0,0,0,7.57-1.5,34,34,0,0,0,6-2.25l-4.3-11.27a28.47,28.47,0,0,1-4.85,2A39.9,39.9,0,0,1,367,308a20.22,20.22,0,0,1-7.84-1.44,13.63,13.63,0,0,1-5.71-4.35,15.83,15.83,0,0,1-2.91-7.25l38.34-5.2C389,289.19,389,288.66,389,288.13Z"/><rect class="cls-22" x="395" y="288.13" width="15.03" height="30.33"/><rect class="cls-23" x="290.35" y="288.13" width="15.02" height="30.33"/><path class="cls-24" d="M284.15,288.13H231c0,.17,0,.33,0,.5a39.22,39.22,0,0,0,1.93,12.62,27.37,27.37,0,0,0,5.73,9.83A25.15,25.15,0,0,0,248,317.5a35.24,35.24,0,0,0,13,2.29,62.6,62.6,0,0,0,8.43-.56,56,56,0,0,0,7.57-1.5,34,34,0,0,0,6-2.25l-4.3-11.27a28.47,28.47,0,0,1-4.85,2A39.77,39.77,0,0,1,262.14,308a20.23,20.23,0,0,1-7.85-1.44,13.63,13.63,0,0,1-5.71-4.35,15.83,15.83,0,0,1-2.91-7.25l38.34-5.2C284.08,289.19,284.12,288.66,284.15,288.13Z"/><rect class="cls-25" x="314.7" y="288.13" width="15.03" height="30.33"/></g></g></g></svg>