<svg width="63" height="34" viewBox="0 0 63 34" fill="none" xmlns="http://www.w3.org/2000/svg">
<rect width="62.4544" height="32.9621" fill="black" fill-opacity="0" transform="translate(0.265625 0.603149)"/>
<path d="M31.7187 6.59627L28.7088 1.40223C28.5081 1.00269 27.9062 0.603149 27.3042 0.603149C23.6924 0.603149 23.0904 0.603149 19.0772 0.603149C18.4753 0.603149 17.8733 1.00269 17.472 1.40223L0.416118 30.9683C0.215461 31.5676 0.215461 32.1669 0.416118 32.7662C0.817433 33.1657 1.21875 33.5653 1.82072 33.5653H10.0477L11.2516 31.168L23.0904 10.9912C23.291 10.7914 23.291 10.7914 23.291 10.9912C24.2943 12.5894 25.2976 14.3873 26.3009 15.9855C29.9127 9.79259 31.1167 7.79489 31.7187 6.59627Z" fill="url(#paint0_linear)"/>
<path d="M62.4192 30.9683L45.5639 1.602C45.1626 1.00269 44.5607 0.80292 43.9587 0.80292C41.3501 0.80292 38.1396 0.603149 35.7317 0.603149C35.1298 0.603149 34.5278 1.00269 34.3271 1.40223L31.5179 6.19672L30.1133 8.3942L27.3041 13.3885L25.8995 15.5859L21.2844 23.7765L15.666 33.5653H26.7022L27.9061 31.168C32.7219 22.9774 35.1298 18.7823 39.5442 11.3908C39.7449 10.7914 39.9455 11.191 40.1462 11.3908L51.7843 31.168L52.0097 31.5571L53.192 33.5653H55.5968H61.0146C61.6165 33.5653 62.2185 33.1657 62.4192 32.5664C62.8205 32.1669 62.8205 31.3678 62.4192 30.9683Z" fill="url(#paint1_linear)"/>
<path d="M45.365 1.40223C45.1644 1.00269 44.5624 0.603149 43.9604 0.603149C40.3486 0.603149 39.7466 0.603149 35.7335 0.603149C35.1315 0.603149 34.5296 1.00269 34.3289 1.40223L17.0724 30.9683C16.8717 31.5676 16.8717 32.1669 17.0724 32.7662C17.4737 33.1657 18.0757 33.5653 18.6776 33.5653H26.7039L27.9079 31.168L39.7466 10.9912C41.1512 8.59397 42.7565 6.19672 44.1611 3.79948C45.365 1.602 46.569 3.20017 46.3683 3.20017C46.3683 3.0004 45.7664 2.00154 45.365 1.40223Z" fill="url(#paint2_linear)"/>
<path d="M28.7088 1.40223C28.5081 1.00269 27.9062 0.603149 27.3042 0.603149C23.6924 0.603149 23.0904 0.603149 19.0772 0.603149C18.4753 0.603149 17.8733 1.00269 17.472 1.40223L0.416118 30.9683C0.215461 31.5676 0.215461 32.1669 0.416118 32.7662C0.817433 33.1657 1.21875 33.5653 1.82072 33.5653H10.0477L11.2516 31.168L23.0904 10.9912C24.495 8.59397 26.1003 6.19672 27.5049 3.79948C28.7088 1.602 29.7121 3.20017 29.7121 3.20017C29.5114 3.0004 29.1101 2.00154 28.7088 1.40223Z" fill="url(#paint3_linear)"/>
<path d="M30.7146 4.7981C27.3034 10.5914 25.6982 13.588 25.2969 14.3871C28.1061 19.3813 33.5238 28.5708 36.333 33.5651H38.9416H44.56H47.3692L45.9646 31.1678L41.3495 23.177L30.7146 4.7981Z" fill="url(#paint4_linear)"/>
<defs>
<linearGradient id="paint0_linear" x1="6.51716" y1="17.0575" x2="25.4222" y2="17.0575" gradientUnits="userSpaceOnUse">
<stop stop-color="#1EECC2"/>
<stop offset="1" stop-color="#32ADAE" stop-opacity="0.972549"/>
</linearGradient>
<linearGradient id="paint1_linear" x1="53.7975" y1="17.074" x2="24.5961" y2="17.074" gradientUnits="userSpaceOnUse">
<stop stop-color="#2B3ACB"/>
<stop offset="1" stop-color="#4552DD"/>
</linearGradient>
<linearGradient id="paint2_linear" x1="44.9136" y1="-6.18905" x2="32.4587" y2="17.23" gradientUnits="userSpaceOnUse">
<stop stop-color="#DCE5EC"/>
<stop offset="0.859982" stop-color="#DCE5EC" stop-opacity="0"/>
</linearGradient>
<linearGradient id="paint3_linear" x1="29.7622" y1="-8.5863" x2="6.29911" y2="17.2876" gradientUnits="userSpaceOnUse">
<stop stop-color="white"/>
<stop offset="1" stop-color="white" stop-opacity="0"/>
</linearGradient>
<linearGradient id="paint4_linear" x1="31.5674" y1="11.7901" x2="48.8776" y2="23.2474" gradientUnits="userSpaceOnUse">
<stop stop-color="#33D3D3" stop-opacity="0.03"/>
<stop offset="0.625017" stop-color="#549CCB"/>
</linearGradient>
</defs>
</svg>
