<svg height="37" viewBox="0 0 191 37" width="191" xmlns="http://www.w3.org/2000/svg"><g fill="none"><g fill="#2a2a2a"><path d="m7.849 32.239c-.131 0-.238-.104-.238-.235 0-.037.008-.068.023-.101l4.09-8.88c.025-.054.071-.097.128-.118l1.884-.762c.121-.05.261.011.309.133.049.121-.01.257-.13.308l-1.796.726-4.052 8.79c-.039.086-.124.139-.218.139z"/><path d="m13.626 22.698-.133-.333.167-.064 43.683-17.881-47.188 13.591-.101-.341 49.568-14.045z"/><path d="m41.138 24.207c-.131.004-.238-.104-.24-.232-.001-.071.031-.14.085-.186l26.663-22.902h-55.038l-11.242 10.117 9.049 6.594c.018.015.035.029.048.047l3.547 4.574c.079.104.06.254-.046.333-.103.075-.249.057-.329-.043l-3.526-4.546-9.26-6.748c-.105-.077-.129-.228-.051-.333.01-.012.021-.024.033-.035l11.525-10.375c.043-.04.1-.061.159-.061h55.771c.132 0 .238.107.238.238 0 .069-.03.134-.082.181l-27.15 23.32c-.043.036-.099.057-.154.057z"/></g><path d="m7.661 31.835-2.205 4.753h21.668l5.354-4.76" fill="#44ac59"/><path d="m51.546 31.824v-16.66l-9.578 8.417-5.014-8.67h-4.477v16.914h3.726v-10.865l4.067 7.468h3.588l3.964-7.399v10.796h3.724zm138.702-.032v-16.881h-3.826v6.525h-8.305v-6.525h-3.861v16.881h3.861v-6.869h8.302v6.869zm-57.203-7.553c-.135 2.564-.275 3.283-.649 3.794-.409.443-.888.719-1.605.719-.272 0-.819-.035-.819-.035v3.247c.409.032 1.162.104 1.64.104 1.4 0 2.63-.207 3.415-.926.787-.716 1.607-1.638 1.814-5.089.068-1.266.306-7.655.306-7.655h6.663v13.431h3.863v-16.917h-14.39c-.035 1.194-.101 6.867-.238 9.327zm-28.327 3.04v-12.265c-.618-.104-3.042-.445-6.631-.445-6.764 0-10.318 3.792-10.318 9.466 0 2.765.717 4.75 1.948 6.115 1.398 1.538 3.552 2.153 5.226 2.153 4.409 0 5.979-2.7 5.979-2.7l.138.072s-.034.171-.034.443c0 1.741 1.777 2.152 3.314 2.152 1.674 0 2.596-.136 2.596-.136v-3.283c-.203.036-.375.036-.75.036-.787 0-1.468-.137-1.468-1.605zm-3.864-3.107c0 2.256-2.149 4.713-4.92 4.713-1.571 0-2.562-.683-3.281-1.57-.511-.75-.887-2.017-.887-3.418 0-1.774.511-3.483 1.605-4.543.854-.854 2.493-1.47 4.577-1.47 1.368 0 2.904.274 2.904.274zm-25.833-9.261v16.914h3.896v-13.427h7.449v-3.487h-11.344zm35.813 0v16.914h3.86v-13.427h8.405v13.427h3.898v-16.914zm-47.191-.444c-2.427 0-4.204.582-5.878 2.153-1.742 1.605-2.699 3.893-2.699 6.801 0 2.597.889 4.988 2.426 6.454 1.676 1.643 4.273 2.461 7.725 2.461 1.81 0 3.588-.308 4.988-.751v-3.04c-.787.137-2.803.479-4.956.479-2.017 0-3.483-.308-4.442-1.062-.717-.548-1.537-1.402-1.811-3.008h12.131c.137-.751.205-1.878.205-3.108-.001-4.236-2.905-7.379-7.689-7.379zm-4.581 7.244c.207-1.23.686-2.256 1.402-2.972.684-.685 1.812-1.094 3.145-1.094 1.299 0 2.152.409 2.87 1.093.648.718.956 1.912.956 2.974h-8.373zm109.043 5.568v-12.267c-.615-.102-3.041-.443-6.631-.443-6.766 0-10.319 3.792-10.319 9.466 0 2.765.718 4.75 1.948 6.115 1.402 1.538 3.555 2.153 5.229 2.153 4.408 0 5.979-2.7 5.979-2.7l.138.072s-.034.171-.034.443c0 1.741 1.777 2.152 3.316 2.152 1.672 0 2.597-.136 2.597-.136v-3.283c-.207.036-.376.036-.753.036-.787 0-1.469-.137-1.469-1.605v-.003zm-3.86-3.107c0 2.256-2.155 4.713-4.922 4.713-1.571 0-2.562-.683-3.281-1.57-.512-.75-.886-2.017-.886-3.418 0-1.774.543-3.451 1.605-4.543.887-.82 2.492-1.47 4.578-1.47 1.365 0 2.902.274 2.902.274v6.014z" fill="#2a2a2a"/></g></svg>