<svg height="47" viewBox="0 0 240 47" width="240" xmlns="http://www.w3.org/2000/svg"><g fill="none" fill-rule="evenodd" transform="translate(0 -.621)"><g fill="#bfc0bf"><path d="m9.7539 34.3516c0 3.082 1.141 4.621 3.42 4.621 2.439-.039 4.46-1.34 6.06-3.9.56-.879 1.02-1.959 1.38-3.241 0-4.479.4-8.318 1.201-11.52-3.241.641-6.061 2.201-8.461 4.68-2.4 2.481-3.6 5.602-3.6 9.36m28.32-3.6c.72 0 1.08.922 1.08 2.76 0 1-.42 2.211-1.259 3.631-.84 1.42-1.931 2.721-3.271 3.9-1.341 1.18-2.83 2.151-4.47 2.911-1.64.759-3.24 1.138-4.8 1.138-2.121 0-3.539-1.859-4.26-5.58-1.041 1.721-2.401 3.131-4.08 4.231-1.68 1.101-3.93 1.65-6.75 1.65-2.821 0-5.09-.879-6.81-2.641-1.72-1.759-2.56-3.9-2.52-6.42 0-6.798 2.259-12.158 6.78-16.08 1.921-1.639 3.71-2.719 5.37-3.239s3.41-.781 5.25-.781 3.34.321 4.5.96c.56-1.159 1.2-1.739 1.92-1.739 1.4 0 2.73.609 3.99 1.83s1.891 2.369 1.891 3.449c-.562 1.321-1.381 2.901-2.461 4.741-.32 1.839-.481 4.42-.481 7.74 0 3.321.421 4.979 1.261 4.979 1.04 0 3.56-2.078 7.56-6.238.72-.801 1.24-1.202 1.56-1.202"/><path d="m64.5332 26.6714c0-1.319-.76-1.98-2.28-1.98-1.04 0-2.2 1.011-3.48 3.031-1.281 2.02-2.201 4.19-2.76 6.51v.119c0 1.362.209 2.762.629 4.201.42 1.44.631 2.44.631 3 0 1.36-1.701 2.7-5.1 4.02-.521.199-.981.301-1.38.301-1 0-1.691-.522-2.071-1.561s-.57-2.449-.57-4.23c0-1.78.051-3.459.151-5.039.099-1.58.2-3.039.3-4.381.1-1.34.2-2.52.299-3.54.1-1.02.151-1.849.151-2.49 0-1.359-.621-2.04-1.86-2.04-1.24 0-2.681 1.45-4.32 4.349-1.641 2.902-2.46 5.201-2.46 6.9 0 1.702.21 3.272.63 4.711.42 1.44.63 2.44.63 3 0 1.36-1.701 2.7-5.1 4.02-.52.199-.981.301-1.38.301-1 0-1.69-.522-2.07-1.561-.381-1.039-.57-2.64-.57-4.801 0-5.679.219-9.779.66-12.299.599-3.721 1.959-7.24 4.08-10.561.72-1.119 1.5-1.679 2.34-1.679 1.32 0 2.54 1.08 3.66 3.24.32.561.559 1.08.72 1.56 1.92-2.4 4.179-3.601 6.78-3.601 1.719 0 3.26.57 4.62 1.711 1.359 1.14 2.04 2.57 2.04 4.289v.66c2.439-3.039 5.42-4.559 8.939-4.559 2.161 0 3.801.56 4.92 1.68 1.12 1.119 1.681 2.5 1.681 4.14s-.12 3.12-.36 4.441c-.241 1.318-.51 2.558-.81 3.719-.3 1.16-.57 2.189-.81 3.089-.24.901-.361 1.602-.361 2.1 0 .502.16.75.481.75.599 0 1.339-.379 2.22-1.139.879-.759 1.76-1.589 2.64-2.49.88-.9 1.689-1.73 2.43-2.49.739-.76 1.25-1.141 1.53-1.141.559 0 .84.682.84 2.041 0 2.801-1.41 5.52-4.231 8.16-2.819 2.639-5.83 3.959-9.029 3.959-2.881 0-4.32-2.619-4.32-7.859 0-1.32.219-3.141.66-5.461.439-2.318.66-4.019.66-5.1"/><path d="m96.9932 32.8516c.68-1.439 1.021-2.84 1.021-4.199 0-1.36-.442-2.04-1.321-2.04-.36 0-.66.26-.9.78s-.36 1.02-.36 1.5c0 1.6.52 2.92 1.56 3.959m.54 6.961c-3.16 3.721-6.951 5.58-11.37 5.58-4.421 0-7.731-1.131-9.93-3.391-2.2-2.259-3.28-5.07-3.24-8.429-.04-4.76 1.46-8.86 4.5-12.301 3.04-3.439 7.021-5.159 11.94-5.159 2.24 0 4.04.28 5.4.84 2.36.959 3.54 1.859 3.54 2.699 0 .641-1.65.971-4.949.991-3.301.02-6.061 1.16-8.282 3.419-2.218 2.26-3.33 5.11-3.33 8.552 0 1.799.531 3.308 1.591 4.529s2.56 1.83 4.5 1.83 3.55-.4 4.83-1.201c-2.841-1.92-4.26-4.699-4.26-8.34-.041-1.919.65-3.668 2.07-5.249 1.42-1.58 3.24-2.38 5.46-2.4s3.809.59 4.77 1.83c.96 1.24 1.44 2.83 1.44 4.77s-.46 3.99-1.38 6.151h.36c1.76-.041 3.28-.661 4.56-1.862.48-.48.889-.9 1.23-1.259.339-.36.691-.54 1.05-.54.56 0 .84.661.84 1.979 0 2.441-.72 4.271-2.16 5.49-1.44 1.221-3.03 1.83-4.77 1.83s-3.21-.119-4.41-.359"/></g><path d="m239.4458 39.3887c0 3.316-2.689 6.004-6.006 6.004-3.314-.002-6.002-2.69-6.002-6.006s2.69-6.004 6.004-6.002c3.316 0 6.004 2.688 6.004 6.004m-93.998-29.1763c.52 0 .781.681.781 2.04s-.082 2.64-.24 3.84c-.361 2.32-.82 4.48-1.381 6.48-1.439 5.439-2.16 8.619-2.16 9.539v8.82c0 2.16-.82 3.641-2.459 4.442-.762.359-1.49.699-2.191 1.019-.7.321-1.491.481-2.37.481-1.679 0-2.519-1.93-2.519-5.791 0-3.86.9-8.731 2.699-14.61 1.801-5.88 3.68-10.36 5.641-13.441.398-.599.978-1.218 1.74-1.859.76-.64 1.58-.96 2.459-.96m26.1 21.6c.679 0 1.021.92 1.021 2.76 0 1-.42 2.211-1.26 3.631-.841 1.42-1.931 2.72-3.271 3.898-1.34 1.182-2.83 2.153-4.469 2.91-1.641.762-3.201 1.141-4.68 1.141-1.48 0-2.64-.279-3.48-.84-.84-.56-1.5-1.32-1.981-2.279-.679-1.36-1.24-3.951-1.679-7.772-.442-3.818-.881-6.488-1.321-8.009-1.041-.2-1.949-.609-2.73-1.23-.779-.62-1.17-1.38-1.17-2.28s.41-1.551 1.231-1.951c.818-.398 1.759-.6 2.82-.6 1.058 0 2.01.261 2.849.781 1.12-.92 2.03-2.01 2.731-3.271.699-1.26 1.049-2.959 1.049-5.099 0-2.139-.719-3.85-2.16-5.13-1.44-1.281-3.549-1.92-6.33-1.92-2.78 0-4.911.22-6.389.66-1.481.44-2.752.921-3.811 1.44-1.06.52-2 1-2.82 1.44s-1.59.66-2.309.66c-.72 0-1.08-.23-1.08-.69 0-.459.379-1.209 1.139-2.25.76-1.04 1.881-2.08 3.361-3.121 3.719-2.599 7.92-3.889 12.6-3.869s8.539.91 11.58 2.67c3.559 2.08 5.34 5.199 5.34 9.36.039 3.441-.861 6.3-2.701 8.58s-4.119 3.921-6.84 4.92c.601 1.32 1.09 2.739 1.471 4.259.378 1.521.75 2.922 1.109 4.201.361 1.281.769 2.34 1.23 3.18.459.84 1.02 1.26 1.68 1.26s1.461-.389 2.4-1.17c.94-.78 1.87-1.629 2.79-2.549.919-.922 1.75-1.772 2.49-2.551.74-.781 1.269-1.17 1.59-1.17" fill="#89d0e8"/><path d="m223.2095 31.8125c.68 0 1.02.92 1.02 2.76 0 1-.42 2.211-1.26 3.631s-1.93 2.72-3.27 3.898c-1.342 1.182-2.832 2.152-4.47 2.91-1.641.762-3.372 1.141-5.19 1.141-1.82 0-3.24-.59-4.26-1.77-1.021-1.179-1.531-2.5-1.531-3.961 0-1.459.24-3.109.721-4.949.48-1.84 1-3.76 1.56-5.76 1.52-5.319 2.299-9.06 2.34-11.22 0-.92-.121-1.63-.361-2.131-.24-.5-.699-.75-1.379-.75-1.201 0-2.481.721-3.84 2.161-1.361 1.44-2.641 3.28-3.84 5.519-2.762 5.121-4.22 10.121-4.381 15.001.08.561.161 1.12.241 1.68.08.561.119 1.16.119 1.799 0 1.281-.629 2.451-1.889 3.512-1.26 1.058-2.67 1.59-4.23 1.59-.92 0-1.6-.452-2.041-1.352-.442-.898-.661-2.01-.661-3.328 0-1.32.299-3.121.901-5.401.601-2.281 1.26-4.701 1.98-7.261 1.92-6.759 2.901-11.799 2.94-15.119 0-1.681-.209-3-.629-3.961-.42-.959-1.231-1.439-2.43-1.439-2.16 0-4.303 1.54-6.422 4.62-2.121 3.081-4.019 7.86-5.701 14.34-.439 1.68-.779 3.141-1.019 4.379l-.061 1.141c.76 3.681 1.141 6.08 1.141 7.201 0 2.32-.821 3.879-2.459 4.68-.762.359-1.493.699-2.192 1.019s-1.449.481-2.25.481c-2 0-3-1.911-3-5.731s1.061-11.289 3.182-22.411c.758-3.999 1.139-6.239 1.139-6.719 0-3.24-.821-4.86-2.459-4.86-.561 0-1.071.161-1.532.48-.459.32-.92.659-1.379 1.02-.461.36-.929.7-1.41 1.02-.48.32-1.031.48-1.65.48-.621 0-.93-.541-.93-1.621 0-2.199 1.02-3.999 3.061-5.399 1.959-1.441 4.34-2.16 7.138-2.16 3.6 0 5.721 1.68 6.362 5.04.158 1 .279 2.06.359 3.179 2.959-5.558 6.699-8.339 11.221-8.339 4.92 0 7.74 2.361 8.461 7.08.24 1.36.34 2.82.299 4.379v.48c2.599-3.6 5.679-5.399 9.24-5.399 5.041 0 7.56 3.04 7.56 9.12 0 2.64-.41 5.73-1.23 9.269-.82 3.541-1.42 6.082-1.799 7.621-.381 1.539-.57 2.73-.57 3.57 0 1.52.529 2.279 1.59 2.279 1.058 0 3.589-2.078 7.589-6.24.721-.799 1.241-1.199 1.561-1.199m-85.4551-7.9624c1.008 0 1.516.965 1.516 2.892 0 1.928-.434 3.998-1.307 6.211-.869 2.213-2.188 4.346-3.957 6.398-1.77 2.055-4.029 3.811-6.779 5.262-2.754 1.455-5.996 2.182-9.728 2.182-3.736 0-7.005-1.246-9.811-3.744-2.81-2.498-4.211-6.102-4.211-10.811 0-4.706.658-8.974 1.978-12.798 1.319-3.824 3.059-7.127 5.221-9.908 2.161-2.782 4.618-4.947 7.37-6.495 2.751-1.548 5.36-2.324 7.831-2.324 4.324 0 6.486 1.93 6.486 5.784 0 2.214-.406 3.982-1.22 5.31-.817 1.326-1.643 1.99-2.485 1.99-1.125 0-2.105-.441-2.947-1.328-.844-.883-1.77-1.342-2.781-1.373-1.012-.031-3.756-.107-6.09 3.643-1.631 2.621-1.38 2.355-2 4.125-1.234 3.541-1.958 6.259-1.958 10.999.056 2.275 2.091 5.756 3.888 6.895 1.235.757 2.707 1.394 4.38 1.183 3.608-.453 5.633-2.164 7.108-3.744 1.361-1.459 2.56-2.842 3.853-4.33 1.289-1.484 2.426-2.857 3.411-4.123.982-1.264 1.724-1.896 2.232-1.896" fill="#89d0e8"/></g></svg>