<svg fill="none" height="55" viewBox="0 0 52 55" width="52" xmlns="http://www.w3.org/2000/svg"><g fill="none"><path d="m0 0h52v54.9997h-52z" transform="matrix(-1 0 0 -1 52 55)"/><path d="m0 0h52v54.9997h-52z" transform="matrix(-1 0 0 -1 52 55)"/><path d="m0 0h52v54.9997h-52z" transform="matrix(-1 0 0 -1 52 55)"/><path d="m0 0h43.5175v47.2677h-43.5175z" transform="matrix(-1 0 0 -1 47.7188 47.2676)"/></g><path d="m47.7188 42.6817-21.7611-42.68183475-21.75649 42.68183475c5.44888 2.3222 16.22949 5.9637 29.51039 4.0482 4.8309-.7006 9.5436-2.0626 14.0072-4.0482z" fill="#fcce57"/><path d="m40.4005 34.4002c-.1318.0933-.2683.1797-.409.2588-.3794.2015-.7846.3493-1.2043.439-.1356.0301-.2757.0532-.4159.0717-.6308.0866-1.2725.042-1.8854-.1312s-1.1838-.4712-1.6773-.8755-.8991-.9063-1.1916-1.4749c-.2924-.5685-.4655-1.1914-.5085-1.83 0-.0578 0-.1156-.0115-.1733 0-.0578 0-.1156 0-.1756 0-.0185 0-.0347 0-.0532-.1941-.6178-.2593-1.2693-.1912-1.9136s.2678-1.2675.5868-1.8305c.3189-.563.7501-1.0536 1.2666-1.4412.5164-.3875 1.1069-.6635 1.7345-.8108l-11.4907-22.55165-4.1964 8.23045c1.1653-.32993 2.4124-.19244 3.4789.3835 1.0665.576 1.8692 1.5455 2.239 2.7045.3699 1.159.2781 2.4171-.256 3.5094s-1.4689 1.9337-2.6076 2.347c-.5317.3516-1.1293.5902-1.756.7012-.6267.1109-1.2694.0919-1.8886-.0559-.6191-.1477-1.2017-.4212-1.712-.8036-.5102-.3823-.9374-.8655-1.2552-1.4198l-11.49065 22.5332c4.40999-.9837 8.94195-1.2952 13.44415-.9243-1.181-.2137-2.2344-.8775-2.9404-1.8531-.706-.9755-1.0101-2.1875-.8489-3.383.1612-1.1956.7752-2.2824 1.7141-3.0338.9388-.7514 2.1299-1.1093 3.3249-.9992 1.1949.1102 2.3014.6799 3.0887 1.5905.7873.9105 1.1945 2.0914 1.1368 3.2965-.0578 1.2051-.576 2.3413-1.4467 3.1715s-2.0265 1.2904-3.2265 1.2846h-.0689c.5102.0531.9997.1155 1.4639.1825 5.9751.8549 9.4453 2.7104 16.0686 2.5417 2.5658-.0648 5.1168-.4135 7.6068-1.0398l-3.6747-7.1722c-.2395.263-.5078.4979-.7998.7001z" fill="#ffe07a"/><path d="m21.7461 10.4954c.6984.0983 1.3656.3544 1.9514.7493.5857.3948 1.0748.918 1.4305 1.5303.3557.6122.5687 1.2976.623 2.0046.0543.7069-.0515 1.417-.3095 2.0769-.0577.1489-.1229.2946-.1953.4368-.3729.7269-.9273 1.344-1.6087 1.7907 1.1386-.4133 2.0734-1.2547 2.6076-2.347.5341-1.0923.6259-2.3504.256-3.5094-.3698-1.159-1.1725-2.1285-2.239-2.7045-1.0665-.57597-2.3136-.71346-3.4789-.3835l-.1678.3281c.1517-.0139.3034-.0231.4596-.0231.2246.0007.4489.0177.6711.0508z" fill="#fcce57"/><path d="m32.8784 29.0349c.0001.4813.0738.9598.2183 1.4187 0 0 0-.0139 0-.0208.0104-.7017.1773-1.3921.4883-2.0203.3111-.6283.7583-1.1783 1.3089-1.6097.604-.4773 1.316-.7969 2.0727-.9303.7566-.1335 1.5344-.0766 2.2639.1655l-.8297-1.6174c-.6736-.1227-1.3657-.0953-2.0277.0802-.6619.1754-1.2775.4947-1.8034.9354-.5259.4406-.9493.9918-1.2403 1.6148s-.4426 1.3025-.4441 1.9908z" fill="#fcce57"/><path d="m21.0861 19.853c.861-.001 1.7051-.2407 2.4394-.6928.7342-.4521 1.3303-1.099 1.7225-1.8697-.2088.0073-.4176-.0145-.6205-.0647-.3147-.0858-.6114-.2283-.8755-.4205-.2413-.1617-.3448-.231-.4597-.1825-.2298.0739-.2918.4991-.3654.9496-.1011.6124-.2298 1.3725-.8365 1.7238-.2459.1295-.5203.1946-.7978.1894-.2776-.0053-.5493-.0808-.7902-.2195-.5148-.3027-.6136-.7994-.7193-1.3286-.0749-.576-.3028-1.1212-.6596-1.5781-.3307-.3151-.6962-.5911-1.0893-.8226l-1.002 1.964c.4105.7158 1.0013 1.3101 1.7131 1.723.7117.413 1.5191.63 2.3408.6292z" fill="#ff8c76"/><path d="m19.4487 16.0939c.4018.5097.6597 1.1186.7469 1.763.0989.4898.1678.8434.5217 1.049.1784.1.3784.1548.5826.1597.2042.0048.4066-.0405.5895-.132.4389-.2541.5377-.8526.6342-1.4302.0966-.5777.1862-1.123.6435-1.2755.3126-.104.5585.0578.8159.2311.225.1659.4781.2896.7469.365.2333.0554.475.0664.7124.0324.258-.6599.3638-1.37.3095-2.077-.0543-.7069-.2673-1.3923-.623-2.0046-.3557-.6122-.8448-1.1354-1.4306-1.5303-.5857-.3948-1.2529-.651-1.9513-.7493.0356.2142.1241.416.2574.5869.3024.456.5132.967.6205 1.5043.0781.4066.1861.9635-.1356 1.4325-.1558.1992-.3559.3588-.5842.466-.2283.1071-.4785.1588-.7304.151-.6572 0-1.0732-.4298-1.5535-.9243-.1356-.1363-.2781-.2796-.4366-.4251l-.9561 1.8716c.6642.4482 1.025.7001 1.2203.9358z" fill="#ff8c76"/><path d="m25.2461 17.2905c.0724-.1421.1376-.2879.1953-.4367-.0577.1488-.1229.2946-.1953.4367z" fill="#ff5630"/><path d="m19.9143 13.4225c.4596.4621.7791.7833 1.2686.7925.1834.0067.3659-.0293.5333-.105s.3152-.1892.4319-.3317c.2068-.3003.1563-.6677.0689-1.116-.0975-.4874-.2896-.9506-.5653-1.3633-.189-.243-.3004-.5378-.3195-.8457.1402 0 .2781.0208.416.0393-.2191-.0334-.4403-.0511-.6619-.0531-.1539 0-.3079 0-.4596.0231l-1.2456 2.4423.0184.0162c.1999.1756.3654.3489.5148.5014z" fill="#ff8c76"/><path d="m21.1746 14.633c.2518.0079.502-.0439.7303-.151.2284-.1072.4285-.2668.5842-.4659.3217-.4622.2137-1.0259.1356-1.4326-.1073-.5373-.3181-1.0483-.6205-1.5042-.1333-.1709-.2218-.3727-.2574-.5869-.1356-.0185-.2758-.0324-.416-.0393.0191.3079.1305.6027.3195.8457.2757.4126.4678.8759.5653 1.3632.0874.4483.1356.8157-.0689 1.1161-.1167.1424-.2645.2559-.4319.3316-.1674.0758-.3499.1117-.5333.1051-.4895 0-.7998-.3212-1.2686-.7926-.1517-.1525-.3217-.3258-.5148-.4991l-.0184-.0161-.1953.3858c.1563.1456.2987.2889.4366.4252.4803.4829.8963.9035 1.5536.915z" fill="#ff7452"/><path d="m19.1372 16.3613c.3568.457.5846 1.0021.6595 1.5782.1057.5268.2046 1.0259.7193 1.3286.2409.1387.5127.2141.7902.2194.2776.0052.552-.0599.7978-.1894.6091-.3512.7355-1.1137.8366-1.7237.0735-.4506.1448-.8758.3654-.9497.1126-.037.2137.0208.4596.1825.2642.1923.5608.3348.8756.4206.2029.0502.4117.0719.6205.0647.0724-.1422.1376-.2879.1953-.4367-.2374.034-.479.023-.7124-.0324-.2688-.0754-.5218-.1991-.7469-.3651-.2574-.1709-.5033-.335-.8158-.231-.4597.1548-.5493.6932-.6435 1.2754-.0942.5823-.1953 1.1762-.6343 1.4303-.1829.0915-.3852.1368-.5894.1319-.2042-.0048-.4042-.0596-.5826-.1596-.354-.208-.4252-.5615-.5217-1.049-.0872-.6444-.3452-1.2534-.7469-1.763-.1954-.2311-.5562-.4876-1.218-.9243l-.1908.3743c.3905.2306.7536.505 1.0825.818z" fill="#ff7452"/><path d="m21.187 39.3613c-.4597-.067-.9515-.127-1.4639-.1825h.0689c1.2134.007 2.3825-.4573 3.2635-1.2962s1.4057-1.9875 1.4647-3.206c.0589-1.2185-.3525-2.4128-1.1483-3.3337-.7959-.9209-1.9147-1.4972-3.123-1.6086s-2.4127.2507-3.3619 1.0108c-.9491.76-1.5697 1.8592-1.7321 3.0682-.1624 1.2089.1458 2.4343.8604 3.4203.7146.9859 1.7803 1.6563 2.9747 1.8713-4.5022-.371-9.03417-.0594-13.44416.9242l-1.34441 2.6526c5.44888 2.3222 16.22947 5.9637 29.51037 4.0482 4.8348-.6996 9.5515-2.0616 14.0187-4.0482l-1.1629-2.2806c-.5171.1571-1.0847.3143-1.696.4621-2.49.6263-5.041.975-7.6069 1.0398-6.6347.1687-10.098-1.6867-16.0777-2.5417z" fill="#fcce57"/><path d="m33.0993 30.6827c0 .0577 0 .1155.0115.1733.6018-.1581 1.2176-.2564 1.8385-.2935.2482-.0139.4758-.0162.6895-.0162.6894 0 1.2686 0 1.7397-.4621.1832-.1738.3229-.3888.4076-.6274s.112-.4939.0796-.7451c-.1057-.5592-.5746-.8734-.9193-1.1022-.4556-.3006-.9655-.5087-1.5007-.6123-.193-.0291-.3791-.0933-.5492-.1895-.1103.0863-.216.178-.3172.275.2265.1722.4932.2828.7745.3212.4845.0935.946.2819 1.3582.5545.3792.2542.6734.476.74.8342.02.1836-.0028.3695-.0666.5427-.0639.1733-.1669.3292-.3011.4555-.3493.3442-.7883.3466-1.4524.3489-.2137 0-.4596 0-.717.0184-.6141.0386-1.2234.1337-1.8202.2843v.0207.0532c-.0023.0508 0 .1086.0046.1664z" fill="#ff7452"/><path d="m38.7871 35.0978c-.1356.03-.2758.0531-.416.0716.1402-.0185.2804-.0485.416-.0716z" fill="#ff5630"/><path d="m39.9913 34.6597c.1405-.0762.2771-.1594.4091-.2496-.132.0902-.2686.1734-.4091.2496z" fill="#ff5630"/><path d="m39.7165 30.9275c-.1585.3813-.0367.6932.1632 1.1784.2183.5023.3727 1.0302.4596 1.5713.0355.2396.057.4811.0644.7232.8665-.5984 1.5127-1.4674 1.8385-2.4724l-1.0755-2.1073c-.211.1431-.4296.2742-.655.3928-.3907.2172-.6504.3605-.7952.714z" fill="#ff8c76"/><path d="m34.8944 26.8032c.1702.0962.3563.1604.5493.1895.5352.1036 1.045.3116 1.5007.6123.3424.2311.8112.5453.9192 1.1022.0324.2512.0051.5065-.0796.7451-.0846.2386-.2243.4536-.4076.6274-.4596.4621-1.0594.4621-1.7397.4621-.2298 0-.4458 0-.6894.0162-.6209.0371-1.2367.1353-1.8385.2934.0429.6387.216 1.2616.5085 1.8301.2924.5685.698 1.0706 1.1915 1.4749s1.0645.7023 1.6773.8755c.6129.1732 1.2547.2178 1.8854.1312-.3056-.8064-.7538-1.6036-1.5489-1.9202-.4838-.1654-.9961-.2291-1.5053-.1871-.4381.0209-.8701.1113-1.2801.268-.0858-.1155-.167-.2349-.2436-.3581l.0988-.0347c.4499-.1711.9238-.2701 1.4042-.2935.568-.0461 1.1393.0271 1.6776.2149.963.3928 1.4686 1.3448 1.8133 2.246.4196-.0898.8249-.2376 1.2042-.4391.0024-.3092-.0191-.6183-.0644-.9242-.0819-.5087-.2278-1.0048-.4343-1.4765-.2137-.5337-.3838-.9543-.1609-1.495.2023-.4898.5631-.6932.979-.9242.2278-.1171.4481-.2483.6596-.3928l-1.7374-3.4059c-.7296-.2428-1.5077-.3003-2.2648-.1672-.7571.133-1.4696.4524-2.0741.9297z" fill="#ff8c76"/><path d="m34.9148 30.1513c.2597-.0138.501-.0161.717-.0184.6642 0 1.1008 0 1.4525-.3489.1341-.1263.2372-.2822.301-.4555s.0867-.3591.0667-.5427c-.0667-.3582-.3631-.58-.74-.8342-.4138-.2723-.8769-.46-1.3628-.5522-.2813-.0384-.5481-.149-.7745-.3212.1026-.0955.2084-.1872.3171-.275-.5508.4316-.9983.9821-1.3093 1.6107-.3111.6287-.4778 1.3196-.4878 2.0216.5968-.1505 1.206-.2456 1.8201-.2842z" fill="#ff8c76"/><path d="m38.3711 35.1694c.1402-.0185.2781-.0416.416-.0716-.3332-.8988-.8503-1.8485-1.8109-2.2367-.5384-.1878-1.1097-.261-1.6777-.2149-.4804.0234-.9542.1224-1.4041.2935l-.0988.0346c.075.1233.1562.2427.2436.3582.4099-.1567.8419-.2471 1.28-.268.5121-.044 1.0277.0189 1.5145.1848.7951.3166 1.2433 1.1137 1.5489 1.9201z" fill="#ff7452"/><path d="m39.3331 30.7676c-.2298.5407-.0528.9612.1609 1.495.2061.4702.352.9647.4344 1.4718.0452.306.0667.615.0643.9243.1405-.0761.277-.1594.4091-.2496-.0074-.2421-.0289-.4836-.0644-.7232-.0869-.5411-.2413-1.069-.4596-1.5712-.1999-.4968-.3194-.7972-.1632-1.1784.1563-.3813.4068-.506.7975-.7232.2231-.1197.4394-.2516.6481-.3952l-.1908-.3743c-.2105.1484-.43.2835-.6573.4044-.4159.231-.7767.4205-.979.9196z" fill="#ff7452"/><path d="m0 0h9.35802v9.40886h-9.35802z" fill="none" transform="matrix(-1 0 0 -1 23.6426 39.7886)"/><path d="m18.9636 30.3797c-2.5842 0-4.679 2.1063-4.679 4.7044 0 2.5982 2.0948 4.7045 4.679 4.7045 2.5841 0 4.679-2.1063 4.679-4.7045 0-2.5981-2.0949-4.7044-4.679-4.7044z" fill="#ff8c76"/><path d="m15.6901 34.5043c.3854.3354.6982.7467.9192 1.2085.4229.9982-.0873 2.1442-.563 3.0546.1103.0878.2298.171.3378.2472.5033-.9565 1.11-2.2759.6067-3.4659-.2441-.5163-.5914-.9764-1.0203-1.3517-.3543-.3278-.7575-.5976-1.1951-.7995l-.1493-.0762c-.0529.1294-.0989.2611-.1402.3951l.1057.0531c.4026.1849.7734.4329 1.0985.7348z" fill="#ff7452"/><path d="m20.1382 35.7644c-.5401.2195-.7194.6377-.9446 1.1553-.3913 1.0106-1.056 1.891-1.9189 2.5417.1504.0596.3038.1113.4596.1548.3879-.3243.7373-.6926 1.0411-1.0975.3216-.4423.5864-.9237.7882-1.4326.2115-.4922.3379-.7903.7193-.9451.3815-.1548.6366-.06 1.0641.0694.4462.1477.9098.2355 1.3789.2611.235.0084.4703-.0039.7032-.037.0437-.1433.0804-.2888.108-.439-.2621.0489-.5288.0683-.7951.0577-.4307-.023-.8565-.103-1.2663-.238-.4574-.1317-.8503-.2495-1.3375-.0508z" fill="#ff7452"/><path d="m17.1946 32.4779c.1838.1663.3447.3281.4987.4852.4803.4852.8963.9035 1.5535.9242.2517.0082.5017-.0432.7301-.1499.2283-.1068.4285-.2659.5845-.4647.3217-.4621.2137-1.0259.1356-1.4326-.0861-.4511-.2502-.8836-.4849-1.2777-.1821-.0506-.3671-.0899-.5539-.1179l.0666.1086c.2742.4107.4655.8716.5631 1.3564.0873.4482.1356.8156-.069 1.116-.1162.143-.2639.2568-.4314.3326s-.3502.1114-.5338.1041c-.4895 0-.7997-.3212-1.2685-.7926-.1517-.1525-.3218-.3257-.5148-.499-.3771-.3379-.7789-.6468-1.202-.9243-.1195.0847-.2344.1748-.3447.2703.4494.2846.8744.6061 1.2709.9613z" fill="#ff7452"/><path d="m0 0h52v14.5471h-52z" fill="none" transform="matrix(-1 0 0 -1 52 55)"/><path d="m47.3021 41.7274 4.5457 8.9144c.0913.1797.1429.3772.151.5788.0082.2017-.0271.4027-.1035.5893-.0765.1867-.1922.3544-.3392.4918s-.3219.2411-.5126.3041c-3.1513 1.0643-6.4902 1.4493-9.7993 1.1299-1.685-.1674-3.3466-.5208-4.9548-1.0536-11.5567 3.1415-23.7424 3.0888-35.2718-.1525-.19925-.0544-.383806-.1531-.54005-.2888-.156245-.1357-.280188-.3049-.362686-.4952-.0824974-.1903-.12144176-.3968-.11395957-.6042.00748219-.2075.06120057-.4106.15719057-.5944l4.502055-8.8196c7.07365-1.6452 12.66275-1.4187 16.56035-.8619 6.0005.8596 9.4844 2.7243 16.1422 2.5625 3.3767-.089 6.7235-.6617 9.9394-1.7006z" fill="#f9a948"/><g opacity=".3"><path d="m0 0h50.5453v12.3965h-50.5453z" fill="none" transform="matrix(-1 0 0 -1 50.5547 54.9971)"/><path d="m1.01832 52.5231c11.52878 3.2436 23.71448 3.2987 35.27178.1594 1.6082.5329 3.2698.8862 4.9548 1.0537 3.1368.304 6.3023-.0268 9.3098-.9728l-2.2062-4.3278c-.649-1.2731-1.6862-2.304-2.9598-2.9418-1.2737-.6377-2.7169-.8489-4.1185-.6027-1.739.3118-3.4991.4902-5.265.5338-6.6646.1617-10.1394-1.703-16.1513-2.5625-.2819-.0401-.573-.0786-.8733-.1155-3.5773-.4287-7.204.0886-10.52147 1.5009-3.3175 1.4122-6.21102 3.6705-8.3945397 6.5516-.0510973.1761-.06691378.3607-.0465302.543.0203836.1824.076563.3588.1652769.5191.088714.1604.208199.3014.351531.415.143331.1135.307654.1974.483452.2466z" fill="#fcfcfc" opacity=".3"/></g><path d="m29.2718 17.5909c0-.4694.1384-.9282.3978-1.3184.2593-.3903.6279-.6944 1.0592-.874s.9058-.2266 1.3636-.1351c.4579.0916.8784.3176 1.2085.6495s.5549.7547.6459 1.215c.0911.4603.0444.9375-.1343 1.3711-.1786.4336-.4811.8042-.8693 1.0649-.3881.2608-.8444.4-1.3112.4-.626 0-1.2263-.25-1.6689-.6951-.4426-.445-.6913-1.0486-.6913-1.6779zm1.1767 0c-.001.2355.0677.466.1972.6623s.314.3496.5302.4403c.2162.0908.4543.115.6842.0696.2299-.0453.4412-.1583.6071-.3245.166-.1663.2792-.3783.3253-.6093.046-.2309.0228-.4704-.0666-.6881-.0895-.2177-.2412-.4039-.4359-.5348-.1947-.131-.4237-.2009-.658-.2009-.3131 0-.6134.1247-.8353.3469-.2218.2222-.347.5237-.3482.8385z" fill="#253858"/><path d="m28.5413 17.9859c0-.4694.1385-.9282.3978-1.3184s.628-.6944 1.0592-.874c.4313-.1796.9058-.2266 1.3637-.135.4578.0915.8784.3175 1.2084.6494.3301.3319.5549.7547.646 1.215.091.4603.0443.9375-.1343 1.3711-.1787.4336-.4812.8042-.8693 1.065-.3882.2607-.8445.3999-1.3113.3999-.6259 0-1.2263-.25-1.6689-.6951-.4426-.445-.6913-1.0486-.6913-1.6779zm1.1767 0c0 .2353.0694.4654.1995.6611.13.1957.3148.3482.5311.4383.2163.09.4542.1136.6838.0677s.4405-.1593.606-.3257.2783-.3784.3239-.6093c.0457-.2308.0223-.4701-.0673-.6875s-.2413-.4033-.4359-.534c-.1947-.1308-.4235-.2006-.6576-.2006-.156-.0009-.3106.0292-.455.0886s-.2757.1469-.3863.2575c-.1107.1106-.1985.2421-.2584.3869s-.0907.3001-.0907.457z" fill="#505f79"/><path d="m8.83626 37.4576c0-.4694.13842-.9282.39777-1.3184.25934-.3903.62795-.6944 1.05917-.874.4313-.1796.9059-.2266 1.3637-.1351.4578.0916.8784.3176 1.2085.6495.33.3319.5548.7547.6459 1.215s.0443.9375-.1343 1.3711c-.1787.4336-.4812.8042-.8693 1.0649-.3881.2608-.8444.4-1.3112.4-.626 0-1.22633-.25-1.66895-.6951-.44263-.445-.69129-1.0486-.69129-1.6779zm1.17664 0c-.0018.2357.066.4667.195.6636.1289.1969.3131.3508.5292.4423s.4544.1164.6846.0715c.2301-.0448.4419-.1574.6083-.3235.1665-.166.2801-.378.3265-.6091s.0236-.4708-.0657-.6888-.241-.4044-.4359-.5356c-.1948-.1311-.424-.2012-.6584-.2012-.312.0006-.611.125-.8322.3461s-.3467.5211-.3491.8347z" fill="#253858"/><path d="m8.10775 37.8526c0-.4694.13842-.9282.39776-1.3184s.62795-.6944 1.05922-.874.90587-.2266 1.36367-.135c.4578.0915.8784.3175 1.2084.6494.3301.3319.5549.7547.646 1.215.091.4603.0443.9375-.1343 1.3711-.1787.4336-.4812.8042-.8693 1.065-.3881.2607-.8445.3999-1.3113.3999-.62592 0-1.22625-.25-1.66887-.6951-.44262-.445-.69128-1.0486-.69128-1.6779zm1.17664 0c0 .2353.06942.4654.19947.6611s.31489.3482.53114.4383c.2163.09.4542.1136.6838.0677s.4405-.1593.606-.3257.2783-.3784.3239-.6093c.0457-.2308.0223-.4701-.0673-.6875s-.2413-.4033-.4359-.534c-.1947-.1308-.4235-.2006-.6576-.2006-.3139 0-.6149.1254-.83685.3485-.22196.2232-.34666.5259-.34666.8415z" fill="#505f79"/><path d="m25.0488 22.5056 1.6524.1456c-.0554.6582-.3051 1.2847-.717 1.7993s-.9673.8938-1.595 1.0889c-.434.1247-.8891.1571-1.3362.095s-.8765-.2172-1.2607-.4554c-.2975.6195-.7892 1.1237-1.3995 1.4349-1.5559.7671-3.569.03-4.4883-1.6429l1.4524-.8041c.5378.982 1.6271 1.2847 2.2982.9497.5102-.2519.8457-.8642.8549-1.5643l1.5489-.402c.1584.312.4149.5627.7295.7131.3147.1504.67.1921 1.0107.1186.3406-.0735.6476-.2581.8732-.5251s.3571-.6014.3742-.9513z" fill="#fff0b2"/><path d="m32.5917 35.1055 1.6271.3189c-.2137 1.1021.4297 2.0356 1.1629 2.2159.5515.1363 1.1996-.1179 1.6523-.6493l1.4455.6932c-.0758.3407-.038.6971.1077 1.014.1457.317.3911.5769.6984.7396.3072.1628.6592.2193 1.0016.1608.3423-.0584.6561-.2286.8927-.4842l1.1697 1.1738c-.4618.4682-1.052.7873-1.6951.9165-.6431.1293-1.3099.0628-1.9153-.1909-.4127-.1844-.7826-.4532-1.0861-.7894s-.5339-.7323-.6765-1.1631c-.6211.2817-1.3168.3515-1.981.1987-1.6915-.4159-2.7578-2.2898-2.4039-4.1545z" fill="#fff0b2"/></svg>