<svg height="82" viewBox="0 0 457 82" width="457" xmlns="http://www.w3.org/2000/svg"><g fill="none" fill-rule="evenodd"><path d="m315.566 60.535h41.241v-9.164h-27.225c3.684-15.005 26.686-18.24 26.686-35.041 0-8.985-6.2-15.544-18.959-15.544-8.086 0-14.914 2.426-19.766 4.762l2.875 8.356c4.313-2.067 9.254-4.043 15.274-4.043 4.762 0 9.165 2.066 9.165 7.547 0 12.489-26.865 13.387-29.291 43.127zm42.497-14.465h26.416v14.465h10.602v-14.465h8.805v-8.806h-8.805v-36.388h-7.727l-29.291 38.006zm11.95-8.626 15.005-20.216c-.09 1.707-.539 6.829-.539 11.591v8.445h-7.008c-2.157 0-6.11.18-7.458.18z" fill="#1a5785"/><path d="m11.432 51.64v-18.598h4.493c3.953 0 7.278.449 9.614 1.796 2.425 1.348 3.773 3.864 3.773 7.548 0 6.289-3.863 9.254-12.668 9.254zm-10.871 8.895h15.813c17.52 0 23.9-7.727 23.9-18.419 0-7.278-3.055-12.129-8.356-14.915-4.223-2.246-9.704-2.965-16.173-2.965h-4.313v-14.106h23.72l2.876-8.805h-37.467zm46.899 0h10.423l13.297-19.138c2.516-3.594 4.493-6.918 5.661-8.895h.179c-.179 2.516-.359 5.751-.359 9.165v18.868h10.512v-42.498h-10.422l-13.298 19.138c-2.426 3.593-4.492 6.918-5.66 8.895h-.18c.18-2.516.36-5.751.36-9.165v-18.868h-10.513zm57.773 0h10.692v-33.603h12.579l2.785-8.895h-38.994v8.895h12.938zm29.919 21.294h10.692v-21.384c2.066.629 4.313.989 6.559.989 13.297 0 22.103-9.255 22.103-22.283 0-13.567-7.997-22.192-23.271-22.192-5.84 0-11.411 1.078-16.083 2.695zm10.692-30.369v-24.977c1.617-.45 3.144-.719 5.031-.719 7.637 0 12.669 4.313 12.669 13.387 0 8.176-4.043 13.388-11.95 13.388-2.246 0-3.863-.36-5.75-1.079zm34.951 9.075h10.422l13.298-19.138c2.516-3.594 4.492-6.918 5.66-8.895h.18c-.18 2.516-.359 5.751-.359 9.165v18.868h10.512v-42.498h-10.423l-13.297 19.138c-2.426 3.593-4.493 6.918-5.661 8.895h-.179c.179-2.516.359-5.751.359-9.165v-18.868h-10.512zm48.069 0h10.692v-17.61h6.379c1.258 0 2.426 1.168 3.684 4.043l5.391 13.567h11.59l-7.727-16.262c-1.348-2.786-2.785-4.403-4.942-5.212v-.179c3.594-2.157 3.954-8.266 6.11-11.231.719-.899 1.707-1.348 2.965-1.348.809 0 1.707.09 2.426.359v-9.074c-1.258-.45-3.235-.629-4.403-.629-3.683 0-6.109 1.437-7.816 3.773-3.505 5.122-3.415 14.017-8.716 14.017h-4.941v-16.712h-10.692zm61.724.899c5.841 0 11.142-1.797 14.556-4.133l-3.145-7.368c-2.965 1.617-5.93 2.875-9.883 2.875-7.278 0-12.04-4.762-12.04-13.477 0-7.817 4.672-13.747 12.579-13.747 4.133 0 7.368 1.168 10.333 3.324v-9.074c-2.247-1.438-6.11-2.875-11.411-2.875-12.669 0-22.462 9.434-22.462 22.641 0 12.31 7.637 21.834 21.473 21.834z" fill="#00b7e0"/><g fill="#1a5785"><path d="m435.392 46.754c-11.602482 0-21.04-9.4378492-21.04-21.041 0-11.6023164 9.437684-21.04 21.04-21.04 11.602982 0 21.04 9.4373491 21.04 21.04 0 11.6034853-9.436852 21.041-21.04 21.041zm0-2.728c10.096472 0 18.312-8.2161046 18.312-18.313 0-10.0960395-8.215672-18.312-18.312-18.312-10.095684 0-18.312 8.2163164-18.312 18.312 0 10.0965395 8.216172 18.313 18.312 18.313z" fill-rule="nonzero"/><path d="m447.373 25.695h-10.511v-10.511h-2.83v13.341h13.341z"/></g></g></svg>