<?xml version="1.0" encoding="utf-8"?><svg xmlns="http://www.w3.org/2000/svg" xmlns:xlink="http://www.w3.org/1999/xlink"><symbol viewBox="0 0 14 13" id="arrow-back" xmlns="http://www.w3.org/2000/svg"><path d="M.26 7.005C.064 6.87 0 6.668 0 6.466c0-.067 0-.202.065-.27V6.13l.065-.068v-.067h.064s-.019-.05 0-.068c.02-.018.065 0 .065 0L5.704.202c.324-.27.777-.27 1.037 0 .324.337.324.808 0 1.078L2.528 5.725h10.759c.389 0 .713.337.713.741 0 .404-.324.809-.713.809H2.527l4.279 4.445c.324.27.324.741 0 1.078-.26.27-.778.27-1.037 0z"/></symbol><symbol viewBox="0 0 55 10" id="arrow-left" xmlns="http://www.w3.org/2000/svg"><path d="M3.436 5.625l2.72 2.72a.75.75 0 0 1-1.061 1.06l-4-4a.75.75 0 0 1 0-1.06l4-4a.75.75 0 0 1 1.06 1.06l-2.72 2.72h50.19c.552 0 1 .336 1 .75s-.448.75-1 .75z"/></symbol><symbol viewBox="0 0 10 6" id="caret" xmlns="http://www.w3.org/2000/svg"><path d="M5 3.94L8.47.47a.75.75 0 0 1 1.06 1.06l-4 4a.75.75 0 0 1-1.06 0l-4-4A.75.75 0 0 1 1.53.47z"/></symbol><symbol viewBox="0 0 16 16" id="phone" xmlns="http://www.w3.org/2000/svg"><path d="M15.111 11.111c-1.067 0-2.133-.178-3.2-.533-.267-.09-.622 0-.889.178L9.067 12.71C6.577 11.467 4.533 9.333 3.2 6.844L5.156 4.89c.266-.267.355-.622.177-.889-.266-.978-.444-2.044-.444-3.111C4.889.356 4.533 0 4 0H.889C.356 0 0 .356 0 .889 0 9.244 6.756 16 15.111 16c.533 0 .889-.356.889-.889V12c0-.533-.356-.889-.889-.889z"/></symbol></svg>