<?xml version="1.0" encoding="utf-8"?><svg xmlns="http://www.w3.org/2000/svg" xmlns:xlink="http://www.w3.org/1999/xlink"><symbol viewBox="0 0 55 10" id="arrow-left" xmlns="http://www.w3.org/2000/svg"><path d="M3.436 5.625l2.72 2.72a.75.75 0 0 1-1.061 1.06l-4-4a.75.75 0 0 1 0-1.06l4-4a.75.75 0 0 1 1.06 1.06l-2.72 2.72h50.19c.552 0 1 .336 1 .75s-.448.75-1 .75H3.435z"/></symbol><symbol viewBox="0 0 10 6" id="caret" xmlns="http://www.w3.org/2000/svg"><path d="M5 3.94L8.47.47a.75.75 0 0 1 1.06 1.06l-4 4a.75.75 0 0 1-1.06 0l-4-4A.75.75 0 1 1 1.53.47L5 3.94z"/></symbol></svg>